<svg width="64" height="64" viewBox="0 0 64 64" fill="none" xmlns="http://www.w3.org/2000/svg">
<path d="M48.9705 15.0294C58.3431 24.402 58.3431 39.598 48.9705 48.9705C39.5979 58.3431 24.402 58.3431 15.0294 48.9705C5.65685 39.5979 5.65685 24.402 15.0294 15.0294C24.402 5.65685 39.598 5.65685 48.9705 15.0294" stroke="#202120" stroke-width="2.5" stroke-linecap="round" stroke-linejoin="round"/>
<path fill-rule="evenodd" clip-rule="evenodd" d="M31.9879 19.3215C31.9899 19.3196 31.9911 19.3187 31.9915 19.3185L31.9928 19.3178C31.9939 19.3173 31.9963 19.3167 31.9997 19.3167C32.0031 19.3167 32.0055 19.3173 32.0066 19.3178L32.0079 19.3185C32.0083 19.3187 32.0095 19.3196 32.0115 19.3215C32.0134 19.3235 32.0143 19.3247 32.0145 19.3251L32.0152 19.3264C32.0157 19.3275 32.0164 19.3299 32.0164 19.3333C32.0164 19.3367 32.0157 19.3391 32.0152 19.3402L32.0145 19.3415C32.0144 19.3418 32.0141 19.3422 32.0135 19.3429C32.013 19.3435 32.0124 19.3442 32.0115 19.3451C32.0095 19.3471 32.0083 19.3479 32.0079 19.3482L32.0066 19.3489C32.0055 19.3493 32.0031 19.35 31.9997 19.35C31.9963 19.35 31.9939 19.3493 31.9928 19.3489L31.9915 19.3482C31.9913 19.348 31.9909 19.3478 31.9903 19.3473C31.9897 19.3468 31.9889 19.3461 31.9879 19.3451C31.9859 19.3431 31.9851 19.3419 31.9848 19.3415L31.9841 19.3402C31.9837 19.3391 31.983 19.3367 31.983 19.3333C31.983 19.3299 31.9837 19.3275 31.9841 19.3264L31.9848 19.3251C31.985 19.3249 31.9853 19.3245 31.9858 19.3238C31.9863 19.3232 31.987 19.3225 31.9879 19.3215ZM33.7792 17.5538C32.7964 16.5709 31.203 16.5709 30.2201 17.5538C29.2373 18.5366 29.2373 20.13 30.2201 21.1129C31.203 22.0957 32.7964 22.0957 33.7792 21.1129C34.7621 20.13 34.7621 18.5366 33.7792 17.5538ZM18.816 25.2436C19.0335 24.5884 19.741 24.2336 20.3961 24.4511C22.672 25.2066 25.4981 25.699 28.4978 25.9137C28.5226 25.9147 28.5471 25.9164 28.5715 25.9189C29.6968 25.9976 30.846 26.0374 31.9993 26.0374C33.1543 26.0374 34.3051 25.9975 35.4318 25.9185C35.4539 25.9164 35.4761 25.9148 35.4985 25.9138C38.4987 25.6992 41.3249 25.2068 43.6003 24.4511C44.2555 24.2335 44.963 24.5882 45.1806 25.2434C45.3982 25.8986 45.0435 26.6061 44.3883 26.8237C42.1762 27.5584 39.5573 28.0517 36.8048 28.3136C36.8062 31.9468 36.8209 34.6301 36.9749 36.9183C36.9797 36.9589 36.9826 37.0001 36.9834 37.0418C37.1845 39.9173 37.6121 42.1771 38.5209 44.9431C38.7364 45.5989 38.3794 46.3053 37.7235 46.5208C37.0677 46.7363 36.3613 46.3793 36.1458 45.7234C35.282 43.0945 34.8235 40.8633 34.5801 38.3167H29.4198C29.1764 40.8633 28.7178 43.0945 27.854 45.7234C27.6385 46.3793 26.9322 46.7363 26.2763 46.5208C25.6205 46.3053 25.2635 45.5989 25.479 44.9431C26.3894 42.1721 26.8169 39.9092 27.0176 37.0264C27.0186 36.9951 27.0207 36.9642 27.0239 36.9336C27.1789 34.6421 27.1937 31.955 27.195 28.3137C24.4417 28.0519 21.8217 27.5585 19.6084 26.8237C18.9532 26.6062 18.5984 25.8987 18.816 25.2436ZM29.5907 35.8167C29.6842 33.7557 29.694 31.4059 29.6951 28.4868C30.4612 28.5206 31.2311 28.5374 31.9993 28.5374C32.7679 28.5374 33.5383 28.5206 34.3048 28.4867C34.3058 31.4059 34.3157 33.7557 34.4092 35.8167H29.5907Z" fill="#FF4612"/>
</svg>
