<svg width="64" height="64" viewBox="0 0 64 64" fill="none" xmlns="http://www.w3.org/2000/svg">
<path d="M59.4012 18.8285C59.2856 18.8285 59.17 18.7975 59.0689 18.7355C56.295 17.201 53.8967 16.55 51.0217 16.55C48.1611 16.55 45.445 17.2785 42.9745 18.7355C42.6277 18.937 42.1943 18.7975 41.992 18.4255C41.8042 18.0535 41.9343 17.573 42.281 17.3715C44.9682 15.806 47.9155 15 51.0217 15C54.099 15 56.7862 15.7285 59.7335 17.356C60.0946 17.5575 60.2247 18.0225 60.0368 18.3945C59.9068 18.6735 59.6612 18.8285 59.4012 18.8285ZM38.7269 26.966C38.5825 26.966 38.438 26.9195 38.308 26.8265C37.9757 26.5785 37.9034 26.098 38.1346 25.7415C39.5649 23.5715 41.3853 21.8665 43.5524 20.673C48.0889 18.162 53.8967 18.1465 58.4476 20.6575C60.6147 21.851 62.4351 23.5405 63.8654 25.695C64.0966 26.036 64.0243 26.532 63.692 26.78C63.3598 27.028 62.9119 26.9505 62.6807 26.594C61.3805 24.641 59.7335 23.1065 57.7831 22.037C53.6367 19.7585 48.3345 19.7585 44.2025 22.0525C42.2377 23.1375 40.5906 24.6875 39.2904 26.6405C39.1748 26.8575 38.9581 26.966 38.7269 26.966ZM47.7566 45.6745C47.5687 45.6745 47.3809 45.597 47.2509 45.442C45.994 44.0935 45.3149 43.2255 44.347 41.35C43.3501 39.4435 42.83 37.1185 42.83 34.623C42.83 30.0195 46.4996 26.2685 51.0072 26.2685C55.5148 26.2685 59.1845 30.0195 59.1845 34.623C59.1845 35.057 58.8666 35.398 58.4621 35.398C58.0576 35.398 57.7397 35.057 57.7397 34.623C57.7397 30.872 54.7202 27.8185 51.0072 27.8185C47.2942 27.8185 44.2747 30.872 44.2747 34.623C44.2747 36.855 44.7371 38.9165 45.6183 40.5905C46.543 42.373 47.1787 43.1325 48.2911 44.3415C48.5656 44.6515 48.5656 45.132 48.2911 45.442C48.1322 45.597 47.9444 45.6745 47.7566 45.6745ZM58.1153 42.807C56.3961 42.807 54.8791 42.342 53.6367 41.4275C51.484 39.862 50.1982 37.32 50.1982 34.623C50.1982 34.189 50.516 33.848 50.9205 33.848C51.3251 33.848 51.6429 34.189 51.6429 34.623C51.6429 36.8085 52.6831 38.87 54.4457 40.141C55.4715 40.885 56.6706 41.2415 58.1153 41.2415C58.4621 41.2415 59.04 41.195 59.6179 41.0865C60.008 41.009 60.3836 41.288 60.4558 41.722C60.5281 42.1405 60.268 42.5435 59.8635 42.621C59.04 42.7915 58.3176 42.807 58.1153 42.807ZM55.2114 46C55.1536 46 55.0814 45.9845 55.0236 45.969C52.7265 45.287 51.2239 44.3725 49.6492 42.714C47.6265 40.5595 46.5141 37.692 46.5141 34.623C46.5141 32.112 48.5078 30.066 50.9639 30.066C53.4199 30.066 55.4137 32.112 55.4137 34.623C55.4137 36.2815 56.7573 37.63 58.4187 37.63C60.0802 37.63 61.4238 36.2815 61.4238 34.623C61.4238 28.7795 56.7284 24.0365 50.9494 24.0365C46.8464 24.0365 43.09 26.4855 41.3997 30.283C40.8363 31.5385 40.5473 33.011 40.5473 34.623C40.5473 35.832 40.6484 37.7385 41.5153 40.2185C41.6598 40.6215 41.4719 41.071 41.0963 41.2105C40.7207 41.3655 40.3017 41.1485 40.1717 40.761C39.4638 38.7305 39.117 36.7155 39.117 34.623C39.117 32.763 39.4493 31.0735 40.0994 29.601C42.0209 25.2765 46.2829 22.471 50.9494 22.471C57.523 22.471 62.8685 27.9115 62.8685 34.6075C62.8685 37.1185 60.8748 39.1645 58.4187 39.1645C55.9627 39.1645 53.9689 37.1185 53.9689 34.6075C53.9689 32.949 52.6253 31.6005 50.9639 31.6005C49.3024 31.6005 47.9588 32.949 47.9588 34.6075C47.9588 37.258 48.9124 39.738 50.6605 41.598C52.033 43.055 53.3477 43.861 55.3848 44.4655C55.7749 44.574 55.9916 45.008 55.8904 45.411C55.8182 45.7675 55.5148 46 55.2114 46Z" fill="#202120"/>
<path d="M4 12V6C4 4.89543 4.89543 4 6 4H12" stroke="#FF6033" stroke-width="2.5" stroke-linecap="round" stroke-linejoin="round"/>
<path d="M4 52V58C4 59.1046 4.89543 60 6 60H12" stroke="#FF6033" stroke-width="2.5" stroke-linecap="round" stroke-linejoin="round"/>
<path d="M60 12V6C60 4.89543 59.1046 4 58 4H52" stroke="#FF6033" stroke-width="2.5" stroke-linecap="round" stroke-linejoin="round"/>
<path d="M60 52V58C60 59.1046 59.1046 60 58 60H52" stroke="#FF6033" stroke-width="2.5" stroke-linecap="round" stroke-linejoin="round"/>
<path d="M12.0983 35.589C12.0698 36.3379 12.2577 37.0791 12.6397 37.7238C13.0216 38.3686 13.5814 38.8895 14.2518 39.2243C14.9223 39.5591 15.675 39.6935 16.4199 39.6114C17.1648 39.5293 17.8702 39.2342 18.4517 38.7614L17.7481 37.8961C17.333 38.2335 16.8295 38.4442 16.2977 38.5028C15.766 38.5614 15.2287 38.4655 14.7501 38.2265C14.2715 37.9875 13.8719 37.6157 13.5992 37.1554C13.3266 36.6952 13.1924 36.1661 13.2128 35.6315L12.0983 35.589Z" fill="#202120"/>
<path d="M17.4362 29.1799V32.462H14.7695" stroke="#202120" stroke-width="0.769231"/>
<rect x="21.7432" y="24.667" width="2.87179" height="2.87179" rx="1.4359" fill="#202120"/>
<rect x="7.38477" y="24.667" width="2.87179" height="2.87179" rx="1.4359" fill="#202120"/>
<circle cx="16" cy="30" r="15.35" stroke="#FF6033" stroke-width="1.3"/>
</svg>
