<svg width="64" height="64" viewBox="0 0 64 64" fill="none" xmlns="http://www.w3.org/2000/svg">
<path fill-rule="evenodd" clip-rule="evenodd" d="M17.4167 6.79199C16.295 6.79199 15.1842 7.01293 14.1479 7.44219C13.1116 7.87145 12.17 8.50062 11.3768 9.29379C10.5836 10.087 9.95446 11.0286 9.5252 12.0649C9.09594 13.1012 8.875 14.212 8.875 15.3337C8.875 16.4554 9.09594 17.5661 9.5252 18.6024C9.95446 19.6387 10.5836 20.5804 11.3768 21.3735C12.17 22.1667 13.1116 22.7959 14.1479 23.2251C15.1842 23.6544 16.295 23.8753 17.4167 23.8753C18.5384 23.8753 19.6491 23.6544 20.6854 23.2251C21.7217 22.7959 22.6634 22.1667 23.4565 21.3735C24.2497 20.5804 24.8789 19.6387 25.3081 18.6024C25.7374 17.5661 25.9583 16.4554 25.9583 15.3337C25.9583 14.212 25.7374 13.1012 25.3081 12.0649C24.8789 11.0286 24.2497 10.087 23.4565 9.29379C22.6634 8.50062 21.7217 7.87145 20.6854 7.44219C19.6491 7.01293 18.5384 6.79199 17.4167 6.79199ZM15.1046 9.75189C15.8376 9.44826 16.6233 9.29199 17.4167 9.29199C18.2101 9.29199 18.9957 9.44826 19.7287 9.75189C20.4617 10.0555 21.1278 10.5005 21.6888 11.0616C22.2498 11.6226 22.6948 12.2886 22.9984 13.0216C23.3021 13.7546 23.4583 14.5403 23.4583 15.3337C23.4583 16.1271 23.3021 16.9127 22.9984 17.6457C22.6948 18.3787 22.2498 19.0447 21.6888 19.6058C21.1278 20.1668 20.4617 20.6118 19.7287 20.9154C18.9957 21.2191 18.2101 21.3753 17.4167 21.3753C16.6233 21.3753 15.8376 21.2191 15.1046 20.9154C14.3716 20.6118 13.7056 20.1668 13.1446 19.6058C12.5835 19.0447 12.1385 18.3787 11.8349 17.6457C11.5313 16.9127 11.375 16.1271 11.375 15.3337C11.375 14.5403 11.5313 13.7546 11.8349 13.0216C12.1385 12.2886 12.5835 11.6226 13.1446 11.0616C13.7056 10.5005 14.3716 10.0555 15.1046 9.75189ZM23.4007 26.1456C21.0282 24.728 18.2296 24.1988 15.5033 24.652C12.777 25.1053 10.3002 26.5116 8.514 28.6206C6.72799 30.7293 5.74851 33.4036 5.75 36.167V36.1673V43.4587C5.75 44.149 6.30965 44.7087 7 44.7087H11.0582L12.0043 56.0625C12.0583 56.7103 12.5999 57.2087 13.25 57.2087H21.5833C22.2334 57.2087 22.775 56.7103 22.829 56.0625L23.7752 44.7087H24.7083C25.3987 44.7087 25.9583 44.149 25.9583 43.4587C25.9583 42.7683 25.3987 42.2087 24.7083 42.2087H22.625C21.9749 42.2087 21.4333 42.707 21.3793 43.3549L20.4332 54.7087H14.4002L13.454 43.3549C13.4 42.707 12.8584 42.2087 12.2083 42.2087H8.25L8.25 36.167L8.25 36.1662C8.24869 33.9948 9.0183 31.8933 10.4217 30.2363C11.8251 28.5793 13.7712 27.4743 15.9133 27.1182C18.0554 26.762 20.2543 27.1779 22.1184 28.2917C23.9825 29.4055 25.3906 31.1448 26.092 33.1999C26.315 33.8533 27.0254 34.2021 27.6788 33.9792C28.3321 33.7562 28.681 33.0458 28.458 32.3924C27.5653 29.7769 25.7731 27.5631 23.4007 26.1456Z" fill="#202120"/>
<path d="M29.917 43.4587C29.917 46.7739 31.234 49.9534 33.5782 52.2976C35.9224 54.6418 39.1018 55.9587 42.417 55.9587C45.7322 55.9587 48.9116 54.6418 51.2558 52.2976C53.6 49.9534 54.917 46.7739 54.917 43.4587C54.917 40.1435 53.6 36.9641 51.2558 34.6199C48.9116 32.2757 45.7322 30.9587 42.417 30.9587C39.1018 30.9587 35.9224 32.2757 33.5782 34.6199C31.234 36.9641 29.917 40.1435 29.917 43.4587Z" stroke="#FF4612" stroke-width="2.5" stroke-linecap="round" stroke-linejoin="round"/>
<path d="M33.5791 52.2962L51.2562 34.6191" stroke="#FF4612" stroke-width="2.5" stroke-linecap="round" stroke-linejoin="round"/>
</svg>
