<svg width="64" height="64" viewBox="0 0 64 64" fill="none" xmlns="http://www.w3.org/2000/svg">
<path d="M41 10.2072V30.3758L46.143 23.9613L51.2856 27.81V8.28281M5 7.16909C8.9834 6.63166 14.2336 7.37534 20.75 9.40013C27.2664 11.4253 31.0165 13.6563 32 16.094V56.2554C28.418 53.506 23.918 51.2746 18.5 49.5619C13.082 47.8492 8.582 47.1055 5 47.3308V7.16909Z" stroke="#202120" stroke-width="2.5" stroke-linecap="round" stroke-linejoin="round"/>
<path d="M10.7188 18.181C13.1603 18.1205 15.8167 18.4855 18.6877 19.2757C21.5591 20.0658 24.2151 21.2396 26.6567 22.7972M10.7188 27.1059C13.1603 27.0454 15.8167 27.4104 18.6877 28.2002C21.5591 28.9907 24.2151 30.1645 26.6567 31.7217M10.7188 36.0308C13.1603 35.9704 15.8167 36.335 18.6877 37.1251C21.5591 37.9156 24.2151 39.0894 26.6567 40.6466" stroke="#FF4612" stroke-width="2.5" stroke-linecap="round" stroke-linejoin="round"/>
<path fill-rule="evenodd" clip-rule="evenodd" d="M59 7.16909C55.0166 6.63166 49.7664 7.37534 43.25 9.40013C36.7336 11.4253 32.9835 13.6563 32 16.094V56.2554C35.582 53.506 40.082 51.2746 45.5 49.5619C50.918 47.8492 55.418 47.1055 59 47.3308V7.16909Z" stroke="#202120" stroke-width="2.5" stroke-linecap="round" stroke-linejoin="round"/>
<path d="M53.2817 36.0309C50.8402 35.9704 48.1837 36.335 45.3127 37.1252C42.4414 37.9156 39.7853 39.0895 37.3438 40.6467" stroke="#FF4612" stroke-width="2.5" stroke-linecap="round" stroke-linejoin="round"/>
</svg>
