<svg width="64" height="64" viewBox="0 0 64 64" fill="none" xmlns="http://www.w3.org/2000/svg">
<path d="M36.7272 47.3743H8.34339C7.40241 47.3743 6.49997 47.0005 5.83459 46.3351C5.16921 45.6697 4.79541 44.7673 4.79541 43.8263V8.34656C4.79541 7.40558 5.16921 6.50314 5.83459 5.83776C6.49997 5.17239 7.40241 4.79858 8.34339 4.79858H55.6498C56.5908 4.79858 57.4932 5.17239 58.1586 5.83776C58.824 6.50314 59.1978 7.40558 59.1978 8.34656V24.9038" stroke="#202120" stroke-width="2.5" stroke-linecap="round" stroke-linejoin="round"/>
<path d="M15.439 13.0771H50.9188" stroke="#202120" stroke-width="2.5" stroke-linecap="round" stroke-linejoin="round"/>
<path d="M14.8477 21.3557H38.5009" stroke="#202120" stroke-width="2.5" stroke-linecap="round" stroke-linejoin="round"/>
<path d="M14.8477 29.6345H28.4483" stroke="#202120" stroke-width="2.5" stroke-linecap="round" stroke-linejoin="round"/>
<path d="M14.8477 37.9131H28.4483" stroke="#202120" stroke-width="2.5" stroke-linecap="round" stroke-linejoin="round"/>
<path d="M56.4419 43.9823V59.2008L49.346 53.2875L42.25 59.2008V43.98" stroke="#FF4612" stroke-width="2.5" stroke-linecap="round" stroke-linejoin="round"/>
<path d="M49.3458 40.2783C51.3053 40.2783 52.8938 38.6898 52.8938 36.7303C52.8938 34.7709 51.3053 33.1824 49.3458 33.1824C47.3863 33.1824 45.7979 34.7709 45.7979 36.7303C45.7979 38.6898 47.3863 40.2783 49.3458 40.2783Z" stroke="#FF4612" stroke-width="2.5" stroke-linecap="round" stroke-linejoin="round"/>
<path d="M58.1475 36.7302C58.7476 35.9894 59.109 35.0841 59.1839 34.1336C59.2589 33.1832 59.0439 32.2324 58.5674 31.4067C58.0909 30.581 57.3752 29.9192 56.5148 29.5085C55.6544 29.0979 54.6897 28.9579 53.748 29.1068C53.4058 28.2177 52.8023 27.4531 52.0169 26.9139C51.2315 26.3746 50.3012 26.0859 49.3485 26.0859C48.3958 26.0859 47.4655 26.3746 46.6801 26.9139C45.8948 27.4531 45.2912 28.2177 44.949 29.1068C44.0074 28.9579 43.0427 29.0979 42.1823 29.5085C41.3219 29.9192 40.6062 30.581 40.1297 31.4067C39.6531 32.2324 39.4382 33.1832 39.5131 34.1336C39.5881 35.0841 39.9495 35.9894 40.5495 36.7302C39.9505 37.4715 39.5901 38.3769 39.5159 39.3271C39.4416 40.2772 39.657 41.2276 40.1335 42.053C40.6101 42.8783 41.3255 43.5399 42.1856 43.9506C43.0456 44.3613 44.0099 44.5018 44.9514 44.3536C45.2936 45.2427 45.8971 46.0073 46.6825 46.5466C47.4679 47.0858 48.3982 47.3745 49.3509 47.3745C50.3036 47.3745 51.2339 47.0858 52.0193 46.5466C52.8046 46.0073 53.4082 45.2427 53.7504 44.3536C54.6919 44.502 55.6562 44.3614 56.5162 43.9506C57.3761 43.5398 58.0914 42.8779 58.5676 42.0523C59.0438 41.2267 59.2585 40.2762 59.1836 39.3261C59.1086 38.3759 58.7473 37.4709 58.1475 36.7302V36.7302Z" stroke="#FF4612" stroke-width="2.5" stroke-linecap="round" stroke-linejoin="round"/>
</svg>
