<svg width="64" height="64" viewBox="0 0 64 64" fill="none" xmlns="http://www.w3.org/2000/svg">
<path d="M52.1666 39.0005L60.0918 52.7251C60.4415 53.3281 60.1628 53.7386 59.4762 53.6119L50.9682 52.1728L48.0191 60.2804C47.7809 60.9341 47.2945 60.9797 46.9398 60.3818L39.3389 47.5287" stroke="#202120" stroke-width="2.5" stroke-linecap="round" stroke-linejoin="round"/>
<path d="M11.8262 39.0005L3.90105 52.7251C3.55141 53.3281 3.83011 53.7386 4.51672 53.6119L13.0247 52.1728L15.9763 60.2804C16.2145 60.9366 16.701 60.9797 17.0557 60.3818L24.6566 47.5439" stroke="#202120" stroke-width="2.5" stroke-linecap="round" stroke-linejoin="round"/>
<path d="M52.2659 23.4667C52.2663 22.0545 51.8427 20.6748 51.0499 19.5061C50.2571 18.3375 49.1317 17.4338 47.8194 16.9122C48.3777 15.6156 48.534 14.1812 48.2682 12.7947C48.0024 11.4083 47.3266 10.1335 46.3284 9.13521C45.3302 8.13697 44.0553 7.46123 42.6689 7.19542C41.2824 6.92961 39.848 7.08594 38.5514 7.64421C38.0292 6.33274 37.1255 5.20811 35.9572 4.41581C34.7889 3.6235 33.4098 3.19995 31.9981 3.19995C30.5865 3.19995 29.2074 3.6235 28.0391 4.41581C26.8708 5.20811 25.9671 6.33274 25.4449 7.64421C24.1479 7.08358 22.7125 6.9254 21.3245 7.19017C19.9366 7.45493 18.6601 8.13043 17.6606 9.12914C16.6611 10.1278 15.9845 11.4037 15.7186 12.7914C15.4527 14.1792 15.6097 15.6148 16.1693 16.9122C14.8568 17.4334 13.7311 18.3368 12.9379 19.5052C12.1447 20.6736 11.7207 22.0532 11.7207 23.4654C11.7207 24.8776 12.1447 26.2573 12.9379 27.4257C13.7311 28.5941 14.8568 29.4974 16.1693 30.0187C15.611 31.3153 15.4547 32.7496 15.7205 34.1361C15.9863 35.5226 16.6621 36.7974 17.6603 37.7957C18.6585 38.7939 19.9334 39.4696 21.3198 39.7354C22.7063 40.0013 24.1407 39.8449 25.4373 39.2867C25.9585 40.5991 26.8619 41.7249 28.0303 42.518C29.1987 43.3112 30.5784 43.7352 31.9906 43.7352C33.4027 43.7352 34.7824 43.3112 35.9508 42.518C37.1192 41.7249 38.0226 40.5991 38.5438 39.2867C39.8404 39.8449 41.2748 40.0013 42.6613 39.7354C44.0477 39.4696 45.3226 38.7939 46.3208 37.7957C47.319 36.7974 47.9948 35.5226 48.2606 34.1361C48.5264 32.7496 48.3701 31.3153 47.8118 30.0187C49.1255 29.499 50.2527 28.5963 51.0469 27.428C51.8412 26.2596 52.2659 24.8795 52.2659 23.4667V23.4667Z" stroke="#FF4612" stroke-width="2.5" stroke-linecap="round" stroke-linejoin="round"/>
<path d="M42.1311 17.1326L30.1749 29.0913C29.9985 29.2679 29.7889 29.4079 29.5583 29.5035C29.3277 29.5991 29.0805 29.6483 28.8308 29.6483C28.5812 29.6483 28.334 29.5991 28.1034 29.5035C27.8728 29.4079 27.6632 29.2679 27.4868 29.0913L23.1289 24.7334" stroke="#202120" stroke-width="2.5" stroke-linecap="round" stroke-linejoin="round"/>
</svg>
