<svg width="64" height="64" viewBox="0 0 64 64" fill="none" xmlns="http://www.w3.org/2000/svg">
<path d="M10.0679 35.9472H6.10086C5.04873 35.9472 4.03969 35.5293 3.29572 34.7853C2.55175 34.0413 2.13379 33.0323 2.13379 31.9802V12.1448C2.13379 11.0927 2.55175 10.0836 3.29572 9.33966C4.03969 8.59569 5.04873 8.17773 6.10086 8.17773H57.6728C58.7249 8.17773 59.7339 8.59569 60.4779 9.33966C61.2219 10.0836 61.6398 11.0927 61.6398 12.1448V31.9802C61.6398 33.0323 61.2219 34.0413 60.4779 34.7853C59.7339 35.5293 58.7249 35.9472 57.6728 35.9472H33.8703" stroke="#202120" stroke-width="2.5" stroke-linecap="round" stroke-linejoin="round"/>
<path fill-rule="evenodd" clip-rule="evenodd" d="M16.8297 21.7777C16.8297 23.5941 15.3572 25.0665 13.5408 25.0665C11.7244 25.0665 10.252 23.5941 10.252 21.7777C10.252 19.9613 11.7244 18.4888 13.5408 18.4888C15.3572 18.4888 16.8297 19.9613 16.8297 21.7777ZM26.0744 21.7777C26.0744 23.5941 24.6019 25.0665 22.7855 25.0665C20.9691 25.0665 19.4966 23.5941 19.4966 21.7777C19.4966 19.9613 20.9691 18.4888 22.7855 18.4888C24.6019 18.4888 26.0744 19.9613 26.0744 21.7777ZM32.03 25.0665C33.8464 25.0665 35.3189 23.5941 35.3189 21.7777C35.3189 19.9613 33.8464 18.4888 32.03 18.4888C30.2136 18.4888 28.7411 19.9613 28.7411 21.7777C28.7411 23.5941 30.2136 25.0665 32.03 25.0665ZM44.5634 21.7777C44.5634 23.5941 43.0909 25.0665 41.2745 25.0665C39.4581 25.0665 37.9856 23.5941 37.9856 21.7777C37.9856 19.9613 39.4581 18.4888 41.2745 18.4888C43.0909 18.4888 44.5634 19.9613 44.5634 21.7777ZM50.5191 25.0665C52.3355 25.0665 53.808 23.5941 53.808 21.7777C53.808 19.9613 52.3355 18.4888 50.5191 18.4888C48.7027 18.4888 47.2302 19.9613 47.2302 21.7777C47.2302 23.5941 48.7027 25.0665 50.5191 25.0665Z" fill="#FF4612"/>
<path d="M17.8531 57.8826L10.6984 52.1569C10.1 51.6786 9.65159 51.0385 9.40649 50.3128C9.16139 49.587 9.12992 48.8061 9.31583 48.0629V48.0629C9.46103 47.4818 9.73494 46.9407 10.1173 46.4796C10.4997 46.0185 10.9808 45.6492 11.5251 45.399C12.0693 45.1488 12.6628 45.0241 13.2618 45.034C13.8607 45.044 14.4497 45.1884 14.9854 45.4566L17.8531 46.8904V34.0662C17.8531 33.0944 18.2392 32.1624 18.9263 31.4753C19.6134 30.7881 20.5454 30.4021 21.5172 30.4021C22.489 30.4021 23.4209 30.7881 24.1081 31.4753C24.7952 32.1624 25.1813 33.0944 25.1813 34.0662V41.3943L30.0496 42.2053C31.7607 42.4904 33.3152 43.3732 34.4365 44.6967C35.5579 46.0202 36.1733 47.6986 36.1735 49.4333V57.8826" stroke="#202120" stroke-width="2.5" stroke-linecap="round" stroke-linejoin="round"/>
</svg>
