<svg width="64" height="64" viewBox="0 0 64 64" fill="none" xmlns="http://www.w3.org/2000/svg">
<path d="M8.00024 7.46671C8.00024 5.99395 9.19415 4.80005 10.6669 4.80005H53.3336C54.8063 4.80005 56.0002 5.99396 56.0002 7.46672V59.6667H8.00024V7.46671Z" stroke="#202120" stroke-width="2.5"/>
<rect x="28.0002" y="45.3335" width="8" height="14.3333" rx="1.33333" stroke="#FF4612" stroke-width="2.5"/>
<rect x="28.667" y="29.0667" width="6.66667" height="6.66667" rx="1.33333" stroke="#202120" stroke-width="2.5"/>
<rect x="14.667" y="29.0667" width="6.66667" height="6.66667" rx="1.33333" stroke="#202120" stroke-width="2.5"/>
<rect x="14.667" y="45.3335" width="6.66667" height="6.66667" rx="1.33333" stroke="#202120" stroke-width="2.5"/>
<rect x="42.667" y="29.0667" width="6.66667" height="6.66667" rx="1.33333" stroke="#202120" stroke-width="2.5"/>
<rect x="42.667" y="45.3335" width="6.66667" height="6.66667" rx="1.33333" stroke="#202120" stroke-width="2.5"/>
<rect x="28.667" y="13.0667" width="6.66667" height="6.66667" rx="1.33333" stroke="#202120" stroke-width="2.5"/>
<rect x="14.667" y="13.0667" width="6.66667" height="6.66667" rx="1.33333" stroke="#202120" stroke-width="2.5"/>
<rect x="42.667" y="13.0667" width="6.66667" height="6.66667" rx="1.33333" stroke="#202120" stroke-width="2.5"/>
<line x1="3.91699" y1="60.0835" x2="60.0837" y2="60.0835" stroke="#202120" stroke-width="2.5" stroke-linecap="round"/>
</svg>
