<svg width="64" height="64" viewBox="0 0 64 64" fill="none" xmlns="http://www.w3.org/2000/svg">
<path d="M43.7358 20.3076L51.0328 13.0623" stroke="#202120" stroke-width="2.5" stroke-linecap="round" stroke-linejoin="round"/>
<path d="M49.605 9.69561C49.605 10.941 50.0997 12.1353 50.9803 13.0159C51.8609 13.8965 53.0552 14.3912 54.3006 14.3912C55.5459 14.3912 56.7403 13.8965 57.6209 13.0159C58.5015 12.1353 58.9962 10.941 58.9962 9.69561C58.9962 8.45025 58.5015 7.25591 57.6209 6.37531C56.7403 5.49471 55.5459 5 54.3006 5C53.0552 5 51.8609 5.49471 50.9803 6.37531C50.0997 7.25591 49.605 8.45025 49.605 9.69561V9.69561Z" stroke="#202120" stroke-width="2.5" stroke-linecap="round" stroke-linejoin="round"/>
<path d="M45.9937 46.0374L50.9593 51.0335" stroke="#202120" stroke-width="2.5" stroke-linecap="round" stroke-linejoin="round"/>
<path d="M49.6284 54.304C49.6284 55.5493 50.1231 56.7437 51.0037 57.6243C51.8843 58.5049 53.0787 58.9996 54.324 58.9996C55.5694 58.9996 56.7637 58.5049 57.6443 57.6243C58.5249 56.7437 59.0197 55.5493 59.0197 54.304C59.0197 53.0586 58.5249 51.8643 57.6443 50.9837C56.7637 50.1031 55.5694 49.6084 54.324 49.6084C53.0787 49.6084 51.8843 50.1031 51.0037 50.9837C50.1231 51.8643 49.6284 53.0586 49.6284 54.304Z" stroke="#202120" stroke-width="2.5" stroke-linecap="round" stroke-linejoin="round"/>
<path d="M20.258 20.3076L12.9634 13.0623" stroke="#202120" stroke-width="2.5" stroke-linecap="round" stroke-linejoin="round"/>
<path d="M4.99707 9.69561C4.99707 10.941 5.49179 12.1353 6.37238 13.0159C7.25298 13.8965 8.44733 14.3912 9.69269 14.3912C10.938 14.3912 12.1324 13.8965 13.013 13.0159C13.8936 12.1353 14.3883 10.941 14.3883 9.69561C14.3883 8.45025 13.8936 7.25591 13.013 6.37531C12.1324 5.49471 10.938 5 9.69269 5C8.44733 5 7.25298 5.49471 6.37238 6.37531C5.49179 7.25591 4.99707 8.45025 4.99707 9.69561V9.69561Z" stroke="#202120" stroke-width="2.5" stroke-linecap="round" stroke-linejoin="round"/>
<path d="M18.0017 46.0374L13.0337 51.0335" stroke="#202120" stroke-width="2.5" stroke-linecap="round" stroke-linejoin="round"/>
<path d="M4.97266 54.304C4.97266 55.5493 5.46737 56.7437 6.34797 57.6243C7.22857 58.5049 8.42292 58.9996 9.66827 58.9996C10.9136 58.9996 12.108 58.5049 12.9886 57.6243C13.8692 56.7437 14.3639 55.5493 14.3639 54.304C14.3639 53.0586 13.8692 51.8643 12.9886 50.9837C12.108 50.1031 10.9136 49.6084 9.66827 49.6084C8.42292 49.6084 7.22857 50.1031 6.34797 50.9837C5.46737 51.8643 4.97266 53.0586 4.97266 54.304V54.304Z" stroke="#202120" stroke-width="2.5" stroke-linecap="round" stroke-linejoin="round"/>
<path d="M42.562 30.8259H49.6054" stroke="#202120" stroke-width="2.5" stroke-linecap="round" stroke-linejoin="round"/>
<path d="M49.605 30.826C49.605 32.0713 50.0997 33.2657 50.9803 34.1463C51.8609 35.0269 53.0552 35.5216 54.3006 35.5216C55.5459 35.5216 56.7403 35.0269 57.6209 34.1463C58.5015 33.2657 58.9962 32.0713 58.9962 30.826C58.9962 29.5806 58.5015 28.3863 57.6209 27.5057C56.7403 26.6251 55.5459 26.1304 54.3006 26.1304C53.0552 26.1304 51.8609 26.6251 50.9803 27.5057C50.0997 28.3863 49.605 29.5806 49.605 30.826Z" stroke="#202120" stroke-width="2.5" stroke-linecap="round" stroke-linejoin="round"/>
<path d="M21.4311 30.8259H14.3877" stroke="#202120" stroke-width="2.5" stroke-linecap="round" stroke-linejoin="round"/>
<path d="M4.99707 30.826C4.99707 32.0713 5.49179 33.2657 6.37238 34.1463C7.25298 35.0269 8.44733 35.5216 9.69269 35.5216C10.938 35.5216 12.1324 35.0269 13.013 34.1463C13.8936 33.2657 14.3883 32.0713 14.3883 30.826C14.3883 29.5806 13.8936 28.3863 13.013 27.5057C12.1324 26.6251 10.938 26.1304 9.69269 26.1304C8.44733 26.1304 7.25298 26.6251 6.37238 27.5057C5.49179 28.3863 4.99707 29.5806 4.99707 30.826V30.826Z" stroke="#202120" stroke-width="2.5" stroke-linecap="round" stroke-linejoin="round"/>
<path d="M21.4551 42.5649C21.4551 39.7628 22.5682 37.0756 24.5495 35.0942C26.5309 33.1129 29.2182 31.9998 32.0202 31.9998C34.8223 31.9998 37.5095 33.1129 39.4909 35.0942C41.4722 37.0756 42.5853 39.7628 42.5853 42.5649H21.4551Z" stroke="#FF4612" stroke-width="2.5" stroke-linecap="round" stroke-linejoin="round"/>
<path d="M25.5635 23.1955C25.5635 24.9078 26.2437 26.5501 27.4545 27.7609C28.6654 28.9717 30.3076 29.6519 32.02 29.6519C33.7323 29.6519 35.3745 28.9717 36.5854 27.7609C37.7962 26.5501 38.4764 24.9078 38.4764 23.1955C38.4764 21.4831 37.7962 19.8409 36.5854 18.6301C35.3745 17.4192 33.7323 16.739 32.02 16.739C30.3076 16.739 28.6654 17.4192 27.4545 18.6301C26.2437 19.8409 25.5635 21.4831 25.5635 23.1955Z" stroke="#FF4612" stroke-width="2.5" stroke-linecap="round" stroke-linejoin="round"/>
</svg>
