<svg width="64" height="64" viewBox="0 0 64 64" fill="none" xmlns="http://www.w3.org/2000/svg">
<path fill-rule="evenodd" clip-rule="evenodd" d="M18.8 1.94995C15.4574 1.94995 12.75 4.66361 12.75 8.00367V13.1499H9.0002C5.65888 13.1499 2.9502 15.8586 2.9502 19.1999V45.3999C2.9502 48.7413 5.65887 51.4499 9.0002 51.4499H25.8319L24.3356 57.96H21.7106C21.0202 57.96 20.4606 58.5196 20.4606 59.21C20.4606 59.9003 21.0202 60.46 21.7106 60.46H25.3056C25.3233 60.4603 25.3409 60.4603 25.3585 60.46H38.6416C38.6597 60.4604 38.6778 60.4604 38.6959 60.46H42.2898C42.9802 60.46 43.5398 59.9003 43.5398 59.21C43.5398 58.5196 42.9802 57.96 42.2898 57.96H39.6825L38.3007 51.4499H55.0002C58.3415 51.4499 61.0502 48.7413 61.0502 45.3999V19.1999C61.0502 15.8586 58.3415 13.1499 55.0002 13.1499H51.25V7.99995C51.25 4.65863 48.5413 1.94995 45.2 1.94995H18.8ZM51.25 15.6499V42.4008H58.5502V19.1999C58.5502 17.2393 56.9608 15.6499 55.0002 15.6499H51.25ZM48.75 42.4008V7.99995C48.75 6.03934 47.1606 4.44995 45.2 4.44995H18.8C16.8407 4.44995 15.25 6.0418 15.25 8.00367V42.4008H48.75ZM12.75 42.4008V15.6499H9.0002C7.03958 15.6499 5.4502 17.2393 5.4502 19.1999V42.4008H12.75ZM5.4502 44.9008H58.5502V45.3999C58.5502 47.3605 56.9608 48.9499 55.0002 48.9499H9.0002C7.03959 48.9499 5.4502 47.3605 5.4502 45.3999V44.9008ZM35.745 51.4499H28.3971L26.9008 57.96H37.1268L35.745 51.4499ZM21.1233 11.5487H22.7233C23.1099 11.5487 23.4233 11.8621 23.4233 12.2487V13.8487C23.4233 14.2353 23.1099 14.5487 22.7233 14.5487H21.1233C20.7367 14.5487 20.4233 14.2353 20.4233 13.8487V12.2487C20.4233 11.8621 20.7367 11.5487 21.1233 11.5487ZM17.9233 12.2487C17.9233 10.4814 19.356 9.04871 21.1233 9.04871H22.7233C24.4907 9.04871 25.9233 10.4814 25.9233 12.2487V13.8487C25.9233 15.616 24.4907 17.0487 22.7233 17.0487H21.1233C19.356 17.0487 17.9233 15.616 17.9233 13.8487V12.2487ZM30.373 11.3488C29.6827 11.3488 29.123 11.9084 29.123 12.5988C29.123 13.2891 29.6827 13.8488 30.373 13.8488H44C44.6904 13.8488 45.25 13.2891 45.25 12.5988C45.25 11.9084 44.6904 11.3488 44 11.3488H30.373ZM22.7233 33.9487H21.1233C20.7367 33.9487 20.4233 34.2621 20.4233 34.6487V36.2487C20.4233 36.6353 20.7367 36.9487 21.1233 36.9487H22.7233C23.1099 36.9487 23.4233 36.6353 23.4233 36.2487V34.6487C23.4233 34.2621 23.1099 33.9487 22.7233 33.9487ZM21.1233 31.4487C19.356 31.4487 17.9233 32.8814 17.9233 34.6487V36.2487C17.9233 38.016 19.356 39.4487 21.1233 39.4487H22.7233C24.4907 39.4487 25.9233 38.016 25.9233 36.2487V34.6487C25.9233 32.8814 24.4907 31.4487 22.7233 31.4487H21.1233ZM29.123 34.9988C29.123 34.3084 29.6827 33.7488 30.373 33.7488H44C44.6904 33.7488 45.25 34.3084 45.25 34.9988C45.25 35.6891 44.6904 36.2488 44 36.2488H30.373C29.6827 36.2488 29.123 35.6891 29.123 34.9988Z" fill="#202120"/>
<path fill-rule="evenodd" clip-rule="evenodd" d="M26.8681 22.7218C27.3563 22.2336 27.3563 21.4422 26.8681 20.954C26.38 20.4659 25.5885 20.4659 25.1004 20.954L22.0245 24.0299L20.6456 22.6511C20.1574 22.1629 19.366 22.1629 18.8778 22.6511C18.3897 23.1392 18.3897 23.9307 18.8778 24.4188L21.1406 26.6816C21.6287 27.1697 22.4202 27.1697 22.9083 26.6816L26.8681 22.7218ZM30.6118 21.7865C29.9214 21.7865 29.3618 22.3461 29.3618 23.0365C29.3618 23.7268 29.9214 24.2865 30.6118 24.2865H44.2387C44.9291 24.2865 45.4887 23.7268 45.4887 23.0365C45.4887 22.3461 44.9291 21.7865 44.2387 21.7865H30.6118Z" fill="#FF4612"/>
</svg>
