<svg width="64" height="64" viewBox="0 0 64 64" fill="none" xmlns="http://www.w3.org/2000/svg">
<path d="M47.4116 28.3728H16.5822C13.4584 28.3645 10.465 27.1199 8.25614 24.9111C6.04731 22.7023 4.80273 19.7088 4.79443 16.5851V16.5851C4.80337 13.4615 6.04815 10.4685 8.25685 8.25977C10.4655 6.05108 13.4586 4.8063 16.5822 4.79736H47.4116C50.535 4.80693 53.5277 6.05192 55.7362 8.26047C57.9448 10.469 59.1898 13.4617 59.1993 16.5851V16.5851C59.1904 19.7086 57.9456 22.7017 55.7369 24.9104C53.5282 27.1191 50.5351 28.3639 47.4116 28.3728V28.3728Z" stroke="#FF4612" stroke-width="2.5" stroke-linecap="round" stroke-linejoin="round"/>
<path d="M47.4116 59.2024H16.5822C13.4584 59.1941 10.465 57.9495 8.25614 55.7407C6.04731 53.5318 4.80273 50.5384 4.79443 47.4147V47.4147C4.80337 44.2911 6.04815 41.2981 8.25685 39.0894C10.4655 36.8807 13.4586 35.6359 16.5822 35.627H47.4116C50.535 35.6365 53.5277 36.8815 55.7362 39.0901C57.9448 41.2986 59.1898 44.2913 59.1993 47.4147V47.4147C59.1904 50.5382 57.9456 53.5313 55.7369 55.74C53.5282 57.9487 50.5351 59.1934 47.4116 59.2024V59.2024Z" stroke="#202120" stroke-width="2.5" stroke-linecap="round" stroke-linejoin="round"/>
<path d="M12.0498 16.585C12.0498 17.1804 12.1671 17.7699 12.3949 18.32C12.6228 18.87 12.9567 19.3698 13.3777 19.7908C13.7987 20.2118 14.2985 20.5458 14.8486 20.7736C15.3986 21.0015 15.9882 21.1187 16.5835 21.1187C17.1789 21.1187 17.7685 21.0015 18.3185 20.7736C18.8686 20.5458 19.3684 20.2118 19.7894 19.7908C20.2104 19.3698 20.5443 18.87 20.7722 18.32C21 17.7699 21.1173 17.1804 21.1173 16.585C21.1173 15.9896 21 15.4001 20.7722 14.85C20.5443 14.3 20.2104 13.8002 19.7894 13.3792C19.3684 12.9582 18.8686 12.6242 18.3185 12.3964C17.7685 12.1685 17.1789 12.0513 16.5835 12.0513C15.9882 12.0513 15.3986 12.1685 14.8486 12.3964C14.2985 12.6242 13.7987 12.9582 13.3777 13.3792C12.9567 13.8002 12.6228 14.3 12.3949 14.85C12.1671 15.4001 12.0498 15.9896 12.0498 16.585V16.585Z" stroke="#FF4612" stroke-width="2.5" stroke-linecap="round" stroke-linejoin="round"/>
<path d="M42.8779 47.4146C42.8779 48.617 43.3556 49.7702 44.2058 50.6204C45.0561 51.4707 46.2092 51.9483 47.4117 51.9483C48.6141 51.9483 49.7673 51.4707 50.6175 50.6204C51.4678 49.7702 51.9454 48.617 51.9454 47.4146C51.9454 46.2122 51.4678 45.059 50.6175 44.2088C49.7673 43.3585 48.6141 42.8809 47.4117 42.8809C46.2092 42.8809 45.0561 43.3585 44.2058 44.2088C43.3556 45.059 42.8779 46.2122 42.8779 47.4146V47.4146Z" stroke="#202120" stroke-width="2.5" stroke-linecap="round" stroke-linejoin="round"/>
</svg>
