<svg width="64" height="64" viewBox="0 0 64 64" fill="none" xmlns="http://www.w3.org/2000/svg">
<path d="M41.0681 19.3075L33.8145 26.5611" stroke="#202120" stroke-width="2.5" stroke-linecap="round" stroke-linejoin="round"/>
<path d="M41.0684 10.2405C41.0684 11.6833 42.0236 13.0671 43.724 14.0873C45.4244 15.1075 47.7306 15.6807 50.1354 15.6807C52.5401 15.6807 54.8463 15.1075 56.5467 14.0873C58.2471 13.0671 59.2024 11.6833 59.2024 10.2405C59.2024 8.79766 58.2471 7.41393 56.5467 6.39369C54.8463 5.37346 52.5401 4.80029 50.1354 4.80029C47.7306 4.80029 45.4244 5.37346 43.724 6.39369C42.0236 7.41393 41.0684 8.79766 41.0684 10.2405V10.2405Z" stroke="#202120" stroke-width="2.5" stroke-linecap="round" stroke-linejoin="round"/>
<path d="M41.0684 10.2382V21.1186C41.0684 24.1216 45.128 26.5588 50.1354 26.5588C55.1428 26.5588 59.2024 24.1216 59.2024 21.1186V10.2382" stroke="#202120" stroke-width="2.5" stroke-linecap="round" stroke-linejoin="round"/>
<path d="M32.8252 43.7061L41.0677 51.9486" stroke="#202120" stroke-width="2.5" stroke-linecap="round" stroke-linejoin="round"/>
<path d="M41.0684 42.8817C41.0684 44.3246 42.0236 45.7083 43.724 46.7285C45.4244 47.7488 47.7306 48.3219 50.1354 48.3219C52.5401 48.3219 54.8463 47.7488 56.5467 46.7285C58.2471 45.7083 59.2024 44.3246 59.2024 42.8817C59.2024 41.4389 58.2471 40.0552 56.5467 39.0349C54.8463 38.0147 52.5401 37.4415 50.1354 37.4415C47.7306 37.4415 45.4244 38.0147 43.724 39.0349C42.0236 40.0552 41.0684 41.4389 41.0684 42.8817Z" stroke="#202120" stroke-width="2.5" stroke-linecap="round" stroke-linejoin="round"/>
<path d="M4.7998 19.3074C4.7998 21.2312 6.32824 23.0762 9.04886 24.4365C11.7695 25.7968 15.4595 26.561 19.307 26.561C23.1545 26.561 26.8445 25.7968 29.5651 24.4365C32.2858 23.0762 33.8142 21.2312 33.8142 19.3074C33.8142 17.3837 32.2858 15.5387 29.5651 14.1784C26.8445 12.818 23.1545 12.0538 19.307 12.0538C15.4595 12.0538 11.7695 12.818 9.04886 14.1784C6.32824 15.5387 4.7998 17.3837 4.7998 19.3074V19.3074Z" stroke="#FF4612" stroke-width="2.5" stroke-linecap="round" stroke-linejoin="round"/>
<path d="M4.7998 19.3075V30.1879C4.7998 34.1943 11.2942 37.4415 19.307 37.4415C27.3198 37.4415 33.8142 34.1943 33.8142 30.1879V19.3075" stroke="#FF4612" stroke-width="2.5" stroke-linecap="round" stroke-linejoin="round"/>
<path d="M4.7998 30.1879V41.0683C4.7998 45.0747 11.2942 48.3219 19.307 48.3219C27.3198 48.3219 33.8142 45.0747 33.8142 41.0683V30.1879" stroke="#FF4612" stroke-width="2.5" stroke-linecap="round" stroke-linejoin="round"/>
<path d="M41.0684 42.8793V53.7597C41.0684 56.7627 45.128 59.1999 50.1354 59.1999C55.1428 59.1999 59.2024 56.7627 59.2024 53.7597V42.8793" stroke="#202120" stroke-width="2.5" stroke-linecap="round" stroke-linejoin="round"/>
</svg>
