<svg width="64" height="64" viewBox="0 0 64 64" fill="none" xmlns="http://www.w3.org/2000/svg">
<path d="M7.16406 15.8514C7.16406 16.9926 7.69789 18.1226 8.73506 19.1769C9.77223 20.2312 11.2924 21.1891 13.2089 21.996C15.1253 22.803 17.4005 23.443 19.9044 23.8797C22.4084 24.3165 25.0921 24.5412 27.8023 24.5412C30.5126 24.5412 33.1963 24.3165 35.7003 23.8797C38.2042 23.443 40.4794 22.803 42.3958 21.996C44.3122 21.1891 45.8324 20.2312 46.8696 19.1769C47.9068 18.1226 48.4406 16.9926 48.4406 15.8514C48.4406 14.7103 47.9068 13.5803 46.8696 12.526C45.8324 11.4717 44.3122 10.5137 42.3958 9.7068C40.4794 8.89988 38.2042 8.2598 35.7003 7.82309C33.1963 7.38639 30.5126 7.16162 27.8023 7.16162C25.0921 7.16162 22.4084 7.38639 19.9044 7.82309C17.4005 8.2598 15.1253 8.89988 13.2089 9.7068C11.2924 10.5137 9.77223 11.4717 8.73506 12.526C7.69789 13.5803 7.16406 14.7103 7.16406 15.8514V15.8514Z" stroke="#202120" stroke-width="2.5" stroke-linecap="round" stroke-linejoin="round"/>
<path d="M29.9728 33.1835C29.2559 33.2161 28.5347 33.2313 27.8004 33.2313C16.4037 33.2313 7.16211 29.3426 7.16211 24.5415" stroke="#202120" stroke-width="2.5" stroke-linecap="round" stroke-linejoin="round"/>
<path d="M29.9728 42.9594C29.2559 42.992 28.5347 43.0072 27.8004 43.0072C16.4037 43.0072 7.16211 39.1185 7.16211 34.3174" stroke="#202120" stroke-width="2.5" stroke-linecap="round" stroke-linejoin="round"/>
<path d="M48.4395 25.6273V15.8513" stroke="#202120" stroke-width="2.5" stroke-linecap="round" stroke-linejoin="round"/>
<path d="M7.16211 15.8491V44.091C7.16211 48.8921 16.4037 52.7808 27.8004 52.7808C28.5347 52.7808 29.2603 52.7656 29.9728 52.733" stroke="#202120" stroke-width="2.5" stroke-linecap="round" stroke-linejoin="round"/>
<path d="M40.2227 41.6084C40.2227 43.3721 40.8766 45.0637 42.0406 46.3109C43.2047 47.5581 44.7835 48.2587 46.4297 48.2587C48.0759 48.2587 49.6546 47.5581 50.8187 46.3109C51.9827 45.0637 52.6367 43.3721 52.6367 41.6084C52.6367 39.8446 51.9827 38.153 50.8187 36.9059C49.6546 35.6587 48.0759 34.958 46.4297 34.958C44.7835 34.958 43.2047 35.6587 42.0406 36.9059C40.8766 38.153 40.2227 39.8446 40.2227 41.6084V41.6084Z" stroke="#FF4612" stroke-width="2.5" stroke-linecap="round" stroke-linejoin="round"/>
<path d="M57.0702 57.1257C56.2995 55.0531 54.8613 53.2568 52.9548 51.9858C51.0483 50.7148 48.7679 50.032 46.4296 50.032C44.0914 50.032 41.811 50.7148 39.9045 51.9858C37.998 53.2568 36.5597 55.0531 35.7891 57.1257" stroke="#FF4612" stroke-width="2.5" stroke-linecap="round" stroke-linejoin="round"/>
</svg>
