<svg width="64" height="64" viewBox="0 0 64 64" fill="none" xmlns="http://www.w3.org/2000/svg">
<path fill-rule="evenodd" clip-rule="evenodd" d="M23.1854 7.04941C23.3832 6.85153 23.6516 6.74036 23.9315 6.74036H40.0678C40.3476 6.74036 40.616 6.85153 40.8139 7.04941C41.0118 7.2473 41.123 7.51569 41.123 7.79554V13.461H22.8763V7.79554C22.8763 7.51569 22.9875 7.2473 23.1854 7.04941ZM21.6094 15.961C21.615 15.9611 21.6207 15.9611 21.6263 15.9611C21.6319 15.9611 21.6376 15.9611 21.6432 15.961H42.3561C42.3617 15.9611 42.3673 15.9611 42.373 15.9611C42.3786 15.9611 42.3842 15.9611 42.3899 15.961H51.3576L47.326 54.2501L47.326 54.2503C47.2392 55.0759 46.85 55.8402 46.2332 56.3958C45.6165 56.9514 44.8159 57.2591 43.9858 57.2595H20.0125C19.1821 57.2595 18.3811 56.952 17.764 56.3963C17.1469 55.8407 16.7574 55.0762 16.6706 54.2503L16.6706 54.2501L12.6412 15.961H21.6094ZM20.3763 13.461V7.79554C20.3763 6.85265 20.7509 5.94837 21.4176 5.28165C22.0843 4.61492 22.9886 4.24036 23.9315 4.24036H40.0678C41.0107 4.24036 41.915 4.61492 42.5817 5.28165C43.2484 5.94838 43.623 6.85265 43.623 7.79554V13.461H52.7287C52.7393 13.4609 52.7499 13.4609 52.7606 13.461H58.5095C59.1999 13.461 59.7595 14.0206 59.7595 14.711C59.7595 15.4014 59.1999 15.961 58.5095 15.961H53.8714L49.8123 54.5116L49.8123 54.5118C49.6609 55.9515 48.9821 57.2842 47.9066 58.2532C46.831 59.2222 45.4348 59.7588 43.9871 59.7595H43.9864H20.0125C18.5642 59.7595 17.1673 59.2232 16.0911 58.2542C15.015 57.2851 14.3357 55.952 14.1843 54.5118L14.1843 54.5116L10.1274 15.961H5.49023C4.79988 15.961 4.24023 15.4014 4.24023 14.711C4.24023 14.0206 4.79988 13.461 5.49023 13.461H11.2383C11.249 13.4609 11.2596 13.4609 11.2702 13.461H20.3763Z" fill="#202120"/>
<path fill-rule="evenodd" clip-rule="evenodd" d="M22.8746 25.0249C22.8418 24.3353 22.2561 23.803 21.5665 23.8358C20.877 23.8686 20.3446 24.4543 20.3774 25.1438L21.53 49.3483C21.5628 50.0379 22.1485 50.5703 22.8381 50.5374C23.5276 50.5046 24.06 49.919 24.0272 49.2294L22.8746 25.0249ZM42.4326 23.8358C43.1222 23.8686 43.6545 24.4543 43.6217 25.1438L42.4691 49.3483C42.4363 50.0379 41.8507 50.5703 41.1611 50.5374C40.4715 50.5046 39.9391 49.919 39.972 49.2294L41.1245 25.0249C41.1574 24.3353 41.743 23.803 42.4326 23.8358ZM31.9991 23.8344C32.6894 23.8344 33.2491 24.394 33.2491 25.0844V49.2888C33.2491 49.9792 32.6894 50.5388 31.9991 50.5388C31.3087 50.5388 30.7491 49.9792 30.7491 49.2888V25.0844C30.7491 24.394 31.3087 23.8344 31.9991 23.8344Z" fill="#FF4612"/>
</svg>
