<svg width="64" height="64" viewBox="0 0 64 64" fill="none" xmlns="http://www.w3.org/2000/svg">
<path d="M4.80054 4.80029H26.5604V26.5602H4.80054V4.80029Z" stroke="#202120" stroke-width="2.5" stroke-linecap="round" stroke-linejoin="round"/>
<path d="M37.4399 15.6802C37.4399 17.109 37.7214 18.5238 38.2681 19.8438C38.8149 21.1638 39.6163 22.3632 40.6266 23.3735C41.6369 24.3838 42.8363 25.1852 44.1563 25.732C45.4763 26.2788 46.8911 26.5602 48.3199 26.5602C49.7487 26.5602 51.1634 26.2788 52.4835 25.732C53.8035 25.1852 55.0029 24.3838 56.0132 23.3735C57.0235 22.3632 57.8249 21.1638 58.3716 19.8438C58.9184 18.5238 59.1998 17.109 59.1998 15.6802C59.1998 14.2515 58.9184 12.8367 58.3716 11.5167C57.8249 10.1966 57.0235 8.99725 56.0132 7.98696C55.0029 6.97666 53.8035 6.17525 52.4835 5.62848C51.1634 5.08171 49.7487 4.80029 48.3199 4.80029C46.8911 4.80029 45.4763 5.08171 44.1563 5.62848C42.8363 6.17525 41.6369 6.97666 40.6266 7.98696C39.6163 8.99725 38.8149 10.1966 38.2681 11.5167C37.7214 12.8367 37.4399 14.2515 37.4399 15.6802V15.6802Z" stroke="#202120" stroke-width="2.5" stroke-linecap="round" stroke-linejoin="round"/>
<path d="M48.4071 36.78C48.2262 36.4322 47.9533 36.1408 47.6182 35.9374C47.2831 35.734 46.8987 35.6265 46.5067 35.6265C46.1147 35.6265 45.7303 35.734 45.3952 35.9374C45.0601 36.1408 44.7872 36.4322 44.6063 36.78L34.1205 55.6555C33.9221 56.0165 33.8167 56.4213 33.8138 56.8332C33.8108 57.2451 33.9104 57.6514 34.1036 58.0152C34.2856 58.3681 34.5602 58.6647 34.8979 58.8734C35.2357 59.0821 35.6239 59.195 36.0209 59.1999H56.9926C57.3895 59.195 57.7777 59.0821 58.1155 58.8734C58.4532 58.6647 58.7278 58.3681 58.9098 58.0152C59.103 57.6514 59.2026 57.2451 59.1996 56.8332C59.1967 56.4213 59.0913 56.0165 58.8929 55.6555L48.4071 36.78Z" stroke="#FF4612" stroke-width="2.5" stroke-linecap="round" stroke-linejoin="round"/>
<path d="M17.1331 34.5C16.9566 34.2862 16.7351 34.114 16.4843 33.9959C16.2335 33.8777 15.9597 33.8164 15.6825 33.8164C15.4052 33.8164 15.1314 33.8777 14.8806 33.9959C14.6298 34.114 14.4083 34.2862 14.2318 34.5L5.26189 45.2276C4.96298 45.5868 4.79932 46.0393 4.79932 46.5066C4.79932 46.9739 4.96298 47.4264 5.26189 47.7856L14.227 58.5133C14.4034 58.7271 14.625 58.8992 14.8758 59.0174C15.1266 59.1356 15.4004 59.1969 15.6776 59.1969C15.9549 59.1969 16.2287 59.1356 16.4795 59.0174C16.7302 58.8992 16.9518 58.7271 17.1283 58.5133L26.0934 47.7856C26.3923 47.4264 26.5559 46.9739 26.5559 46.5066C26.5559 46.0393 26.3923 45.5868 26.0934 45.2276L17.1331 34.5Z" stroke="#202120" stroke-width="2.5" stroke-linecap="round" stroke-linejoin="round"/>
</svg>
