<svg width="64" height="64" viewBox="0 0 64 64" fill="none" xmlns="http://www.w3.org/2000/svg">
<path d="M40.6667 32L47.6001 38.9334L40.6667 45.8668" stroke="#FF4612" stroke-width="2.5" stroke-linecap="round" stroke-linejoin="round"/>
<path d="M23.3333 32L16.3999 38.9334L23.3333 45.8668" stroke="#FF4612" stroke-width="2.5" stroke-linecap="round" stroke-linejoin="round"/>
<path d="M35.4666 32L28.5332 45.8668" stroke="#FF4612" stroke-width="2.5" stroke-linecap="round" stroke-linejoin="round"/>
<path d="M5.42188 11.2H58.5778V52.8002H5.42188V11.2Z" stroke="#202120" stroke-width="2.5" stroke-linecap="round" stroke-linejoin="round"/>
<path d="M5.42188 22.7556H58.5778" stroke="#202120" stroke-width="2.5" stroke-linecap="round" stroke-linejoin="round"/>
<path d="M13.5109 16.3999C13.6252 16.3999 13.7369 16.4338 13.8319 16.4973C13.9269 16.5608 14.001 16.651 14.0447 16.7566C14.0884 16.8622 14.0999 16.9783 14.0776 17.0904C14.0553 17.2025 14.0002 17.3054 13.9194 17.3862C13.8386 17.467 13.7357 17.5221 13.6236 17.5444C13.5115 17.5667 13.3954 17.5552 13.2898 17.5115C13.1842 17.4678 13.094 17.3937 13.0305 17.2987C12.967 17.2037 12.9331 17.092 12.9331 16.9777C12.9331 16.8244 12.994 16.6775 13.1023 16.5691C13.2107 16.4608 13.3576 16.3999 13.5109 16.3999" stroke="#202120" stroke-width="2.5" stroke-linecap="round" stroke-linejoin="round"/>
<path d="M20.4442 16.3999C20.5585 16.3999 20.6702 16.4338 20.7652 16.4973C20.8603 16.5608 20.9343 16.651 20.978 16.7566C21.0218 16.8622 21.0332 16.9783 21.0109 17.0904C20.9886 17.2025 20.9336 17.3054 20.8528 17.3862C20.772 17.467 20.669 17.5221 20.557 17.5444C20.4449 17.5667 20.3287 17.5552 20.2231 17.5115C20.1176 17.4678 20.0273 17.3937 19.9638 17.2987C19.9003 17.2037 19.8665 17.092 19.8665 16.9777C19.8665 16.8244 19.9273 16.6775 20.0357 16.5691C20.144 16.4608 20.291 16.3999 20.4442 16.3999Z" stroke="#202120" stroke-width="2.5" stroke-linecap="round" stroke-linejoin="round"/>
<path d="M27.3776 16.3999C27.4919 16.3999 27.6036 16.4338 27.6986 16.4973C27.7936 16.5608 27.8677 16.651 27.9114 16.7566C27.9551 16.8622 27.9666 16.9783 27.9443 17.0904C27.922 17.2025 27.8669 17.3054 27.7861 17.3862C27.7053 17.467 27.6024 17.5221 27.4903 17.5444C27.3782 17.5667 27.2621 17.5552 27.1565 17.5115C27.0509 17.4678 26.9607 17.3937 26.8972 17.2987C26.8337 17.2037 26.7998 17.092 26.7998 16.9777C26.7998 16.8244 26.8607 16.6775 26.969 16.5691C27.0774 16.4608 27.2243 16.3999 27.3776 16.3999Z" stroke="#202120" stroke-width="2.5" stroke-linecap="round" stroke-linejoin="round"/>
</svg>
