<svg width="64" height="64" viewBox="0 0 64 64" fill="none" xmlns="http://www.w3.org/2000/svg">
<path d="M15.7278 16.0015H11.7274C8.7816 16.0015 6.39355 18.3895 6.39355 21.3353V51.3382C6.39355 53.9158 8.4831 56.0054 11.0607 56.0054C13.6383 56.0054 15.7278 53.9158 15.7278 51.3382" stroke="#202120" stroke-width="2.5" stroke-linecap="round" stroke-linejoin="round"/>
<path d="M15.728 51.3383V12.5726C15.728 11.3601 16.2097 10.1972 17.0671 9.33981C17.9245 8.48241 19.0874 8.00073 20.2999 8.00073H39.3783C40.9698 8.00072 42.4961 8.63291 43.6214 9.75824L48.6406 14.7774C49.7659 15.9027 50.3981 17.429 50.3981 19.0205V32.0031" stroke="#FF4612" stroke-width="2.5" stroke-linecap="round" stroke-linejoin="round"/>
<path d="M39.9967 21.6021H22.395" stroke="#FF4612" stroke-width="2" stroke-linecap="round" stroke-linejoin="round"/>
<path d="M30.3958 16.8015H22.395" stroke="#FF4612" stroke-width="2" stroke-linecap="round" stroke-linejoin="round"/>
<path d="M39.9967 27.2027H22.395" stroke="#FF4612" stroke-width="2" stroke-linecap="round" stroke-linejoin="round"/>
<path d="M15.6553 52.3854L22.1443 35.4305C22.9343 33.3663 24.9155 32.0032 27.1257 32.0032H51.7263C53.482 32.0032 55.1253 32.8673 56.1205 34.3137C57.1156 35.7602 57.3352 37.6038 56.7077 39.2435L51.6042 52.5781C50.8141 54.6424 48.8328 56.0055 46.6226 56.0055H11.0605" stroke="#202120" stroke-width="2.5" stroke-linecap="round" stroke-linejoin="round"/>
</svg>
