<svg width="64" height="64" viewBox="0 0 64 64" fill="none" xmlns="http://www.w3.org/2000/svg">
<path d="M42.6771 56.4786L33.494 55.0172C32.7263 54.8955 32.0098 54.5566 31.4297 54.0408C30.8497 53.525 30.4306 52.854 30.2221 52.1077V52.1077C30.059 51.5241 30.0295 50.9115 30.1358 50.315C30.2422 49.7186 30.4816 49.1536 30.8364 48.6617C31.1913 48.1699 31.6525 47.7637 32.186 47.4734C32.7195 47.183 33.3116 47.0157 33.9187 46.984L37.1679 46.8126L30.7404 35.5355C30.2533 34.6809 30.1269 33.6686 30.3888 32.7211C30.6508 31.7737 31.2797 30.9687 32.1372 30.4834C32.9947 29.998 34.0105 29.872 34.9613 30.133C35.912 30.3941 36.7198 31.0208 37.2068 31.8753L40.8796 38.3194L45.5819 36.601C47.2347 35.997 49.0489 35.9969 50.7017 36.6007C52.3545 37.2045 53.7388 38.373 54.6083 39.8983L58.8431 47.3283" stroke="#FF4612" stroke-width="2.5" stroke-linecap="round" stroke-linejoin="round"/>
<path d="M6 45.2014H24.5917" stroke="#202120" stroke-width="2.5" stroke-linecap="round" stroke-linejoin="round"/>
<path d="M25.2103 56.3179H9.72468C8.73852 56.3179 7.79275 55.9275 7.09542 55.2326C6.3981 54.5377 6.00635 53.5952 6.00635 52.6124V8.14664C6.00635 7.16389 6.3981 6.22138 7.09542 5.52647C7.79275 4.83156 8.73852 4.44116 9.72468 4.44116H39.4714C40.4575 4.44116 41.4033 4.83156 42.1006 5.52647C42.798 6.22138 43.1897 7.16389 43.1897 8.14664V24.8213" stroke="#202120" stroke-width="2.5" stroke-linecap="round" stroke-linejoin="round"/>
<path d="M13.4429 15.5576H20.8795V22.9686H13.4429V15.5576Z" stroke="#202120" stroke-width="2.5" stroke-linecap="round" stroke-linejoin="round"/>
<path d="M28.3174 15.5574H35.7541V22.9683H28.3174V15.5574Z" stroke="#202120" stroke-width="2.5" stroke-linecap="round" stroke-linejoin="round"/>
<path d="M13.4429 30.3796H20.8795V37.7906H13.4429V30.3796Z" stroke="#202120" stroke-width="2.5" stroke-linecap="round" stroke-linejoin="round"/>
</svg>
