<svg width="64" height="64" viewBox="0 0 64 64" fill="none" xmlns="http://www.w3.org/2000/svg">
<path d="M4.83594 48.5434C4.83594 44.0988 11.3219 44.0988 11.3219 48.5434C11.3219 50.8851 8.0789 54.9389 8.0789 54.9389C8.0789 54.9389 4.83594 50.6617 4.83594 48.5434Z" fill="#FF4612"/>
<path d="M8.07861 30.6167L8.07861 46.8315" stroke="#FF4612" stroke-width="2.5"/>
<path d="M15.7985 34.3275L4.88673 29.6089C3.61577 29.0593 3.59553 27.2643 4.85378 26.6861L30.9309 14.7048C31.3499 14.5123 31.8315 14.5098 32.2524 14.6981L59.0339 26.6793C60.3115 27.2509 60.2913 29.0716 59.0014 29.6147L47.8086 34.3275" stroke="#202120" stroke-width="2.5" stroke-linecap="round"/>
<path d="M16.186 43.8965C21.8612 40.3456 41.319 40.3456 47.8049 43.8965M17.0225 45.6361C24.4659 49.1188 40.2734 49.1218 47.036 45.6452C47.5267 45.3929 47.8049 44.8748 47.8049 44.3231C47.8049 40.1561 47.8049 36.5315 47.805 32.3692C47.805 31.7881 47.4947 31.2478 46.9689 31.0002C39.5706 27.5162 24.4204 27.5162 17.0221 31.0002C16.4964 31.2478 16.1861 31.7869 16.1861 32.368C16.1861 36.0037 16.186 40.6338 16.186 44.2695C16.186 44.8506 16.4961 45.3898 17.0225 45.6361Z" stroke="#202120" stroke-width="2.5"/>
</svg>
