<svg width="64" height="64" viewBox="0 0 64 64" fill="none" xmlns="http://www.w3.org/2000/svg">
<path fill-rule="evenodd" clip-rule="evenodd" d="M35.4592 7.57229L55.3703 22.8197C56.776 23.8962 57.6004 25.5659 57.6004 27.3365L57.6002 49.0667C57.6002 53.7796 53.7797 57.6001 49.0669 57.6001H14.9337C10.2209 57.6001 6.40039 53.7796 6.40039 49.0667V27.3364C6.40037 25.5659 7.22472 23.8963 8.63043 22.8198L28.5415 7.57229C30.5826 6.00927 33.4182 6.00927 35.4592 7.57229Z" stroke="#202120" stroke-width="2.5" stroke-linecap="round" stroke-linejoin="round"/>
<path d="M57.2885 25.4894L35.4595 42.2056C33.4185 43.7685 30.5829 43.7685 28.5419 42.2056L6.71289 25.4894" stroke="#202120" stroke-width="2.5" stroke-linecap="round" stroke-linejoin="round"/>
<path d="M37.6899 26.311L32.001 30.5777" stroke="#FF4612" stroke-width="2.5" stroke-linecap="round" stroke-linejoin="round"/>
<path d="M26.3115 26.311L32.0004 30.5777" stroke="#FF4612" stroke-width="2.5" stroke-linecap="round" stroke-linejoin="round"/>
<path d="M32.001 19.2V30.5777" stroke="#FF4612" stroke-width="2.5" stroke-linecap="round" stroke-linejoin="round"/>
</svg>
