<svg width="64" height="64" viewBox="0 0 64 64" fill="none" xmlns="http://www.w3.org/2000/svg">
<path d="M27.7326 3.51382C29.1248 3.30707 30.5495 3.19995 31.9992 3.19995C47.905 3.19995 60.7992 16.0941 60.7992 31.9999C60.7992 47.9057 47.905 60.7999 31.9992 60.7999C16.0934 60.7999 3.19922 47.9057 3.19922 31.9999C3.19922 30.7158 3.28326 29.4513 3.44615 28.2116" stroke="#202120" stroke-width="2.5" stroke-linecap="round"/>
<path d="M31.7412 15.6002V35.2002L45.0158 40.407" stroke="#202120" stroke-width="2.5" stroke-linecap="round" stroke-linejoin="round"/>
<path fill-rule="evenodd" clip-rule="evenodd" d="M12.7996 24C18.9852 24 23.9996 18.9856 23.9996 12.8C23.9996 6.61439 18.9852 1.59998 12.7996 1.59998C6.61402 1.59998 1.59961 6.61439 1.59961 12.8C1.59961 18.9856 6.61402 24 12.7996 24ZM15.6057 8.3025C16.0091 7.89913 16.6631 7.89913 17.0664 8.3025C17.4698 8.70586 17.4698 9.35985 17.0664 9.76321L14.145 12.6846L17.0664 15.6061C17.4698 16.0094 17.4698 16.6634 17.0664 17.0668C16.6631 17.4702 16.0091 17.4702 15.6057 17.0668L12.6843 14.1454L9.76285 17.0668C9.35948 17.4702 8.7055 17.4702 8.30213 17.0668C7.89877 16.6634 7.89877 16.0094 8.30213 15.6061L11.2236 12.6846L8.30213 9.76322C7.89877 9.35985 7.89877 8.70586 8.30213 8.3025C8.7055 7.89913 9.35948 7.89913 9.76285 8.3025L12.6843 11.2239L15.6057 8.3025Z" fill="#FF4612"/>
</svg>
