<svg width="64" height="64" viewBox="0 0 64 64" fill="none" xmlns="http://www.w3.org/2000/svg">
<g clip-path="url(#clip0_333_406)">
<path d="M47.6519 33.3043C47.6519 37.4555 46.0028 41.4367 43.0675 44.372C40.1321 47.3073 36.151 48.9564 31.9998 48.9564C27.8486 48.9564 23.8674 47.3073 20.9321 44.372C17.9967 41.4367 16.3477 37.4555 16.3477 33.3043V28.0869C16.3477 23.9357 17.9967 19.9546 20.9321 17.0192C23.8674 14.0839 27.8486 12.4348 31.9998 12.4348C36.151 12.4348 40.1321 14.0839 43.0675 17.0192C46.0028 19.9546 47.6519 23.9357 47.6519 28.0869V33.3043Z" stroke="#202120" stroke-width="2.5" stroke-linecap="round" stroke-linejoin="round"/>
<path d="M27.435 31.9999C27.822 31.9999 28.2003 32.1146 28.522 32.3296C28.8438 32.5446 29.0945 32.8502 29.2426 33.2077C29.3907 33.5652 29.4294 33.9586 29.3539 34.3381C29.2785 34.7176 29.0921 35.0662 28.8185 35.3399C28.5449 35.6135 28.1963 35.7998 27.8167 35.8753C27.4372 35.9508 27.0438 35.9121 26.6863 35.764C26.3288 35.6159 26.0232 35.3651 25.8082 35.0434C25.5933 34.7216 25.4785 34.3434 25.4785 33.9564C25.4785 33.4375 25.6846 32.9398 26.0516 32.5729C26.4185 32.206 26.9161 31.9999 27.435 31.9999Z" fill="#202120"/>
<path d="M36.5649 31.9999C36.9519 31.9999 37.3301 32.1146 37.6519 32.3296C37.9736 32.5446 38.2244 32.8502 38.3725 33.2077C38.5206 33.5652 38.5593 33.9586 38.4838 34.3381C38.4083 34.7176 38.222 35.0662 37.9484 35.3399C37.6748 35.6135 37.3261 35.7998 36.9466 35.8753C36.5671 35.9508 36.1737 35.9121 35.8162 35.764C35.4587 35.6159 35.1531 35.3651 34.9381 35.0434C34.7231 34.7216 34.6084 34.3434 34.6084 33.9564C34.6084 33.4375 34.8145 32.9398 35.1814 32.5729C35.5484 32.206 36.046 31.9999 36.5649 31.9999Z" fill="#202120"/>
<path d="M35.6879 39.6014C34.7095 40.5795 33.3827 41.129 31.9992 41.129C30.6158 41.129 29.2889 40.5795 28.3105 39.6014" stroke="#202120" stroke-width="2.5" stroke-linecap="round" stroke-linejoin="round"/>
<path d="M47.6519 29.3912C47.6519 29.3912 37.2171 29.3912 31.9998 21.5652C26.7824 29.3912 16.3477 29.3912 16.3477 29.3912" stroke="#202120" stroke-width="2.5" stroke-linecap="round" stroke-linejoin="round"/>
<path d="M2 17.6521V9.82605C2 7.75046 2.82453 5.75987 4.2922 4.2922C5.75987 2.82453 7.75046 2 9.82606 2H17.6521" stroke="#FF4612" stroke-width="2.5" stroke-linecap="round" stroke-linejoin="round"/>
<path d="M61.9998 17.6521V9.82605C61.9998 7.75046 61.1752 5.75987 59.7076 4.2922C58.2399 2.82453 56.2493 2 54.1737 2H46.3477" stroke="#FF4612" stroke-width="2.5" stroke-linecap="round" stroke-linejoin="round"/>
<path d="M2 46.3475V54.1736C2 56.2492 2.82453 58.2398 4.2922 59.7074C5.75987 61.1751 7.75046 61.9996 9.82606 61.9996H17.6521" stroke="#FF4612" stroke-width="2.5" stroke-linecap="round" stroke-linejoin="round"/>
<path d="M61.9998 46.3475V54.1736C61.9998 56.2492 61.1752 58.2398 59.7076 59.7074C58.2399 61.1751 56.2493 61.9996 54.1737 61.9996H46.3477" stroke="#FF4612" stroke-width="2.5" stroke-linecap="round" stroke-linejoin="round"/>
</g>
<defs>
<clipPath id="clip0_333_406">
<rect width="64" height="64" fill="white"/>
</clipPath>
</defs>
</svg>
