<svg width="64" height="64" viewBox="0 0 64 64" fill="none" xmlns="http://www.w3.org/2000/svg">
<path d="M24.6413 42.4005C24.5879 43.8019 24.9397 45.1889 25.6544 46.3955C26.3692 47.6021 27.4166 48.577 28.6713 49.2035C29.926 49.8299 31.3347 50.0814 32.7286 49.9278C34.1226 49.7741 35.4427 49.2219 36.5308 48.3372L35.2141 46.7178C34.4374 47.3493 33.495 47.7436 32.5 47.8533C31.5049 47.9629 30.4993 47.7834 29.6037 47.3362C28.708 46.889 27.9603 46.193 27.4501 45.3317C26.9399 44.4704 26.6888 43.4803 26.7269 42.48L24.6413 42.4005Z" fill="#202120"/>
<path d="M34.629 30.4064V36.5483H29.6387" stroke="#202120" stroke-width="1.91935"/>
<rect x="42.6904" y="21.9613" width="5.37419" height="5.37419" rx="2.6871" fill="#202120"/>
<rect x="15.8193" y="21.9613" width="5.37419" height="5.37419" rx="2.6871" fill="#202120"/>
<circle cx="31.9419" cy="31.9419" r="28.6919" stroke="#FF4612" stroke-width="2.5"/>
</svg>
