<svg width="64" height="64" viewBox="0 0 64 64" fill="none" xmlns="http://www.w3.org/2000/svg">
<path d="M7.07764 24.3663C9.15617 19.8099 12.5228 15.9614 16.7624 13.2954C21.0019 10.6294 25.9291 9.26254 30.9362 9.3633C33.0586 9.38586 35.1712 9.65507 37.2315 10.1655L42.8725 3.69664C43.1668 3.45065 43.522 3.28865 43.9007 3.22773C44.2793 3.16681 44.6674 3.20924 45.024 3.35052C45.3806 3.49181 45.6924 3.72672 45.9266 4.03047C46.1607 4.33422 46.3086 4.69554 46.3545 5.07632L47.3672 14.9503C51.2157 17.871 54.0705 21.9069 55.5429 26.5084H60.8056V43.6563H53.7223C52.2591 46.269 50.3198 48.5846 48.0044 50.4836C45.5444 52.5219 42.7213 54.0768 39.6836 55.0664" stroke="#202120" stroke-width="2.5" stroke-linecap="round" stroke-linejoin="round"/>
<path d="M3.19971 37.3643C3.19971 39.4862 4.80128 41.5212 7.65209 43.0216C10.5029 44.5221 14.3694 45.365 18.4011 45.365C22.4328 45.365 26.2993 44.5221 29.1501 43.0216C32.0009 41.5212 33.6025 39.4862 33.6025 37.3643C33.6025 35.2423 32.0009 33.2073 29.1501 31.7069C26.2993 30.2065 22.4328 29.3635 18.4011 29.3635C14.3694 29.3635 10.5029 30.2065 7.65209 31.7069C4.80128 33.2073 3.19971 35.2423 3.19971 37.3643V37.3643Z" stroke="#FF4612" stroke-width="2.5" stroke-linecap="round" stroke-linejoin="round"/>
<path d="M33.6025 37.3643V53.3657C33.6025 57.7848 26.7973 61.3665 18.4011 61.3665C10.0049 61.3665 3.19971 57.7848 3.19971 53.3657V37.3643" stroke="#FF4612" stroke-width="2.5" stroke-linecap="round" stroke-linejoin="round"/>
<path d="M3.19971 45.365C3.19971 49.7841 10.0049 53.3657 18.4011 53.3657C26.7973 53.3657 33.6025 49.7841 33.6025 45.365" stroke="#FF4612" stroke-width="2.5" stroke-linecap="round" stroke-linejoin="round"/>
<path d="M43.604 22.3977C43.2084 22.3977 42.8218 22.515 42.4929 22.7348C42.164 22.9545 41.9076 23.2669 41.7562 23.6323C41.6049 23.9978 41.5653 24.3999 41.6424 24.7879C41.7196 25.1759 41.9101 25.5322 42.1898 25.8119C42.4695 26.0916 42.8259 26.2821 43.2138 26.3593C43.6018 26.4365 44.0039 26.3969 44.3694 26.2455C44.7348 26.0941 45.0472 25.8378 45.267 25.5089C45.4867 25.18 45.604 24.7933 45.604 24.3977C45.604 23.8673 45.3933 23.3586 45.0182 22.9835C44.6432 22.6084 44.1344 22.3977 43.604 22.3977Z" fill="#202120"/>
<path d="M45.749 52.1421L48.0049 60.8014" stroke="#202120" stroke-width="2.5" stroke-linecap="round" stroke-linejoin="round"/>
</svg>
