<svg width="64" height="64" viewBox="0 0 64 64" fill="none" xmlns="http://www.w3.org/2000/svg">
<path d="M49.3981 18.3993L43.6267 6.85644C43.4084 6.41963 43.1062 6.0301 42.7374 5.71011C42.3685 5.39013 41.9402 5.14595 41.477 4.99153C41.0137 4.83712 40.5246 4.77549 40.0375 4.81017C39.5505 4.84485 39.075 4.97516 38.6383 5.19365L12.2271 18.3993" stroke="#FF4612" stroke-width="2.5" stroke-linecap="round" stroke-linejoin="round"/>
<path d="M56.8324 48.1363V51.8534C56.8324 53.8251 56.0492 55.7161 54.655 57.1102C53.2608 58.5044 51.3699 59.2877 49.3982 59.2877H12.2272C10.2555 59.2877 8.36458 58.5044 6.9704 57.1102C5.57621 55.7161 4.79297 53.8251 4.79297 51.8534V25.8336C4.79297 23.862 5.57621 21.971 6.9704 20.5768C8.36458 19.1827 10.2555 18.3994 12.2272 18.3994H49.3982C51.3699 18.3994 53.2608 19.1827 54.655 20.5768C56.0492 21.971 56.8324 23.862 56.8324 25.8336V29.5508" stroke="#202120" stroke-width="2.5" stroke-linecap="round" stroke-linejoin="round"/>
<path d="M56.8326 48.1361C57.8184 48.1361 58.7639 47.7445 59.461 47.0474C60.1581 46.3503 60.5497 45.4048 60.5497 44.419V33.2677C60.5497 32.2818 60.1581 31.3363 59.461 30.6393C58.7639 29.9422 57.8184 29.5505 56.8326 29.5505H47.5398C45.0752 29.5505 42.7116 30.5296 40.9689 32.2723C39.2261 34.0151 38.2471 36.3787 38.2471 38.8433C38.2471 41.3079 39.2261 43.6716 40.9689 45.4143C42.7116 47.1571 45.0752 48.1361 47.5398 48.1361H56.8326Z" stroke="#202120" stroke-width="2.5" stroke-linecap="round" stroke-linejoin="round"/>
<path d="M47.5391 37.9146C47.7229 37.9146 47.9026 37.9691 48.0554 38.0712C48.2082 38.1733 48.3273 38.3184 48.3977 38.4882C48.468 38.658 48.4864 38.8449 48.4506 39.0251C48.4147 39.2054 48.3262 39.371 48.1962 39.5009C48.0663 39.6309 47.9007 39.7194 47.7204 39.7553C47.5402 39.7911 47.3533 39.7727 47.1835 39.7024C47.0137 39.632 46.8686 39.5129 46.7665 39.3601C46.6644 39.2073 46.6099 39.0276 46.6099 38.8438C46.6099 38.5974 46.7078 38.361 46.882 38.1867C47.0563 38.0125 47.2927 37.9146 47.5391 37.9146" stroke="#202120" stroke-width="2.5" stroke-linecap="round" stroke-linejoin="round"/>
</svg>
