<svg width="64" height="64" viewBox="0 0 64 64" fill="none" xmlns="http://www.w3.org/2000/svg">
<path d="M25.1431 39.932L26.6657 33.8014C26.7253 33.5616 26.7127 33.3095 26.6294 33.0769C26.546 32.8442 26.3957 32.6415 26.1974 32.4941L21.1236 28.7451C20.958 28.6223 20.7648 28.5424 20.5609 28.5122C20.357 28.4821 20.1489 28.5028 19.9549 28.5724C19.7609 28.642 19.5871 28.7584 19.4489 28.9113C19.3107 29.0642 19.2124 29.2488 19.1627 29.4488L17.64 35.5794C17.5804 35.8192 17.5931 36.0713 17.6764 36.3039C17.7597 36.5366 17.91 36.7393 18.1084 36.8867L23.1822 40.6433C23.3482 40.766 23.542 40.8457 23.7464 40.8754C23.9507 40.9051 24.1592 40.8837 24.3533 40.8133C24.5474 40.7429 24.7211 40.6256 24.8589 40.4719C24.9967 40.3181 25.0943 40.1326 25.1431 39.932V39.932Z" stroke="#202120" stroke-width="2.5" stroke-linecap="round" stroke-linejoin="round"/>
<path d="M36.2622 33.2253L29.1925 13.5311C29.0794 13.2196 28.8475 12.9656 28.5476 12.8248C28.2476 12.6839 27.9041 12.6677 27.5922 12.7797L4.02128 21.2319C3.7098 21.345 3.45582 21.5769 3.31499 21.8769C3.17417 22.1768 3.15798 22.5204 3.26998 22.8322L15.113 55.8371C15.2261 56.1492 15.4584 56.4037 15.7589 56.5445C16.0595 56.6854 16.4036 56.7012 16.7158 56.5884L32.7111 50.8434" stroke="#202120" stroke-width="2.5" stroke-linecap="round" stroke-linejoin="round"/>
<path d="M37.9227 23.2205C37.3618 25.6623 39.518 27.4479 41.9598 28.0114C44.4015 28.5748 47.1237 27.9112 47.6872 25.472C48.2507 23.0327 44.2112 18.2444 44.2112 18.2444C44.2112 18.2444 38.4862 20.7813 37.9227 23.2205Z" stroke="#202120" stroke-width="2.5" stroke-linecap="round" stroke-linejoin="round"/>
<path d="M41.9596 28.0112L41.396 30.4509" stroke="#202120" stroke-width="2.5" stroke-linecap="round" stroke-linejoin="round"/>
<path d="M54.8991 33.1928L60.1583 10.3556C60.1954 10.1952 60.2005 10.0291 60.1734 9.86683C60.1463 9.70451 60.0874 9.54913 60.0002 9.40958C59.913 9.27002 59.7991 9.14903 59.6651 9.05352C59.531 8.958 59.3795 8.88985 59.2191 8.85294L34.8193 3.23317C34.659 3.19607 34.4929 3.19093 34.3306 3.21806C34.1682 3.24518 34.0129 3.30404 33.8733 3.39126C33.7338 3.47848 33.6128 3.59236 33.5173 3.72638C33.4217 3.86039 33.3536 4.01193 33.3167 4.1723L30.3916 16.8669" stroke="#202120" stroke-width="2.5" stroke-linecap="round" stroke-linejoin="round"/>
<path d="M53.6882 12.7346C53.5221 12.7346 53.3629 12.8006 53.2454 12.918C53.128 13.0355 53.062 13.1947 53.062 13.3608" stroke="#202120" stroke-width="2.5" stroke-linecap="round" stroke-linejoin="round"/>
<path d="M54.3137 13.3608C54.3137 13.1947 54.2477 13.0355 54.1303 12.918C54.0129 12.8006 53.8536 12.7346 53.6875 12.7346" stroke="#202120" stroke-width="2.5" stroke-linecap="round" stroke-linejoin="round"/>
<path d="M53.6875 13.987C53.8536 13.987 54.0129 13.9211 54.1303 13.8036C54.2477 13.6862 54.3137 13.5269 54.3137 13.3608" stroke="#202120" stroke-width="2.5" stroke-linecap="round" stroke-linejoin="round"/>
<path d="M53.062 13.3606C53.062 13.5267 53.128 13.686 53.2454 13.8034C53.3629 13.9208 53.5221 13.9868 53.6882 13.9868" stroke="#202120" stroke-width="2.5" stroke-linecap="round" stroke-linejoin="round"/>
<path d="M18.9353 49.1831C18.7692 49.1831 18.6099 49.2491 18.4925 49.3665C18.3751 49.484 18.3091 49.6432 18.3091 49.8093" stroke="#202120" stroke-width="2.5" stroke-linecap="round" stroke-linejoin="round"/>
<path d="M19.5608 49.8093C19.5611 49.727 19.5451 49.6454 19.5138 49.5693C19.4824 49.4932 19.4363 49.424 19.3781 49.3658C19.3199 49.3076 19.2507 49.2615 19.1746 49.2301C19.0985 49.1988 19.0169 49.1828 18.9346 49.1831" stroke="#202120" stroke-width="2.5" stroke-linecap="round" stroke-linejoin="round"/>
<path d="M18.9346 50.4353C19.0169 50.4356 19.0985 50.4197 19.1746 50.3883C19.2507 50.3569 19.3199 50.3108 19.3781 50.2526C19.4363 50.1944 19.4824 50.1252 19.5138 50.0491C19.5451 49.973 19.5611 49.8914 19.5608 49.8091" stroke="#202120" stroke-width="2.5" stroke-linecap="round" stroke-linejoin="round"/>
<path d="M18.3091 49.8091C18.3091 49.9752 18.3751 50.1344 18.4925 50.2519C18.6099 50.3693 18.7692 50.4353 18.9353 50.4353" stroke="#202120" stroke-width="2.5" stroke-linecap="round" stroke-linejoin="round"/>
<path d="M25.3689 18.9329C25.2028 18.9329 25.0435 18.9988 24.9261 19.1163C24.8087 19.2337 24.7427 19.393 24.7427 19.5591" stroke="#202120" stroke-width="2.5" stroke-linecap="round" stroke-linejoin="round"/>
<path d="M25.9949 19.5591C25.9952 19.4767 25.9792 19.3952 25.9479 19.319C25.9165 19.2429 25.8704 19.1738 25.8122 19.1155C25.754 19.0573 25.6848 19.0112 25.6087 18.9799C25.5326 18.9485 25.451 18.9325 25.3687 18.9329" stroke="#202120" stroke-width="2.5" stroke-linecap="round" stroke-linejoin="round"/>
<path d="M25.3687 20.1853C25.451 20.1856 25.5326 20.1696 25.6087 20.1383C25.6848 20.1069 25.754 20.0608 25.8122 20.0026C25.8704 19.9444 25.9165 19.8752 25.9479 19.7991C25.9792 19.723 25.9952 19.6414 25.9949 19.5591" stroke="#202120" stroke-width="2.5" stroke-linecap="round" stroke-linejoin="round"/>
<path d="M24.7427 19.5591C24.7427 19.7252 24.8087 19.8844 24.9261 20.0019C25.0435 20.1193 25.2028 20.1853 25.3689 20.1853" stroke="#202120" stroke-width="2.5" stroke-linecap="round" stroke-linejoin="round"/>
<path d="M38.2534 38.2615H60.7925V60.8007H38.2534V38.2615Z" stroke="#FF4612" stroke-width="2.5" stroke-linecap="round" stroke-linejoin="round"/>
<path d="M49.5225 48.9053C49.6885 48.9053 49.8478 48.9712 49.9653 49.0887C50.0827 49.2061 50.1487 49.3654 50.1487 49.5315" stroke="#FF4612" stroke-width="2.5" stroke-linecap="round" stroke-linejoin="round"/>
<path d="M48.8965 49.5315C48.8965 49.3654 48.9625 49.2061 49.0799 49.0887C49.1973 48.9712 49.3566 48.9053 49.5227 48.9053" stroke="#FF4612" stroke-width="2.5" stroke-linecap="round" stroke-linejoin="round"/>
<path d="M49.5227 50.1572C49.3566 50.1572 49.1973 50.0912 49.0799 49.9738C48.9625 49.8564 48.8965 49.6971 48.8965 49.531" stroke="#FF4612" stroke-width="2.5" stroke-linecap="round" stroke-linejoin="round"/>
<path d="M50.1487 49.531C50.1487 49.6971 50.0827 49.8564 49.9653 49.9738C49.8478 50.0912 49.6885 50.1572 49.5225 50.1572" stroke="#FF4612" stroke-width="2.5" stroke-linecap="round" stroke-linejoin="round"/>
<path d="M44.5151 43.896C44.6812 43.896 44.8405 43.962 44.9579 44.0794C45.0754 44.1968 45.1413 44.3561 45.1413 44.5222" stroke="#FF4612" stroke-width="2.5" stroke-linecap="round" stroke-linejoin="round"/>
<path d="M43.8882 44.5222C43.8882 44.3561 43.9542 44.1968 44.0716 44.0794C44.189 43.962 44.3483 43.896 44.5144 43.896" stroke="#FF4612" stroke-width="2.5" stroke-linecap="round" stroke-linejoin="round"/>
<path d="M44.5144 45.1484C44.3483 45.1484 44.189 45.0825 44.0716 44.965C43.9542 44.8476 43.8882 44.6883 43.8882 44.5222" stroke="#FF4612" stroke-width="2.5" stroke-linecap="round" stroke-linejoin="round"/>
<path d="M45.1413 44.5222C45.1413 44.6883 45.0754 44.8476 44.9579 44.965C44.8405 45.0825 44.6812 45.1484 44.5151 45.1484" stroke="#FF4612" stroke-width="2.5" stroke-linecap="round" stroke-linejoin="round"/>
<path d="M54.5312 43.8962C54.6973 43.8962 54.8566 43.9622 54.974 44.0797C55.0915 44.1971 55.1575 44.3564 55.1575 44.5225" stroke="#FF4612" stroke-width="2.5" stroke-linecap="round" stroke-linejoin="round"/>
<path d="M53.9062 44.5222C53.9062 44.3561 53.9722 44.1968 54.0897 44.0794C54.2071 43.962 54.3664 43.896 54.5325 43.896" stroke="#FF4612" stroke-width="2.5" stroke-linecap="round" stroke-linejoin="round"/>
<path d="M54.5325 45.1484C54.3664 45.1484 54.2071 45.0825 54.0897 44.965C53.9722 44.8476 53.9062 44.6883 53.9062 44.5222" stroke="#FF4612" stroke-width="2.5" stroke-linecap="round" stroke-linejoin="round"/>
<path d="M55.1575 44.5225C55.1575 44.6885 55.0915 44.8478 54.974 44.9653C54.8566 45.0827 54.6973 45.1487 54.5312 45.1487" stroke="#FF4612" stroke-width="2.5" stroke-linecap="round" stroke-linejoin="round"/>
<path d="M44.5151 53.9136C44.6812 53.9136 44.8405 53.9795 44.9579 54.097C45.0754 54.2144 45.1413 54.3737 45.1413 54.5398" stroke="#FF4612" stroke-width="2.5" stroke-linecap="round" stroke-linejoin="round"/>
<path d="M43.8882 54.5398C43.8882 54.3737 43.9542 54.2144 44.0716 54.097C44.189 53.9795 44.3483 53.9136 44.5144 53.9136" stroke="#FF4612" stroke-width="2.5" stroke-linecap="round" stroke-linejoin="round"/>
<path d="M44.5144 55.166C44.3483 55.166 44.189 55.1 44.0716 54.9826C43.9542 54.8652 43.8882 54.7059 43.8882 54.5398" stroke="#FF4612" stroke-width="2.5" stroke-linecap="round" stroke-linejoin="round"/>
<path d="M45.1413 54.5398C45.1413 54.7059 45.0754 54.8652 44.9579 54.9826C44.8405 55.1 44.6812 55.166 44.5151 55.166" stroke="#FF4612" stroke-width="2.5" stroke-linecap="round" stroke-linejoin="round"/>
<path d="M54.5312 53.9138C54.6973 53.9138 54.8566 53.9798 54.974 54.0972C55.0915 54.2147 55.1575 54.3739 55.1575 54.54" stroke="#FF4612" stroke-width="2.5" stroke-linecap="round" stroke-linejoin="round"/>
<path d="M53.9062 54.5398C53.9062 54.3737 53.9722 54.2144 54.0897 54.097C54.2071 53.9795 54.3664 53.9136 54.5325 53.9136" stroke="#FF4612" stroke-width="2.5" stroke-linecap="round" stroke-linejoin="round"/>
<path d="M54.5325 55.166C54.3664 55.166 54.2071 55.1 54.0897 54.9826C53.9722 54.8652 53.9062 54.7059 53.9062 54.5398" stroke="#FF4612" stroke-width="2.5" stroke-linecap="round" stroke-linejoin="round"/>
<path d="M55.1575 54.54C55.1575 54.7061 55.0915 54.8654 54.974 54.9828C54.8566 55.1003 54.6973 55.1662 54.5312 55.1662" stroke="#FF4612" stroke-width="2.5" stroke-linecap="round" stroke-linejoin="round"/>
</svg>
