<svg width="64" height="64" viewBox="0 0 64 64" fill="none" xmlns="http://www.w3.org/2000/svg">
<path d="M20.5746 27.1982H15.604V37.1395H20.5746V32.1688H18.9177" stroke="#FF4612" stroke-width="2.5" stroke-linecap="round" stroke-linejoin="round"/>
<path d="M34.6577 37.1395V27.1982" stroke="#FF4612" stroke-width="2.5" stroke-linecap="round" stroke-linejoin="round"/>
<path d="M34.6577 27.1982H36.5217C37.3456 27.1982 38.1358 27.5255 38.7184 28.1082C39.301 28.6908 39.6283 29.4809 39.6283 30.3049C39.6283 31.1288 39.301 31.919 38.7184 32.5016C38.1358 33.0842 37.3456 33.4115 36.5217 33.4115H34.6577" stroke="#FF4612" stroke-width="2.5" stroke-linecap="round" stroke-linejoin="round"/>
<path d="M44.1851 37.1395V27.1982" stroke="#FF4612" stroke-width="2.5" stroke-linecap="round" stroke-linejoin="round"/>
<path d="M44.1851 27.1982H46.049C46.873 27.1982 47.6632 27.5255 48.2458 28.1082C48.8284 28.6908 49.1557 29.4809 49.1557 30.3049C49.1557 31.1288 48.8284 31.919 48.2458 32.5016C47.6632 33.0842 46.873 33.4115 46.049 33.4115H44.1851" stroke="#FF4612" stroke-width="2.5" stroke-linecap="round" stroke-linejoin="round"/>
<path d="M49.1547 37.1392L45.4268 33.4113" stroke="#FF4612" stroke-width="2.5" stroke-linecap="round" stroke-linejoin="round"/>
<path d="M24.9238 27.1982L25.1306 37.1395C26.4489 37.1395 27.7131 36.6158 28.6453 35.6836C29.5775 34.7514 30.1012 33.4871 30.1012 32.1688C30.1012 30.8506 29.5775 29.5863 28.6453 28.6541C27.7131 27.7219 26.4489 27.1982 25.1306 27.1982H24.9238Z" stroke="#FF4612" stroke-width="2.5" stroke-linecap="round" stroke-linejoin="round"/>
<path d="M31.0227 3.37813L31.6752 4.89828H32.9546C33.0184 4.89706 33.0811 4.91518 33.1344 4.95025C33.1876 4.98532 33.229 5.0357 33.253 5.09473C33.277 5.15376 33.2826 5.21867 33.2689 5.28091C33.2552 5.34314 33.2229 5.39977 33.1764 5.44332L32.0675 6.43121L32.6817 7.84065C32.7135 7.90569 32.7231 7.97932 32.7091 8.05034C32.6952 8.12136 32.6583 8.18588 32.6043 8.23408C32.5502 8.28228 32.4818 8.31153 32.4096 8.31738C32.3373 8.32322 32.2652 8.30535 32.204 8.26646L30.7199 7.41484L29.2358 8.26646C29.1747 8.30535 29.1025 8.32322 29.0302 8.31738C28.958 8.31153 28.8896 8.28228 28.8355 8.23408C28.7815 8.18588 28.7446 8.12136 28.7307 8.05034C28.7167 7.97932 28.7264 7.90569 28.7581 7.84065L29.3723 6.43121L28.2634 5.44332C28.2144 5.4008 28.1799 5.34404 28.1648 5.28098C28.1497 5.21791 28.1547 5.15171 28.1791 5.09163C28.2036 5.03156 28.2462 4.98062 28.3011 4.94595C28.356 4.91127 28.4204 4.89461 28.4852 4.89828H29.7646L30.4214 3.37813C30.4505 3.32384 30.4939 3.27846 30.5468 3.24683C30.5998 3.21519 30.6603 3.19849 30.722 3.19849C30.7837 3.19849 30.8443 3.21519 30.8972 3.24683C30.9502 3.27846 30.9935 3.32384 31.0227 3.37813Z" fill="#202120"/>
<path d="M31.0227 55.8579L31.6752 57.378H32.9546C33.0184 57.3768 33.0811 57.3949 33.1344 57.43C33.1876 57.4651 33.229 57.5154 33.253 57.5745C33.277 57.6335 33.2826 57.6984 33.2689 57.7606C33.2552 57.8229 33.2229 57.8795 33.1764 57.9231L32.0675 58.9109L32.6817 60.3204C32.7135 60.3854 32.7231 60.4591 32.7091 60.5301C32.6952 60.6011 32.6583 60.6656 32.6043 60.7138C32.5502 60.762 32.4818 60.7913 32.4096 60.7971C32.3373 60.803 32.2652 60.7851 32.204 60.7462L30.7199 59.8946L29.2358 60.7462C29.1747 60.7851 29.1025 60.803 29.0302 60.7971C28.958 60.7913 28.8896 60.762 28.8355 60.7138C28.7815 60.6656 28.7446 60.6011 28.7307 60.5301C28.7167 60.4591 28.7264 60.3854 28.7581 60.3204L29.3723 58.9109L28.2634 57.9231C28.2144 57.8805 28.1799 57.8238 28.1648 57.7607C28.1497 57.6976 28.1547 57.6314 28.1791 57.5714C28.2036 57.5113 28.2462 57.4604 28.3011 57.4257C28.356 57.391 28.4204 57.3743 28.4852 57.378H29.7646L30.4214 55.8579C30.4505 55.8036 30.4939 55.7582 30.5468 55.7266C30.5998 55.6949 30.6603 55.6782 30.722 55.6782C30.7837 55.6782 30.8443 55.6949 30.8972 55.7266C30.9502 55.7582 30.9935 55.8036 31.0227 55.8579Z" fill="#202120"/>
<path d="M45.1023 7.21822L45.7548 8.73837H47.0342C47.098 8.73715 47.1607 8.75527 47.2139 8.79034C47.2672 8.82541 47.3086 8.87578 47.3326 8.93482C47.3566 8.99385 47.3622 9.05876 47.3485 9.121C47.3348 9.18323 47.3025 9.23986 47.256 9.28341L46.1471 10.2713L46.7613 11.6807C46.793 11.7458 46.8027 11.8194 46.7887 11.8904C46.7747 11.9614 46.7379 12.026 46.6839 12.0742C46.6298 12.1224 46.5614 12.1516 46.4892 12.1575C46.4169 12.1633 46.3447 12.1454 46.2836 12.1066L44.7995 11.2549L43.3154 12.1066C43.2542 12.1454 43.1821 12.1633 43.1098 12.1575C43.0376 12.1516 42.9692 12.1224 42.9151 12.0742C42.8611 12.026 42.8242 11.9614 42.8103 11.8904C42.7963 11.8194 42.8059 11.7458 42.8377 11.6807L43.4519 10.2713L42.343 9.28341C42.294 9.24089 42.2595 9.18413 42.2444 9.12106C42.2293 9.058 42.2343 8.9918 42.2587 8.93172C42.2832 8.87164 42.3258 8.8207 42.3807 8.78603C42.4356 8.75136 42.5 8.7347 42.5648 8.73837H43.8442L44.501 7.21822C44.5301 7.16393 44.5735 7.11855 44.6264 7.08691C44.6794 7.05528 44.7399 7.03857 44.8016 7.03857C44.8633 7.03857 44.9239 7.05528 44.9768 7.08691C45.0298 7.11855 45.0731 7.16393 45.1023 7.21822Z" fill="#202120"/>
<path d="M17.5823 7.85823L18.2348 9.37838H19.5142C19.578 9.37716 19.6406 9.39528 19.6939 9.43035C19.7472 9.46543 19.7886 9.5158 19.8126 9.57483C19.8366 9.63386 19.8421 9.69878 19.8285 9.76101C19.8148 9.82324 19.7825 9.87987 19.7359 9.92343L18.6271 10.9113L19.2412 12.3208C19.273 12.3858 19.2827 12.4594 19.2687 12.5304C19.2547 12.6015 19.2179 12.666 19.1638 12.7142C19.1098 12.7624 19.0414 12.7916 18.9692 12.7975C18.8969 12.8033 18.8247 12.7854 18.7636 12.7466L17.2795 11.8949L15.7954 12.7466C15.7342 12.7854 15.662 12.8033 15.5898 12.7975C15.5175 12.7916 15.4492 12.7624 15.3951 12.7142C15.341 12.666 15.3042 12.6015 15.2902 12.5304C15.2763 12.4594 15.2859 12.3858 15.3177 12.3208L15.9318 10.9113L14.823 9.92343C14.774 9.88091 14.7395 9.82414 14.7244 9.76108C14.7093 9.69802 14.7143 9.63181 14.7387 9.57173C14.7632 9.51166 14.8058 9.46072 14.8607 9.42605C14.9156 9.39138 14.9799 9.37471 15.0448 9.37838H16.3242L16.9809 7.85823C17.0101 7.80394 17.0535 7.75856 17.1064 7.72693C17.1594 7.6953 17.2199 7.67859 17.2816 7.67859C17.3433 7.67859 17.4039 7.6953 17.4568 7.72693C17.5097 7.75856 17.5531 7.80394 17.5823 7.85823Z" fill="#202120"/>
<path d="M45.7424 51.378L46.3949 52.8982H47.6743C47.7381 52.8969 47.8008 52.9151 47.8541 52.9501C47.9074 52.9852 47.9487 53.0356 47.9728 53.0946C47.9968 53.1536 48.0023 53.2186 47.9886 53.2808C47.9749 53.343 47.9427 53.3996 47.8961 53.4432L46.7873 54.4311L47.4014 55.8405C47.4332 55.9056 47.4428 55.9792 47.4289 56.0502C47.4149 56.1212 47.3781 56.1858 47.324 56.234C47.2699 56.2822 47.2016 56.3114 47.1293 56.3173C47.0571 56.3231 46.9849 56.3052 46.9237 56.2663L45.4396 55.4147L43.9555 56.2663C43.8944 56.3052 43.8222 56.3231 43.7499 56.3173C43.6777 56.3114 43.6093 56.2822 43.5553 56.234C43.5012 56.1858 43.4644 56.1212 43.4504 56.0502C43.4364 55.9792 43.4461 55.9056 43.4779 55.8405L44.092 54.4311L42.9832 53.4432C42.9341 53.4007 42.8996 53.3439 42.8845 53.2809C42.8694 53.2178 42.8744 53.1516 42.8989 53.0915C42.9233 53.0314 42.966 52.9805 43.0208 52.9458C43.0757 52.9112 43.1401 52.8945 43.2049 52.8982H44.4843L45.1411 51.378C45.1703 51.3237 45.2136 51.2783 45.2666 51.2467C45.3195 51.2151 45.3801 51.1984 45.4418 51.1984C45.5035 51.1984 45.564 51.2151 45.617 51.2467C45.6699 51.2783 45.7133 51.3237 45.7424 51.378Z" fill="#202120"/>
<path d="M18.8621 51.378L19.5145 52.8982H20.794C20.8578 52.8969 20.9204 52.9151 20.9737 52.9501C21.027 52.9852 21.0684 53.0356 21.0924 53.0946C21.1164 53.1536 21.1219 53.2186 21.1082 53.2808C21.0946 53.343 21.0623 53.3996 21.0157 53.4432L19.9069 54.4311L20.521 55.8405C20.5528 55.9056 20.5625 55.9792 20.5485 56.0502C20.5345 56.1212 20.4977 56.1858 20.4436 56.234C20.3896 56.2822 20.3212 56.3114 20.2489 56.3173C20.1767 56.3231 20.1045 56.3052 20.0434 56.2663L18.5593 55.4147L17.0751 56.2663C17.014 56.3052 16.9418 56.3231 16.8696 56.3173C16.7973 56.3114 16.729 56.2822 16.6749 56.234C16.6208 56.1858 16.584 56.1212 16.57 56.0502C16.5561 55.9792 16.5657 55.9056 16.5975 55.8405L17.2116 54.4311L16.1028 53.4432C16.0538 53.4007 16.0193 53.3439 16.0042 53.2809C15.989 53.2178 15.9941 53.1516 16.0185 53.0915C16.0429 53.0314 16.0856 52.9805 16.1405 52.9458C16.1954 52.9112 16.2597 52.8945 16.3246 52.8982H17.604L18.2607 51.378C18.2899 51.3237 18.3333 51.2783 18.3862 51.2467C18.4391 51.2151 18.4997 51.1984 18.5614 51.1984C18.6231 51.1984 18.6836 51.2151 18.7366 51.2467C18.7895 51.2783 18.8329 51.3237 18.8621 51.378Z" fill="#202120"/>
<path d="M57.9026 29.6181L58.5551 31.1383H59.8345C59.8983 31.1371 59.961 31.1552 60.0142 31.1902C60.0675 31.2253 60.1089 31.2757 60.1329 31.3347C60.1569 31.3937 60.1625 31.4587 60.1488 31.5209C60.1351 31.5831 60.1028 31.6398 60.0562 31.6833L58.9474 32.6712L59.5615 34.0806C59.5933 34.1457 59.603 34.2193 59.589 34.2903C59.575 34.3613 59.5382 34.4259 59.4841 34.4741C59.4301 34.5223 59.3617 34.5515 59.2895 34.5574C59.2172 34.5632 59.145 34.5453 59.0839 34.5065L57.5998 33.6548L56.1157 34.5065C56.0545 34.5453 55.9824 34.5632 55.9101 34.5574C55.8379 34.5515 55.7695 34.5223 55.7154 34.4741C55.6614 34.4259 55.6245 34.3613 55.6106 34.2903C55.5966 34.2193 55.6062 34.1457 55.638 34.0806L56.2521 32.6712L55.1433 31.6833C55.0943 31.6408 55.0598 31.584 55.0447 31.521C55.0296 31.4579 55.0346 31.3917 55.059 31.3316C55.0835 31.2715 55.1261 31.2206 55.181 31.1859C55.2359 31.1513 55.3002 31.1346 55.3651 31.1383H56.6445L57.3013 29.6181C57.3304 29.5638 57.3738 29.5185 57.4267 29.4868C57.4797 29.4552 57.5402 29.4385 57.6019 29.4385C57.6636 29.4385 57.7242 29.4552 57.7771 29.4868C57.8301 29.5185 57.8734 29.5638 57.9026 29.6181Z" fill="#202120"/>
<path d="M6.06273 29.6181L6.71523 31.1383H7.99464C8.05844 31.1371 8.12112 31.1552 8.17439 31.1902C8.22767 31.2253 8.26905 31.2757 8.29307 31.3347C8.31709 31.3937 8.32262 31.4587 8.30893 31.5209C8.29524 31.5831 8.26298 31.6398 8.2164 31.6833L7.10758 32.6712L7.7217 34.0806C7.75349 34.1457 7.76314 34.2193 7.74917 34.2903C7.7352 34.3613 7.69838 34.4259 7.64431 34.4741C7.59024 34.5223 7.52188 34.5515 7.44963 34.5574C7.37738 34.5632 7.30519 34.5453 7.24405 34.5065L5.75994 33.6548L4.27583 34.5065C4.21469 34.5453 4.14251 34.5632 4.07026 34.5574C3.99801 34.5515 3.92965 34.5223 3.87558 34.4741C3.82151 34.4259 3.78469 34.3613 3.77072 34.2903C3.75675 34.2193 3.76639 34.1457 3.79818 34.0806L4.4123 32.6712L3.30348 31.6833C3.25445 31.6408 3.21996 31.584 3.20484 31.521C3.18972 31.4579 3.19474 31.3917 3.21918 31.3316C3.24363 31.2715 3.28627 31.2206 3.34116 31.1859C3.39604 31.1513 3.4604 31.1346 3.52524 31.1383H4.80465L5.46141 29.6181C5.49058 29.5638 5.53394 29.5185 5.58688 29.4868C5.63983 29.4552 5.70037 29.4385 5.76207 29.4385C5.82377 29.4385 5.88432 29.4552 5.93727 29.4868C5.99021 29.5185 6.03357 29.5638 6.06273 29.6181Z" fill="#202120"/>
<path d="M9.90258 42.4179L10.5551 43.9381H11.8345C11.8983 43.9369 11.961 43.955 12.0142 43.99C12.0675 44.0251 12.1089 44.0755 12.1329 44.1345C12.1569 44.1936 12.1625 44.2585 12.1488 44.3207C12.1351 44.3829 12.1028 44.4396 12.0562 44.4831L10.9474 45.471L11.5615 46.8804C11.5933 46.9455 11.603 47.0191 11.589 47.0901C11.575 47.1612 11.5382 47.2257 11.4841 47.2739C11.4301 47.3221 11.3617 47.3513 11.2895 47.3572C11.2172 47.363 11.145 47.3451 11.0839 47.3063L9.59979 46.4546L8.11567 47.3063C8.05454 47.3451 7.98235 47.363 7.9101 47.3572C7.83785 47.3513 7.76949 47.3221 7.71542 47.2739C7.66135 47.2257 7.62453 47.1612 7.61056 47.0901C7.59659 47.0191 7.60623 46.9455 7.63803 46.8804L8.25214 45.471L7.14332 44.4831C7.09429 44.4406 7.0598 44.3838 7.04468 44.3208C7.02957 44.2577 7.03458 44.1915 7.05903 44.1314C7.08347 44.0714 7.12612 44.0204 7.181 43.9857C7.23588 43.9511 7.30025 43.9344 7.36509 43.9381H8.6445L9.30126 42.4179C9.33042 42.3636 9.37378 42.3183 9.42673 42.2866C9.47967 42.255 9.54022 42.2383 9.60192 42.2383C9.66362 42.2383 9.72416 42.255 9.77711 42.2866C9.83005 42.3183 9.87342 42.3636 9.90258 42.4179Z" fill="#202120"/>
<path d="M55.3425 42.4179L55.995 43.9381H57.2744C57.3382 43.9369 57.4009 43.955 57.4542 43.99C57.5075 44.0251 57.5488 44.0755 57.5729 44.1345C57.5969 44.1936 57.6024 44.2585 57.5887 44.3207C57.575 44.3829 57.5428 44.4396 57.4962 44.4831L56.3874 45.471L57.0015 46.8804C57.0333 46.9455 57.0429 47.0191 57.029 47.0901C57.015 47.1612 56.9782 47.2257 56.9241 47.2739C56.87 47.3221 56.8017 47.3513 56.7294 47.3572C56.6572 47.363 56.585 47.3451 56.5238 47.3063L55.0397 46.4546L53.5556 47.3063C53.4945 47.3451 53.4223 47.363 53.35 47.3572C53.2778 47.3513 53.2094 47.3221 53.1554 47.2739C53.1013 47.2257 53.0645 47.1612 53.0505 47.0901C53.0365 47.0191 53.0462 46.9455 53.078 46.8804L53.6921 45.471L52.5833 44.4831C52.5342 44.4406 52.4997 44.3838 52.4846 44.3208C52.4695 44.2577 52.4745 44.1915 52.499 44.1314C52.5234 44.0714 52.5661 44.0204 52.6209 43.9857C52.6758 43.9511 52.7402 43.9344 52.805 43.9381H54.0844L54.7412 42.4179C54.7704 42.3636 54.8137 42.3183 54.8667 42.2866C54.9196 42.255 54.9802 42.2383 55.0419 42.2383C55.1036 42.2383 55.1641 42.255 55.2171 42.2866C55.27 42.3183 55.3134 42.3636 55.3425 42.4179Z" fill="#202120"/>
<path d="M9.26293 16.8181L9.91543 18.3382H11.1948C11.2586 18.337 11.3213 18.3551 11.3746 18.3902C11.4279 18.4253 11.4692 18.4756 11.4933 18.5347C11.5173 18.5937 11.5228 18.6586 11.5091 18.7208C11.4954 18.7831 11.4632 18.8397 11.4166 18.8833L10.3078 19.8712L10.9219 21.2806C10.9537 21.3456 10.9633 21.4193 10.9494 21.4903C10.9354 21.5613 10.8986 21.6258 10.8445 21.674C10.7904 21.7222 10.7221 21.7515 10.6498 21.7573C10.5776 21.7632 10.5054 21.7453 10.4442 21.7064L8.96014 20.8548L7.47603 21.7064C7.41489 21.7453 7.3427 21.7632 7.27045 21.7573C7.1982 21.7515 7.12984 21.7222 7.07577 21.674C7.0217 21.6258 6.98488 21.5613 6.97091 21.4903C6.95694 21.4193 6.96659 21.3456 6.99838 21.2806L7.6125 19.8712L6.50368 18.8833C6.45464 18.8407 6.42015 18.784 6.40503 18.7209C6.38992 18.6579 6.39493 18.5916 6.41938 18.5316C6.44382 18.4715 6.48647 18.4206 6.54135 18.3859C6.59623 18.3512 6.6606 18.3346 6.72544 18.3382H8.00485L8.66161 16.8181C8.69077 16.7638 8.73413 16.7184 8.78708 16.6868C8.84002 16.6551 8.90057 16.6384 8.96227 16.6384C9.02397 16.6384 9.08452 16.6551 9.13746 16.6868C9.19041 16.7184 9.23377 16.7638 9.26293 16.8181Z" fill="#202120"/>
<path d="M54.7024 16.1783L55.3549 17.6985H56.6343C56.6981 17.6972 56.7608 17.7154 56.814 17.7504C56.8673 17.7855 56.9087 17.8359 56.9327 17.8949C56.9567 17.9539 56.9623 18.0188 56.9486 18.0811C56.9349 18.1433 56.9026 18.1999 56.8561 18.2435L55.7472 19.2314L56.3613 20.6408C56.3931 20.7059 56.4028 20.7795 56.3888 20.8505C56.3748 20.9215 56.338 20.986 56.284 21.0343C56.2299 21.0825 56.1615 21.1117 56.0893 21.1175C56.017 21.1234 55.9448 21.1055 55.8837 21.0666L54.3996 20.215L52.9155 21.0666C52.8543 21.1055 52.7822 21.1234 52.7099 21.1175C52.6377 21.1117 52.5693 21.0825 52.5152 21.0343C52.4612 20.986 52.4243 20.9215 52.4104 20.8505C52.3964 20.7795 52.406 20.7059 52.4378 20.6408L53.0519 19.2314L51.9431 18.2435C51.8941 18.201 51.8596 18.1442 51.8445 18.0811C51.8294 18.0181 51.8344 17.9519 51.8588 17.8918C51.8833 17.8317 51.9259 17.7808 51.9808 17.7461C52.0357 17.7114 52.1001 17.6948 52.1649 17.6985H53.4443L54.1011 16.1783C54.1302 16.124 54.1736 16.0786 54.2265 16.047C54.2795 16.0154 54.34 15.9987 54.4017 15.9987C54.4634 15.9987 54.524 16.0154 54.5769 16.047C54.6299 16.0786 54.6732 16.124 54.7024 16.1783Z" fill="#202120"/>
</svg>
