<svg width="64" height="64" viewBox="0 0 64 64" fill="none" xmlns="http://www.w3.org/2000/svg">
<path d="M30.7434 60.8138C30.6656 58.8188 31.0011 56.8292 31.7291 54.9701C32.457 53.1109 33.5616 51.4224 34.9734 50.0107C36.3853 48.5989 38.0738 47.4943 39.933 46.7664C41.7922 46.0385 43.7818 45.7029 45.7769 45.7808C47.772 45.7029 49.7617 46.0385 51.6208 46.7664C53.48 47.4943 55.1686 48.5989 56.5804 50.0107C57.9922 51.4224 59.0968 53.1109 59.8247 54.9701C60.5527 56.8292 60.8883 58.8188 60.8104 60.8138H30.7434Z" stroke="#FF4612" stroke-width="2.5" stroke-linecap="round" stroke-linejoin="round"/>
<path d="M35.7598 31.9993C35.7598 33.3154 36.019 34.6186 36.5227 35.8346C37.0263 37.0505 37.7646 38.1553 38.6952 39.0859C39.6259 40.0166 40.7307 40.7548 41.9467 41.2584C43.1627 41.7621 44.4659 42.0213 45.7821 42.0213C47.0982 42.0213 48.4015 41.7621 49.6175 41.2584C50.8334 40.7548 51.9383 40.0166 52.8689 39.0859C53.7996 38.1553 54.5378 37.0505 55.0415 35.8346C55.5452 34.6186 55.8044 33.3154 55.8044 31.9993C55.8044 30.6832 55.5452 29.38 55.0415 28.164C54.5378 26.9481 53.7996 25.8433 52.8689 24.9127C51.9383 23.982 50.8334 23.2438 49.6175 22.7402C48.4015 22.2365 47.0982 21.9773 45.7821 21.9773C44.4659 21.9773 43.1627 22.2365 41.9467 22.7402C40.7307 23.2438 39.6259 23.982 38.6952 24.9127C37.7646 25.8433 37.0263 26.9481 36.5227 28.164C36.019 29.38 35.7598 30.6832 35.7598 31.9993Z" stroke="#FF4612" stroke-width="2.5" stroke-linecap="round" stroke-linejoin="round"/>
<path d="M55.7993 31.5386C54.0124 32.6698 51.9384 33.2646 49.8235 33.2524C47.3599 33.1129 44.9782 32.3178 42.925 30.9491C40.8718 29.5805 39.2215 27.6881 38.145 25.4678" stroke="#FF4612" stroke-width="2.5" stroke-linecap="round" stroke-linejoin="round"/>
<path d="M6.27832 38.2639H30.7703" stroke="#202120" stroke-width="2.5" stroke-linecap="round" stroke-linejoin="round"/>
<path d="M7.27539 13.2079H45.4796" stroke="#202120" stroke-width="2.5" stroke-linecap="round" stroke-linejoin="round"/>
<path d="M32.0223 25.7357H3.18555" stroke="#202120" stroke-width="2.5" stroke-linecap="round" stroke-linejoin="round"/>
<path d="M24.5067 49.5389C18.6451 49.1895 13.1475 46.5806 9.17016 42.2609C5.19284 37.9412 3.04585 32.2473 3.1808 26.3771C3.1884 20.9464 5.10016 15.6904 8.58333 11.5238C12.0665 7.35719 16.9005 4.5439 22.2439 3.57359C27.5874 2.60328 33.1019 3.53738 37.8277 6.21332C42.5535 8.88926 46.1912 13.1376 48.1078 18.2188" stroke="#202120" stroke-width="2.5" stroke-linecap="round" stroke-linejoin="round"/>
<path d="M24.4336 3.26294C12.4063 16.3623 12.4289 33.438 24.5063 49.539" stroke="#202120" stroke-width="2.5" stroke-linecap="round" stroke-linejoin="round"/>
<path d="M28.3408 3.26782C32.8375 8.10187 35.7556 14.1905 36.7069 20.7237" stroke="#202120" stroke-width="2.5" stroke-linecap="round" stroke-linejoin="round"/>
</svg>
