<svg width="64" height="64" viewBox="0 0 64 64" fill="none" xmlns="http://www.w3.org/2000/svg">
<path d="M3.25635 37.2852H17.6245C17.8184 37.2852 18.0097 37.2401 18.1832 37.1533C18.3567 37.0666 18.5076 36.9406 18.624 36.7855L20.9379 33.7019C21.0577 33.542 21.214 33.4131 21.3939 33.3261C21.5738 33.2391 21.7719 33.1965 21.9716 33.2019C22.1714 33.2073 22.3669 33.2605 22.5418 33.3571C22.7167 33.4536 22.8659 33.5908 22.9769 33.7569L25.8006 38.0049C25.922 38.1868 26.0891 38.3337 26.2852 38.4307C26.4812 38.5278 26.6993 38.5717 26.9176 38.558C27.1359 38.5444 27.3469 38.4736 27.5293 38.3529C27.7117 38.2321 27.8592 38.0656 27.957 37.87L31.8052 30.1736C31.9177 29.9484 32.0956 29.7625 32.3156 29.6401C32.5356 29.5178 32.7875 29.4648 33.0381 29.488C33.2888 29.5112 33.5266 29.6096 33.7204 29.7703C33.9141 29.931 34.0549 30.1465 34.1241 30.3885L37.3575 41.7056C37.4264 41.9478 37.5669 42.1635 37.7605 42.3245C37.9542 42.4854 38.1919 42.5841 38.4426 42.6076C38.6933 42.6311 38.9452 42.5783 39.1654 42.4562C39.3856 42.334 39.5637 42.1482 39.6764 41.923L41.643 37.9899C41.7465 37.7822 41.9058 37.6074 42.1031 37.4851C42.3004 37.3629 42.5278 37.298 42.7599 37.2977H60.7288" stroke="#FF4612" stroke-width="2.5" stroke-linecap="round" stroke-linejoin="round"/>
<path d="M56.68 32.0005C58.7403 28.2448 59.874 24.1165 60 19.9107C60 1.03598 35.1573 -0.436887 32 18.4649C28.8427 -0.436887 4 1.03598 4 21.3615C4.05067 25.0195 4.87586 28.6333 6.42933 32.0005" stroke="#202120" stroke-width="2.5" stroke-linecap="round" stroke-linejoin="round"/>
<path d="M13 42.0005C18.2197 48.4121 24.3956 54.0614 31.3314 58.7689C31.5663 58.9278 31.8493 59.0089 32.1371 58.9998C32.425 58.9907 32.7018 58.892 32.9251 58.7187C39.2508 53.768 44.9778 48.1606 50 42.0005" stroke="#202120" stroke-width="2.5" stroke-linecap="round" stroke-linejoin="round"/>
</svg>
