<svg width="64" height="64" viewBox="0 0 64 64" fill="none" xmlns="http://www.w3.org/2000/svg">
<path d="M32.6942 23.0842C32.7848 23.0842 32.8733 23.111 32.9486 23.1613C33.0239 23.2117 33.0826 23.2832 33.1172 23.3668C33.1519 23.4505 33.161 23.5426 33.1433 23.6314C33.1256 23.7202 33.082 23.8018 33.018 23.8658C32.9539 23.9299 32.8724 23.9735 32.7835 23.9911C32.6947 24.0088 32.6027 23.9997 32.519 23.9651C32.4353 23.9304 32.3638 23.8717 32.3135 23.7964C32.2632 23.7211 32.2363 23.6326 32.2363 23.5421C32.2361 23.4819 32.2478 23.4222 32.2707 23.3665C32.2936 23.3109 32.3273 23.2603 32.3699 23.2177C32.4125 23.1752 32.463 23.1415 32.5187 23.1185C32.5744 23.0956 32.634 23.0839 32.6942 23.0842" stroke="#FF4612" stroke-width="2.5" stroke-linecap="round" stroke-linejoin="round"/>
<path d="M27.2002 8.69382C27.2003 7.70324 27.4683 6.73112 27.9757 5.88034C28.483 5.02956 29.211 4.33177 30.0824 3.86081C30.9539 3.38985 31.9365 3.16323 32.9262 3.20495C33.9159 3.24667 34.8759 3.55516 35.7046 4.09779C36.5334 4.64041 37.2 5.39699 37.634 6.28744C38.068 7.1779 38.2531 8.16912 38.1699 9.1562C38.0867 10.1433 37.7382 11.0895 37.1613 11.8947C36.5844 12.7 35.8005 13.3343 34.8926 13.7305C34.2391 14.0157 33.683 14.4855 33.2926 15.0822C32.9022 15.6788 32.6944 16.3765 32.6948 17.0895V17.8514" stroke="#FF4612" stroke-width="2.5" stroke-linecap="round" stroke-linejoin="round"/>
<path d="M53.494 42.2841C53.5846 42.2841 53.6731 42.3109 53.7484 42.3612C53.8237 42.4115 53.8824 42.4831 53.917 42.5667C53.9517 42.6504 53.9608 42.7425 53.9431 42.8313C53.9254 42.9201 53.8818 43.0017 53.8178 43.0657C53.7538 43.1298 53.6722 43.1734 53.5833 43.191C53.4945 43.2087 53.4025 43.1996 53.3188 43.165C53.2351 43.1303 53.1636 43.0716 53.1133 42.9963C53.063 42.921 53.0361 42.8325 53.0361 42.7419C53.0359 42.6817 53.0476 42.6221 53.0705 42.5664C53.0934 42.5108 53.1271 42.4602 53.1697 42.4176C53.2123 42.3751 53.2628 42.3413 53.3185 42.3184C53.3742 42.2955 53.4338 42.2838 53.494 42.2841" stroke="#FF4612" stroke-width="2.5" stroke-linecap="round" stroke-linejoin="round"/>
<path d="M48 27.8938C48.0002 26.9032 48.2681 25.9311 48.7755 25.0803C49.2828 24.2295 50.0108 23.5317 50.8822 23.0608C51.7537 22.5898 52.7363 22.3632 53.726 22.4049C54.7157 22.4466 55.6757 22.7551 56.5044 23.2977C57.3332 23.8404 57.9998 24.5969 58.4338 25.4874C58.8678 26.3779 59.053 27.3691 58.9697 28.3561C58.8865 29.3432 58.538 30.2895 57.9611 31.0947C57.3842 31.8999 56.6003 32.5342 55.6924 32.9305C55.0389 33.2157 54.4828 33.6854 54.0924 34.2821C53.702 34.8788 53.4942 35.5764 53.4946 36.2895V37.0514" stroke="#FF4612" stroke-width="2.5" stroke-linecap="round" stroke-linejoin="round"/>
<path d="M53.494 42.2841C53.5846 42.2841 53.6731 42.3109 53.7484 42.3612C53.8237 42.4115 53.8824 42.4831 53.917 42.5667C53.9517 42.6504 53.9608 42.7425 53.9431 42.8313C53.9254 42.9201 53.8818 43.0017 53.8178 43.0657C53.7538 43.1298 53.6722 43.1734 53.5833 43.191C53.4945 43.2087 53.4025 43.1996 53.3188 43.165C53.2351 43.1303 53.1636 43.0716 53.1133 42.9963C53.063 42.921 53.0361 42.8325 53.0361 42.7419C53.0359 42.6817 53.0476 42.6221 53.0705 42.5664C53.0934 42.5108 53.1271 42.4602 53.1697 42.4176C53.2123 42.3751 53.2628 42.3413 53.3185 42.3184C53.3742 42.2955 53.4338 42.2838 53.494 42.2841" stroke="#FF4612" stroke-width="2.5" stroke-linecap="round" stroke-linejoin="round"/>
<path d="M48 27.8938C48.0002 26.9032 48.2681 25.9311 48.7755 25.0803C49.2828 24.2295 50.0108 23.5317 50.8822 23.0608C51.7537 22.5898 52.7363 22.3632 53.726 22.4049C54.7157 22.4466 55.6757 22.7551 56.5044 23.2977C57.3332 23.8404 57.9998 24.5969 58.4338 25.4874C58.8678 26.3779 59.053 27.3691 58.9697 28.3561C58.8865 29.3432 58.538 30.2895 57.9611 31.0947C57.3842 31.8999 56.6003 32.5342 55.6924 32.9305C55.0389 33.2157 54.4828 33.6854 54.0924 34.2821C53.702 34.8788 53.4942 35.5764 53.4946 36.2895V37.0514" stroke="#FF4612" stroke-width="2.5" stroke-linecap="round" stroke-linejoin="round"/>
<path d="M10.2938 35.8841C10.3844 35.8841 10.4729 35.911 10.5482 35.9613C10.6235 36.0116 10.6822 36.0831 10.7168 36.1668C10.7515 36.2504 10.7606 36.3425 10.7429 36.4313C10.7252 36.5201 10.6816 36.6017 10.6176 36.6658C10.5536 36.7298 10.472 36.7734 10.3831 36.7911C10.2943 36.8087 10.2023 36.7997 10.1186 36.765C10.0349 36.7304 9.96342 36.6717 9.91311 36.5964C9.8628 36.5211 9.83594 36.4325 9.83594 36.342C9.8357 36.2818 9.84738 36.2221 9.8703 36.1665C9.89323 36.1108 9.92694 36.0602 9.96951 36.0177C10.0121 35.9751 10.0626 35.9414 10.1183 35.9185C10.174 35.8955 10.2336 35.8839 10.2938 35.8841" stroke="#FF4612" stroke-width="2.5" stroke-linecap="round" stroke-linejoin="round"/>
<path d="M4.7998 21.4937C4.79995 20.5032 5.06789 19.531 5.57527 18.6803C6.08264 17.8295 6.81058 17.1317 7.68204 16.6607C8.5535 16.1898 9.53607 15.9632 10.5258 16.0049C11.5155 16.0466 12.4755 16.3551 13.3042 16.8977C14.133 17.4403 14.7996 18.1969 15.2336 19.0874C15.6676 19.9778 15.8528 20.969 15.7695 21.9561C15.6863 22.9432 15.3378 23.8894 14.7609 24.6947C14.184 25.4999 13.4001 26.1342 12.4922 26.5304C11.8387 26.8157 11.2826 27.2854 10.8922 27.8821C10.5018 28.4788 10.294 29.1764 10.2944 29.8895V30.6514" stroke="#FF4612" stroke-width="2.5" stroke-linecap="round" stroke-linejoin="round"/>
<path d="M23.7002 40.3998C23.7002 42.6275 24.5852 44.764 26.1604 46.3393C27.7357 47.9146 29.8722 48.7995 32.1 48.7995C34.3277 48.7995 36.4642 47.9146 38.0395 46.3393C39.6148 44.764 40.4997 42.6275 40.4997 40.3998C40.4997 38.172 39.6148 36.0355 38.0395 34.4602C36.4642 32.885 34.3277 32 32.1 32C29.8722 32 27.7357 32.885 26.1604 34.4602C24.5852 36.0355 23.7002 38.172 23.7002 40.3998V40.3998Z" stroke="#202120" stroke-width="2.5" stroke-linecap="round" stroke-linejoin="round"/>
<path d="M46.2362 60.8001C45.2579 57.9947 43.4311 55.5632 41.0089 53.8427C38.5867 52.1221 35.6893 51.1978 32.7182 51.1978C29.7472 51.1978 26.8497 52.1221 24.4275 53.8427C22.0054 55.5632 20.1785 57.9947 19.2002 60.8001" stroke="#202120" stroke-width="2.5" stroke-linecap="round" stroke-linejoin="round"/>
</svg>
