<svg width="64" height="64" viewBox="0 0 64 64" fill="none" xmlns="http://www.w3.org/2000/svg">
<path d="M58.293 40.7672H38.2543C36.871 40.7672 35.7495 41.8887 35.7495 43.2721V58.3011C35.7495 59.6845 36.871 60.8059 38.2543 60.8059H58.293C59.6764 60.8059 60.7978 59.6845 60.7978 58.3011V43.2721C60.7978 41.8887 59.6764 40.7672 58.293 40.7672Z" stroke="#FF4612" stroke-width="2.5" stroke-linecap="round" stroke-linejoin="round"/>
<path d="M42.0122 40.7675L43.2646 38.2627C43.5383 37.4967 44.0516 36.8393 44.7284 36.388C45.4053 35.9368 46.2095 35.7158 47.0219 35.7579H49.5267C50.3391 35.7158 51.1433 35.9368 51.8201 36.388C52.497 36.8393 53.0103 37.4967 53.284 38.2627L54.5364 40.7675" stroke="#FF4612" stroke-width="2.5" stroke-linecap="round" stroke-linejoin="round"/>
<path d="M35.7495 50.7867H60.7978" stroke="#FF4612" stroke-width="2.5" stroke-linecap="round" stroke-linejoin="round"/>
<path d="M48.2744 50.7869V54.5441" stroke="#FF4612" stroke-width="2.5" stroke-linecap="round" stroke-linejoin="round"/>
<path d="M15.7109 29.4952V37.0098" stroke="#202120" stroke-width="2.5" stroke-linecap="round" stroke-linejoin="round"/>
<path d="M20.7204 60.8059L21.9728 45.7769H28.2349V37.0099C28.2349 33.6883 26.9153 30.5027 24.5666 28.154C22.2179 25.8052 19.0323 24.4857 15.7107 24.4857C12.3891 24.4857 9.2035 25.8052 6.85477 28.154C4.50603 30.5027 3.18652 33.6883 3.18652 37.0099V45.7769H9.44861L10.701 60.8059H20.7204Z" stroke="#202120" stroke-width="2.5" stroke-linecap="round" stroke-linejoin="round"/>
<path d="M15.7122 20.7287C20.5541 20.7287 24.4791 16.8036 24.4791 11.9618C24.4791 7.11992 20.5541 3.19482 15.7122 3.19482C10.8704 3.19482 6.94531 7.11992 6.94531 11.9618C6.94531 16.8036 10.8704 20.7287 15.7122 20.7287Z" stroke="#202120" stroke-width="2.5" stroke-linecap="round" stroke-linejoin="round"/>
<path d="M8.14648 7.50269C9.50384 8.91645 11.1337 10.0404 12.9375 10.8068C14.7414 11.5731 16.6819 11.9658 18.6417 11.9613C20.6468 11.9682 22.6324 11.5677 24.478 10.784" stroke="#202120" stroke-width="2.5" stroke-linecap="round" stroke-linejoin="round"/>
</svg>
