<svg width="64" height="64" viewBox="0 0 64 64" fill="none" xmlns="http://www.w3.org/2000/svg">
<rect x="2" y="10.8666" width="60" height="42.16" rx="4" stroke="#202120" stroke-width="2.5"/>
<path d="M37 40.0046H54.36" stroke="#202120" stroke-width="2.5" stroke-linecap="round" stroke-linejoin="round"/>
<path d="M37 32.5648H54.36" stroke="#202120" stroke-width="2.5" stroke-linecap="round" stroke-linejoin="round"/>
<path d="M45 25.1249H53.68" stroke="#202120" stroke-width="2.5" stroke-linecap="round" stroke-linejoin="round"/>
<path d="M8.67969 41.0044C8.72112 39.7907 9.01505 38.5989 9.54273 37.5051C10.1503 36.2899 12.6898 35.4467 15.8791 34.2638C16.7422 33.9438 16.6008 31.6945 16.2189 31.2729C15.6109 30.6137 15.1491 29.8336 14.8636 28.9835C14.5781 28.1335 14.4754 27.2327 14.5622 26.3402C14.5101 25.7842 14.5765 25.2235 14.7572 24.6951C14.9379 24.1667 15.2286 23.6827 15.6102 23.275C15.9919 22.8674 16.4557 22.5454 16.971 22.3303C17.4864 22.1153 18.0415 22.012 18.5997 22.0274C19.1579 22.012 19.713 22.1153 20.2283 22.3303C20.7437 22.5454 21.2075 22.8674 21.5891 23.275C21.9708 23.6827 22.2615 24.1667 22.4422 24.6951C22.6228 25.2235 22.6893 25.7842 22.6371 26.3402C22.724 27.2327 22.6213 28.1335 22.3358 28.9835C22.0503 29.8336 21.5884 30.6137 20.9805 31.2729C20.5986 31.6945 20.4572 33.9438 21.3202 34.2638C24.5095 35.4467 27.049 36.2899 27.6566 37.5051C28.1843 38.5989 28.4783 39.7907 28.5197 41.0044H8.67969Z" stroke="#FF4612" stroke-width="2.5" stroke-linecap="round" stroke-linejoin="round"/>
</svg>
