<svg width="64" height="64" viewBox="0 0 64 64" fill="none" xmlns="http://www.w3.org/2000/svg">
<path d="M10.6946 60.7179L5.65844 54.764C4.0624 52.7688 3.19288 50.2899 3.19287 47.7348V34.8043C3.19287 33.8095 3.58805 32.8555 4.29147 32.1521C4.9949 31.4486 5.94894 31.0535 6.94373 31.0535V31.0535C7.93852 31.0535 8.89257 31.4486 9.59599 32.1521C10.2994 32.8555 10.6946 33.8095 10.6946 34.8043V44.1815" stroke="#202120" stroke-width="2.5" stroke-linecap="round" stroke-linejoin="round"/>
<path d="M21.947 60.718V53.2163C21.948 50.9912 21.2893 48.8157 20.0541 46.9648L17.1984 42.6889C16.9537 42.2836 16.6294 41.9321 16.245 41.6558C15.8606 41.3794 15.4241 41.1839 14.962 41.081C14.4999 40.9782 14.0217 40.9701 13.5564 41.0574C13.0911 41.1446 12.6483 41.3253 12.2548 41.5886V41.5886C11.548 42.0622 11.0378 42.777 10.8197 43.5994C10.6015 44.4218 10.6903 45.2955 11.0695 46.0571L14.4503 51.6834" stroke="#202120" stroke-width="2.5" stroke-linecap="round" stroke-linejoin="round"/>
<path d="M51.9546 60.7179L56.9907 54.764C58.5868 52.7688 59.4563 50.2899 59.4563 47.7348V34.8043C59.4563 33.8095 59.0611 32.8555 58.3577 32.1521C57.6543 31.4486 56.7002 31.0535 55.7055 31.0535C54.7107 31.0535 53.7566 31.4486 53.0532 32.1521C52.3498 32.8555 51.9546 33.8095 51.9546 34.8043V44.1815" stroke="#202120" stroke-width="2.5" stroke-linecap="round" stroke-linejoin="round"/>
<path d="M40.7017 60.7181V53.2163C40.7007 50.9912 41.3594 48.8157 42.5946 46.9649L45.4503 42.6839C45.6941 42.2778 46.0179 41.9254 46.4019 41.6481C46.7859 41.3707 47.2222 41.1742 47.6844 41.0704C48.1466 40.9666 48.625 40.9577 49.0907 41.0442C49.5565 41.1307 49.9998 41.3108 50.3939 41.5736V41.5736C51.104 42.0468 51.6169 42.7631 51.8361 43.5878C52.0553 44.4125 51.9657 45.2889 51.5842 46.0522L48.2034 51.6785" stroke="#202120" stroke-width="2.5" stroke-linecap="round" stroke-linejoin="round"/>
<path d="M14.9131 18.7685L29.7029 3.9661C29.922 3.74832 30.1818 3.57584 30.4676 3.45852C30.7533 3.3412 31.0594 3.28134 31.3683 3.28236C31.6772 3.28338 31.9829 3.34526 32.2679 3.46446C32.5529 3.58366 32.8116 3.75785 33.0292 3.97707L47.8316 18.7685" stroke="#FF4612" stroke-width="2.5" stroke-linecap="round" stroke-linejoin="round"/>
<path d="M43.1289 14.0691V32.8766H19.6157V14.0613" stroke="#FF4612" stroke-width="2.5" stroke-linecap="round" stroke-linejoin="round"/>
<path d="M36.0747 32.8765V25.8225C36.0747 24.5753 35.5793 23.3792 34.6973 22.4972C33.8154 21.6153 32.6193 21.1199 31.3721 21.1199C30.1249 21.1199 28.9287 21.6153 28.0468 22.4972C27.1649 23.3792 26.6694 24.5753 26.6694 25.8225V32.8765" stroke="#FF4612" stroke-width="2.5" stroke-linecap="round" stroke-linejoin="round"/>
</svg>
