<svg width="64" height="64" viewBox="0 0 64 64" fill="none" xmlns="http://www.w3.org/2000/svg">
<g clip-path="url(#clip0_2024_3251)">
<path d="M23.4285 31.3613C22.6192 30.5521 22.1993 28.9876 22.4953 27.8824L24.1108 21.8561C24.4025 20.7509 25.5529 19.6048 26.6581 19.3089L32.6829 17.6948C33.7881 17.4031 35.3541 17.8172 36.1633 18.6265L40.574 23.0386C41.3833 23.8464 41.8017 25.4124 41.5057 26.5176L39.8916 32.5439C39.6 33.6476 38.4496 34.7937 37.3444 35.0897L31.3181 36.7052C30.2144 36.9968 28.6484 36.5813 27.8391 35.772L23.4285 31.3613Z" fill="#FF4612"/>
<path d="M34.1835 24.5127C33.6104 24.3173 33.2459 24.2415 33.2722 23.9018C33.2926 23.6379 33.4923 23.5008 33.8554 23.53C33.9593 23.5265 34.0621 23.552 34.1525 23.6035C34.2428 23.6549 34.3171 23.7304 34.3672 23.8216C34.407 23.9011 34.463 23.9714 34.5316 24.0281C34.6001 24.0847 34.6797 24.1265 34.7653 24.1507C34.8509 24.1749 34.9406 24.181 35.0287 24.1685C35.1168 24.1561 35.2013 24.1255 35.2769 24.0786C35.3524 24.0317 35.4174 23.9696 35.4677 23.8962C35.5179 23.8228 35.5523 23.7397 35.5686 23.6523C35.5849 23.5649 35.5829 23.475 35.5625 23.3884C35.5422 23.3018 35.5041 23.2204 35.4505 23.1494C35.1487 22.7747 34.653 22.521 33.9545 22.467C32.7283 22.3737 31.9555 22.9205 31.8841 23.8551C31.8068 24.8553 32.479 25.1251 33.4967 25.4692C34.1922 25.6923 34.3716 25.8016 34.3409 26.0933C34.3103 26.3849 34.0712 26.519 33.6935 26.4899C33.3801 26.4665 33.1861 26.3441 33.0957 26.1545C33.0404 26.0529 32.9586 25.9682 32.859 25.9094C32.7593 25.8506 32.6457 25.8199 32.53 25.8206C32.4433 25.818 32.3571 25.8336 32.2767 25.8662C32.1964 25.8988 32.1237 25.9479 32.0634 26.0102C31.9593 26.1082 31.8367 26.1845 31.7028 26.2346C31.5688 26.2847 31.4262 26.3075 31.2833 26.3018C30.9072 26.2916 30.5762 26.0889 30.5762 25.564L30.5893 23.8055C30.7063 23.8792 30.8418 23.9182 30.9801 23.9178C31.0971 23.9197 31.213 23.8943 31.3185 23.8436C31.424 23.793 31.5163 23.7184 31.588 23.6259C31.6597 23.5334 31.7089 23.4254 31.7317 23.3106C31.7544 23.1957 31.7501 23.0772 31.7191 22.9643C31.6881 22.8514 31.6312 22.7473 31.553 22.6603C31.4747 22.5732 31.3773 22.5055 31.2684 22.4626C31.1594 22.4198 31.042 22.4028 30.9254 22.4132C30.8088 22.4236 30.6962 22.461 30.5966 22.5224V21.8809C30.5972 21.8266 30.5869 21.7727 30.5665 21.7224C30.5461 21.6721 30.5159 21.6263 30.4776 21.5878C30.4394 21.5493 30.3938 21.5187 30.3437 21.4979C30.2935 21.4772 30.2397 21.4666 30.1854 21.4668H29.627C29.5184 21.4668 29.4143 21.5097 29.3372 21.5862C29.2602 21.6626 29.2165 21.7665 29.2158 21.875L29.191 25.6485C29.1545 26.118 28.8308 26.2989 28.462 26.3018C28.0756 26.3018 27.7329 26.1006 27.7329 25.564L27.7592 23.1815C27.7595 23.1454 27.7528 23.1097 27.7392 23.0762C27.7257 23.0428 27.7057 23.0124 27.6803 22.9868C27.655 22.9612 27.6248 22.9408 27.5915 22.9269C27.5582 22.913 27.5225 22.9059 27.4865 22.9059H26.6496C26.5775 22.9059 26.5084 22.9344 26.4573 22.9852C26.4062 23.0361 26.3773 23.105 26.3769 23.1771L26.3506 25.895C26.3419 27.0308 27.2342 27.5411 28.4649 27.5411C28.6752 27.5488 28.8845 27.5081 29.0766 27.4222C29.2687 27.3362 29.4386 27.2073 29.573 27.0454C29.888 27.3822 30.375 27.5411 30.9655 27.5411C31.556 27.5411 31.9978 27.4639 32.4352 27.2145C32.7938 27.4117 33.1929 27.524 33.6017 27.5426C34.876 27.6403 35.6503 27.0643 35.7261 26.0743C35.7946 25.1863 35.1283 24.832 34.1762 24.5025" fill="white"/>
<path d="M27.1098 22.3154C27.2593 22.3163 27.4056 22.2727 27.5303 22.1902C27.6549 22.1077 27.7522 21.99 27.8098 21.8521C27.8674 21.7142 27.8827 21.5623 27.8537 21.4156C27.8248 21.269 27.7529 21.1343 27.6472 21.0286C27.5415 20.9229 27.4068 20.851 27.2602 20.8221C27.1135 20.7931 26.9616 20.8084 26.8237 20.866C26.6858 20.9236 26.5681 21.0209 26.4856 21.1455C26.4031 21.2702 26.3595 21.4165 26.3604 21.566C26.3607 21.7646 26.4398 21.955 26.5803 22.0955C26.7208 22.236 26.9112 22.3151 27.1098 22.3154Z" fill="white"/>
<path d="M35.9544 27.8633C34.7195 27.8633 33.7936 28.5588 33.5384 29.7311C33.4684 28.6318 32.7671 27.9814 31.7348 27.9814C31.0145 27.9814 30.5435 28.3051 30.2665 28.7396C29.953 28.2497 29.4266 27.9814 28.7705 27.9814C28.161 27.9814 26.2393 27.9071 26.2393 30.3771C26.2393 30.4281 26.2393 30.4733 26.2393 30.5229V32.1734C26.2473 32.3469 26.3219 32.5105 26.4475 32.6304C26.5731 32.7503 26.74 32.8172 26.9136 32.8172C27.0872 32.8172 27.2542 32.7503 27.3798 32.6304C27.5053 32.5105 27.5799 32.3469 27.588 32.1734V30.1919C27.588 29.6189 27.9117 29.2325 28.4468 29.2325C28.9367 29.2325 29.2225 29.5737 29.2225 30.1832V32.1691C29.2306 32.3425 29.3051 32.5061 29.4307 32.626C29.5563 32.7459 29.7232 32.8128 29.8969 32.8128C30.0705 32.8128 30.2374 32.7459 30.363 32.626C30.4886 32.5061 30.5631 32.3425 30.5712 32.1691V30.0257C30.6266 29.546 30.9226 29.2325 31.4023 29.2325C31.9199 29.2325 32.197 29.5737 32.197 30.1832V32.1691C32.205 32.3425 32.2796 32.5061 32.4052 32.626C32.5308 32.7459 32.6977 32.8128 32.8713 32.8128C33.045 32.8128 33.2119 32.7459 33.3375 32.626C33.4631 32.5061 33.5376 32.3425 33.5457 32.1691V31.1149C33.8096 32.2653 34.7355 32.955 35.9924 32.955C36.5481 32.9612 37.0919 32.794 37.5481 32.4767L37.5904 32.4461C37.605 32.4344 37.621 32.4242 37.6356 32.4111C37.6356 32.4111 37.6502 32.398 37.6356 32.4111C37.6589 32.3936 37.6823 32.3761 37.7041 32.3571C37.7909 32.2735 37.8523 32.1671 37.8811 32.0501C37.91 31.9331 37.9052 31.8103 37.8672 31.696C37.8292 31.5816 37.7597 31.4803 37.6666 31.4038C37.5735 31.3273 37.4606 31.2787 37.3411 31.2636C37.2257 31.2475 37.1081 31.2636 37.0013 31.3102C36.8945 31.3567 36.8027 31.432 36.736 31.5275C36.5829 31.7287 36.3161 31.8424 35.953 31.8424C35.3275 31.8424 34.9586 31.4546 34.9323 30.8495H37.8485C37.9645 30.8495 38.0758 30.8034 38.1578 30.7214C38.2398 30.6393 38.2859 30.5281 38.2859 30.4121V30.3027C38.2859 28.779 37.36 27.8706 35.953 27.8706L35.9544 27.8633ZM34.9323 29.9338C34.9702 29.3098 35.3581 28.9496 35.9442 28.9496C36.5683 28.9496 36.8716 29.3375 36.8993 29.9338H34.9323Z" fill="white"/>
</g>
<path d="M8 11C8 10.1164 8.71634 9.40002 9.6 9.40002H54.4C55.2837 9.40002 56 10.1164 56 11V44.6C56 45.4837 55.2837 46.2 54.4 46.2H9.6C8.71634 46.2 8 45.4837 8 44.6V11Z" stroke="#202120" stroke-width="2.5" stroke-linecap="round" stroke-linejoin="round"/>
<path d="M1.96395 53.6932L7.2552 46.3332C7.31532 46.2496 7.41202 46.2 7.51502 46.2H55.6754C55.7711 46.2 55.8619 46.2429 55.9226 46.3169L61.9698 53.6769C62.1414 53.8857 61.9928 54.2 61.7225 54.2H2.22378C1.96305 54.2 1.81176 53.9049 1.96395 53.6932Z" stroke="#202120" stroke-width="2.5" stroke-linecap="round"/>
<defs>
<clipPath id="clip0_2024_3251">
<rect width="19.2" height="19.2" fill="white" transform="translate(22.4004 17.6)"/>
</clipPath>
</defs>
</svg>
