<svg width="64" height="64" viewBox="0 0 64 64" fill="none" xmlns="http://www.w3.org/2000/svg">
<g clip-path="url(#clip0_3151_1831)">
<path d="M38.2041 24.3685C36.6135 23.8251 35.6031 23.6166 35.6751 22.6737C35.7309 21.9394 36.2875 21.562 37.3082 21.6457C38.0528 21.7029 38.5036 22.0114 38.7313 22.4754C38.8744 22.765 39.0944 23.0096 39.3671 23.1826C39.6398 23.3556 39.9548 23.4504 40.2777 23.4565C41.7611 23.4888 42.6643 21.7661 41.7346 20.6088C40.899 19.569 39.5243 18.8656 37.5858 18.7172C34.183 18.4558 32.0388 19.9773 31.839 22.568C31.6261 25.3422 33.4912 26.0927 36.3139 27.0458C38.2422 27.667 38.7195 27.9681 38.6637 28.7788C38.6035 29.5645 37.9147 29.9537 36.8676 29.8788C35.9952 29.8112 35.4592 29.4661 35.2066 28.9477C34.9231 28.3602 34.2872 28.0357 33.6396 28.0224C33.399 28.0153 33.1596 28.058 32.9364 28.148C32.7132 28.238 32.5111 28.3733 32.3428 28.5453C32.3428 28.5453 31.6085 29.3662 30.1765 29.3662C29.1353 29.3383 28.213 28.7788 28.213 27.3204L28.2482 22.4446C28.5236 22.6145 28.8347 22.7182 29.157 22.7474C29.4792 22.7766 29.8039 22.7306 30.1053 22.613C30.4068 22.4953 30.6768 22.3093 30.8941 22.0695C31.1114 21.8298 31.2701 21.5428 31.3576 21.2313C31.4451 20.9198 31.4591 20.5922 31.3985 20.2743C31.3378 19.9565 31.2042 19.6571 31.0081 19.3996C30.812 19.1422 30.5588 18.9339 30.2685 18.791C29.9781 18.6481 29.6586 18.5746 29.335 18.5762C28.9589 18.5788 28.5909 18.6856 28.2717 18.8846L28.2747 17.0944C28.2756 16.9437 28.2468 16.7944 28.1898 16.6549C28.1328 16.5154 28.0488 16.3886 27.9426 16.2817C27.8364 16.1748 27.7101 16.09 27.571 16.0321C27.4319 15.9743 27.2827 15.9445 27.1321 15.9445H25.5812C25.2792 15.9445 24.9895 16.064 24.7753 16.277C24.5612 16.49 24.4402 16.7792 24.4386 17.0812L24.3711 27.5495C24.2697 28.8522 23.3695 29.353 22.362 29.3604C21.2928 29.3604 20.3323 28.8008 20.3323 27.3146L20.4043 20.7057C20.4051 20.6061 20.3861 20.5073 20.3485 20.4151C20.311 20.3228 20.2555 20.2389 20.1853 20.1682C20.1151 20.0974 20.0316 20.0413 19.9397 20.003C19.8477 19.9647 19.7491 19.945 19.6494 19.945H17.3275C17.1283 19.945 16.9372 20.0237 16.7958 20.164C16.6544 20.3043 16.5742 20.4948 16.5727 20.694L16.4992 28.2369C16.4728 31.3812 18.9504 32.7955 22.362 32.7955C23.7895 32.7955 24.7691 32.2198 25.4461 31.4194C26.3126 32.3549 27.6652 32.7955 29.3027 32.7955C30.9402 32.7955 32.1651 32.5811 33.3811 31.8908C34.227 32.3887 35.305 32.7 36.6121 32.7999C40.1456 33.0716 42.2956 31.4781 42.5071 28.723C42.6922 26.266 40.8461 25.2805 38.2041 24.3685Z" fill="#FF4612"/>
<path d="M18.5816 18.2708C18.9961 18.2723 19.4016 18.1504 19.7466 17.9208C20.0917 17.6912 20.3607 17.3642 20.5194 16.9814C20.6781 16.5985 20.7194 16.1771 20.6381 15.7707C20.5567 15.3643 20.3563 14.9913 20.0624 14.6991C19.7685 14.4068 19.3944 14.2086 18.9876 14.1295C18.5807 14.0504 18.1595 14.0941 17.7776 14.255C17.3956 14.4159 17.0702 14.6867 16.8425 15.0331C16.6149 15.3794 16.4953 15.7856 16.4991 16.2001C16.5026 16.7502 16.7235 17.2767 17.1136 17.6646C17.5038 18.0525 18.0315 18.2704 18.5816 18.2708Z" fill="#FF4612"/>
<path d="M43.116 33.6648C39.6912 33.6648 37.1211 35.5916 36.4132 38.8446C36.2194 35.7972 34.2764 33.9702 31.4111 33.9702C29.4123 33.9702 28.1052 34.8676 27.3371 36.0718C26.4648 34.7192 25.0049 33.9702 23.1853 33.9702C21.4964 33.9702 16.1638 33.7646 16.1638 40.6158C16.1638 40.7626 16.1638 40.886 16.1638 41.0167V41.0255V45.6032C16.1568 45.8532 16.2 46.1021 16.2908 46.3352C16.3817 46.5682 16.5183 46.7807 16.6927 46.96C16.8671 47.1393 17.0756 47.2819 17.306 47.3792C17.5364 47.4765 17.784 47.5267 18.0341 47.5267C18.2842 47.5267 18.5318 47.4765 18.7622 47.3792C18.9926 47.2819 19.2012 47.1393 19.3755 46.96C19.5499 46.7807 19.6865 46.5682 19.7774 46.3352C19.8682 46.1021 19.9114 45.8532 19.9044 45.6032V40.1252C19.9044 38.5362 20.8017 37.4612 22.288 37.4612C23.6465 37.4612 24.4395 38.4084 24.4395 40.1047V45.6135C24.4395 46.1097 24.6367 46.5856 24.9875 46.9365C25.3384 47.2874 25.8143 47.4845 26.3106 47.4845C26.8068 47.4845 27.2827 47.2874 27.6336 46.9365C27.9845 46.5856 28.1816 46.1097 28.1816 45.6135V39.6641C28.3284 38.3321 29.1553 37.4612 30.4873 37.4612C31.9222 37.4612 32.6903 38.4084 32.6903 40.1047V45.6135C32.6833 45.8635 32.7265 46.1124 32.8173 46.3454C32.9081 46.5785 33.0448 46.791 33.2191 46.9703C33.3935 47.1496 33.6021 47.2921 33.8325 47.3895C34.0629 47.4868 34.3104 47.5369 34.5606 47.5369C34.8107 47.5369 35.0583 47.4868 35.2887 47.3895C35.5191 47.2921 35.7276 47.1496 35.902 46.9703C36.0763 46.791 36.213 46.5785 36.3038 46.3454C36.3947 46.1124 36.4379 45.8635 36.4309 45.6135V42.6851C37.1652 45.8779 39.7353 47.79 43.2188 47.79C44.8564 47.79 46.4102 47.2892 47.5395 46.4682C47.5792 46.4403 47.6159 46.4124 47.6541 46.3845C47.6923 46.3566 47.7422 46.3229 47.7833 46.2891C47.7833 46.2891 47.7833 46.2773 47.7921 46.2729C47.8538 46.223 47.9199 46.1745 47.9787 46.1261C49.0743 45.1244 48.4442 43.2843 46.9727 43.0904C46.6524 43.0471 46.3265 43.0928 46.0304 43.2223C45.7344 43.3518 45.4796 43.5602 45.294 43.8247C44.8666 44.3828 44.1279 44.6971 43.1175 44.6971C41.3845 44.6971 40.3609 43.6206 40.2816 41.9405H48.3811C48.7047 41.9405 49.0152 41.8119 49.244 41.583C49.4729 41.3541 49.6015 41.0437 49.6015 40.72V40.4175C49.6015 36.1864 47.0285 33.6648 43.116 33.6648ZM40.2801 39.3924C40.3844 37.6594 41.455 36.6622 43.0896 36.6622C44.8226 36.6622 45.6626 37.7387 45.7419 39.3924H40.2801Z" fill="#FF4612"/>
<path fill-rule="evenodd" clip-rule="evenodd" d="M52.8006 22.4C58.9862 22.4 64.0006 17.3856 64.0006 11.2C64.0006 5.01441 58.9862 0 52.8006 0C46.615 0 41.6006 5.01441 41.6006 11.2C41.6006 17.3856 46.615 22.4 52.8006 22.4ZM55.6071 6.70255C56.0104 6.29918 56.6644 6.29918 57.0678 6.70255C57.4711 7.10591 57.4711 7.7599 57.0678 8.16326L54.1464 11.0847L57.0678 14.0061C57.4711 14.4095 57.4711 15.0635 57.0678 15.4668C56.6644 15.8702 56.0104 15.8702 55.6071 15.4668L52.6856 12.5454L49.7642 15.4668C49.3608 15.8702 48.7069 15.8702 48.3035 15.4668C47.9001 15.0635 47.9001 14.4095 48.3035 14.0061L51.2249 11.0847L48.3035 8.16326C47.9001 7.7599 47.9001 7.10591 48.3035 6.70255C48.7069 6.29918 49.3608 6.29918 49.7642 6.70255L52.6856 9.62398L55.6071 6.70255Z" fill="#FF4612"/>
<path fill-rule="evenodd" clip-rule="evenodd" d="M62.814 21.5485C63.9422 24.159 64.3392 27.2812 63.6907 29.7245L58.3007 49.8111C57.3145 53.4932 53.493 57.3146 49.8109 58.3009L29.7243 63.6908C26.0422 64.6771 20.8235 63.2797 18.1276 60.5839L3.42392 45.8714C0.728071 43.1755 -0.671019 37.9567 0.315224 34.2746L5.6981 14.1881C6.68435 10.506 10.5058 6.6845 14.1879 5.69826L34.2745 0.315377C36.719 -0.339382 39.8408 0.0571994 42.452 1.18659C41.8456 1.81321 41.2955 2.49475 40.8101 3.22302C40.4827 3.10408 40.1436 2.99703 39.7954 2.90368C38.0012 2.42272 36.2359 2.37822 34.9216 2.73017L34.9213 2.73025L14.835 8.11305L14.8347 8.11313C13.5205 8.46514 12.0135 9.38629 10.6998 10.7C9.38614 12.0137 8.46499 13.5207 8.11298 14.8349L8.1129 14.8352L2.7301 34.9215L2.73002 34.9218C2.37806 36.2361 2.42257 38.0014 2.90353 39.7955C3.38451 41.5898 4.22917 43.1411 5.19169 44.1036L5.19222 44.1041L19.8954 58.8161L19.8959 58.8166C20.8582 59.7787 22.4091 60.6227 24.203 61.1033C25.9967 61.5837 27.762 61.628 29.0766 61.2762L29.0775 61.2759L49.163 55.8863L49.1641 55.886C50.4783 55.534 51.9853 54.6128 53.299 53.2991C54.6127 51.9855 55.5338 50.4784 55.8858 49.1642L55.8861 49.1631L61.2743 29.0831L61.2751 29.0804C61.6237 27.7643 61.5771 25.9967 61.0957 24.2021C61.0025 23.8549 60.8958 23.5169 60.7773 23.1906C61.5057 22.7051 62.1873 22.155 62.814 21.5485Z" fill="#202120"/>
</g>
<defs>
<clipPath id="clip0_3151_1831">
<rect width="64" height="64" fill="white"/>
</clipPath>
</defs>
</svg>
