<svg width="64" height="64" viewBox="0 0 64 64" fill="none" xmlns="http://www.w3.org/2000/svg">
<g clip-path="url(#clip0_2026_3403)">
<path d="M4.30807 44.9878L4.30781 44.9875C3.15258 43.8323 2.21839 42.0673 1.69616 40.1192C1.17394 38.1712 1.10008 36.1759 1.52262 34.5982C1.52263 34.5982 1.52265 34.5981 1.52266 34.5981L6.9055 14.5117L6.90554 14.5115C7.32811 12.9339 8.38965 11.2424 9.81595 9.81613C11.2423 8.38983 12.9337 7.32829 14.5113 6.90573L14.5115 6.90568L34.5979 1.52285C34.5979 1.52283 34.598 1.52282 34.598 1.5228C36.1757 1.10027 38.171 1.17412 40.119 1.69634C42.0671 2.21857 43.8321 3.15277 44.9873 4.30799L59.691 19.0117L59.6919 19.0125C60.8461 20.1645 61.7799 21.9289 62.303 23.8783C62.8257 25.8266 62.9015 27.8234 62.483 29.4018C62.4829 29.4025 62.4827 29.4031 62.4825 29.4038L57.0934 49.4871L57.0933 49.4877C56.6707 51.0653 55.6092 52.7568 54.1829 54.1831C52.7566 55.6094 51.0651 56.6709 49.4875 57.0935L49.4869 57.0936L29.4009 62.4834C29.4007 62.4835 29.4006 62.4835 29.4004 62.4836C27.8226 62.906 25.8274 62.8325 23.8796 62.3107C21.9315 61.7889 20.1666 60.8552 19.0115 59.7L4.30807 44.9878Z" stroke="#202120" stroke-width="2.5"/>
<path d="M38.2041 24.3685C36.6135 23.8251 35.6031 23.6166 35.6751 22.6737C35.7309 21.9394 36.2875 21.562 37.3082 21.6457C38.0528 21.7029 38.5036 22.0114 38.7313 22.4754C38.8744 22.765 39.0944 23.0096 39.3671 23.1826C39.6398 23.3556 39.9548 23.4504 40.2777 23.4565C41.7611 23.4888 42.6643 21.7661 41.7346 20.6088C40.899 19.569 39.5243 18.8656 37.5858 18.7172C34.183 18.4558 32.0388 19.9773 31.839 22.568C31.6261 25.3422 33.4912 26.0927 36.3139 27.0458C38.2422 27.667 38.7195 27.9681 38.6637 28.7788C38.6035 29.5645 37.9147 29.9537 36.8676 29.8788C35.9952 29.8112 35.4592 29.4661 35.2066 28.9477C34.9231 28.3602 34.2872 28.0357 33.6396 28.0224C33.399 28.0153 33.1596 28.058 32.9364 28.148C32.7132 28.238 32.5111 28.3733 32.3428 28.5453C32.3428 28.5453 31.6085 29.3662 30.1765 29.3662C29.1353 29.3383 28.213 28.7788 28.213 27.3204L28.2482 22.4446C28.5236 22.6145 28.8347 22.7182 29.157 22.7474C29.4792 22.7766 29.8039 22.7306 30.1053 22.613C30.4068 22.4953 30.6768 22.3093 30.8941 22.0695C31.1114 21.8298 31.2701 21.5428 31.3576 21.2313C31.4451 20.9198 31.4591 20.5922 31.3985 20.2743C31.3378 19.9565 31.2042 19.6571 31.0081 19.3996C30.812 19.1422 30.5588 18.9339 30.2685 18.791C29.9781 18.6481 29.6586 18.5746 29.335 18.5762C28.9589 18.5788 28.5909 18.6856 28.2717 18.8846L28.2747 17.0944C28.2756 16.9437 28.2468 16.7944 28.1898 16.6549C28.1328 16.5154 28.0488 16.3886 27.9426 16.2817C27.8364 16.1748 27.7101 16.09 27.571 16.0321C27.4319 15.9743 27.2827 15.9445 27.1321 15.9445H25.5812C25.2792 15.9445 24.9895 16.064 24.7753 16.277C24.5612 16.49 24.4402 16.7792 24.4386 17.0812L24.3711 27.5495C24.2697 28.8522 23.3695 29.353 22.362 29.3604C21.2928 29.3604 20.3323 28.8008 20.3323 27.3146L20.4043 20.7057C20.4051 20.6061 20.3861 20.5073 20.3485 20.4151C20.311 20.3228 20.2555 20.2389 20.1853 20.1682C20.1151 20.0974 20.0316 20.0413 19.9397 20.003C19.8477 19.9647 19.7491 19.945 19.6494 19.945H17.3275C17.1283 19.945 16.9372 20.0237 16.7958 20.164C16.6544 20.3043 16.5742 20.4948 16.5727 20.694L16.4992 28.2369C16.4728 31.3812 18.9504 32.7955 22.362 32.7955C23.7895 32.7955 24.7691 32.2198 25.4461 31.4194C26.3126 32.3549 27.6652 32.7955 29.3027 32.7955C30.9402 32.7955 32.1651 32.5811 33.3811 31.8908C34.227 32.3887 35.305 32.7 36.6121 32.7999C40.1456 33.0716 42.2956 31.4781 42.5071 28.723C42.6922 26.266 40.8461 25.2805 38.2041 24.3685Z" fill="#FF4612"/>
<path d="M18.5816 18.2708C18.9961 18.2723 19.4016 18.1504 19.7466 17.9208C20.0917 17.6912 20.3607 17.3642 20.5194 16.9814C20.6781 16.5985 20.7194 16.1771 20.6381 15.7707C20.5567 15.3643 20.3563 14.9913 20.0624 14.6991C19.7685 14.4068 19.3944 14.2086 18.9876 14.1295C18.5807 14.0504 18.1595 14.0941 17.7776 14.255C17.3956 14.4159 17.0702 14.6867 16.8425 15.0331C16.6149 15.3794 16.4953 15.7856 16.4991 16.2001C16.5026 16.7502 16.7235 17.2767 17.1136 17.6646C17.5038 18.0525 18.0315 18.2704 18.5816 18.2708Z" fill="#FF4612"/>
<path d="M43.1151 33.6648C39.6902 33.6648 37.1201 35.5916 36.4123 38.8446C36.2184 35.7972 34.2754 33.9703 31.4101 33.9703C29.4113 33.9703 28.1042 34.8676 27.3361 36.0719C26.4638 34.7193 25.004 33.9703 23.1843 33.9703C21.4954 33.9703 16.1628 33.7647 16.1628 40.6158C16.1628 40.7627 16.1628 40.886 16.1628 41.0167V41.0255V45.6033C16.1558 45.8533 16.199 46.1022 16.2899 46.3352C16.3807 46.5682 16.5174 46.7807 16.6917 46.96C16.8661 47.1393 17.0746 47.2819 17.305 47.3792C17.5354 47.4765 17.783 47.5267 18.0331 47.5267C18.2833 47.5267 18.5308 47.4765 18.7612 47.3792C18.9916 47.2819 19.2002 47.1393 19.3746 46.96C19.5489 46.7807 19.6856 46.5682 19.7764 46.3352C19.8672 46.1022 19.9104 45.8533 19.9034 45.6033V40.1253C19.9034 38.5362 20.8008 37.4612 22.287 37.4612C23.6455 37.4612 24.4386 38.4085 24.4386 40.1047V45.6135C24.4386 46.1098 24.6357 46.5857 24.9866 46.9366C25.3374 47.2874 25.8134 47.4846 26.3096 47.4846C26.8058 47.4846 27.2817 47.2874 27.6326 46.9366C27.9835 46.5857 28.1806 46.1098 28.1806 45.6135V39.6641C28.3275 38.3321 29.1543 37.4612 30.4864 37.4612C31.9212 37.4612 32.6893 38.4085 32.6893 40.1047V45.6135C32.6823 45.8636 32.7255 46.1124 32.8163 46.3455C32.9072 46.5785 33.0438 46.791 33.2182 46.9703C33.3925 47.1496 33.6011 47.2922 33.8315 47.3895C34.0619 47.4868 34.3095 47.537 34.5596 47.537C34.8097 47.537 35.0573 47.4868 35.2877 47.3895C35.5181 47.2922 35.7266 47.1496 35.901 46.9703C36.0754 46.791 36.212 46.5785 36.3029 46.3455C36.3937 46.1124 36.4369 45.8636 36.4299 45.6135V42.6851C37.1642 45.8779 39.7343 47.79 43.2179 47.79C44.8554 47.79 46.4092 47.2892 47.5386 46.4683C47.5782 46.4404 47.6149 46.4125 47.6531 46.3846C47.6913 46.3567 47.7412 46.3229 47.7824 46.2891C47.7824 46.2891 47.7824 46.2774 47.7912 46.2729C47.8529 46.223 47.9189 46.1745 47.9777 46.1261C49.0733 45.1245 48.4432 43.2843 46.9717 43.0904C46.6514 43.0472 46.3255 43.0928 46.0294 43.2223C45.7334 43.3518 45.4786 43.5602 45.293 43.8247C44.8657 44.3828 44.1269 44.6971 43.1165 44.6971C41.3836 44.6971 40.3599 43.6206 40.2806 41.9405H48.3801C48.7038 41.9405 49.0142 41.8119 49.2431 41.583C49.4719 41.3542 49.6005 41.0438 49.6005 40.7201V40.4175C49.6005 36.1864 47.0275 33.6648 43.1151 33.6648ZM40.2792 39.3924C40.3834 37.6595 41.454 36.6623 43.0886 36.6623C44.8216 36.6623 45.6617 37.7388 45.741 39.3924H40.2792Z" fill="#FF4612"/>
</g>
<defs>
<clipPath id="clip0_2026_3403">
<rect width="64" height="64" fill="white"/>
</clipPath>
</defs>
</svg>
