<svg width="64" height="64" viewBox="0 0 64 64" fill="none" xmlns="http://www.w3.org/2000/svg">
<path fill-rule="evenodd" clip-rule="evenodd" d="M20.5818 18.7971C20.5818 16.0581 22.8022 13.8378 25.5411 13.8378H46.2388C48.9777 13.8378 51.1981 16.0581 51.1981 18.7971V31.2157C51.1981 33.9546 48.9777 36.175 46.2388 36.175H44.169C43.4787 36.175 42.919 36.7346 42.919 37.425V42.1118L36.7411 36.5095C36.518 36.302 36.2188 36.175 35.8899 36.175C35.884 36.175 35.878 36.175 35.872 36.1751H25.5411C22.8022 36.1751 20.5818 33.9547 20.5818 31.2158V27.0761V18.7971ZM18.0818 25.8261V18.7971C18.0818 14.6774 21.4214 11.3378 25.5411 11.3378H46.2388C50.3584 11.3378 53.6981 14.6774 53.6981 18.7971V31.2157C53.6981 35.3353 50.3584 38.675 46.2388 38.675H45.419V42.5973C45.419 43.5012 44.8862 44.3201 44.0598 44.6863C43.2334 45.0525 42.2688 44.8971 41.5992 44.2899L37.1399 40.2461V41.5645C37.1399 44.5411 34.727 46.954 31.7504 46.954H26.0235L19.8317 52.569L19.8315 52.5692C19.1618 53.1763 18.1972 53.3315 17.3709 52.9651C16.5446 52.5988 16.0119 51.7799 16.012 50.8761V50.8758V46.954H15.1923C12.2157 46.954 9.80273 44.5411 9.80273 41.5645V31.2157C9.80273 28.2391 12.2157 25.8261 15.1923 25.8261H18.0818ZM34.6399 38.6751V41.5645C34.6399 43.1604 33.3463 44.454 31.7504 44.454H25.5411C25.2307 44.454 24.9314 44.5696 24.7014 44.7781L18.512 50.3909V45.704C18.512 45.0137 17.9524 44.454 17.262 44.454H15.1923C13.5964 44.454 12.3027 43.1604 12.3027 41.5645V31.2157C12.3027 29.6198 13.5964 28.3261 15.1923 28.3261H18.0818V31.2158C18.0818 35.3355 21.4214 38.6751 25.5411 38.6751H34.6399Z" fill="#202120"/>
<path fill-rule="evenodd" clip-rule="evenodd" d="M37.1435 19.8283C37.1414 19.138 36.5802 18.58 35.8898 18.582C35.1995 18.584 34.6415 19.1453 34.6435 19.8356L34.6481 21.4044H30.7148C30.0245 21.4044 29.4648 21.964 29.4648 22.6544C29.4648 23.3447 30.0245 23.9044 30.7148 23.9044H35.8247L31.3029 29.3854C30.8636 29.9179 30.9391 30.7057 31.4717 31.1451C32.0042 31.5844 32.792 31.5088 33.2314 30.9763L35.5015 28.2246L38.6708 31.1057C39.1816 31.5701 39.9721 31.5325 40.4365 31.0217C40.9009 30.5108 40.8633 29.7203 40.3524 29.2559L37.0943 26.294L39.0657 23.9044H41.0637C41.754 23.9044 42.3137 23.3447 42.3137 22.6544C42.3137 21.964 41.754 21.4044 41.0637 21.4044H38.4811H38.4732H37.1481L37.1435 19.8283Z" fill="#FF4612"/>
</svg>
