<svg width="64" height="64" viewBox="0 0 64 64" fill="none" xmlns="http://www.w3.org/2000/svg">
<g clip-path="url(#clip0_2040_4572)">
<path d="M44.7412 60.1657C44.808 60.3663 44.8262 60.5799 44.7942 60.7888C44.7622 60.9978 44.681 61.1961 44.5573 61.3675C44.4336 61.5389 44.2709 61.6784 44.0826 61.7745C43.8944 61.8707 43.6859 61.9207 43.4746 61.9204H20.5093C20.2979 61.9207 20.0895 61.8707 19.9012 61.7745C19.713 61.6784 19.5503 61.5389 19.4266 61.3675C19.3028 61.1961 19.2216 60.9978 19.1897 60.7888C19.1577 60.5799 19.1758 60.3663 19.2426 60.1657L20.4826 56.4511C20.7282 55.7145 21.1992 55.0737 21.829 54.6196C22.4588 54.1654 23.2155 53.9208 23.992 53.9204H39.9919C40.7684 53.9208 41.525 54.1654 42.1548 54.6196C42.7846 55.0737 43.2556 55.7145 43.5012 56.4511L44.7412 60.1657Z" stroke="#202120" stroke-width="2.5" stroke-linecap="round" stroke-linejoin="round"/>
<path d="M37.3253 53.9204H26.6587V51.2537C26.6587 49.8393 27.2206 48.4827 28.2208 47.4825C29.221 46.4823 30.5775 45.9204 31.992 45.9204C33.4065 45.9204 34.763 46.4823 35.7632 47.4825C36.7634 48.4827 37.3253 49.8393 37.3253 51.2537V53.9204Z" stroke="#202120" stroke-width="2.5" stroke-linecap="round" stroke-linejoin="round"/>
<path d="M31.9922 45.9204V13.9204" stroke="#202120" stroke-width="2.5" stroke-linecap="round" stroke-linejoin="round"/>
<path d="M35.9927 9.92016C35.9927 10.981 35.5712 11.9984 34.8211 12.7486C34.0709 13.4987 33.0535 13.9202 31.9927 13.9202C30.9318 13.9202 29.9144 13.4987 29.1642 12.7486C28.4141 11.9984 27.9927 10.981 27.9927 9.92016C28.5603 7.41635 29.5101 5.01488 30.8087 2.80016C30.9211 2.58313 31.0909 2.40117 31.2997 2.27415C31.5086 2.14713 31.7483 2.07996 31.9927 2.07996C32.2371 2.07996 32.4768 2.14713 32.6856 2.27415C32.8944 2.40117 33.0643 2.58313 33.1767 2.80016C34.477 5.01404 35.4269 7.41579 35.9927 9.92016Z" stroke="#202120" stroke-width="2.5" stroke-linecap="round" stroke-linejoin="round"/>
<path d="M7.99219 19.2537H55.992" stroke="#202120" stroke-width="2.5" stroke-linecap="round" stroke-linejoin="round"/>
<path d="M13.3257 19.2537V32.587" stroke="#202120" stroke-width="2.5" stroke-linecap="round" stroke-linejoin="round"/>
<path d="M22.5628 32.587C22.7551 32.585 22.9454 32.6247 23.1209 32.7032C23.2964 32.7817 23.4528 32.8972 23.5794 33.0419C23.7061 33.1865 23.8 33.3568 23.8546 33.5411C23.9093 33.7254 23.9235 33.9194 23.8962 34.1096C23.5339 36.6523 22.2663 38.9788 20.3264 40.6619C18.3865 42.3449 15.9045 43.2716 13.3362 43.2716C10.7679 43.2716 8.28586 42.3449 6.34595 40.6619C4.40603 38.9788 3.13852 36.6523 2.77622 34.1096C2.74891 33.9194 2.76307 33.7254 2.81774 33.5411C2.8724 33.3568 2.96627 33.1865 3.09292 33.0419C3.21956 32.8972 3.37599 32.7817 3.55146 32.7032C3.72694 32.6247 3.91732 32.585 4.10955 32.587H22.5628Z" stroke="#FF4612" stroke-width="2.5" stroke-linecap="round" stroke-linejoin="round"/>
<path d="M50.6587 19.2537V32.587" stroke="#202120" stroke-width="2.5" stroke-linecap="round" stroke-linejoin="round"/>
<path d="M40.7707 32.587C40.6681 32.5876 40.5667 32.609 40.4727 32.6501C40.3787 32.6911 40.294 32.7509 40.2239 32.8258C40.1538 32.9007 40.0996 32.9891 40.0648 33.0856C40.03 33.1821 40.0152 33.2846 40.0214 33.387C40.2162 36.01 41.3733 38.4685 43.2703 40.2903C45.1674 42.1121 47.6706 43.1688 50.2993 43.2575C52.928 43.3461 55.4967 42.4604 57.5121 40.7705C59.5276 39.0805 60.8476 36.7056 61.2187 34.1017C61.246 33.9114 61.2318 33.7175 61.1771 33.5332C61.1225 33.3489 61.0286 33.1786 60.902 33.0339C60.7753 32.8893 60.6189 32.7738 60.4434 32.6953C60.2679 32.6167 60.0776 32.5771 59.8853 32.579L40.7707 32.587Z" stroke="#FF4612" stroke-width="2.5" stroke-linecap="round" stroke-linejoin="round"/>
</g>
<defs>
<clipPath id="clip0_2040_4572">
<rect width="63.9998" height="64" fill="white" transform="translate(-0.00732422 0.000366211)"/>
</clipPath>
</defs>
</svg>
