<svg width="64" height="64" viewBox="0 0 64 64" fill="none" xmlns="http://www.w3.org/2000/svg">
<path d="M7.16309 15.8498C7.16309 16.991 7.69691 18.121 8.73409 19.1753C9.77126 20.2296 11.2915 21.1875 13.2079 21.9945C15.1244 22.8014 17.3995 23.4415 19.9035 23.8782C22.4074 24.3149 25.0912 24.5396 27.8014 24.5396C30.5117 24.5396 33.1954 24.3149 35.6994 23.8782C38.2033 23.4415 40.4785 22.8014 42.3949 21.9945C44.3114 21.1875 45.8316 20.2296 46.8688 19.1753C47.9059 18.121 48.4398 16.991 48.4398 15.8498C48.4398 14.7087 47.9059 13.5787 46.8688 12.5244C45.8316 11.4701 44.3114 10.5121 42.3949 9.70522C40.4785 8.8983 38.2033 8.25821 35.6994 7.82151C33.1954 7.3848 30.5117 7.16003 27.8014 7.16003C25.0912 7.16003 22.4074 7.3848 19.9035 7.82151C17.3995 8.25821 15.1244 8.8983 13.2079 9.70522C11.2915 10.5121 9.77126 11.4701 8.73409 12.5244C7.69691 13.5787 7.16309 14.7087 7.16309 15.8498V15.8498Z" stroke="#202120" stroke-width="2.5" stroke-linecap="round" stroke-linejoin="round"/>
<path d="M29.9724 33.1817C29.2555 33.2143 28.5343 33.2295 27.8 33.2295C16.4033 33.2295 7.16162 29.3408 7.16162 24.5397" stroke="#202120" stroke-width="2.5" stroke-linecap="round" stroke-linejoin="round"/>
<path d="M29.9724 42.9578C29.2555 42.9904 28.5343 43.0056 27.8 43.0056C16.4033 43.0056 7.16162 39.1169 7.16162 34.3158" stroke="#202120" stroke-width="2.5" stroke-linecap="round" stroke-linejoin="round"/>
<path d="M48.4385 25.6258V15.8497" stroke="#202120" stroke-width="2.5" stroke-linecap="round" stroke-linejoin="round"/>
<path d="M7.16162 15.8475V44.0894C7.16162 48.8905 16.4033 52.7792 27.8 52.7792C28.5343 52.7792 29.2599 52.764 29.9724 52.7314" stroke="#202120" stroke-width="2.5" stroke-linecap="round" stroke-linejoin="round"/>
<path d="M56.4163 56.9318C56.4163 57.533 56.1775 58.1095 55.7524 58.5346C55.3273 58.9597 54.7508 59.1985 54.1496 59.1985H38.2828C37.6816 59.1985 37.1051 58.9597 36.68 58.5346C36.2549 58.1095 36.0161 57.533 36.0161 56.9318V43.3317C36.0161 42.7306 36.2549 42.154 36.68 41.729C37.1051 41.3039 37.6816 41.0651 38.2828 41.0651H54.1496C54.7508 41.0651 55.3273 41.3039 55.7524 41.729C56.1775 42.154 56.4163 42.7306 56.4163 43.3317V56.9318Z" stroke="#FF4612" stroke-width="2.5" stroke-linecap="round" stroke-linejoin="round"/>
<path d="M43.3823 50.2768C43.3823 51.0283 43.6808 51.749 44.2122 52.2803C44.7436 52.8117 45.4642 53.1102 46.2157 53.1102C46.9671 53.1102 47.6878 52.8117 48.2192 52.2803C48.7505 51.749 49.049 51.0283 49.049 50.2768C49.049 49.5254 48.7505 48.8047 48.2192 48.2734C47.6878 47.742 46.9671 47.4435 46.2157 47.4435C45.4642 47.4435 44.7436 47.742 44.2122 48.2734C43.6808 48.8047 43.3823 49.5254 43.3823 50.2768V50.2768Z" stroke="#FF4612" stroke-width="2.5" stroke-linecap="round" stroke-linejoin="round"/>
<path d="M51.8827 37.6652C51.8827 36.1623 51.2857 34.721 50.223 33.6583C49.1603 32.5956 47.7189 31.9985 46.216 31.9985C44.7131 31.9985 43.2718 32.5956 42.2091 33.6583C41.1463 34.721 40.5493 36.1623 40.5493 37.6652V41.0653H51.8827V37.6652Z" stroke="#FF4612" stroke-width="2.5" stroke-linecap="round" stroke-linejoin="round"/>
</svg>
