<svg width="64" height="64" viewBox="0 0 64 64" fill="none" xmlns="http://www.w3.org/2000/svg">
<path d="M58.0152 23.7204C58.3289 23.7204 58.6297 23.5958 58.8516 23.3739C59.0734 23.1521 59.198 22.8513 59.198 22.5376V16.6235C59.198 15.3687 58.6995 14.1653 57.8123 13.278C56.925 12.3907 55.7216 11.8922 54.4668 11.8922H9.51983C8.26502 11.8922 7.06161 12.3907 6.17433 13.278C5.28704 14.1653 4.78857 15.3687 4.78857 16.6235V22.5376C4.78857 22.8513 4.91319 23.1521 5.13501 23.3739C5.35683 23.5958 5.65769 23.7204 5.97139 23.7204C8.1673 23.7204 10.2733 24.5927 11.826 26.1455C13.3788 27.6982 14.2511 29.8042 14.2511 32.0001C14.2511 34.196 13.3788 36.302 11.826 37.8547C10.2733 39.4075 8.1673 40.2798 5.97139 40.2798C5.65769 40.2798 5.35683 40.4044 5.13501 40.6263C4.91319 40.8481 4.78857 41.1489 4.78857 41.4626V47.3767C4.78857 48.6315 5.28704 49.835 6.17433 50.7222C7.06161 51.6095 8.26502 52.108 9.51983 52.108H54.4668C55.7216 52.108 56.925 51.6095 57.8123 50.7222C58.6995 49.835 59.198 48.6315 59.198 47.3767V41.4626C59.198 41.1489 59.0734 40.8481 58.8516 40.6263C58.6297 40.4044 58.3289 40.2798 58.0152 40.2798C55.8193 40.2798 53.7133 39.4075 52.1606 37.8547C50.6078 36.302 49.7355 34.196 49.7355 32.0001C49.7355 29.8042 50.6078 27.6982 52.1606 26.1455C53.7133 24.5927 55.8193 23.7204 58.0152 23.7204V23.7204Z" stroke="#202120" stroke-width="2.5" stroke-linecap="round" stroke-linejoin="round"/>
<path d="M30.9 24.1722C30.9902 23.9574 31.1418 23.7741 31.3358 23.6451C31.5299 23.5162 31.7576 23.4474 31.9906 23.4474C32.2235 23.4474 32.4513 23.5162 32.6453 23.6451C32.8393 23.7741 32.9909 23.9574 33.0811 24.1722L35.0446 28.8657H38.8533C39.0979 28.8657 39.3364 28.9416 39.5361 29.0829C39.7358 29.2242 39.8868 29.4239 39.9682 29.6545C40.0497 29.8852 40.0577 30.1354 39.991 30.3708C39.9244 30.6061 39.7864 30.815 39.5961 30.9687L36.0736 33.8075L37.7745 38.3448C37.8635 38.5819 37.8739 38.8414 37.8044 39.0849C37.7348 39.3285 37.5889 39.5433 37.3882 39.6977C37.1874 39.8521 36.9423 39.938 36.6891 39.9427C36.4359 39.9474 36.1878 39.8707 35.9814 39.7239L31.9929 36.8852L28.0045 39.7239C27.7983 39.8713 27.5503 39.9485 27.2969 39.9442C27.0435 39.9399 26.7982 39.8544 26.5971 39.7002C26.396 39.546 26.2497 39.3313 26.1798 39.0877C26.11 38.8441 26.1202 38.5845 26.209 38.3471L27.9099 33.8098L24.3874 30.9711C24.1971 30.8174 24.0592 30.6085 23.9925 30.3731C23.9259 30.1378 23.9338 29.8876 24.0153 29.6569C24.0967 29.4263 24.2477 29.2265 24.4474 29.0853C24.6471 28.944 24.8856 28.8681 25.1303 28.868H28.9176L30.9 24.1722Z" stroke="#FF4612" stroke-width="2.5" stroke-linecap="round" stroke-linejoin="round"/>
<path d="M14.251 17.215C14.4078 17.215 14.5583 17.2773 14.6692 17.3882C14.7801 17.4991 14.8424 17.6495 14.8424 17.8064" stroke="#202120" stroke-width="2.5" stroke-linecap="round" stroke-linejoin="round"/>
<path d="M13.6597 17.8064C13.6597 17.6495 13.722 17.4991 13.8329 17.3882C13.9438 17.2773 14.0942 17.215 14.2511 17.215" stroke="#202120" stroke-width="2.5" stroke-linecap="round" stroke-linejoin="round"/>
<path d="M14.2511 18.3978C14.0942 18.3978 13.9438 18.3355 13.8329 18.2246C13.722 18.1137 13.6597 17.9632 13.6597 17.8064" stroke="#202120" stroke-width="2.5" stroke-linecap="round" stroke-linejoin="round"/>
<path d="M14.8424 17.8064C14.8424 17.9632 14.7801 18.1137 14.6692 18.2246C14.5583 18.3355 14.4078 18.3978 14.251 18.3978" stroke="#202120" stroke-width="2.5" stroke-linecap="round" stroke-linejoin="round"/>
<path d="M21.3477 17.215C21.5045 17.215 21.6549 17.2773 21.7658 17.3882C21.8768 17.4991 21.9391 17.6495 21.9391 17.8064" stroke="#202120" stroke-width="2.5" stroke-linecap="round" stroke-linejoin="round"/>
<path d="M20.7563 17.8064C20.7563 17.6495 20.8187 17.4991 20.9296 17.3882C21.0405 17.2773 21.1909 17.215 21.3478 17.215" stroke="#202120" stroke-width="2.5" stroke-linecap="round" stroke-linejoin="round"/>
<path d="M21.3478 18.3978C21.1909 18.3978 21.0405 18.3355 20.9296 18.2246C20.8187 18.1137 20.7563 17.9632 20.7563 17.8064" stroke="#202120" stroke-width="2.5" stroke-linecap="round" stroke-linejoin="round"/>
<path d="M21.9391 17.8064C21.9391 17.9632 21.8768 18.1137 21.7658 18.2246C21.6549 18.3355 21.5045 18.3978 21.3477 18.3978" stroke="#202120" stroke-width="2.5" stroke-linecap="round" stroke-linejoin="round"/>
<path d="M28.4443 17.215C28.6012 17.215 28.7516 17.2773 28.8625 17.3882C28.9734 17.4991 29.0357 17.6495 29.0357 17.8064" stroke="#202120" stroke-width="2.5" stroke-linecap="round" stroke-linejoin="round"/>
<path d="M27.854 17.8064C27.854 17.6495 27.9163 17.4991 28.0272 17.3882C28.1381 17.2773 28.2886 17.215 28.4454 17.215" stroke="#202120" stroke-width="2.5" stroke-linecap="round" stroke-linejoin="round"/>
<path d="M28.4454 18.3978C28.2886 18.3978 28.1381 18.3355 28.0272 18.2246C27.9163 18.1137 27.854 17.9632 27.854 17.8064" stroke="#202120" stroke-width="2.5" stroke-linecap="round" stroke-linejoin="round"/>
<path d="M29.0357 17.8064C29.0357 17.9632 28.9734 18.1137 28.8625 18.2246C28.7516 18.3355 28.6012 18.3978 28.4443 18.3978" stroke="#202120" stroke-width="2.5" stroke-linecap="round" stroke-linejoin="round"/>
<path d="M35.542 17.215C35.6988 17.215 35.8493 17.2773 35.9602 17.3882C36.0711 17.4991 36.1334 17.6495 36.1334 17.8064" stroke="#202120" stroke-width="2.5" stroke-linecap="round" stroke-linejoin="round"/>
<path d="M34.9507 17.8064C34.9507 17.6495 35.013 17.4991 35.1239 17.3882C35.2348 17.2773 35.3852 17.215 35.5421 17.215" stroke="#202120" stroke-width="2.5" stroke-linecap="round" stroke-linejoin="round"/>
<path d="M35.5421 18.3978C35.3852 18.3978 35.2348 18.3355 35.1239 18.2246C35.013 18.1137 34.9507 17.9632 34.9507 17.8064" stroke="#202120" stroke-width="2.5" stroke-linecap="round" stroke-linejoin="round"/>
<path d="M36.1334 17.8064C36.1334 17.9632 36.0711 18.1137 35.9602 18.2246C35.8493 18.3355 35.6988 18.3978 35.542 18.3978" stroke="#202120" stroke-width="2.5" stroke-linecap="round" stroke-linejoin="round"/>
<path d="M42.6387 17.215C42.7955 17.215 42.9459 17.2773 43.0569 17.3882C43.1678 17.4991 43.2301 17.6495 43.2301 17.8064" stroke="#202120" stroke-width="2.5" stroke-linecap="round" stroke-linejoin="round"/>
<path d="M42.0464 17.8064C42.0464 17.6495 42.1087 17.4991 42.2196 17.3882C42.3305 17.2773 42.4809 17.215 42.6378 17.215" stroke="#202120" stroke-width="2.5" stroke-linecap="round" stroke-linejoin="round"/>
<path d="M42.6378 18.3978C42.4809 18.3978 42.3305 18.3355 42.2196 18.2246C42.1087 18.1137 42.0464 17.9632 42.0464 17.8064" stroke="#202120" stroke-width="2.5" stroke-linecap="round" stroke-linejoin="round"/>
<path d="M43.2301 17.8064C43.2301 17.9632 43.1678 18.1137 43.0569 18.2246C42.9459 18.3355 42.7955 18.3978 42.6387 18.3978" stroke="#202120" stroke-width="2.5" stroke-linecap="round" stroke-linejoin="round"/>
<path d="M49.7354 17.215C49.8922 17.215 50.0426 17.2773 50.1535 17.3882C50.2644 17.4991 50.3268 17.6495 50.3268 17.8064" stroke="#202120" stroke-width="2.5" stroke-linecap="round" stroke-linejoin="round"/>
<path d="M49.144 17.8064C49.144 17.6495 49.2064 17.4991 49.3173 17.3882C49.4282 17.2773 49.5786 17.215 49.7354 17.215" stroke="#202120" stroke-width="2.5" stroke-linecap="round" stroke-linejoin="round"/>
<path d="M49.7354 18.3978C49.5786 18.3978 49.4282 18.3355 49.3173 18.2246C49.2064 18.1137 49.144 17.9632 49.144 17.8064" stroke="#202120" stroke-width="2.5" stroke-linecap="round" stroke-linejoin="round"/>
<path d="M50.3268 17.8064C50.3268 17.9632 50.2644 18.1137 50.1535 18.2246C50.0426 18.3355 49.8922 18.3978 49.7354 18.3978" stroke="#202120" stroke-width="2.5" stroke-linecap="round" stroke-linejoin="round"/>
<path d="M14.251 45.6027C14.4078 45.6027 14.5583 45.665 14.6692 45.7759C14.7801 45.8868 14.8424 46.0372 14.8424 46.1941" stroke="#202120" stroke-width="2.5" stroke-linecap="round" stroke-linejoin="round"/>
<path d="M13.6597 46.1941C13.6597 46.0372 13.722 45.8868 13.8329 45.7759C13.9438 45.665 14.0942 45.6027 14.2511 45.6027" stroke="#202120" stroke-width="2.5" stroke-linecap="round" stroke-linejoin="round"/>
<path d="M14.2511 46.7855C14.0942 46.7855 13.9438 46.7232 13.8329 46.6123C13.722 46.5014 13.6597 46.3509 13.6597 46.1941" stroke="#202120" stroke-width="2.5" stroke-linecap="round" stroke-linejoin="round"/>
<path d="M14.8424 46.1941C14.8424 46.3509 14.7801 46.5014 14.6692 46.6123C14.5583 46.7232 14.4078 46.7855 14.251 46.7855" stroke="#202120" stroke-width="2.5" stroke-linecap="round" stroke-linejoin="round"/>
<path d="M21.3477 45.6027C21.5045 45.6027 21.6549 45.665 21.7658 45.7759C21.8768 45.8868 21.9391 46.0372 21.9391 46.1941" stroke="#202120" stroke-width="2.5" stroke-linecap="round" stroke-linejoin="round"/>
<path d="M20.7563 46.1941C20.7563 46.0372 20.8187 45.8868 20.9296 45.7759C21.0405 45.665 21.1909 45.6027 21.3478 45.6027" stroke="#202120" stroke-width="2.5" stroke-linecap="round" stroke-linejoin="round"/>
<path d="M21.3478 46.7855C21.1909 46.7855 21.0405 46.7232 20.9296 46.6123C20.8187 46.5014 20.7563 46.3509 20.7563 46.1941" stroke="#202120" stroke-width="2.5" stroke-linecap="round" stroke-linejoin="round"/>
<path d="M21.9391 46.1941C21.9391 46.3509 21.8768 46.5014 21.7658 46.6123C21.6549 46.7232 21.5045 46.7855 21.3477 46.7855" stroke="#202120" stroke-width="2.5" stroke-linecap="round" stroke-linejoin="round"/>
<path d="M28.4443 45.6027C28.6012 45.6027 28.7516 45.665 28.8625 45.7759C28.9734 45.8868 29.0357 46.0372 29.0357 46.1941" stroke="#202120" stroke-width="2.5" stroke-linecap="round" stroke-linejoin="round"/>
<path d="M27.854 46.1941C27.854 46.0372 27.9163 45.8868 28.0272 45.7759C28.1381 45.665 28.2886 45.6027 28.4454 45.6027" stroke="#202120" stroke-width="2.5" stroke-linecap="round" stroke-linejoin="round"/>
<path d="M28.4454 46.7855C28.2886 46.7855 28.1381 46.7232 28.0272 46.6123C27.9163 46.5014 27.854 46.3509 27.854 46.1941" stroke="#202120" stroke-width="2.5" stroke-linecap="round" stroke-linejoin="round"/>
<path d="M29.0357 46.1941C29.0357 46.3509 28.9734 46.5014 28.8625 46.6123C28.7516 46.7232 28.6012 46.7855 28.4443 46.7855" stroke="#202120" stroke-width="2.5" stroke-linecap="round" stroke-linejoin="round"/>
<path d="M35.542 45.6027C35.6988 45.6027 35.8493 45.665 35.9602 45.7759C36.0711 45.8868 36.1334 46.0372 36.1334 46.1941" stroke="#202120" stroke-width="2.5" stroke-linecap="round" stroke-linejoin="round"/>
<path d="M34.9507 46.1941C34.9507 46.0372 35.013 45.8868 35.1239 45.7759C35.2348 45.665 35.3852 45.6027 35.5421 45.6027" stroke="#202120" stroke-width="2.5" stroke-linecap="round" stroke-linejoin="round"/>
<path d="M35.5421 46.7855C35.3852 46.7855 35.2348 46.7232 35.1239 46.6123C35.013 46.5014 34.9507 46.3509 34.9507 46.1941" stroke="#202120" stroke-width="2.5" stroke-linecap="round" stroke-linejoin="round"/>
<path d="M36.1334 46.1941C36.1334 46.3509 36.0711 46.5014 35.9602 46.6123C35.8493 46.7232 35.6988 46.7855 35.542 46.7855" stroke="#202120" stroke-width="2.5" stroke-linecap="round" stroke-linejoin="round"/>
<path d="M42.6387 45.6027C42.7955 45.6027 42.9459 45.665 43.0569 45.7759C43.1678 45.8868 43.2301 46.0372 43.2301 46.1941" stroke="#202120" stroke-width="2.5" stroke-linecap="round" stroke-linejoin="round"/>
<path d="M42.0464 46.1941C42.0464 46.0372 42.1087 45.8868 42.2196 45.7759C42.3305 45.665 42.4809 45.6027 42.6378 45.6027" stroke="#202120" stroke-width="2.5" stroke-linecap="round" stroke-linejoin="round"/>
<path d="M42.6378 46.7855C42.4809 46.7855 42.3305 46.7232 42.2196 46.6123C42.1087 46.5014 42.0464 46.3509 42.0464 46.1941" stroke="#202120" stroke-width="2.5" stroke-linecap="round" stroke-linejoin="round"/>
<path d="M43.2301 46.1941C43.2301 46.3509 43.1678 46.5014 43.0569 46.6123C42.9459 46.7232 42.7955 46.7855 42.6387 46.7855" stroke="#202120" stroke-width="2.5" stroke-linecap="round" stroke-linejoin="round"/>
<path d="M49.7354 45.6027C49.8922 45.6027 50.0426 45.665 50.1535 45.7759C50.2644 45.8868 50.3268 46.0372 50.3268 46.1941" stroke="#202120" stroke-width="2.5" stroke-linecap="round" stroke-linejoin="round"/>
<path d="M49.144 46.1941C49.144 46.0372 49.2064 45.8868 49.3173 45.7759C49.4282 45.665 49.5786 45.6027 49.7354 45.6027" stroke="#202120" stroke-width="2.5" stroke-linecap="round" stroke-linejoin="round"/>
<path d="M49.7354 46.7855C49.5786 46.7855 49.4282 46.7232 49.3173 46.6123C49.2064 46.5014 49.144 46.3509 49.144 46.1941" stroke="#202120" stroke-width="2.5" stroke-linecap="round" stroke-linejoin="round"/>
<path d="M50.3268 46.1941C50.3268 46.3509 50.2644 46.5014 50.1535 46.6123C50.0426 46.7232 49.8922 46.7855 49.7354 46.7855" stroke="#202120" stroke-width="2.5" stroke-linecap="round" stroke-linejoin="round"/>
</svg>
