<svg width="64" height="64" viewBox="0 0 64 64" fill="none" xmlns="http://www.w3.org/2000/svg">
<path fill-rule="evenodd" clip-rule="evenodd" d="M32.0004 9.29292C18.4863 9.29292 7.65039 19.2058 7.65039 31.3133C7.65039 38.4807 11.4409 44.834 17.3431 48.8699C17.7076 49.1192 17.8987 49.5272 17.8872 49.938C17.8856 51.3328 17.8868 53.0027 17.8881 54.8217V54.8219V54.8222V54.8226C17.8886 55.5378 17.8891 56.276 17.8895 57.0297L26.1267 52.9461C26.4333 52.7941 26.7722 52.7796 27.0735 52.8789C28.6689 53.176 30.3135 53.3366 32.0003 53.3366C45.5142 53.3366 56.3503 43.421 56.3503 31.3133L56.3504 31.2954C56.338 19.1971 45.5066 9.29292 32.0004 9.29292ZM26.8478 55.3789C28.5159 55.676 30.2359 55.8366 32.0003 55.8366C46.6497 55.8366 58.8369 45.0394 58.8502 31.3359L58.8504 31.3162C58.8504 17.602 46.6578 6.79292 32.0004 6.79292C17.3432 6.79292 5.15039 17.5989 5.15039 31.3133C5.15039 39.1804 9.19916 46.0918 15.3867 50.5508C15.3859 51.8132 15.387 53.2665 15.3881 54.8278L15.3881 54.8322V54.8335V54.835C15.389 56.1767 15.3901 57.5981 15.3901 59.0466C15.3901 59.737 15.9497 60.2966 16.6401 60.2966C16.8668 60.2966 17.0795 60.2363 17.2628 60.1307L26.8478 55.3789Z" fill="#202120"/>
<path fill-rule="evenodd" clip-rule="evenodd" d="M32.503 31.4049C32.7807 31.6826 32.7807 32.1329 32.503 32.4106C32.2253 32.6883 31.775 32.6883 31.4973 32.4106C31.2196 32.1329 31.2196 31.6826 31.4973 31.4049C31.775 31.1272 32.2253 31.1272 32.503 31.4049Z" fill="#202120"/>
<path d="M32.503 31.4049C32.7807 31.6826 32.7807 32.1329 32.503 32.4106C32.2253 32.6883 31.775 32.6883 31.4973 32.4106C31.2196 32.1329 31.2196 31.6826 31.4973 31.4049C31.775 31.1272 32.2253 31.1272 32.503 31.4049" stroke="#FF4612" stroke-width="4" stroke-linecap="round" stroke-linejoin="round"/>
<path fill-rule="evenodd" clip-rule="evenodd" d="M43.8811 31.4049C44.1588 31.6826 44.1588 32.1329 43.8811 32.4106C43.6034 32.6883 43.1532 32.6883 42.8754 32.4106C42.5977 32.1329 42.5977 31.6826 42.8754 31.4049C43.1532 31.1272 43.6034 31.1272 43.8811 31.4049Z" fill="#202120"/>
<path d="M43.8811 31.4049C44.1588 31.6826 44.1588 32.1329 43.8811 32.4106C43.6034 32.6883 43.1532 32.6883 42.8754 32.4106C42.5977 32.1329 42.5977 31.6826 42.8754 31.4049C43.1532 31.1272 43.6034 31.1272 43.8811 31.4049" stroke="#FF4612" stroke-width="4" stroke-linecap="round" stroke-linejoin="round"/>
<path fill-rule="evenodd" clip-rule="evenodd" d="M21.1252 31.4049C21.403 31.6826 21.403 32.1329 21.1252 32.4106C20.8475 32.6883 20.3973 32.6883 20.1196 32.4106C19.8419 32.1329 19.8419 31.6826 20.1196 31.4049C20.3973 31.1272 20.8475 31.1272 21.1252 31.4049Z" fill="#202120"/>
<path d="M21.1252 31.4049C21.403 31.6826 21.403 32.1329 21.1252 32.4106C20.8475 32.6883 20.3973 32.6883 20.1196 32.4106C19.8419 32.1329 19.8419 31.6826 20.1196 31.4049C20.3973 31.1272 20.8475 31.1272 21.1252 31.4049" stroke="#FF4612" stroke-width="4" stroke-linecap="round" stroke-linejoin="round"/>
</svg>
