<svg width="64" height="64" viewBox="0 0 64 64" fill="none" xmlns="http://www.w3.org/2000/svg">
<path d="M13.4464 25.9802H50.5387C53.1939 25.9802 55.7404 27.035 57.6179 28.9125C59.4954 30.79 60.5502 33.3365 60.5502 35.9917V40.8472C60.5502 41.5046 60.4207 42.1555 60.1691 42.7629C59.9176 43.3702 59.5488 43.922 59.084 44.3868C58.6192 44.8517 58.0674 45.2204 57.46 45.4719C56.8527 45.7235 56.2018 45.853 55.5444 45.853H8.46568C7.13808 45.853 5.86486 45.3256 4.9261 44.3868C3.98735 43.4481 3.45996 42.1748 3.45996 40.8472V35.9917C3.45995 33.3408 4.51129 30.7981 6.38339 28.9213C8.25549 27.0446 10.7955 25.9869 13.4464 25.9802V25.9802Z" stroke="#202120" stroke-width="2.5" stroke-linecap="round" stroke-linejoin="round"/>
<path d="M12.1453 40.8973C14.2049 40.8973 15.8745 39.2276 15.8745 37.168C15.8745 35.1084 14.2049 33.4387 12.1453 33.4387C10.0857 33.4387 8.41602 35.1084 8.41602 37.168C8.41602 39.2276 10.0857 40.8973 12.1453 40.8973Z" stroke="#FF4612" stroke-width="2.5" stroke-linecap="round" stroke-linejoin="round"/>
<path d="M51.8401 40.8973C53.8997 40.8973 55.5694 39.2276 55.5694 37.168C55.5694 35.1084 53.8997 33.4387 51.8401 33.4387C49.7805 33.4387 48.1108 35.1084 48.1108 37.168C48.1108 39.2276 49.7805 40.8973 51.8401 40.8973Z" stroke="#FF4612" stroke-width="2.5" stroke-linecap="round" stroke-linejoin="round"/>
<path d="M12.1206 26.0801L13.9227 15.2427C14.1253 14.0674 14.7409 13.003 15.6586 12.2413C16.5763 11.4796 17.7359 11.0706 18.9284 11.0879H45.1583C46.3509 11.0706 47.5104 11.4796 48.4281 12.2413C49.3458 13.003 49.9614 14.0674 50.164 15.2427L51.9661 26.0801" stroke="#202120" stroke-width="2.5" stroke-linecap="round" stroke-linejoin="round"/>
<path d="M15.8748 45.8529V49.5321C15.8748 50.5278 15.4792 51.4827 14.7752 52.1868C14.0711 52.8909 13.1162 53.2864 12.1205 53.2864C11.1248 53.2864 10.1699 52.8909 9.46582 52.1868C8.76175 51.4827 8.36621 50.5278 8.36621 49.5321V45.8529" stroke="#202120" stroke-width="2.5" stroke-linecap="round" stroke-linejoin="round"/>
<path d="M55.5696 45.8529V49.5321C55.5696 50.5278 55.1741 51.4827 54.47 52.1868C53.7659 52.8909 52.811 53.2864 51.8153 53.2864C50.8196 53.2864 49.8647 52.8909 49.1606 52.1868C48.4566 51.4827 48.061 50.5278 48.061 49.5321V45.8529" stroke="#202120" stroke-width="2.5" stroke-linecap="round" stroke-linejoin="round"/>
<path d="M50.8896 20.2737L55.1946 17.7708C56.0542 17.2763 57.075 17.1435 58.0326 17.4016C58.9901 17.6598 59.8059 18.2878 60.3004 19.1474C60.7949 20.007 60.9277 21.0279 60.6696 21.9854C60.4114 22.9429 59.7834 23.7587 58.9238 24.2532L54.5188 26.7811" stroke="#202120" stroke-width="2.5" stroke-linecap="round" stroke-linejoin="round"/>
<path d="M13.0963 20.2738L8.79142 17.7709C8.36578 17.526 7.89608 17.3674 7.40913 17.3041C6.92218 17.2407 6.42753 17.2739 5.95341 17.4017C4.99588 17.6599 4.18012 18.2879 3.68559 19.1475C3.19106 20.0071 3.05827 21.028 3.31642 21.9855C3.57458 22.943 4.20254 23.7588 5.06216 24.2533L9.46719 26.7812" stroke="#202120" stroke-width="2.5" stroke-linecap="round" stroke-linejoin="round"/>
</svg>
