<svg width="64" height="64" viewBox="0 0 64 64" fill="none" xmlns="http://www.w3.org/2000/svg">
<path d="M10.6946 60.718L5.65844 54.7641C4.0624 52.7689 3.19288 50.29 3.19287 47.735V34.8045C3.19287 33.8097 3.58805 32.8556 4.29147 32.1522C4.9949 31.4488 5.94894 31.0536 6.94373 31.0536V31.0536C7.93852 31.0536 8.89257 31.4488 9.59599 32.1522C10.2994 32.8556 10.6946 33.8097 10.6946 34.8045V44.1816" stroke="#202120" stroke-width="2.5" stroke-linecap="round" stroke-linejoin="round"/>
<path d="M21.947 60.7182V53.2164C21.948 50.9913 21.2893 48.8158 20.0541 46.965L17.1984 42.689C16.9537 42.2837 16.6294 41.9322 16.245 41.6559C15.8606 41.3795 15.4241 41.184 14.962 41.0812C14.4999 40.9783 14.0217 40.9703 13.5564 41.0575C13.0911 41.1447 12.6483 41.3255 12.2548 41.5887V41.5887C11.548 42.0623 11.0378 42.7771 10.8197 43.5995C10.6015 44.4219 10.6903 45.2956 11.0695 46.0573L14.4503 51.6836" stroke="#202120" stroke-width="2.5" stroke-linecap="round" stroke-linejoin="round"/>
<path d="M51.9546 60.718L56.9907 54.7641C58.5868 52.7689 59.4563 50.29 59.4563 47.735V34.8045C59.4563 33.8097 59.0611 32.8556 58.3577 32.1522C57.6543 31.4488 56.7002 31.0536 55.7055 31.0536C54.7107 31.0536 53.7566 31.4488 53.0532 32.1522C52.3498 32.8556 51.9546 33.8097 51.9546 34.8045V44.1816" stroke="#202120" stroke-width="2.5" stroke-linecap="round" stroke-linejoin="round"/>
<path d="M40.7017 60.7182V53.2165C40.7007 50.9913 41.3594 48.8158 42.5946 46.965L45.4503 42.684C45.6941 42.2779 46.0179 41.9255 46.4019 41.6482C46.7859 41.3709 47.2222 41.1744 47.6844 41.0706C48.1466 40.9668 48.625 40.9578 49.0907 41.0443C49.5565 41.1308 49.9998 41.3109 50.3939 41.5738V41.5738C51.104 42.0469 51.6169 42.7632 51.8361 43.5879C52.0553 44.4126 51.9657 45.289 51.5842 46.0523L48.2034 51.6786" stroke="#202120" stroke-width="2.5" stroke-linecap="round" stroke-linejoin="round"/>
<path d="M31.1951 32.0033L18.2405 18.182C17.1022 17.0189 16.3508 15.5188 16.0928 13.8944C15.8348 12.27 16.0833 10.6038 16.8031 9.132V9.132C17.3464 8.02122 18.1401 7.0584 19.1187 6.32289C20.0973 5.58738 21.2329 5.10025 22.4317 4.90164C23.6305 4.70303 24.8584 4.79863 26.014 5.18057C27.1696 5.56251 28.2199 6.21984 29.0784 7.09839L31.1951 9.26083L33.3119 7.09839C34.1705 6.21992 35.2209 5.56272 36.3767 5.18096C37.5324 4.79919 38.7603 4.70379 39.9592 4.90263C41.158 5.10147 42.2935 5.58884 43.272 6.32458C44.2505 7.06032 45.0441 8.02335 45.5872 9.1343V9.1343C46.3066 10.6061 46.555 12.272 46.2975 13.8961C46.0399 15.5203 45.2894 17.0205 44.152 18.1844L31.1951 32.0033Z" stroke="#FF4612" stroke-width="2.5" stroke-linecap="round" stroke-linejoin="round"/>
</svg>
