<svg width="64" height="64" viewBox="0 0 64 64" fill="none" xmlns="http://www.w3.org/2000/svg">
<path d="M4.39404 31.2025H28.3927" stroke="#202120" stroke-width="2.5" stroke-linecap="round" stroke-linejoin="round"/>
<path d="M35.5923 31.2025H59.5909" stroke="#202120" stroke-width="2.5" stroke-linecap="round" stroke-linejoin="round"/>
<path d="M4.39404 19.2032H59.5909V52.8015H4.39404V19.2032Z" stroke="#202120" stroke-width="2.5" stroke-linecap="round" stroke-linejoin="round"/>
<path d="M35.5922 34.7999C35.5922 35.7546 35.2129 36.6702 34.5378 37.3453C33.8627 38.0204 32.9471 38.3997 31.9924 38.3997C31.0376 38.3997 30.122 38.0204 29.4469 37.3453C28.7718 36.6702 28.3926 35.7546 28.3926 34.7999V28.8002H35.5922V34.7999Z" stroke="#FF4612" stroke-width="2.5" stroke-linecap="round" stroke-linejoin="round"/>
<path d="M22.3931 19.2008C22.3931 16.6549 23.4044 14.2132 25.2047 12.4129C27.0049 10.6127 29.4466 9.60132 31.9925 9.60132C34.5385 9.60132 36.9801 10.6127 38.7804 12.4129C40.5806 14.2132 41.592 16.6549 41.592 19.2008" stroke="#202120" stroke-width="2.5" stroke-linecap="round" stroke-linejoin="round"/>
</svg>
