<svg width="64" height="64" viewBox="0 0 64 64" fill="none" xmlns="http://www.w3.org/2000/svg">
<path d="M47.3717 26.0862C47.3783 20.8479 45.4463 15.7924 41.9478 11.8936" stroke="#202120" stroke-width="2.5" stroke-linecap="round" stroke-linejoin="round"/>
<path d="M4.79688 30.8157V37.9114C4.79574 42.0983 6.02929 46.1925 8.34318 49.6818C10.6571 53.1712 13.9486 55.9007 17.8058 57.5289" stroke="#202120" stroke-width="2.5" stroke-linecap="round" stroke-linejoin="round"/>
<path d="M36.7275 7.65031C33.5783 5.83216 30.0158 4.85105 26.3798 4.80052C22.7438 4.74999 19.1555 5.63173 15.9569 7.36167C12.7584 9.0916 10.0564 11.6121 8.10848 14.6827C6.16057 17.7533 5.03172 21.2718 4.82959 24.9025" stroke="#202120" stroke-width="2.5" stroke-linecap="round" stroke-linejoin="round"/>
<path d="M20.1704 13.1804C22.3264 12.1922 24.6957 11.76 27.0617 11.9233C29.4278 12.0867 31.7152 12.8403 33.7149 14.1155C35.7146 15.3906 37.3629 17.1465 38.5092 19.2228C39.6555 21.2991 40.2631 23.6295 40.2767 26.0011" stroke="#202120" stroke-width="2.5" stroke-linecap="round" stroke-linejoin="round"/>
<path d="M29.5625 51.6749C27.4683 52.2011 25.2818 52.2432 23.169 51.7978C21.0561 51.3524 19.0726 50.4313 17.3691 49.1044C15.6656 47.7776 14.2869 46.08 13.3378 44.1405C12.3887 42.201 11.8941 40.0707 11.8916 37.9115V26.0852C11.8866 22.5934 13.174 19.2233 15.5057 16.6241" stroke="#202120" stroke-width="2.5" stroke-linecap="round" stroke-linejoin="round"/>
<path d="M33.1805 32.0608V26.0857C33.1805 24.2036 32.4328 22.3987 31.102 21.0678C29.7712 19.737 27.9662 18.9894 26.0841 18.9894C24.2021 18.9894 22.3971 19.737 21.0663 21.0678C19.7354 22.3987 18.9878 24.2036 18.9878 26.0857V33.182" stroke="#202120" stroke-width="2.5" stroke-linecap="round" stroke-linejoin="round"/>
<path d="M18.9878 37.9114C18.9878 39.7934 19.7354 41.5984 21.0663 42.9292C22.3971 44.2601 24.2021 45.0077 26.0841 45.0077" stroke="#202120" stroke-width="2.5" stroke-linecap="round" stroke-linejoin="round"/>
<path d="M26.083 26.0851V35.1851" stroke="#202120" stroke-width="2.5" stroke-linecap="round" stroke-linejoin="round"/>
<path d="M26.083 59.1989C28.1024 59.2005 30.1118 58.9154 32.051 58.3521" stroke="#202120" stroke-width="2.5" stroke-linecap="round" stroke-linejoin="round"/>
<path d="M36.7983 45.4405C36.7983 48.411 37.9784 51.2599 40.0789 53.3604C42.1794 55.4609 45.0283 56.6409 47.9988 56.6409C50.9694 56.6409 53.8183 55.4609 55.9188 53.3604C58.0193 51.2599 59.1993 48.411 59.1993 45.4405C59.1993 42.4699 58.0193 39.621 55.9188 37.5205C53.8183 35.42 50.9694 34.24 47.9988 34.24C45.0283 34.24 42.1794 35.42 40.0789 37.5205C37.9784 39.621 36.7983 42.4699 36.7983 45.4405Z" stroke="#FF4612" stroke-width="2.5" stroke-linecap="round" stroke-linejoin="round"/>
<path d="M52.9907 42.1849L47.5678 49.4149C47.4473 49.575 47.2939 49.7076 47.1179 49.8034C46.9419 49.8993 46.7474 49.9564 46.5475 49.9707C46.3476 49.985 46.1469 49.9563 45.959 49.8865C45.7711 49.8167 45.6004 49.7074 45.4583 49.5661L42.6582 46.7659" stroke="#FF4612" stroke-width="2.5" stroke-linecap="round" stroke-linejoin="round"/>
</svg>
