<svg width="64" height="64" viewBox="0 0 64 64" fill="none" xmlns="http://www.w3.org/2000/svg">
<path d="M47.3707 26.0863C47.3773 20.848 45.4453 15.7925 41.9468 11.8937" stroke="#202120" stroke-width="2.5" stroke-linecap="round" stroke-linejoin="round"/>
<path d="M4.7959 30.8158V37.9116C4.79477 42.0984 6.02831 46.1926 8.3422 49.6819C10.6561 53.1713 13.9476 55.9008 17.8048 57.529" stroke="#202120" stroke-width="2.5" stroke-linecap="round" stroke-linejoin="round"/>
<path d="M36.7265 7.65043C33.5773 5.83228 30.0149 4.85117 26.3789 4.80064C22.7428 4.75011 19.1545 5.63185 15.956 7.36179C12.7575 9.09173 10.0554 11.6122 8.1075 14.6828C6.15959 17.7534 5.03075 21.2719 4.82861 24.9026" stroke="#202120" stroke-width="2.5" stroke-linecap="round" stroke-linejoin="round"/>
<path d="M20.1694 13.1806C22.3254 12.1923 24.6947 11.7601 27.0607 11.9235C29.4268 12.0868 31.7142 12.8405 33.7139 14.1156C35.7136 15.3907 37.362 17.1466 38.5082 19.2229C39.6545 21.2992 40.2622 23.6296 40.2757 26.0013" stroke="#202120" stroke-width="2.5" stroke-linecap="round" stroke-linejoin="round"/>
<path d="M29.5615 51.675C27.4674 52.2013 25.2808 52.2433 23.168 51.7979C21.0552 51.3525 19.0716 50.4314 17.3681 49.1046C15.6646 47.7777 14.2859 46.0801 13.3368 44.1406C12.3877 42.2011 11.8931 40.0708 11.8906 37.9116V26.0853C11.8856 22.5935 13.173 19.2234 15.5048 16.6243" stroke="#202120" stroke-width="2.5" stroke-linecap="round" stroke-linejoin="round"/>
<path d="M33.1795 32.0609V26.0858C33.1795 24.2038 32.4318 22.3988 31.101 21.068C29.7702 19.7371 27.9652 18.9895 26.0832 18.9895C24.2011 18.9895 22.3961 19.7371 21.0653 21.068C19.7345 22.3988 18.9868 24.2038 18.9868 26.0858V33.1821" stroke="#202120" stroke-width="2.5" stroke-linecap="round" stroke-linejoin="round"/>
<path d="M18.9868 37.9116C18.9868 39.7937 19.7345 41.5987 21.0653 42.9295C22.3961 44.2603 24.2011 45.0079 26.0832 45.0079" stroke="#202120" stroke-width="2.5" stroke-linecap="round" stroke-linejoin="round"/>
<path d="M26.082 26.0852V35.1852" stroke="#202120" stroke-width="2.5" stroke-linecap="round" stroke-linejoin="round"/>
<path d="M26.082 59.199C28.1014 59.2007 30.1108 58.9155 32.05 58.3522" stroke="#202120" stroke-width="2.5" stroke-linecap="round" stroke-linejoin="round"/>
<path d="M33.1782 43.8956C33.1782 46.7367 34.3068 49.4614 36.3158 51.4703C38.3247 53.4792 41.0494 54.6078 43.8905 54.6078C46.7316 54.6078 49.4563 53.4792 51.4652 51.4703C53.4742 49.4614 54.6028 46.7367 54.6028 43.8956C54.6028 41.0545 53.4742 38.3298 51.4652 36.3209C49.4563 34.312 46.7316 33.1833 43.8905 33.1833C41.0494 33.1833 38.3247 34.312 36.3158 36.3209C34.3068 38.3298 33.1782 41.0545 33.1782 43.8956Z" stroke="#FF4612" stroke-width="2.5" stroke-linecap="round" stroke-linejoin="round"/>
<path d="M59.1961 59.1995L51.4658 51.4692" stroke="#FF4612" stroke-width="2.5" stroke-linecap="round" stroke-linejoin="round"/>
</svg>
