<svg width="64" height="64" viewBox="0 0 64 64" fill="none" xmlns="http://www.w3.org/2000/svg">
<path d="M48.9713 26.0862C48.9779 20.8479 47.0459 15.7924 43.5474 11.8936" stroke="#202120" stroke-width="2.5" stroke-linecap="round" stroke-linejoin="round"/>
<path d="M6.39649 30.8157V37.9114C6.39535 42.0983 7.6289 46.1925 9.94279 49.6818C12.2567 53.1712 15.5482 55.9007 19.4054 57.5289" stroke="#202120" stroke-width="2.5" stroke-linecap="round" stroke-linejoin="round"/>
<path d="M38.3271 7.65031C35.1779 5.83216 31.6155 4.85105 27.9794 4.80052C24.3434 4.74999 20.7551 5.63173 17.5566 7.36167C14.358 9.0916 11.656 11.6121 9.70809 14.6827C7.76017 17.7533 6.63133 21.2718 6.4292 24.9025" stroke="#202120" stroke-width="2.5" stroke-linecap="round" stroke-linejoin="round"/>
<path d="M21.77 13.1804C23.926 12.1922 26.2953 11.76 28.6613 11.9233C31.0274 12.0867 33.3148 12.8403 35.3145 14.1155C37.3142 15.3906 38.9625 17.1465 40.1088 19.2228C41.2551 21.2991 41.8627 23.6295 41.8763 26.0011" stroke="#202120" stroke-width="2.5" stroke-linecap="round" stroke-linejoin="round"/>
<path d="M31.1621 51.6749C29.0679 52.2011 26.8814 52.2432 24.7686 51.7978C22.6557 51.3524 20.6722 50.4313 18.9687 49.1044C17.2652 47.7776 15.8865 46.08 14.9374 44.1405C13.9883 42.201 13.4937 40.0707 13.4912 37.9115V26.0852C13.4862 22.5934 14.7736 19.2233 17.1053 16.6241" stroke="#202120" stroke-width="2.5" stroke-linecap="round" stroke-linejoin="round"/>
<path d="M34.7801 32.0608V26.0857C34.7801 24.2036 34.0324 22.3987 32.7016 21.0678C31.3708 19.737 29.5658 18.9894 27.6837 18.9894C25.8017 18.9894 23.9967 19.737 22.6659 21.0678C21.3351 22.3987 20.5874 24.2036 20.5874 26.0857V33.182" stroke="#202120" stroke-width="2.5" stroke-linecap="round" stroke-linejoin="round"/>
<path d="M20.5874 37.9114C20.5874 39.7934 21.3351 41.5984 22.6659 42.9292C23.9967 44.2601 25.8017 45.0077 27.6837 45.0077" stroke="#202120" stroke-width="2.5" stroke-linecap="round" stroke-linejoin="round"/>
<path d="M27.6826 26.0851V36.3895" stroke="#202120" stroke-width="2.5" stroke-linecap="round" stroke-linejoin="round"/>
<path d="M27.6826 59.1989C29.702 59.2005 31.7114 58.9154 33.6506 58.3521" stroke="#202120" stroke-width="2.5" stroke-linecap="round" stroke-linejoin="round"/>
<path d="M59.0408 45.0001C59.0408 44.4107 58.8067 43.8455 58.3899 43.4287C57.9732 43.012 57.4079 42.7778 56.8186 42.7778H42.3741C41.7847 42.7778 41.2195 43.012 40.8027 43.4287C40.386 43.8455 40.1519 44.4107 40.1519 45.0001V56.1112C40.1519 56.7005 40.386 57.2658 40.8027 57.6825C41.2195 58.0993 41.7847 58.3334 42.3741 58.3334H56.8186C57.4079 58.3334 57.9732 58.0993 58.3899 57.6825C58.8067 57.2658 59.0408 56.7005 59.0408 56.1112V45.0001Z" stroke="#FF4612" stroke-width="2.5" stroke-linecap="round" stroke-linejoin="round"/>
<path d="M43.4849 38.8889C43.4849 37.2682 44.1287 35.7138 45.2748 34.5677C46.4208 33.4217 47.9752 32.7778 49.596 32.7778C51.2168 32.7778 52.7711 33.4217 53.9172 34.5677C55.0633 35.7138 55.7071 37.2682 55.7071 38.8889V42.7778H43.4849V38.8889Z" stroke="#FF4612" stroke-width="2.5" stroke-linecap="round" stroke-linejoin="round"/>
</svg>
