<svg width="64" height="64" viewBox="0 0 64 64" fill="none" xmlns="http://www.w3.org/2000/svg">
<path d="M32.4868 59.1985C38.1325 59.1985 43.547 56.9558 47.5391 52.9637C51.5313 48.9715 53.774 43.5571 53.774 37.9114V26.0851C53.7806 20.8472 51.8487 15.7922 48.3505 11.8937" stroke="#202120" stroke-width="2.4" stroke-linecap="round" stroke-linejoin="round"/>
<path d="M11.2002 30.8156V37.9113C11.1991 42.0981 12.4326 46.1923 14.7465 49.6816C17.0603 53.1709 20.3518 55.9004 24.209 57.5286" stroke="#FF4612" stroke-width="2.4" stroke-linecap="round" stroke-linejoin="round"/>
<path d="M43.1306 7.65041C39.9814 5.83227 36.419 4.85117 32.783 4.80064C29.147 4.75011 25.5587 5.63185 22.3602 7.36178C19.1617 9.0917 16.4597 11.6121 14.5118 14.6828C12.5639 17.7534 11.435 21.2718 11.2329 24.9025" stroke="#202120" stroke-width="2.4" stroke-linecap="round" stroke-linejoin="round"/>
<path d="M26.5737 13.1805C28.7361 12.1894 31.1128 11.7577 33.4856 11.9251C35.8584 12.0925 38.151 12.8536 40.1527 14.1385C42.1545 15.4234 43.8012 17.1908 44.9414 19.2784C46.0817 21.3659 46.6789 23.7066 46.6783 26.0852V37.9115C46.6788 39.1082 46.5286 40.3002 46.2313 41.4593" stroke="#202120" stroke-width="2.4" stroke-linecap="round" stroke-linejoin="round"/>
<path d="M43.0642 47.3723C41.1481 49.5144 38.6268 51.0243 35.8338 51.7021C33.0408 52.3799 30.1079 52.1938 27.423 51.1682C24.7381 50.1427 22.4279 48.3261 20.7981 45.9589C19.1682 43.5917 18.2955 40.7854 18.2954 37.9113V26.0851C18.2908 22.5934 19.5781 19.2235 21.9095 16.6241" stroke="#202120" stroke-width="2.4" stroke-linecap="round" stroke-linejoin="round"/>
<path d="M25.3916 37.9114C25.3916 39.7934 26.1392 41.5982 27.4699 42.9289C28.8006 44.2596 30.6054 45.0072 32.4873 45.0072C34.3692 45.0072 36.1741 44.2596 37.5048 42.9289C38.8355 41.5982 39.5831 39.7934 39.5831 37.9114V26.0852C39.5831 24.2033 38.8355 22.3985 37.5048 21.0678C36.1741 19.7371 34.3692 18.9895 32.4873 18.9895C30.6054 18.9895 28.8006 19.7371 27.4699 21.0678C26.1392 22.3985 25.3916 24.2033 25.3916 26.0852V33.181" stroke="#202120" stroke-width="2.4" stroke-linecap="round" stroke-linejoin="round"/>
<path d="M32.4868 26.0852V38.1852" stroke="#202120" stroke-width="2.4" stroke-linecap="round" stroke-linejoin="round"/>
</svg>
