<svg width="64" height="64" viewBox="0 0 64 64" fill="none" xmlns="http://www.w3.org/2000/svg">
<path d="M32 10.9663V17.4382" stroke="#FF4612" stroke-width="2.5" stroke-linecap="round" stroke-linejoin="round"/>
<path d="M31.9999 10.9663C34.1445 10.9663 35.883 9.22771 35.883 7.08311C35.883 4.9385 34.1445 3.19995 31.9999 3.19995C29.8552 3.19995 28.1167 4.9385 28.1167 7.08311C28.1167 9.22771 29.8552 10.9663 31.9999 10.9663Z" stroke="#FF4612" stroke-width="2.5" stroke-linecap="round" stroke-linejoin="round"/>
<path d="M53.3572 32.9707H47.5325" stroke="#FF4612" stroke-width="2.5" stroke-linecap="round" stroke-linejoin="round"/>
<path d="M57.2403 36.8537C59.3849 36.8537 61.1235 35.1152 61.1235 32.9706C61.1235 30.8259 59.3849 29.0874 57.2403 29.0874C55.0957 29.0874 53.3572 30.8259 53.3572 32.9706C53.3572 35.1152 55.0957 36.8537 57.2403 36.8537Z" stroke="#FF4612" stroke-width="2.5" stroke-linecap="round" stroke-linejoin="round"/>
<path d="M47.4679 17.5728L42.8936 22.1497" stroke="#FF4612" stroke-width="2.5" stroke-linecap="round" stroke-linejoin="round"/>
<path d="M50.2147 18.7121C52.3593 18.7121 54.0979 16.9736 54.0979 14.829C54.0979 12.6843 52.3593 10.9458 50.2147 10.9458C48.0701 10.9458 46.3315 12.6843 46.3315 14.829C46.3315 16.9736 48.0701 18.7121 50.2147 18.7121Z" stroke="#FF4612" stroke-width="2.5" stroke-linecap="round" stroke-linejoin="round"/>
<path d="M10.6426 32.9707H16.4673" stroke="#FF4612" stroke-width="2.5" stroke-linecap="round" stroke-linejoin="round"/>
<path d="M6.75938 36.8537C8.90398 36.8537 10.6425 35.1152 10.6425 32.9706C10.6425 30.8259 8.90398 29.0874 6.75938 29.0874C4.61477 29.0874 2.87622 30.8259 2.87622 32.9706C2.87622 35.1152 4.61477 36.8537 6.75938 36.8537Z" stroke="#FF4612" stroke-width="2.5" stroke-linecap="round" stroke-linejoin="round"/>
<path d="M16.5322 17.5728L21.1066 22.1497" stroke="#FF4612" stroke-width="2.5" stroke-linecap="round" stroke-linejoin="round"/>
<path d="M13.785 18.7121C15.9296 18.7121 17.6682 16.9736 17.6682 14.829C17.6682 12.6843 15.9296 10.9458 13.785 10.9458C11.6404 10.9458 9.90186 12.6843 9.90186 14.829C9.90186 16.9736 11.6404 18.7121 13.785 18.7121Z" stroke="#FF4612" stroke-width="2.5" stroke-linecap="round" stroke-linejoin="round"/>
<path d="M23.3093 32.1089C25.6741 34.5583 28.7286 36.2297 32.0665 36.9007C35.4044 37.5717 38.8675 37.2105 41.9951 35.8652" stroke="#202120" stroke-width="2.5" stroke-linecap="round" stroke-linejoin="round"/>
<path d="M31.9997 47.3177C37.5699 47.3177 42.0855 42.8021 42.0855 37.2318C42.0855 31.6616 37.5699 27.146 31.9997 27.146C26.4294 27.146 21.9138 31.6616 21.9138 37.2318C21.9138 42.8021 26.4294 47.3177 31.9997 47.3177Z" stroke="#202120" stroke-width="2.5" stroke-linecap="round" stroke-linejoin="round"/>
<path d="M47.429 60.8002C46.057 57.8663 43.8768 55.3845 41.1443 53.6458C38.4117 51.9071 35.2401 50.9836 32.0013 50.9836C28.7624 50.9836 25.5908 51.9071 22.8582 53.6458C20.1257 55.3845 17.9455 57.8663 16.5735 60.8002" stroke="#202120" stroke-width="2.5" stroke-linecap="round" stroke-linejoin="round"/>
<path d="M32 50.9834V60.8" stroke="#202120" stroke-width="2.5" stroke-linecap="round" stroke-linejoin="round"/>
</svg>
