<svg width="64" height="64" viewBox="0 0 64 64" fill="none" xmlns="http://www.w3.org/2000/svg">
<path fill-rule="evenodd" clip-rule="evenodd" d="M38.2498 36.2606L40.7688 33.7464C41.907 32.6051 43.4528 31.9639 45.0647 31.9646H52.9634C54.6404 31.9646 55.9999 33.3241 55.9999 35.0011V49.971C56.0038 51.5842 55.3657 53.1326 54.2263 54.2747C53.087 55.4167 51.5401 56.0586 49.927 56.0586H12.4728C9.11884 56.0586 6.3999 53.3396 6.3999 49.9856V35.0157C6.3999 33.3387 7.75937 31.9792 9.43636 31.9792H17.3546C18.9665 31.9785 20.5123 32.6197 21.6505 33.7611L24.1695 36.2752C25.3071 37.4145 26.8506 38.0554 28.4606 38.057H33.9782C35.5836 38.0463 37.1193 37.4004 38.2498 36.2606Z" stroke="#202120" stroke-width="2.5" stroke-linecap="round" stroke-linejoin="round"/>
<path d="M54.8088 10.4409H7.82056" stroke="#FF4612" stroke-width="2.5" stroke-linecap="round" stroke-linejoin="round"/>
<path d="M54.579 21.8862H7.59082" stroke="#FF4612" stroke-width="2.5" stroke-linecap="round" stroke-linejoin="round"/>
</svg>
