<svg width="64" height="64" viewBox="0 0 64 64" fill="none" xmlns="http://www.w3.org/2000/svg">
<path fill-rule="evenodd" clip-rule="evenodd" d="M8.7998 11.9577C8.7998 10.2138 10.2136 8.8 11.9575 8.8H24.7865C26.5304 8.8 27.9442 10.2138 27.9442 11.9577V24.7865C27.9442 26.5305 26.5304 27.9442 24.7865 27.9442H11.9575C10.2136 27.9442 8.7998 26.5305 8.7998 24.7865V11.9577ZM11.9575 11.2C11.539 11.2 11.1998 11.5392 11.1998 11.9577V24.7865C11.1998 25.205 11.539 25.5442 11.9575 25.5442H24.7865C25.205 25.5442 25.5442 25.205 25.5442 24.7865V11.9577C25.5442 11.5392 25.205 11.2 24.7865 11.2H11.9575ZM35.5404 11.9577C35.5404 10.2138 36.9542 8.8 38.6981 8.8H51.5271C53.2711 8.8 54.6848 10.2138 54.6848 11.9577V24.7865C54.6848 26.5305 53.2711 27.9442 51.5271 27.9442H38.6981C36.9542 27.9442 35.5404 26.5305 35.5404 24.7865V11.9577ZM38.6981 11.2C38.2797 11.2 37.9404 11.5392 37.9404 11.9577V24.7865C37.9404 25.205 38.2797 25.5442 38.6981 25.5442H51.5271C51.9456 25.5442 52.2848 25.205 52.2848 24.7865V11.9577C52.2848 11.5392 51.9456 11.2 51.5271 11.2H38.6981ZM11.9575 36.0588C10.2136 36.0588 8.7998 37.4725 8.7998 39.2165V52.0453C8.7998 53.7892 10.2136 55.203 11.9575 55.203H24.7865C26.5304 55.203 27.9442 53.7892 27.9442 52.0453V39.2165C27.9442 37.4725 26.5304 36.0588 24.7865 36.0588H11.9575ZM11.1998 39.2165C11.1998 38.798 11.539 38.4588 11.9575 38.4588H24.7865C25.205 38.4588 25.5442 38.798 25.5442 39.2165V52.0453C25.5442 52.4638 25.205 52.803 24.7865 52.803H11.9575C11.539 52.803 11.1998 52.4638 11.1998 52.0453V39.2165Z" fill="#202120"/>
<path fill-rule="evenodd" clip-rule="evenodd" d="M36.3545 36.4092C37.1355 35.6282 38.4019 35.6282 39.1829 36.4092L39.2052 36.4315L39.2055 36.4318C39.9866 37.2129 39.9866 38.4792 39.2055 39.2603L39.1829 39.2829C38.4019 40.0639 37.1355 40.0639 36.3545 39.2829L36.3319 39.2603C35.9568 38.8852 35.7461 38.3765 35.7461 37.846C35.7461 37.3156 35.9568 36.8069 36.3319 36.4318L36.3545 36.4092ZM51.7279 36.4092C52.509 35.6282 53.7753 35.6282 54.5563 36.4092L54.5787 36.4315L54.5789 36.4318C55.36 37.2129 55.36 38.4792 54.5789 39.2603L54.5563 39.2829C53.7753 40.0639 52.509 40.0639 51.7279 39.2829L51.7053 39.2603C51.3302 38.8852 51.1195 38.3765 51.1195 37.846C51.1195 37.3156 51.3302 36.8069 51.7053 36.4318L51.7279 36.4092ZM39.1829 52.233C38.4019 51.452 37.1355 51.452 36.3545 52.233L36.3319 52.2556C35.9568 52.6307 35.7461 53.1394 35.7461 53.6699C35.7461 54.2003 35.9568 54.709 36.3319 55.0841L36.3545 55.1067C37.1355 55.8877 38.4019 55.8877 39.1829 55.1067L39.2055 55.0841C39.9866 54.303 39.9866 53.0367 39.2055 52.2556L39.2052 52.2554L39.1829 52.233ZM51.7279 52.233C52.509 51.452 53.7753 51.452 54.5563 52.233L54.5787 52.2554L54.5789 52.2556C55.36 53.0367 55.36 54.303 54.5789 55.0841L54.5563 55.1067C53.7753 55.8877 52.509 55.8877 51.7279 55.1067L51.7053 55.0841C51.3302 54.709 51.1195 54.2003 51.1195 53.6699C51.1195 53.1394 51.3302 52.6307 51.7053 52.2556L51.7279 52.233ZM46.8704 44.3213C46.0894 43.5403 44.823 43.5403 44.042 44.3213L44.0194 44.3439C43.6443 44.719 43.4336 45.2277 43.4336 45.7581C43.4336 46.2886 43.6443 46.7973 44.0194 47.1724L44.042 47.195C44.823 47.976 46.0894 47.976 46.8704 47.195L46.893 47.1724C47.6741 46.3913 47.6741 45.125 46.893 44.3439L46.8927 44.3436L46.8704 44.3213Z" fill="#FF4612"/>
</svg>
