<svg width="64" height="64" viewBox="0 0 64 64" fill="none" xmlns="http://www.w3.org/2000/svg">
<path d="M31.9937 42.7885V59.5473C31.9937 59.8794 32.1256 60.1979 32.3604 60.4327C32.5952 60.6675 32.9137 60.7995 33.2458 60.7995H53.2802C53.6123 60.7995 53.9308 60.6675 54.1656 60.4327C54.4005 60.1979 54.5324 59.8794 54.5324 59.5473V42.7885" stroke="#FF4612" stroke-width="2.5" stroke-linecap="round" stroke-linejoin="round"/>
<path d="M26.9849 47.0259L41.645 34.622C42.0972 34.2394 42.6704 34.0294 43.2628 34.0294C43.8552 34.0294 44.4284 34.2394 44.8806 34.622L59.5408 47.0259" stroke="#FF4612" stroke-width="2.5" stroke-linecap="round" stroke-linejoin="round"/>
<path d="M47.0196 60.7982H39.5073V53.286C39.5073 52.2898 39.9031 51.3345 40.6075 50.63C41.3119 49.9256 42.2673 49.5299 43.2634 49.5299C44.2596 49.5299 45.215 49.9256 45.9194 50.63C46.6238 51.3345 47.0196 52.2898 47.0196 53.286V60.7982Z" stroke="#FF4612" stroke-width="2.5" stroke-linecap="round" stroke-linejoin="round"/>
<path d="M24.4807 60.7993H5.69846C5.36637 60.7993 5.04788 60.6674 4.81306 60.4326C4.57823 60.1978 4.44631 59.8793 4.44631 59.5472V5.30897C4.44508 5.09125 4.50064 4.87697 4.60751 4.68728C4.71438 4.49759 4.86886 4.33904 5.05571 4.22729C5.24256 4.11553 5.45533 4.05442 5.673 4.05C5.89068 4.04558 6.10575 4.09799 6.29699 4.20207L31.34 17.863C31.54 17.9718 31.7065 18.1331 31.8216 18.3294C31.9368 18.5258 31.9963 18.7498 31.9936 18.9775V33.252" stroke="#202120" stroke-width="2.5" stroke-linecap="round" stroke-linejoin="round"/>
<path d="M26.9849 15.493V3.2005" stroke="#202120" stroke-width="2.5" stroke-linecap="round" stroke-linejoin="round"/>
<path d="M4.44629 18.2264H14.4626" stroke="#202120" stroke-width="2.5" stroke-linecap="round" stroke-linejoin="round"/>
<path d="M4.44629 25.7393H16.9667" stroke="#202120" stroke-width="2.5" stroke-linecap="round" stroke-linejoin="round"/>
<path d="M4.44629 33.2521H21.9748" stroke="#202120" stroke-width="2.5" stroke-linecap="round" stroke-linejoin="round"/>
<path d="M14.4644 60.7987V52.0344C14.4644 51.7024 14.5963 51.3839 14.8311 51.1491C15.0659 50.9143 15.3843 50.7824 15.7164 50.7824H20.7245C21.0566 50.7824 21.3751 50.9143 21.6099 51.1491C21.8447 51.3839 21.9766 51.7024 21.9766 52.0344V60.7987" stroke="#202120" stroke-width="2.5" stroke-linecap="round" stroke-linejoin="round"/>
</svg>
