<svg width="64" height="64" viewBox="0 0 64 64" fill="none" xmlns="http://www.w3.org/2000/svg">
<path d="M60.7979 60.805H30.0728L33.9134 33.9204H56.9572L60.7979 60.805Z" stroke="#FF4612" stroke-width="2.5" stroke-linecap="round" stroke-linejoin="round"/>
<path d="M39.6748 41.6022V28.1599C39.6748 26.632 40.2818 25.1667 41.3622 24.0863C42.4425 23.0059 43.9079 22.3989 45.4358 22.3989C46.9637 22.3989 48.429 23.0059 49.5094 24.0863C50.5898 25.1667 51.1967 26.632 51.1967 28.1599V41.6022" stroke="#FF4612" stroke-width="2.5" stroke-linecap="round" stroke-linejoin="round"/>
<path d="M7.0293 10.8769C7.0293 12.9141 7.83857 14.8679 9.27909 16.3084C10.7196 17.7489 12.6734 18.5582 14.7106 18.5582C16.7478 18.5582 18.7015 17.7489 20.1421 16.3084C21.5826 14.8679 22.3919 12.9141 22.3919 10.8769C22.3919 8.83971 21.5826 6.88594 20.1421 5.44542C18.7015 4.0049 16.7478 3.19562 14.7106 3.19562C12.6734 3.19562 10.7196 4.0049 9.27909 5.44542C7.83857 6.88594 7.0293 8.83971 7.0293 10.8769V10.8769Z" stroke="#202120" stroke-width="2.5" stroke-linecap="round" stroke-linejoin="round"/>
<path d="M24.7985 28.3518C23.5638 26.1141 21.6201 24.3505 19.2734 23.3384C16.9266 22.3262 14.31 22.1231 11.8351 22.7608C9.36027 23.3986 7.1677 24.8411 5.6024 26.8614C4.0371 28.8817 3.18792 31.365 3.18848 33.9207V41.6021H7.02912L8.94944 60.8053H20.4714L21.7772 47.7471" stroke="#202120" stroke-width="2.5" stroke-linecap="round" stroke-linejoin="round"/>
</svg>
