<svg width="64" height="64" viewBox="0 0 64 64" fill="none" xmlns="http://www.w3.org/2000/svg">
<path d="M34.1693 58.7303L36.3665 57.7785C46.8162 53.246 55.8832 41.8061 55.8832 29.0518V13.6732C55.8835 12.7508 55.6476 11.8484 55.2042 11.077C54.7609 10.3055 54.1296 9.69871 53.388 9.33115C46.5301 6.40757 39.2771 4.87368 31.9562 4.79871C24.6919 4.86948 17.4956 6.40388 10.6993 9.33115C9.95766 9.69871 9.32636 10.3055 8.88305 11.077C8.43973 11.8484 8.20374 12.7508 8.2041 13.6732V29.0564C8.2041 41.8107 17.0963 53.2415 27.5459 57.783L29.7431 58.7348C31.1688 59.3543 32.7446 59.3527 34.1693 58.7303V58.7303Z" stroke="#202120" stroke-width="2.5" stroke-linecap="round" stroke-linejoin="round"/>
<path d="M43.1674 22.2416L32.2012 36.8725C31.9578 37.1969 31.6476 37.4653 31.2915 37.6595C30.9354 37.8536 30.5418 37.969 30.1372 37.9978C29.7326 38.0266 29.3266 37.9682 28.9466 37.8264C28.5666 37.6847 28.2214 37.4629 27.9346 37.1762L22.2661 31.5078" stroke="#FF4612" stroke-width="2.5" stroke-linecap="round" stroke-linejoin="round"/>
</svg>
