<svg width="64" height="64" viewBox="0 0 64 64" fill="none" xmlns="http://www.w3.org/2000/svg">
<path d="M45.3383 52.0083H10.6572" stroke="#202120" stroke-width="2.5" stroke-linecap="round" stroke-linejoin="round"/>
<path d="M23.9961 38.6694H10.6572" stroke="#202120" stroke-width="2.5" stroke-linecap="round" stroke-linejoin="round"/>
<path d="M23.9961 25.3306H10.6572" stroke="#202120" stroke-width="2.5" stroke-linecap="round" stroke-linejoin="round"/>
<path d="M45.3383 11.9917H10.6572" stroke="#202120" stroke-width="2.5" stroke-linecap="round" stroke-linejoin="round"/>
<path fill-rule="evenodd" clip-rule="evenodd" d="M38.1493 24.8112C41.364 21.5965 46.5751 21.5965 49.7898 24.8112C53.0045 28.0259 53.0045 33.237 49.7898 36.4517C46.5751 39.6664 41.364 39.6664 38.1493 36.4517C34.9346 33.237 34.9346 28.0259 38.1493 24.8112ZM36.3816 23.0434C40.5726 18.8524 47.3665 18.8524 51.5576 23.0434C55.4496 26.9354 55.7273 33.0722 52.3906 37.2846L56.8933 41.7872C57.3814 42.2754 57.3814 43.0668 56.8933 43.555C56.4051 44.0431 55.6137 44.0431 55.1255 43.555L50.6228 39.0523C46.4105 42.3891 40.2736 42.1115 36.3816 38.2194C32.1905 34.0284 32.1905 27.2345 36.3816 23.0434Z" fill="#FF4612"/>
</svg>
