<svg width="64" height="64" viewBox="0 0 64 64" fill="none" xmlns="http://www.w3.org/2000/svg">
<path d="M3.19434 10.8766V7.03627C3.19434 6.01774 3.59894 5.04094 4.31915 4.32073C5.03936 3.60053 6.01616 3.19592 7.03469 3.19592H10.875" stroke="#FF4612" stroke-width="2.5" stroke-linecap="round" stroke-linejoin="round"/>
<path d="M60.7989 10.8766V7.03627C60.7989 6.01774 60.3943 5.04094 59.6741 4.32073C58.9538 3.60053 57.977 3.19592 56.9585 3.19592H53.1182" stroke="#FF4612" stroke-width="2.5" stroke-linecap="round" stroke-linejoin="round"/>
<path d="M3.19385 53.1204V56.9607C3.19385 57.9792 3.59846 58.956 4.31866 59.6762C5.03887 60.3964 6.01568 60.8011 7.0342 60.8011H10.8746" stroke="#FF4612" stroke-width="2.5" stroke-linecap="round" stroke-linejoin="round"/>
<path d="M60.7989 53.1204V56.9607C60.7989 57.9792 60.3943 58.956 59.6741 59.6762C58.9538 60.3964 57.977 60.8011 56.9585 60.8011H53.1182" stroke="#FF4612" stroke-width="2.5" stroke-linecap="round" stroke-linejoin="round"/>
<path d="M19.1958 26.2378H46.0784V48.6399H19.1958V26.2378Z" stroke="#202120" stroke-width="2.5" stroke-linecap="round" stroke-linejoin="round"/>
<path d="M32.6259 12.7968C30.2493 12.7968 27.9701 13.7409 26.2896 15.4214C24.6091 17.1019 23.665 19.3811 23.665 21.7577V26.2381H41.5868V21.7577C41.5868 19.3811 40.6427 17.1019 38.9622 15.4214C37.2817 13.7409 35.0025 12.7968 32.6259 12.7968V12.7968Z" stroke="#202120" stroke-width="2.5" stroke-linecap="round" stroke-linejoin="round"/>
<path d="M32.7464 36.3932C32.991 36.3932 33.23 36.4657 33.4334 36.6016C33.6368 36.7375 33.7953 36.9306 33.8889 37.1566C33.9825 37.3825 34.0069 37.6312 33.9592 37.8711C33.9115 38.1109 33.7937 38.3313 33.6208 38.5042C33.4479 38.6772 33.2275 38.7949 32.9876 38.8427C32.7477 38.8904 32.4991 38.8659 32.2731 38.7723C32.0472 38.6787 31.8541 38.5202 31.7182 38.3168C31.5823 38.1135 31.5098 37.8744 31.5098 37.6298C31.5098 37.3018 31.6401 36.9873 31.872 36.7554C32.1039 36.5235 32.4184 36.3932 32.7464 36.3932Z" fill="#202120" stroke="#202120" stroke-width="2.5" stroke-linecap="round" stroke-linejoin="round"/>
</svg>
