<svg width="64" height="64" viewBox="0 0 64 64" fill="none" xmlns="http://www.w3.org/2000/svg">
<path fill-rule="evenodd" clip-rule="evenodd" d="M26.6667 27.8575H37.3333C38.8 27.8575 40 29.0575 40 30.5242V38.6655C40 40.1375 38.8053 41.3322 37.3333 41.3322H26.6667C25.1947 41.3322 24 40.1375 24 38.6655V30.5242C24 29.0522 25.1947 27.8575 26.6667 27.8575Z" fill="#FF4612" stroke="#FF4612" stroke-width="2.4" stroke-linecap="round" stroke-linejoin="round"/>
<path d="M27.5093 27.8582V24.4902C27.5093 22.0102 29.5199 19.9995 31.9999 19.9995C34.4799 19.9995 36.4906 22.0102 36.4906 24.4902V27.8528" stroke="#FF4612" stroke-width="2.4" stroke-linecap="round" stroke-linejoin="round"/>
<path fill-rule="evenodd" clip-rule="evenodd" d="M15.9283 13.5122L30.1737 8.32289C31.3523 7.89355 32.6457 7.89355 33.8243 8.32289L48.0697 13.5122C51.2323 14.6642 53.3337 17.6669 53.3337 21.0296V34.0216C53.3337 43.5709 48.459 47.4882 34.6537 55.3042C33.0083 56.2349 30.9923 56.2349 29.347 55.3042C15.5417 47.4882 10.667 43.5709 10.667 34.0216V21.0296C10.667 17.6669 12.7683 14.6642 15.9283 13.5122Z" stroke="#323232" stroke-width="2.4" stroke-linecap="round" stroke-linejoin="round"/>
</svg>
