<svg width="64" height="64" viewBox="0 0 64 64" fill="none" xmlns="http://www.w3.org/2000/svg">
<path d="M19.8535 22.4772L43.4848 40.8411" stroke="#FF4612" stroke-width="2.5" stroke-linecap="round" stroke-linejoin="round"/>
<path d="M19.8535 40.8411L43.4848 22.4772" stroke="#FF4612" stroke-width="2.5" stroke-linecap="round" stroke-linejoin="round"/>
<path d="M4.78906 8.63791C4.78906 9.65612 5.59803 10.6326 7.03799 11.3526C8.47795 12.0726 10.431 12.4771 12.4674 12.4771C14.5038 12.4771 16.4568 12.0726 17.8968 11.3526C19.3367 10.6326 20.1457 9.65612 20.1457 8.63791C20.1457 7.61971 19.3367 6.64321 17.8968 5.92323C16.4568 5.20325 14.5038 4.79877 12.4674 4.79877C10.431 4.79877 8.47795 5.20325 7.03799 5.92323C5.59803 6.64321 4.78906 7.61971 4.78906 8.63791V8.63791Z" stroke="#202120" stroke-width="2.5" stroke-linecap="round" stroke-linejoin="round"/>
<path d="M20.1457 15.0341C20.1457 17.1533 16.7058 18.8732 12.4674 18.8732C8.22894 18.8732 4.78906 17.1533 4.78906 15.0341" stroke="#202120" stroke-width="2.5" stroke-linecap="round" stroke-linejoin="round"/>
<path d="M20.1457 8.63538V21.4325C20.1457 23.5517 16.7058 25.2717 12.4674 25.2717C8.22894 25.2717 4.78906 23.5517 4.78906 21.4325V8.63538" stroke="#202120" stroke-width="2.5" stroke-linecap="round" stroke-linejoin="round"/>
<path d="M43.1802 8.63816C43.1802 9.65636 43.9891 10.6329 45.4291 11.3528C46.8691 12.0728 48.8221 12.4773 50.8585 12.4773C52.8949 12.4773 54.8479 12.0728 56.2879 11.3528C57.7278 10.6329 58.5368 9.65636 58.5368 8.63816C58.5368 7.61995 57.7278 6.64345 56.2879 5.92347C54.8479 5.20349 52.8949 4.79901 50.8585 4.79901C48.8221 4.79901 46.8691 5.20349 45.4291 5.92347C43.9891 6.64345 43.1802 7.61995 43.1802 8.63816V8.63816Z" stroke="#202120" stroke-width="2.5" stroke-linecap="round" stroke-linejoin="round"/>
<path d="M58.5368 15.0342C58.5368 17.1535 55.0969 18.8734 50.8585 18.8734C46.6201 18.8734 43.1802 17.1535 43.1802 15.0342" stroke="#202120" stroke-width="2.5" stroke-linecap="round" stroke-linejoin="round"/>
<path d="M58.5368 8.63562V21.4328C58.5368 23.552 55.0969 25.2719 50.8585 25.2719C46.6201 25.2719 43.1802 23.552 43.1802 21.4328V8.63562" stroke="#202120" stroke-width="2.5" stroke-linecap="round" stroke-linejoin="round"/>
<path d="M4.78906 41.9107C4.78906 42.9289 5.59803 43.9054 7.03799 44.6254C8.47795 45.3453 10.431 45.7498 12.4674 45.7498C14.5038 45.7498 16.4568 45.3453 17.8968 44.6254C19.3367 43.9054 20.1457 42.9289 20.1457 41.9107C20.1457 40.8925 19.3367 39.916 17.8968 39.196C16.4568 38.476 14.5038 38.0715 12.4674 38.0715C10.431 38.0715 8.47795 38.476 7.03799 39.196C5.59803 39.916 4.78906 40.8925 4.78906 41.9107V41.9107Z" stroke="#202120" stroke-width="2.5" stroke-linecap="round" stroke-linejoin="round"/>
<path d="M20.1457 48.3065C20.1457 50.4257 16.7058 52.1456 12.4674 52.1456C8.22894 52.1456 4.78906 50.4257 4.78906 48.3065" stroke="#202120" stroke-width="2.5" stroke-linecap="round" stroke-linejoin="round"/>
<path d="M20.1457 41.9081V54.7052C20.1457 56.8244 16.7058 58.5444 12.4674 58.5444C8.22894 58.5444 4.78906 56.8244 4.78906 54.7052V41.9081" stroke="#202120" stroke-width="2.5" stroke-linecap="round" stroke-linejoin="round"/>
<path d="M43.1802 41.9109C43.1802 42.9291 43.9891 43.9056 45.4291 44.6256C46.8691 45.3455 48.8221 45.75 50.8585 45.75C52.8949 45.75 54.8479 45.3455 56.2879 44.6256C57.7278 43.9056 58.5368 42.9291 58.5368 41.9109C58.5368 40.8927 57.7278 39.9162 56.2879 39.1962C54.8479 38.4762 52.8949 38.0717 50.8585 38.0717C48.8221 38.0717 46.8691 38.4762 45.4291 39.1962C43.9891 39.9162 43.1802 40.8927 43.1802 41.9109V41.9109Z" stroke="#202120" stroke-width="2.5" stroke-linecap="round" stroke-linejoin="round"/>
<path d="M58.5368 48.3066C58.5368 50.4258 55.0969 52.1458 50.8585 52.1458C46.6201 52.1458 43.1802 50.4258 43.1802 48.3066" stroke="#202120" stroke-width="2.5" stroke-linecap="round" stroke-linejoin="round"/>
<path d="M58.5368 41.9083V54.7054C58.5368 56.8246 55.0969 58.5446 50.8585 58.5446C46.6201 58.5446 43.1802 56.8246 43.1802 54.7054V41.9083" stroke="#202120" stroke-width="2.5" stroke-linecap="round" stroke-linejoin="round"/>
</svg>
