<svg width="64" height="64" viewBox="0 0 64 64" fill="none" xmlns="http://www.w3.org/2000/svg">
<path d="M54.7684 23.6627L57.5531 28.4504C58.8185 30.6261 58.8185 33.3136 57.5531 35.4893L47.1245 53.4191C45.8712 55.574 43.5664 56.8997 41.0736 56.8997L20.1266 56.8997C17.6338 56.8997 15.329 55.574 14.0757 53.4191L3.64711 35.4893C2.38167 33.3136 2.38168 30.6261 3.64711 28.4504L14.0757 10.5206C15.329 8.36576 17.6338 7.04004 20.1266 7.04004L37.8808 7.04004" stroke="#FF4612" stroke-width="2.5" stroke-linecap="round"/>
<path d="M49.9091 17.9719L43.042 11.7375" stroke="#202120" stroke-width="2.5" stroke-linecap="round" stroke-linejoin="round"/>
<path fill-rule="evenodd" clip-rule="evenodd" d="M30.6447 38.421L24.826 38.7021L24.5449 32.8834C24.522 32.4091 24.6879 31.9436 25.0082 31.5926L47.7209 6.57264C48.3869 5.83902 49.5199 5.7843 50.2517 6.4504L54.4752 10.2847C55.2088 10.9507 55.2636 12.0837 54.5975 12.8155L31.8848 37.8355C31.5663 38.1881 31.119 38.3981 30.6447 38.421V38.421Z" stroke="#202120" stroke-width="2.5" stroke-linecap="round" stroke-linejoin="round"/>
</svg>
