<svg width="64" height="64" viewBox="0 0 64 64" fill="none" xmlns="http://www.w3.org/2000/svg">
<path d="M60.6422 47.3895C61.2138 48.3795 61.2138 49.5994 60.6422 50.5895L57.899 55.3407C57.3274 56.3308 56.271 56.9407 55.1277 56.9407L49.6414 56.9407C48.4982 56.9407 47.4418 56.3308 46.8701 55.3407L44.127 50.5895C43.5554 49.5994 43.5554 48.3795 44.127 47.3895L46.8701 42.6382C47.4418 41.6481 48.4982 41.0382 49.6414 41.0382L55.1277 41.0382C56.271 41.0382 57.3274 41.6481 57.899 42.6382L60.6422 47.3895Z" stroke="#202120" stroke-width="2.5"/>
<path d="M55.2232 22.3641C55.6519 23.1066 55.6519 24.0215 55.2232 24.7641L53.4307 27.8688C53.002 28.6114 52.2097 29.0688 51.3522 29.0688L47.7672 29.0688C46.9097 29.0688 46.1174 28.6114 45.6887 27.8688L43.8962 24.7641C43.4675 24.0215 43.4675 23.1066 43.8962 22.3641L45.6887 19.2593C46.1174 18.5168 46.9097 18.0593 47.7672 18.0593L51.3522 18.0593C52.2097 18.0593 53.002 18.5168 53.4307 19.2593L55.2232 22.3641Z" stroke="#202120" stroke-width="2.5"/>
<line x1="27.9813" y1="38.0691" x2="44.2885" y2="26.7795" stroke="#202120" stroke-width="2.5" stroke-linecap="round"/>
<line x1="33.2832" y1="48.5915" x2="43.5112" y2="49.7279" stroke="#202120" stroke-width="2.5" stroke-linecap="round"/>
<line x1="5.4502" y1="54.0962" x2="22.7254" y2="54.0962" stroke="#202120" stroke-width="2.5" stroke-linecap="round"/>
<line x1="5.4502" y1="47.0332" x2="22.7254" y2="47.0332" stroke="#202120" stroke-width="2.5" stroke-linecap="round"/>
<path d="M2.78736 36.5221C5.83586 34.564 9.35533 33.4628 12.9762 33.3343C16.5971 33.2057 20.1858 34.0543 23.3655 35.7912C26.5453 37.5281 28.9259 39.2371 31.7522 44.0462C34.5759 49.831 33.8711 54.5482 33.871 58.1713H28.9272" stroke="#FF4612" stroke-width="2.5" stroke-linecap="round" stroke-linejoin="round"/>
<path d="M5.06543 11.2051C6.74749 12.9034 8.76447 14.2542 10.9956 15.1765C13.2268 16.0987 15.6263 16.5736 18.0506 16.5726C20.5069 16.5746 22.9378 16.0879 25.1938 15.1424" stroke="#FF4612" stroke-width="2.5" stroke-linecap="round" stroke-linejoin="round"/>
<path d="M2.24023 16.7466C2.24023 19.9959 3.53099 23.112 5.82855 25.4096C8.12611 27.7071 11.2423 28.9979 14.4915 28.9979C17.7407 28.9979 20.8569 27.7071 23.1545 25.4096C25.452 23.112 26.7428 19.9959 26.7428 16.7466C26.7428 13.4974 25.452 10.3812 23.1545 8.08367C20.8569 5.78612 17.7407 4.49536 14.4915 4.49536C11.2423 4.49536 8.12611 5.78612 5.82855 8.08367C3.53099 10.3812 2.24023 13.4974 2.24023 16.7466V16.7466Z" stroke="#FF4612" stroke-width="2.5" stroke-linecap="round" stroke-linejoin="round"/>
</svg>
