<svg width="64" height="64" viewBox="0 0 64 64" fill="none" xmlns="http://www.w3.org/2000/svg">
<path d="M27.2686 27.2775L24.0743 24.0831M27.2686 27.2775C26.0186 28.5275 25.602 30.6109 26.2964 32.2775C26.9908 33.9442 28.6575 35.0553 30.6019 35.0553C32.5462 35.0553 34.074 33.9442 34.9073 32.2775C35.6017 30.6109 35.1851 28.5275 33.9351 27.2775M27.2686 27.2775C29.0741 25.472 31.9907 25.472 33.7962 27.2775L36.9906 24.0831M36.9906 36.9998L33.7962 33.8053M24.0743 36.9998L27.2686 33.8053M11.4357 56.8609V51.0276M55.4623 15.8886H58.3789M55.4623 31.9998V12.6942C55.4623 9.49976 52.9624 6.99976 49.768 6.99976H11.2968C8.10247 6.99976 5.60254 9.49976 5.60254 12.6942V45.3331C5.60254 48.5275 8.10247 51.0276 11.2968 51.0276H32.2685" stroke="#202120" stroke-width="2.5" stroke-linecap="round" stroke-linejoin="round"/>
<path d="M54.2124 45.8897L58.935 41.7238L54.2124 37.5564" stroke="#FF4612" stroke-width="2.2" stroke-linecap="round" stroke-linejoin="round"/>
<path d="M40.3252 41.7231H58.9363" stroke="#FF4612" stroke-width="2.2" stroke-linecap="round" stroke-linejoin="round"/>
<path d="M44.2119 48.6672L39.4904 52.8331L44.2119 57.0005" stroke="#FF4612" stroke-width="2.2" stroke-linecap="round" stroke-linejoin="round"/>
<path d="M58.1011 52.8337L39.491 52.8337" stroke="#FF4612" stroke-width="2.2" stroke-linecap="round" stroke-linejoin="round"/>
</svg>
