<svg width="64" height="64" viewBox="0 0 64 64" fill="none" xmlns="http://www.w3.org/2000/svg">
<path d="M56.8531 55.8193H57.7132C58.5898 55.8193 59.4306 55.4507 60.0505 54.7946C60.6704 54.1385 61.0186 53.2486 61.0186 52.3207V48.7136C61.019 48.2004 60.9126 47.6935 60.7069 47.2287C60.5012 46.764 60.2013 46.353 59.8285 46.0249L56.0605 42.7009L54.5778 36.9502C54.2924 35.8397 53.6696 34.8595 52.8057 34.1607C51.9417 33.462 50.8845 33.0835 49.7972 33.0838H37.7706C36.821 33.0864 35.892 33.3775 35.0942 33.9227C34.2963 34.4678 33.6632 35.244 33.27 36.159L30.4621 42.7009L24.7114 46.0751C24.1966 46.3781 23.7678 46.8213 23.4692 47.3587C23.1707 47.8962 23.0135 48.5083 23.0137 49.1318V52.3207C23.0133 52.78 23.0985 53.2349 23.2644 53.6594C23.4302 54.0838 23.6735 54.4695 23.9802 54.7944C24.2869 55.1194 24.6512 55.3771 25.052 55.553C25.4529 55.7288 25.8826 55.8193 26.3166 55.8193H28.0043" stroke="#FF4612" stroke-width="2.5" stroke-linecap="round" stroke-linejoin="round"/>
<path d="M36.2324 55.8196H48.3488" stroke="#FF4612" stroke-width="2.5" stroke-linecap="round" stroke-linejoin="round"/>
<path d="M32.1013 60.4823C34.3826 60.4823 36.2319 58.525 36.2319 56.1105C36.2319 53.696 34.3826 51.7387 32.1013 51.7387C29.82 51.7387 27.9707 53.696 27.9707 56.1105C27.9707 58.525 29.82 60.4823 32.1013 60.4823Z" stroke="#FF4612" stroke-width="2.5" stroke-linecap="round" stroke-linejoin="round"/>
<path d="M52.4807 60.4824C54.762 60.4824 56.6113 58.5251 56.6113 56.1106C56.6113 53.6961 54.762 51.7388 52.4807 51.7388C50.1994 51.7388 48.3501 53.6961 48.3501 56.1106C48.3501 58.5251 50.1994 60.4824 52.4807 60.4824Z" stroke="#FF4612" stroke-width="2.5" stroke-linecap="round" stroke-linejoin="round"/>
<path d="M30.395 42.6847L55.9975 42.6847" stroke="#FF4612" stroke-width="2.5" stroke-linecap="round" stroke-linejoin="round"/>
<path d="M43.3931 33.0836V42.4102" stroke="#FF4612" stroke-width="2.5" stroke-linecap="round" stroke-linejoin="round"/>
<path d="M41.6614 23.4816C45.3231 23.4816 48.2916 20.5132 48.2916 16.8515C48.2916 13.1898 45.3231 10.2214 41.6614 10.2214C37.9997 10.2214 35.0312 13.1898 35.0312 16.8515C35.0312 20.5132 37.9997 23.4816 41.6614 23.4816Z" stroke="#202120" stroke-width="2.5" stroke-linecap="round" stroke-linejoin="round"/>
<path d="M21.6121 23.4817C25.2738 23.4817 28.2422 20.5133 28.2422 16.8516C28.2422 13.1899 25.2738 10.2215 21.6121 10.2215C17.9504 10.2215 14.9819 13.1899 14.9819 16.8516C14.9819 20.5133 17.9504 23.4817 21.6121 23.4817Z" stroke="#202120" stroke-width="2.5" stroke-linecap="round" stroke-linejoin="round"/>
<path d="M41.661 16.8507L37.9775 2.11713H42.3976" stroke="#202120" stroke-width="2.5" stroke-linecap="round" stroke-linejoin="round"/>
<path d="M28.2432 8.03361L26.4756 2.85388H30.328" stroke="#202120" stroke-width="2.5" stroke-linecap="round" stroke-linejoin="round"/>
<path d="M38.9838 6.17029L28.2425 8.0339L21.6123 16.8511" stroke="#202120" stroke-width="2.5" stroke-linecap="round" stroke-linejoin="round"/>
<path d="M7.03584 49.5261C9.15852 49.5261 10.8793 47.8053 10.8793 45.6827C10.8793 43.56 9.15852 41.8392 7.03584 41.8392C4.91316 41.8392 3.19238 43.56 3.19238 45.6827C3.19238 47.8053 4.91316 49.5261 7.03584 49.5261Z" stroke="#202120" stroke-width="2.5" stroke-linecap="round" stroke-linejoin="round"/>
<path d="M10.8794 45.6236V30.7742C10.8794 30.631 10.9139 30.4899 10.9801 30.3629C11.0462 30.2358 11.142 30.1266 11.2594 30.0445C11.3767 29.9623 11.5121 29.9097 11.6541 29.891C11.7961 29.8724 11.9406 29.8882 12.0751 29.9372C13.6012 30.4171 14.9937 31.2478 16.1409 32.3627C17.2882 33.4776 18.1583 34.8457 18.6816 36.3575" stroke="#202120" stroke-width="2.5" stroke-linecap="round" stroke-linejoin="round"/>
</svg>
