<svg width="64" height="64" viewBox="0 0 64 64" fill="none" xmlns="http://www.w3.org/2000/svg">
<path d="M37.3032 12.3495L27.21 25.8156C26.986 26.1142 26.7005 26.3612 26.3727 26.5399C26.045 26.7186 25.6827 26.8248 25.3103 26.8514C24.938 26.8779 24.5643 26.8241 24.2145 26.6936C23.8647 26.5631 23.5471 26.3591 23.2831 26.0952L18.0659 20.878" stroke="#FF4612" stroke-width="2.5" stroke-linecap="round" stroke-linejoin="round"/>
<path d="M12.8857 55.6156C12.8857 56.8911 13.3924 58.1144 14.2944 59.0163C15.1963 59.9182 16.4195 60.4249 17.6951 60.4249C18.9706 60.4249 20.1938 59.9182 21.0957 59.0163C21.9977 58.1144 22.5044 56.8911 22.5044 55.6156C22.5044 54.3401 21.9977 53.1169 21.0957 52.2149C20.1938 51.313 18.9706 50.8063 17.6951 50.8063C16.4195 50.8063 15.1963 51.313 14.2944 52.2149C13.3924 53.1169 12.8857 54.3401 12.8857 55.6156V55.6156Z" stroke="#202120" stroke-width="2.5" stroke-linecap="round" stroke-linejoin="round"/>
<path d="M32.1235 55.6156C32.1235 56.8911 32.6302 58.1144 33.5321 59.0163C34.4341 59.9182 35.6573 60.4249 36.9328 60.4249C38.2084 60.4249 39.4316 59.9182 40.3335 59.0163C41.2355 58.1144 41.7422 56.8911 41.7422 55.6156C41.7422 54.3401 41.2355 53.1169 40.3335 52.2149C39.4316 51.313 38.2084 50.8063 36.9328 50.8063C35.6573 50.8063 34.4341 51.313 33.5321 52.2149C32.6302 53.1169 32.1235 54.3401 32.1235 55.6156V55.6156Z" stroke="#202120" stroke-width="2.5" stroke-linecap="round" stroke-linejoin="round"/>
<path d="M3.26807 20.0267L9.24187 40.2565C9.46062 41.0757 9.94382 41.7996 10.6164 42.3159C11.289 42.8321 12.1132 43.1118 12.9611 43.1113H40.7089C41.558 43.1135 42.3841 42.8346 43.0582 42.3182C43.7323 41.8019 44.2167 41.077 44.4358 40.2565L52.7411 9.08201C53.0685 7.85325 53.7927 6.76709 54.8011 5.99245C55.8096 5.2178 57.0457 4.79807 58.3174 4.79852H60.9798" stroke="#202120" stroke-width="2.5" stroke-linecap="round" stroke-linejoin="round"/>
</svg>
