<svg width="64" height="64" viewBox="0 0 64 64" fill="none" xmlns="http://www.w3.org/2000/svg">
<path fill-rule="evenodd" clip-rule="evenodd" d="M28.3494 46.4983L50.9868 23.8609C52.0294 22.8183 53.7174 22.8183 54.7574 23.8609L57.6321 26.7356C58.6748 27.7783 58.6748 29.4663 57.6321 30.5063L34.9894 53.1489C34.2881 53.8503 33.4054 54.3409 32.4428 54.5676L28.0481 55.6049C26.7574 55.9089 25.5974 54.7516 25.8988 53.4583L26.9281 49.0556C27.1548 48.0876 27.6481 47.2023 28.3494 46.4983V46.4983Z" stroke="#202120" stroke-width="2.5" stroke-linecap="round" stroke-linejoin="round"/>
<path d="M46.7471 28.0796L53.4137 34.7463" stroke="#202120" stroke-width="2.5" stroke-linecap="round" stroke-linejoin="round"/>
<path d="M18.6668 55.9995H18.2642C11.1228 55.9995 5.3335 50.2102 5.3335 43.0688V43.0688C5.3335 37.9595 8.3415 33.3275 13.0135 31.2528L23.5735 26.5595C27.0775 25.0022 29.3335 21.5302 29.3335 17.6982V17.6982C29.3335 12.3408 24.9922 7.99951 19.6348 7.99951H18.6668" stroke="#FF4612" stroke-width="2.5" stroke-linecap="round" stroke-linejoin="round"/>
</svg>
