<svg width="64" height="64" viewBox="0 0 64 64" fill="none" xmlns="http://www.w3.org/2000/svg">
<path d="M29.5516 27.8706L27.5483 35.8891L35.565 33.884L47.5919 21.8572L41.5784 15.8438L29.5516 27.8706Z" stroke="#FF4612" stroke-width="2.5" stroke-linecap="round" stroke-linejoin="round"/>
<path d="M47.5925 21.857L54.6095 14.8419C54.8729 14.5787 55.0819 14.2661 55.2244 13.9221C55.367 13.578 55.4404 13.2092 55.4404 12.8368C55.4404 12.4644 55.367 12.0956 55.2244 11.7516C55.0819 11.4076 54.8729 11.095 54.6095 10.8317L52.6044 8.82851C52.0728 8.29708 51.3519 7.99854 50.6002 7.99854C49.8485 7.99854 49.1276 8.29708 48.596 8.82851L41.5791 15.8417" stroke="#FF4612" stroke-width="2.5" stroke-linecap="round" stroke-linejoin="round"/>
<path d="M50.4695 35.8805V42.7209C50.4694 43.1519 50.3844 43.5786 50.2193 43.9767C50.0542 44.3749 49.8123 44.7365 49.5073 45.0411L38.3086 56.2398C38.004 56.5448 37.6423 56.7867 37.2442 56.9518C36.8461 57.1169 36.4193 57.2019 35.9883 57.202H11.1045C10.2345 57.202 9.40014 56.8564 8.78498 56.2412C8.16981 55.6261 7.82422 54.7917 7.82422 53.9218V11.2788C7.82422 10.4088 8.16981 9.57446 8.78498 8.95929C9.40014 8.34413 10.2345 7.99854 11.1045 7.99854H35.7062" stroke="#202120" stroke-width="2.5" stroke-linecap="round" stroke-linejoin="round"/>
<path d="M37.3481 56.9069V47.3614C37.3481 46.4914 37.6937 45.6571 38.3089 45.0419C38.9241 44.4268 39.7584 44.0812 40.6284 44.0812H50.1739" stroke="#202120" stroke-width="2.5" stroke-linecap="round" stroke-linejoin="round"/>
</svg>
