<svg width="64" height="64" viewBox="0 0 64 64" fill="none" xmlns="http://www.w3.org/2000/svg">
<path d="M24 26L14.4 30.1093C11.5681 31.3237 9.31186 33.5809 8.09867 36.4133L4.97067 43.7333C4.32988 45.2281 3.99964 46.8376 4 48.464V62" stroke="#202120" stroke-width="2.5" stroke-linecap="round" stroke-linejoin="round"/>
<path d="M24 38.5013V10C24 7.87827 24.8429 5.84344 26.3431 4.34315C27.8434 2.84285 29.8783 2 32 2H52C54.1217 2 56.1566 2.84285 57.6568 4.34315C59.1571 5.84344 60 7.87827 60 10V54C60 56.1217 59.1571 58.1566 57.6568 59.6568C56.1566 61.1571 54.1217 62 52 62H32C29.8783 62 27.8434 61.1571 26.3431 59.6568C24.8429 58.1566 24 56.1217 24 54V52.6667" stroke="#FF4612" stroke-width="2.5" stroke-linecap="round" stroke-linejoin="round"/>
<path d="M27.2363 50H59.999" stroke="#FF4612" stroke-width="2.5" stroke-linecap="round" stroke-linejoin="round"/>
<path d="M22 40L26.4613 36.6534C26.9167 36.3123 27.4368 36.0676 27.9899 35.9343C28.543 35.801 29.1174 35.7817 29.6782 35.8778C30.2389 35.9739 30.7742 36.1833 31.2514 36.4931C31.7285 36.803 32.1375 37.2068 32.4533 37.68V37.68C32.9112 38.3672 33.1555 39.1744 33.1555 40C33.1555 40.8257 32.9112 41.6329 32.4533 42.32L28.0667 48.8987C26.7201 50.9185 24.7926 52.4825 22.5387 53.384L16 56V62" stroke="#202120" stroke-width="2.5" stroke-linecap="round" stroke-linejoin="round"/>
</svg>
