<svg width="64" height="64" viewBox="0 0 64 64" fill="none" xmlns="http://www.w3.org/2000/svg">
<path d="M60.0003 62.6299L52.0003 50.9153V35.6566C52.0003 29.9846 42.7737 25.2566 38.667 22.1099" stroke="#FF4612" stroke-width="2.5" stroke-linecap="round" stroke-linejoin="round"/>
<path d="M21.3337 56.6407C21.5105 56.6407 21.68 56.7109 21.8051 56.836C21.9301 56.961 22.0003 57.1305 22.0003 57.3074C22.0003 57.4842 21.9301 57.6537 21.8051 57.7788C21.68 57.9038 21.5105 57.974 21.3337 57.974C21.1568 57.974 20.9873 57.9038 20.8623 57.7788C20.7372 57.6537 20.667 57.4842 20.667 57.3074C20.667 57.1305 20.7372 56.961 20.8623 56.836C20.9873 56.7109 21.1568 56.6407 21.3337 56.6407Z" stroke="#202120" stroke-width="2.5" stroke-linecap="round" stroke-linejoin="round"/>
<path d="M33.3333 62.6406H9.33333C7.91885 62.6406 6.56229 62.0787 5.5621 61.0785C4.5619 60.0784 4 58.7218 4 57.3073V6.64065C4 5.22616 4.5619 3.8696 5.5621 2.86941C6.56229 1.86922 7.91885 1.30731 9.33333 1.30731H33.3333C34.7478 1.30731 36.1044 1.86922 37.1046 2.86941C38.1048 3.8696 38.6667 5.22616 38.6667 6.64065V35.3713" stroke="#202120" stroke-width="2.5" stroke-linecap="round" stroke-linejoin="round"/>
<path d="M33.3333 51.9739H4" stroke="#202120" stroke-width="2.5" stroke-linecap="round" stroke-linejoin="round"/>
<path d="M38.6667 11.9739H4" stroke="#202120" stroke-width="2.5" stroke-linecap="round" stroke-linejoin="round"/>
<path d="M17.333 6.64069H25.333" stroke="#202120" stroke-width="2.5" stroke-linecap="round" stroke-linejoin="round"/>
<path d="M43.9999 39.646L34.0613 31.6806C33.3954 31.0148 32.4923 30.6407 31.5506 30.6407C30.6089 30.6407 29.7058 31.0148 29.04 31.6806C28.3741 32.3465 28 33.2496 28 34.1913C28 35.133 28.3741 36.0361 29.04 36.702L38.6666 47.5793V54.398C38.6666 57.614 43.2639 62.694 43.2639 62.694" stroke="#FF4612" stroke-width="2.5" stroke-linecap="round" stroke-linejoin="round"/>
</svg>
