<svg width="64" height="64" viewBox="0 0 64 64" fill="none" xmlns="http://www.w3.org/2000/svg">
<path d="M2.66699 48.3384L32.0003 56.3384" stroke="#202120" stroke-width="2.5" stroke-linecap="round" stroke-linejoin="round"/>
<path d="M32.001 56.3384L61.3343 48.3384" stroke="#202120" stroke-width="2.5" stroke-linecap="round" stroke-linejoin="round"/>
<path d="M2.66699 48.3387L17.315 44.5013" stroke="#202120" stroke-width="2.5" stroke-linecap="round" stroke-linejoin="round"/>
<path d="M2.66699 60.5011V48.6718" stroke="#202120" stroke-width="2.5" stroke-linecap="round" stroke-linejoin="round"/>
<path d="M61.334 48.6718V60.5011" stroke="#202120" stroke-width="2.5" stroke-linecap="round" stroke-linejoin="round"/>
<path d="M32.001 61.8344V56.3384" stroke="#202120" stroke-width="2.5" stroke-linecap="round" stroke-linejoin="round"/>
<path d="M41.3337 16.1652C41.3337 21.3199 39.779 34.8319 32.0003 34.8319C24.2217 34.8319 22.667 21.3332 22.667 16.1652C22.667 6.83189 32.0003 2.16522 32.0003 2.16522C32.0003 2.16522 41.3337 6.83189 41.3337 16.1652Z" stroke="#FF4612" stroke-width="2.5" stroke-linecap="round" stroke-linejoin="round"/>
<path d="M32.0002 19.4931C34.0223 19.4931 35.6615 17.8539 35.6615 15.8318C35.6615 13.8097 34.0223 12.1705 32.0002 12.1705C29.9781 12.1705 28.3389 13.8097 28.3389 15.8318C28.3389 17.8539 29.9781 19.4931 32.0002 19.4931Z" stroke="#FF4612" stroke-width="2.5" stroke-linecap="round" stroke-linejoin="round"/>
<path d="M25.8215 32.4292L23.6668 33.5092C22.4485 34.1559 21.3325 34.979 20.3548 35.9519C20.1208 36.2029 19.8179 36.3791 19.484 36.4585C19.1501 36.5379 18.8003 36.5168 18.4783 36.398C18.1564 36.2792 17.8767 36.0679 17.6745 35.7907C17.4722 35.5135 17.3564 35.1827 17.3415 34.8399C17.1129 32.8417 17.5385 30.8232 18.5545 29.0875C19.5705 27.3517 21.122 25.9923 22.9762 25.2132" stroke="#FF4612" stroke-width="2.5" stroke-linecap="round" stroke-linejoin="round"/>
<path d="M38.1797 32.4292L40.3344 33.5092C41.5526 34.1559 42.6687 34.979 43.6464 35.9519C43.8804 36.2029 44.1833 36.3791 44.5172 36.4585C44.851 36.5379 45.2009 36.5168 45.5228 36.398C45.8448 36.2792 46.1244 36.0679 46.3267 35.7907C46.529 35.5135 46.6448 35.1827 46.6597 34.8399C46.8883 32.8417 46.4626 30.8232 45.4467 29.0875C44.4307 27.3517 42.8792 25.9923 41.025 25.2132" stroke="#FF4612" stroke-width="2.5" stroke-linecap="round" stroke-linejoin="round"/>
<path d="M61.3335 48.3387L46.6855 44.5013" stroke="#202120" stroke-width="2.5" stroke-linecap="round" stroke-linejoin="round"/>
<path d="M35.7333 42.6854C35.7333 44.7467 34.0613 49.7334 31.9999 49.7334C29.9386 49.7334 28.2666 44.7467 28.2666 42.6854C28.2666 41.6952 28.6599 40.7456 29.3601 40.0455C30.0602 39.3454 31.0098 38.952 31.9999 38.952C32.9901 38.952 33.9397 39.3454 34.6398 40.0455C35.3399 40.7456 35.7333 41.6952 35.7333 42.6854V42.6854Z" stroke="#FF4612" stroke-width="2.5" stroke-linecap="round" stroke-linejoin="round"/>
</svg>
