<svg width="64" height="64" viewBox="0 0 64 64" fill="none" xmlns="http://www.w3.org/2000/svg">
<path fill-rule="evenodd" clip-rule="evenodd" d="M23.4579 59.8283C23.7688 59.0917 24.6152 58.7478 25.3485 59.0601C26.7658 59.6638 28.1651 59.945 29.5578 59.9114C30.354 59.8921 31.015 60.5249 31.0341 61.3248C31.0532 62.1246 30.4233 62.7886 29.6271 62.8078C27.8152 62.8515 26.0098 62.4888 24.2226 61.7275C23.4893 61.4152 23.1469 60.5649 23.4579 59.8283ZM54.5421 35.775C55.338 35.7467 56.0061 36.3719 56.0343 37.1714C56.3124 45.0567 53.3494 50.3683 47.2282 52.7725C46.6458 55.3836 44.5479 57.9671 41.0269 60.5914C40.3873 61.0682 39.4841 60.9338 39.0095 60.2912C38.535 59.6487 38.6687 58.7414 39.3084 58.2647C42.6553 55.7701 44.3419 53.5111 44.4986 51.5841C44.5457 51.0057 44.9317 50.5114 45.4797 50.3278C50.8738 48.5207 53.3997 44.2962 53.152 37.274C53.1238 36.4745 53.7462 35.8033 54.5421 35.775ZM31.5383 6.79472C45.0027 7.01113 50.1594 15.0448 50.2708 30.4449C50.3534 41.8423 48.4535 46.6908 44.2312 47.3395C42.633 47.585 40.9353 47.0218 40.0013 45.8447C38.8026 44.3339 38.8029 42.0006 39.9987 40.5301C41.1443 39.2133 41.5381 38.0506 41.6017 36.3315C41.6144 35.9888 41.6156 35.7073 41.6114 35.0571C41.609 34.6886 41.6084 34.5214 41.6097 34.3185C41.6097 32.786 41.6108 31.5916 41.6129 30.1715C41.6143 29.34 41.6151 28.8047 41.6156 28.3779L41.616 27.0481C41.6155 26.2996 41.6135 25.557 41.6097 24.6672C41.59 20.0612 37.9568 15.4734 31.5181 15.4863C23.7779 15.5018 21.5692 18.7587 21.4205 30.4739C21.2527 43.7016 23.1633 47.3561 31.5539 47.3567C32.8833 47.3925 33.9156 46.9735 33.9186 45.9033C33.9219 44.7603 33.1327 44.4183 31.491 44.4587C26.9376 44.3821 24.3885 41.8214 24.3048 37.2147C24.3091 31.3847 24.3097 27.7091 24.3066 26.195L24.3048 25.6343C24.297 24.1375 24.5472 22.7297 25.3203 21.4162C26.482 19.4427 28.5678 18.3306 31.5408 18.3838C35.9845 18.4632 38.5183 21.0085 38.7256 25.6267V36.25C38.7256 37.05 38.0799 37.6986 37.2835 37.6986C36.487 37.6986 35.8414 37.05 35.8414 36.25L35.8429 25.6924C35.7054 22.6503 34.3936 21.3325 31.4895 21.2806C28.164 21.2211 27.1747 22.9018 27.1889 25.6191C27.194 26.5818 27.194 30.4439 27.1887 37.1892C27.2437 40.2091 28.5402 41.5114 31.4788 41.5621C32.5399 41.5352 33.4494 41.6341 34.3706 42.0331C35.881 42.6875 36.8082 44.0171 36.8028 45.9117C36.7973 47.8285 35.765 49.1422 34.1666 49.7909C33.2433 50.1657 32.3018 50.2751 31.5152 50.2534C21.0643 50.2534 18.3511 45.0636 18.5366 30.437C18.703 17.3229 21.9003 12.6083 31.5123 12.5891C39.7098 12.5726 44.4678 18.5809 44.4938 24.6547C44.4986 25.7713 44.5004 26.6579 44.5002 27.6138L44.4997 28.3808C44.4992 28.8086 44.4984 29.3445 44.497 30.1759C44.4962 30.7434 44.4955 31.2748 44.495 31.8067L44.4938 34.3273C44.4926 34.5229 44.4932 34.6818 44.4955 35.0383C44.5 35.7307 44.4986 36.0402 44.4838 36.4391C44.3973 38.7793 43.7886 40.5767 42.2018 42.3993C41.9 42.7707 41.8999 43.5892 42.2567 44.0389C42.5066 44.3538 43.1653 44.5723 43.7952 44.4755C46.0644 44.1269 47.4599 40.5656 47.3868 30.466C47.2853 16.4486 43.0676 9.87765 31.4921 9.69161C19.8219 9.50403 15.8772 14.9999 15.6522 30.4766C15.4487 44.4769 20.6213 52.7469 28.703 53.1525C34.4391 53.4403 36.0321 52.9054 37.6085 50.8609C37.8109 50.5984 38.6966 49.3766 38.9556 49.0354C39.4385 48.3993 40.3434 48.2768 40.9767 48.762C41.61 49.2472 41.7319 50.1562 41.2489 50.7924C41.0183 51.0961 40.124 52.3298 39.8887 52.635C37.6507 55.5375 35.1509 56.3769 28.5591 56.0461C18.6335 55.5481 12.5448 45.8133 12.7684 30.4343C13.0141 13.5325 18.0063 6.57722 31.5383 6.79472ZM31.5152 24.1781C32.3116 24.1781 32.9573 24.8267 32.9573 25.6267V37.2157C32.9573 38.0158 32.3116 38.6644 31.5152 38.6644C30.7188 38.6644 30.0731 38.0158 30.0731 37.2157V25.6267C30.0731 24.8267 30.7188 24.1781 31.5152 24.1781ZM54.5884 26.1096C55.3848 26.1096 56.0304 26.7582 56.0304 27.5582V31.4212C56.0304 32.2213 55.3848 32.8699 54.5884 32.8699C53.7919 32.8699 53.1463 32.2213 53.1463 31.4212V27.5582C53.1463 26.7582 53.7919 26.1096 54.5884 26.1096ZM31.5143 1.00001C45.6707 0.991136 53.0314 8.38052 55.9944 21.4418C56.1714 22.2219 55.6853 22.9984 54.9088 23.1761C54.1323 23.3539 53.3593 22.8656 53.1823 22.0856C50.4937 10.234 44.1737 3.88933 31.5161 3.89727C25.3999 3.90111 20.9023 5.10591 17.9955 7.44271C17.3736 7.94259 16.4661 7.84144 15.9685 7.21678C15.4709 6.59212 15.5716 5.68049 16.1934 5.1806C19.6837 2.37477 24.8 1.00423 31.5143 1.00001ZM12.1045 9.29326C12.5891 8.65834 13.4943 8.53825 14.1263 9.02503C14.7584 9.51182 14.8779 10.4211 14.3933 11.0561C13.504 12.2213 12.8761 13.3682 12.502 14.4958C12.2501 15.2548 11.4334 15.665 10.6779 15.412C9.9223 15.159 9.51395 14.3386 9.76579 13.5796C10.2462 12.1318 11.0283 10.7034 12.1045 9.29326Z" fill="#202120"/>
<path d="M10.8261 19.1039C10.9566 18.3146 10.4255 17.5685 9.63986 17.4374C8.8542 17.3063 8.11147 17.8398 7.98094 18.629C7.32353 22.604 6.99645 26.5468 7.00003 30.4568C6.99902 43.7554 10.6961 53.2088 18.1692 58.6682C18.8133 59.1387 19.7152 58.9956 20.1836 58.3486C20.652 57.7015 20.5096 56.7955 19.8655 56.325C13.2363 51.4822 9.88324 42.9082 9.88421 30.4556C9.88074 26.7054 10.1946 22.9222 10.8261 19.1039Z" fill="#FF4612"/>
</svg>
