<svg width="64" height="64" viewBox="0 0 64 64" fill="none" xmlns="http://www.w3.org/2000/svg">
<path d="M6.52027 25.16C6.21812 25.16 5.91598 25.07 5.64405 24.89C4.94912 24.41 4.79804 23.48 5.28147 22.79C8.27271 18.59 12.0797 15.29 16.6119 12.98C26.0993 8.11998 38.2455 8.08998 47.7631 12.95C52.2953 15.26 56.1023 18.53 59.0935 22.7C59.577 23.36 59.4259 24.32 58.731 24.8C58.036 25.28 57.0994 25.13 56.6159 24.44C53.8966 20.66 50.4522 17.69 46.3732 15.62C37.7016 11.21 26.6129 11.21 17.9716 15.65C13.8624 17.75 10.4179 20.75 7.69864 24.53C7.45692 24.95 7.0037 25.16 6.52027 25.16ZM25.4043 61.37C25.0116 61.37 24.6188 61.22 24.3468 60.92C21.7182 58.31 20.2981 56.63 18.2737 53C16.1889 49.31 15.1012 44.81 15.1012 39.98C15.1012 31.07 22.7757 23.81 32.2026 23.81C41.6295 23.81 49.304 31.07 49.304 39.98C49.304 40.82 48.6393 41.48 47.7933 41.48C46.9473 41.48 46.2826 40.82 46.2826 39.98C46.2826 32.72 39.9677 26.81 32.2026 26.81C24.4375 26.81 18.1226 32.72 18.1226 39.98C18.1226 44.3 19.0895 48.29 20.9326 51.53C22.8663 54.98 24.1958 56.45 26.5223 58.79C27.0964 59.39 27.0964 60.32 26.5223 60.92C26.1899 61.22 25.7971 61.37 25.4043 61.37ZM47.0681 55.82C43.4726 55.82 40.3001 54.92 37.7016 53.15C33.1997 50.12 30.5106 45.2 30.5106 39.98C30.5106 39.14 31.1753 38.48 32.0213 38.48C32.8673 38.48 33.532 39.14 33.532 39.98C33.532 44.21 35.7075 48.2 39.3937 50.66C41.5389 52.1 44.0467 52.79 47.0681 52.79C47.7933 52.79 49.0019 52.7 50.2105 52.49C51.0262 52.34 51.8118 52.88 51.9629 53.72C52.114 54.53 51.5701 55.31 50.7241 55.46C49.0019 55.79 47.4912 55.82 47.0681 55.82ZM40.995 62C40.8742 62 40.7231 61.97 40.6022 61.94C35.7981 60.62 32.6558 58.85 29.3624 55.64C25.1324 51.47 22.8059 45.92 22.8059 39.98C22.8059 35.12 26.9755 31.16 32.112 31.16C37.2484 31.16 41.418 35.12 41.418 39.98C41.418 43.19 44.228 45.8 47.7027 45.8C51.1773 45.8 53.9873 43.19 53.9873 39.98C53.9873 28.67 44.1676 19.49 32.0817 19.49C23.5008 19.49 15.6451 24.23 12.11 31.58C10.9316 34.01 10.3273 36.86 10.3273 39.98C10.3273 42.32 10.5388 46.01 12.3517 50.81C12.6538 51.59 12.261 52.46 11.4755 52.73C10.6899 53.03 9.81365 52.61 9.54172 51.86C8.06121 47.93 7.33606 44.03 7.33606 39.98C7.33606 36.38 8.031 33.11 9.39065 30.26C13.4092 21.89 22.3225 16.46 32.0817 16.46C45.8294 16.46 57.0087 26.99 57.0087 39.95C57.0087 44.81 52.8391 48.77 47.7027 48.77C42.5662 48.77 38.3966 44.81 38.3966 39.95C38.3966 36.74 35.5866 34.13 32.112 34.13C28.6373 34.13 25.8273 36.74 25.8273 39.95C25.8273 45.08 27.8215 49.88 31.4775 53.48C34.3478 56.3 37.0974 57.86 41.3576 59.03C42.1734 59.24 42.6266 60.08 42.4151 60.86C42.264 61.55 41.6295 62 40.995 62Z" fill="#202120"/>
<path d="M49.0625 9.23C49.274 9.35 49.5157 9.41 49.7574 9.41C50.3013 9.41 50.8149 9.11 51.0868 8.57C51.4796 7.85 51.2077 6.95 50.4523 6.56C44.2886 3.41 38.6687 2 32.233 2C25.7369 2 19.5731 3.56 13.9532 6.59C13.228 6.98 12.9561 7.91 13.3489 8.63C13.7719 9.35 14.6783 9.62 15.4035 9.23C20.5702 6.41 26.2505 5 32.233 5C38.2457 5 43.2613 6.26 49.0625 9.23Z" fill="#FF4612"/>
</svg>
