<svg width="64" height="64" viewBox="0 0 64 64" fill="none" xmlns="http://www.w3.org/2000/svg">
<path d="M53.9968 33.9812L31.7236 41.4683L28.7383 38.503L24.3117 39.9894C24.0168 40.0885 23.751 40.2594 23.5383 40.4866C23.3256 40.7138 23.1727 40.9902 23.0931 41.2911C23.0136 41.592 23.0101 41.9079 23.0828 42.2105C23.1555 42.5131 23.3021 42.7929 23.5097 43.0248L29.4978 49.7274C29.9889 50.2776 30.6309 50.6712 31.344 50.8593C32.0571 51.0474 32.8097 51.0216 33.5083 50.7851L40.0679 48.5819L38.7395 58.0567C38.6944 58.3739 38.7313 58.6975 38.8467 58.9964C38.962 59.2954 39.152 59.5599 39.3985 59.7647C39.645 59.9695 39.9398 60.1077 40.2549 60.1663C40.5699 60.225 40.8947 60.2019 41.1984 60.0995L44.6098 58.954C44.8707 58.8659 45.1091 58.7218 45.3083 58.5317C45.5075 58.3416 45.6627 58.1101 45.7628 57.8536L50.7609 44.9875L56.9972 42.892C58.1788 42.4931 59.1536 41.6412 59.7071 40.5236C60.2607 39.406 60.3475 38.1143 59.9487 36.9327C59.5498 35.751 58.6979 34.7762 57.5803 34.2227C56.4627 33.6692 55.171 33.5823 53.9893 33.9812H53.9968Z" stroke="#FF4612" stroke-width="2.5" stroke-linecap="round" stroke-linejoin="round"/>
<path d="M47.7609 36.0768L40.7927 31.2793C40.5525 31.1138 40.277 31.0065 39.9881 30.9661C39.6992 30.9256 39.4048 30.953 39.1284 31.0462L35.7746 32.1741C35.4707 32.2758 35.1978 32.4535 34.9821 32.6905C34.7663 32.9274 34.6147 33.2156 34.5419 33.5277C34.469 33.8398 34.4772 34.1653 34.5658 34.4733C34.6543 34.7813 34.8202 35.0615 35.0477 35.2873L38.8502 39.0722" stroke="#FF4612" stroke-width="2.5" stroke-linecap="round" stroke-linejoin="round"/>
<path d="M22.597 52.6801H11.3175C9.32317 52.6801 7.41052 51.8878 6.00031 50.4776C4.5901 49.0674 3.79785 47.1548 3.79785 45.1604V22.6014C3.79785 20.6071 4.5901 18.6944 6.00031 17.2842C7.41052 15.874 9.32317 15.0817 11.3175 15.0817H45.156C47.1503 15.0817 49.063 15.874 50.4732 17.2842C51.8834 18.6944 52.6756 20.6071 52.6756 22.6014V26.3612" stroke="#202120" stroke-width="2.5" stroke-linecap="round" stroke-linejoin="round"/>
<path d="M16.9575 15.0817V52.6801" stroke="#202120" stroke-width="2.5" stroke-linecap="round" stroke-linejoin="round"/>
<path d="M39.5166 15.0817V24.4813" stroke="#202120" stroke-width="2.5" stroke-linecap="round" stroke-linejoin="round"/>
<path d="M35.7566 15.0819V7.5622C35.7566 6.56503 35.3605 5.6087 34.6554 4.9036C33.9503 4.19849 32.9939 3.80237 31.9968 3.80237H24.4771C23.4799 3.80237 22.5236 4.19849 21.8185 4.9036C21.1134 5.6087 20.7173 6.56503 20.7173 7.5622V15.0819" stroke="#202120" stroke-width="2.5" stroke-linecap="round" stroke-linejoin="round"/>
</svg>
