<svg width="64" height="64" viewBox="0 0 64 64" fill="none" xmlns="http://www.w3.org/2000/svg">
<path d="M46.3436 9.53951H50.0047C51.6615 9.53951 53.0047 10.8827 53.0047 12.5395V37.0004V43.7375C53.0046 44.162 52.9208 44.5823 52.7582 44.9744C52.5956 45.3665 52.3573 45.7227 52.057 46.0227L41.0274 57.0522C40.7274 57.3526 40.3712 57.5909 39.9791 57.7535C39.587 57.9161 39.1667 57.9998 38.7422 57.9999H14.2341C13.3773 57.9999 12.5555 57.6595 11.9497 57.0537C11.3438 56.4478 11.0034 55.6261 11.0034 54.7692V12.7702C11.0034 11.9134 11.3438 11.0916 11.9497 10.4858C12.5555 9.87989 13.3773 9.53951 14.2341 9.53951H18.4701" stroke="#202120" stroke-width="2.5" stroke-linecap="round" stroke-linejoin="round"/>
<path d="M40.0815 56.9088V47.5075C40.0815 46.6507 40.4219 45.829 41.0278 45.2231C41.6337 44.6172 42.4554 44.2768 43.3122 44.2768H52.7136" stroke="#202120" stroke-width="2.5" stroke-linecap="round" stroke-linejoin="round"/>
<path d="M31.874 5.99951L31.874 27.1721" stroke="#FF4612" stroke-width="2.5" stroke-linecap="round" stroke-linejoin="round"/>
<path d="M42.3716 31.9995H21.3716" stroke="#FF4612" stroke-width="2.5" stroke-linecap="round" stroke-linejoin="round"/>
<path d="M38.876 12.616L31.874 5.99952" stroke="#FF4612" stroke-width="2.5" stroke-linecap="round" stroke-linejoin="round"/>
<path d="M24.8716 12.616L31.8736 5.99952" stroke="#FF4612" stroke-width="2.5" stroke-linecap="round" stroke-linejoin="round"/>
</svg>
