<svg width="64" height="64" viewBox="0 0 64 64" fill="none" xmlns="http://www.w3.org/2000/svg">
<path d="M10.6951 60.7166L5.65893 54.7627C4.06289 52.7675 3.19337 50.2885 3.19336 47.7335V34.8029C3.19336 33.8081 3.58854 32.854 4.29196 32.1506C4.99539 31.4472 5.94944 31.052 6.94423 31.052V31.052C7.93903 31.052 8.89307 31.4472 9.5965 32.1506C10.2999 32.854 10.6951 33.8081 10.6951 34.8029V44.1801" stroke="#202120" stroke-width="2.5" stroke-linecap="round" stroke-linejoin="round"/>
<path d="M21.9475 60.7168V53.215C21.9485 50.9898 21.2898 48.8143 20.0546 46.9635L17.1989 42.6875C16.9542 42.2822 16.6299 41.9307 16.2455 41.6544C15.8611 41.378 15.4246 41.1825 14.9625 41.0796C14.5004 40.9768 14.0222 40.9687 13.5569 41.056C13.0916 41.1432 12.6488 41.3239 12.2553 41.5872V41.5872C11.5485 42.0608 11.0383 42.7756 10.8201 43.598C10.602 44.4204 10.6908 45.2941 11.07 46.0558L14.4508 51.6821" stroke="#202120" stroke-width="2.5" stroke-linecap="round" stroke-linejoin="round"/>
<path d="M51.9551 60.7166L56.9913 54.7627C58.5873 52.7675 59.4568 50.2885 59.4568 47.7335V34.8029C59.4568 33.8081 59.0616 32.854 58.3582 32.1506C57.6548 31.4472 56.7007 31.052 55.706 31.052C54.7112 31.052 53.7571 31.4472 53.0537 32.1506C52.3503 32.854 51.9551 33.8081 51.9551 34.8029V44.1801" stroke="#202120" stroke-width="2.5" stroke-linecap="round" stroke-linejoin="round"/>
<path d="M40.7026 60.7168V53.215C40.7016 50.9898 41.3604 48.8143 42.5956 46.9635L45.4512 42.6825C45.6951 42.2764 46.0188 41.924 46.4029 41.6466C46.7869 41.3693 47.2232 41.1728 47.6854 41.069C48.1476 40.9652 48.626 40.9563 49.0917 41.0428C49.5575 41.1293 50.0008 41.3094 50.3949 41.5722V41.5722C51.105 42.0454 51.6179 42.7616 51.8371 43.5864C52.0563 44.4111 51.9667 45.2875 51.5852 46.0508L48.2044 51.6771" stroke="#202120" stroke-width="2.5" stroke-linecap="round" stroke-linejoin="round"/>
<path d="M21.5176 24.3928C22.8315 24.3992 24.0941 23.8896 25.0278 22.9761C25.9614 22.0626 26.4896 20.8201 26.496 19.5219C26.5025 18.2236 25.9867 16.976 25.0622 16.0535C24.1377 15.131 22.8802 14.6092 21.5663 14.6028C20.2524 14.5964 18.9897 15.106 18.0561 16.0195C17.1224 16.933 16.5943 18.1755 16.5878 19.4737C16.5814 20.772 17.0971 22.0196 18.0216 22.9421C18.9461 23.8646 20.2037 24.3864 21.5176 24.3928V24.3928Z" stroke="#FF4612" stroke-width="2.5" stroke-linecap="round" stroke-linejoin="round"/>
<path d="M33.2206 31.1816L24.564 23.3741" stroke="#FF4612" stroke-width="2.5" stroke-linecap="round" stroke-linejoin="round"/>
<path d="M36.3745 35.8775C37.2504 35.8818 38.0922 35.542 38.7146 34.933C39.3371 34.324 39.6892 33.4957 39.6935 32.6302C39.6978 31.7647 39.3539 30.933 38.7376 30.318C38.1213 29.703 37.2829 29.3551 36.407 29.3508C35.531 29.3466 34.6893 29.6863 34.0668 30.2953C33.4444 30.9043 33.0923 31.7326 33.088 32.5981C33.0837 33.4636 33.4275 34.2953 34.0439 34.9103C34.6602 35.5253 35.4986 35.8732 36.3745 35.8775Z" stroke="#FF4612" stroke-width="2.5" stroke-linecap="round" stroke-linejoin="round"/>
<path d="M33.2212 8.13733L24.6021 15.6516" stroke="#FF4612" stroke-width="2.5" stroke-linecap="round" stroke-linejoin="round"/>
<path d="M36.4873 9.74157C37.3632 9.74583 38.205 9.40609 38.8274 8.79711C39.4499 8.18812 39.802 7.35977 39.8063 6.49428C39.8106 5.62879 39.4667 4.79706 38.8504 4.18205C38.2341 3.56705 37.3957 3.21915 36.5198 3.2149C35.6438 3.21064 34.8021 3.55038 34.1796 4.15936C33.5572 4.76835 33.2051 5.5967 33.2008 6.46219C33.1965 7.32768 33.5403 8.15941 34.1567 8.77441C34.773 9.38942 35.6114 9.73731 36.4873 9.74157V9.74157Z" stroke="#FF4612" stroke-width="2.5" stroke-linecap="round" stroke-linejoin="round"/>
</svg>
