<svg width="64" height="64" viewBox="0 0 64 64" fill="none" xmlns="http://www.w3.org/2000/svg">
<path d="M10.6951 60.717L5.65893 54.7631C4.06289 52.7679 3.19337 50.2889 3.19336 47.7339V34.8033C3.19336 33.8085 3.58854 32.8545 4.29196 32.151C4.99539 31.4476 5.94944 31.0524 6.94423 31.0524V31.0524C7.93903 31.0524 8.89307 31.4476 9.5965 32.151C10.2999 32.8545 10.6951 33.8085 10.6951 34.8033V44.1806" stroke="#202120" stroke-width="2.5" stroke-linecap="round" stroke-linejoin="round"/>
<path d="M21.9475 60.7172V53.2154C21.9485 50.9902 21.2898 48.8147 20.0546 46.9639L17.1989 42.6879C16.9542 42.2826 16.6299 41.9311 16.2455 41.6548C15.8611 41.3784 15.4246 41.1829 14.9625 41.0801C14.5004 40.9772 14.0222 40.9692 13.5569 41.0564C13.0916 41.1436 12.6488 41.3244 12.2553 41.5876V41.5876C11.5485 42.0612 11.0383 42.776 10.8201 43.5984C10.602 44.4208 10.6908 45.2945 11.07 46.0562L14.4508 51.6825" stroke="#202120" stroke-width="2.5" stroke-linecap="round" stroke-linejoin="round"/>
<path d="M51.9551 60.717L56.9913 54.7631C58.5873 52.7679 59.4568 50.2889 59.4568 47.7339V34.8033C59.4568 33.8085 59.0616 32.8545 58.3582 32.151C57.6548 31.4476 56.7007 31.0524 55.706 31.0524C54.7112 31.0524 53.7571 31.4476 53.0537 32.151C52.3503 32.8545 51.9551 33.8085 51.9551 34.8033V44.1806" stroke="#202120" stroke-width="2.5" stroke-linecap="round" stroke-linejoin="round"/>
<path d="M40.7026 60.7172V53.2154C40.7016 50.9903 41.3604 48.8148 42.5956 46.9639L45.4512 42.6829C45.6951 42.2768 46.0188 41.9244 46.4029 41.6471C46.7869 41.3697 47.2232 41.1732 47.6854 41.0694C48.1476 40.9656 48.626 40.9567 49.0917 41.0432C49.5575 41.1297 50.0008 41.3098 50.3949 41.5726V41.5726C51.105 42.0458 51.6179 42.7621 51.8371 43.5868C52.0563 44.4115 51.9667 45.2879 51.5852 46.0512L48.2044 51.6775" stroke="#202120" stroke-width="2.5" stroke-linecap="round" stroke-linejoin="round"/>
<path d="M32.3093 11.1386L33.8254 14.262H36.7761C36.9256 14.2552 37.0734 14.2949 37.1994 14.3756C37.3253 14.4564 37.4232 14.5741 37.4795 14.7127C37.5357 14.8514 37.5477 15.004 37.5136 15.1497C37.4796 15.2953 37.4013 15.4269 37.2894 15.5262L34.7278 18.2026L36.147 21.4679C36.2097 21.6173 36.2239 21.7826 36.1876 21.9406C36.1513 22.0985 36.0664 22.241 35.9447 22.3481C35.823 22.4551 35.6708 22.5212 35.5096 22.5371C35.3483 22.5529 35.1861 22.5178 35.0459 22.4365L31.6127 20.504L28.183 22.4365C28.0428 22.5178 27.8806 22.5529 27.7194 22.5371C27.5581 22.5212 27.4059 22.4551 27.2842 22.3481C27.1625 22.241 27.0776 22.0985 27.0413 21.9406C27.005 21.7826 27.0192 21.6173 27.0819 21.4679L28.5011 18.2026L25.936 15.5262C25.8243 15.427 25.746 15.2957 25.712 15.1503C25.6779 15.0048 25.6896 14.8524 25.7456 14.7139C25.8016 14.5754 25.899 14.4577 26.0246 14.3767C26.1501 14.2958 26.2976 14.2557 26.4469 14.262H29.4035L30.9232 11.1386C30.9896 11.0122 31.0892 10.9065 31.2114 10.8327C31.3335 10.7589 31.4735 10.7199 31.6162 10.7199C31.7589 10.7199 31.8989 10.7589 32.0211 10.8327C32.1432 10.9065 32.2429 11.0122 32.3093 11.1386V11.1386Z" stroke="#FF4612" stroke-width="2.5" stroke-linecap="round" stroke-linejoin="round"/>
<path d="M19.1948 8.67392V17.7059C19.2296 20.6903 20.1807 23.5919 21.9193 26.0178C23.6579 28.4437 26.1001 30.2767 28.915 31.2686L30.2408 31.7582C31.1265 32.0834 32.0989 32.0834 32.9845 31.7582L34.3103 31.2686C37.1253 30.2767 39.5674 28.4437 41.306 26.0178C43.0447 23.5919 43.9957 20.6903 44.0305 17.7059V8.67392C44.0293 8.31907 43.924 7.97237 43.7277 7.67679C43.5313 7.38122 43.2525 7.14976 42.9259 7.01111C39.3432 5.51642 35.4945 4.76445 31.6127 4.80072C27.7309 4.76445 23.8821 5.51642 20.2994 7.01111C19.9728 7.14976 19.694 7.38122 19.4977 7.67679C19.3013 7.97237 19.196 8.31907 19.1948 8.67392V8.67392Z" stroke="#FF4612" stroke-width="2.5" stroke-linecap="round" stroke-linejoin="round"/>
</svg>
