<svg width="64" height="64" viewBox="0 0 64 64" fill="none" xmlns="http://www.w3.org/2000/svg">
<path d="M28.0546 55.0736H5.14941C5.14927 51.4749 6.11807 47.9426 7.95407 44.8475C9.79007 41.7525 12.4255 39.2088 15.5838 37.4837C18.742 35.7586 22.3064 34.9157 25.9028 35.0434C29.4992 35.1711 32.9948 36.2648 36.0227 38.2096" stroke="#202120" stroke-width="2.5" stroke-linecap="round" stroke-linejoin="round"/>
<path d="M14.7065 12.3894C16.5903 14.3444 18.8491 15.8993 21.3477 16.9609C23.8464 18.0226 26.5336 18.5692 29.2485 18.5681C31.9993 18.5704 34.7217 18.0101 37.2481 16.9218" stroke="#202120" stroke-width="2.5" stroke-linecap="round" stroke-linejoin="round"/>
<path d="M13.0229 18.5683C13.0229 21.7955 14.305 24.8906 16.587 27.1726C18.869 29.4546 21.9641 30.7366 25.1913 30.7366C28.4186 30.7366 31.5136 29.4546 33.7957 27.1726C36.0777 24.8906 37.3597 21.7955 37.3597 18.5683C37.3597 15.341 36.0777 12.2459 33.7957 9.96393C31.5136 7.68192 28.4186 6.3999 25.1913 6.3999C21.9641 6.3999 18.869 7.68192 16.587 9.96393C14.305 12.2459 13.0229 15.341 13.0229 18.5683V18.5683Z" stroke="#202120" stroke-width="2.5" stroke-linecap="round" stroke-linejoin="round"/>
<line x1="38.2605" y1="48.6001" x2="58.1395" y2="48.6001" stroke="#FF4612" stroke-width="2.5" stroke-linecap="round"/>
<path d="M48.4602 38.4001L48.4602 58.177" stroke="#FF4612" stroke-width="2.5" stroke-linecap="round"/>
</svg>
