<svg width="64" height="64" viewBox="0 0 64 64" fill="none" xmlns="http://www.w3.org/2000/svg">
<path d="M28.0548 55.0733H5.14966C5.14952 51.4747 6.11831 47.9424 7.95431 44.8473C9.79031 41.7522 12.4258 39.2086 15.584 37.4835C18.7422 35.7584 22.3067 34.9154 25.903 35.0431C29.4994 35.1709 32.9951 36.2646 36.023 38.2094" stroke="#202120" stroke-width="2.5" stroke-linecap="round" stroke-linejoin="round"/>
<path d="M14.7068 12.3894C16.5905 14.3444 18.8493 15.8993 21.348 16.9609C23.8467 18.0226 26.5338 18.5692 29.2487 18.5681C31.9996 18.5704 34.7219 18.0101 37.2483 16.9218" stroke="#202120" stroke-width="2.5" stroke-linecap="round" stroke-linejoin="round"/>
<path d="M13.0232 18.5683C13.0232 21.7955 14.3052 24.8906 16.5872 27.1726C18.8692 29.4546 21.9643 30.7366 25.1916 30.7366C28.4188 30.7366 31.5139 29.4546 33.7959 27.1726C36.0779 24.8906 37.3599 21.7955 37.3599 18.5683C37.3599 15.341 36.0779 12.2459 33.7959 9.96393C31.5139 7.68192 28.4188 6.3999 25.1916 6.3999C21.9643 6.3999 18.8692 7.68192 16.5872 9.96393C14.3052 12.2459 13.0232 15.341 13.0232 18.5683V18.5683Z" stroke="#202120" stroke-width="2.5" stroke-linecap="round" stroke-linejoin="round"/>
<path d="M58.8506 42.7346L54.0096 37.9202L37.8372 54.1114L37.8454 58.9336L42.6781 58.9254L58.8506 42.7346Z" stroke="#FF4612" stroke-width="2.5" stroke-linejoin="round"/>
<line x1="50.3951" y1="42.8734" x2="53.8974" y2="46.3757" stroke="#FF4612" stroke-width="2.5"/>
</svg>
