<svg width="64" height="64" viewBox="0 0 64 64" fill="none" xmlns="http://www.w3.org/2000/svg">
<path d="M25.2766 42.0811C25.2766 43.8636 25.9847 45.573 27.245 46.8333C28.5054 48.0937 30.2148 48.8018 31.9973 48.8018C33.7797 48.8018 35.4891 48.0937 36.7495 46.8333C38.0098 45.573 38.7179 43.8636 38.7179 42.0811C38.7179 40.2987 38.0098 38.5893 36.7495 37.3289C35.4891 36.0685 33.7797 35.3605 31.9973 35.3605C30.2148 35.3605 28.5054 36.0685 27.245 37.3289C25.9847 38.5893 25.2766 40.2987 25.2766 42.0811V42.0811Z" stroke="#FF4612" stroke-width="2.5" stroke-linecap="round" stroke-linejoin="round"/>
<path d="M42.8118 58.4026C42.0286 56.1589 40.5668 54.2144 38.6291 52.8385C36.6915 51.4626 34.3738 50.7234 31.9973 50.7234C29.6209 50.7234 27.3032 51.4626 25.3656 52.8385C23.4279 54.2144 21.9661 56.1589 21.1829 58.4026" stroke="#FF4612" stroke-width="2.5" stroke-linecap="round" stroke-linejoin="round"/>
<path d="M7.28809 12.3182C7.28809 13.2008 7.46192 14.0747 7.79966 14.8901C8.13741 15.7055 8.63245 16.4463 9.25652 17.0704C9.88059 17.6945 10.6215 18.1895 11.4369 18.5273C12.2522 18.865 13.1262 19.0388 14.0087 19.0388C14.8913 19.0388 15.7652 18.865 16.5806 18.5273C17.396 18.1895 18.1369 17.6945 18.761 17.0704C19.385 16.4463 19.8801 15.7055 20.2178 14.8901C20.5556 14.0747 20.7294 13.2008 20.7294 12.3182C20.7294 11.4356 20.5556 10.5617 20.2178 9.7463C19.8801 8.93092 19.385 8.19004 18.761 7.56597C18.1369 6.9419 17.396 6.44686 16.5806 6.10911C15.7652 5.77137 14.8913 5.59753 14.0087 5.59753C13.1262 5.59753 12.2522 5.77137 11.4369 6.10911C10.6215 6.44686 9.88059 6.9419 9.25652 7.56597C8.63245 8.19004 8.13741 8.93092 7.79966 9.7463C7.46192 10.5617 7.28809 11.4356 7.28809 12.3182V12.3182Z" stroke="#202120" stroke-width="2.5" stroke-linecap="round" stroke-linejoin="round"/>
<path d="M24.8286 28.6399C24.0458 26.3953 22.5841 24.4498 20.6462 23.0732C18.7082 21.6966 16.3899 20.957 14.0128 20.957C11.6356 20.957 9.31739 21.6966 7.37941 23.0732C5.44144 24.4498 3.97976 26.3953 3.19702 28.6399" stroke="#202120" stroke-width="2.5" stroke-linecap="round" stroke-linejoin="round"/>
<path d="M43.2649 12.3182C43.2649 14.1006 43.973 15.81 45.2333 17.0704C46.4937 18.3308 48.2031 19.0388 49.9855 19.0388C51.768 19.0388 53.4774 18.3308 54.7378 17.0704C55.9981 15.81 56.7062 14.1006 56.7062 12.3182C56.7062 10.5358 55.9981 8.82633 54.7378 7.56597C53.4774 6.3056 51.768 5.59753 49.9855 5.59753C48.2031 5.59753 46.4937 6.3056 45.2333 7.56597C43.973 8.82633 43.2649 10.5358 43.2649 12.3182V12.3182Z" stroke="#202120" stroke-width="2.5" stroke-linecap="round" stroke-linejoin="round"/>
<path d="M60.8 28.6399C60.0173 26.3953 58.5556 24.4498 56.6176 23.0732C54.6796 21.6966 52.3614 20.957 49.9842 20.957C47.6071 20.957 45.2888 21.6966 43.3509 23.0732C41.4129 24.4498 39.9512 26.3953 39.1685 28.6399" stroke="#202120" stroke-width="2.5" stroke-linecap="round" stroke-linejoin="round"/>
</svg>
