<svg width="64" height="64" viewBox="0 0 64 64" fill="none" xmlns="http://www.w3.org/2000/svg">
<path d="M30.9054 55.0736H8.00024C8.0001 51.4749 8.9689 47.9426 10.8049 44.8475C12.6409 41.7525 15.2764 39.2088 18.4346 37.4837C21.5928 35.7586 25.1572 34.9157 28.7536 35.0434C32.35 35.1711 35.8457 36.2648 38.8735 38.2096" stroke="#202120" stroke-width="2.5" stroke-linecap="round" stroke-linejoin="round"/>
<path d="M17.5574 12.3895C19.4411 14.3445 21.6999 15.8994 24.1986 16.961C26.6972 18.0227 29.3844 18.5693 32.0993 18.5682C34.8502 18.5705 37.5725 18.0103 40.0989 16.9219" stroke="#202120" stroke-width="2.5" stroke-linecap="round" stroke-linejoin="round"/>
<path d="M15.8738 18.5684C15.8738 21.7956 17.1558 24.8907 19.4378 27.1727C21.7198 29.4547 24.8149 30.7368 28.0422 30.7368C31.2694 30.7368 34.3645 29.4547 36.6465 27.1727C38.9285 24.8907 40.2105 21.7956 40.2105 18.5684C40.2105 15.3411 38.9285 12.2461 36.6465 9.96406C34.3645 7.68205 31.2694 6.40002 28.0422 6.40002C24.8149 6.40002 21.7198 7.68205 19.4378 9.96406C17.1558 12.2461 15.8738 15.3411 15.8738 18.5684V18.5684Z" stroke="#202120" stroke-width="2.5" stroke-linecap="round" stroke-linejoin="round"/>
<path d="M50.3145 58.0907C50.4042 58.0907 50.4919 58.1173 50.5664 58.1671C50.641 58.2169 50.6991 58.2878 50.7334 58.3706C50.7677 58.4535 50.7767 58.5446 50.7592 58.6326C50.7417 58.7205 50.6985 58.8013 50.6351 58.8648C50.5717 58.9282 50.4909 58.9713 50.403 58.9888C50.315 59.0063 50.2238 58.9974 50.141 58.963C50.0581 58.9287 49.9873 58.8706 49.9375 58.796C49.8877 58.7215 49.8611 58.6338 49.8611 58.5441C49.8608 58.4845 49.8724 58.4254 49.8951 58.3703C49.9178 58.3152 49.9512 58.2651 49.9934 58.223C50.0355 58.1808 50.0856 58.1474 50.1407 58.1247C50.1958 58.102 50.2549 58.0905 50.3145 58.0907" stroke="#FF4612" stroke-width="2.5" stroke-linecap="round" stroke-linejoin="round"/>
<path d="M44.8735 43.8403C44.8737 42.8594 45.139 41.8967 45.6415 41.0542C46.1439 40.2117 46.8647 39.5207 47.7277 39.0543C48.5907 38.588 49.5637 38.3635 50.5438 38.4049C51.5239 38.4462 52.4746 38.7517 53.2952 39.289C54.1159 39.8264 54.7761 40.5756 55.2058 41.4574C55.6356 42.3391 55.819 43.3207 55.7366 44.2982C55.6542 45.2757 55.309 46.2127 54.7377 47.0101C54.1664 47.8075 53.3902 48.4356 52.4911 48.828C51.8439 49.1105 51.2933 49.5756 50.9067 50.1665C50.5201 50.7574 50.3143 51.4482 50.3147 52.1543V52.9089" stroke="#FF4612" stroke-width="2.5" stroke-linecap="round" stroke-linejoin="round"/>
</svg>
