<svg width="64" height="64" viewBox="0 0 64 64" fill="none" xmlns="http://www.w3.org/2000/svg">
<path d="M39.3125 10.2829L46.3947 3.20065" stroke="#FF4612" stroke-width="2.5" stroke-linecap="round" stroke-linejoin="round"/>
<path d="M49.9395 20.9062L57.0216 13.824" stroke="#FF4612" stroke-width="2.5" stroke-linecap="round" stroke-linejoin="round"/>
<path d="M32.2281 6.74165C32.4607 6.50881 32.7369 6.3241 33.0409 6.19807C33.3449 6.07204 33.6708 6.00717 33.9999 6.00717C34.329 6.00717 34.6549 6.07204 34.9589 6.19807C35.2629 6.3241 35.5391 6.50881 35.7717 6.74165L53.4797 24.4497C53.9492 24.9193 54.2129 25.5562 54.2129 26.2202C54.2129 26.8843 53.9492 27.5212 53.4797 27.9908C51.7267 29.7588 48.7941 32.6764 45.5085 35.962C42.6827 38.5276 38.9584 39.8739 35.1454 39.7084C31.3323 39.5428 27.7387 37.8788 25.1459 35.078C22.3467 32.4854 20.6836 28.8928 20.518 25.081C20.3525 21.2691 21.6979 17.5459 24.2619 14.7204L32.2281 6.74165Z" stroke="#202120" stroke-width="2.5" stroke-linecap="round" stroke-linejoin="round"/>
<path d="M35.7725 29.7616C35.2472 30.287 34.5778 30.6449 33.8491 30.79C33.1204 30.935 32.365 30.8607 31.6786 30.5764C30.9921 30.2921 30.4053 29.8106 29.9925 29.1929C29.5797 28.5751 29.3594 27.8488 29.3594 27.1058C29.3594 26.3627 29.5797 25.6364 29.9925 25.0186C30.4053 24.4009 30.9921 23.9194 31.6786 23.6351C32.365 23.3508 33.1204 23.2765 33.8491 23.4215C34.5778 23.5666 35.2472 23.9245 35.7725 24.4499C36.4767 25.1544 36.8723 26.1097 36.8723 27.1058C36.8723 28.1018 36.4767 29.0571 35.7725 29.7616Z" stroke="#202120" stroke-width="2.5" stroke-linecap="round" stroke-linejoin="round"/>
<path d="M28.11 37.4273L22.4904 43.0444L17.1787 37.7328L22.7959 32.1131" stroke="#202120" stroke-width="2.5" stroke-linecap="round" stroke-linejoin="round"/>
<path d="M24.4656 60.8002L29.2589 56.0069C29.9802 55.2859 30.3855 54.308 30.3858 53.2881C30.386 52.2683 29.9811 51.2901 29.2601 50.5688C28.5392 49.8475 27.5612 49.4421 26.5413 49.4419C25.5215 49.4417 24.5433 49.8466 23.822 50.5675L15.2447 59.1423C14.402 60.0237 13.2761 60.5804 12.0641 60.715C10.8521 60.8497 9.63142 60.5536 8.61583 59.8786C8.0212 59.4569 7.52577 58.9105 7.16415 58.2776C6.80252 57.6447 6.58342 56.9404 6.52213 56.214C6.46084 55.4876 6.55885 54.7566 6.80931 54.072C7.05977 53.3874 7.45665 52.7658 7.97223 52.2504L19.8326 40.39" stroke="#202120" stroke-width="2.5" stroke-linecap="round" stroke-linejoin="round"/>
</svg>
