<svg width="64" height="64" viewBox="0 0 64 64" fill="none" xmlns="http://www.w3.org/2000/svg">
<path fill-rule="evenodd" clip-rule="evenodd" d="M8 7.59995C6.01154 7.59995 4.4 9.21149 4.4 11.2V20.8C4.4 22.7884 6.01154 24.4 8 24.4H19.2C19.4369 24.4 19.6685 24.4701 19.8656 24.6015L25.2 28.1577V25.6C25.2 24.9372 25.7373 24.4 26.4 24.4H33.6C35.5885 24.4 37.2 22.7884 37.2 20.8V11.2C37.2 9.21149 35.5885 7.59995 33.6 7.59995H8ZM2 11.2C2 7.88601 4.68606 5.19995 8 5.19995H33.6C36.9139 5.19995 39.6 7.88601 39.6 11.2V19.5999H47.4667C49.1481 19.5999 50.7236 20.0613 51.9127 20.8699C53.0954 21.6741 54 22.9101 54 24.4266V27.55H56C59.3415 27.55 62.05 30.2584 62.05 33.6V36.8C62.05 40.1415 59.3415 42.85 56 42.85H54V50H55.2727C57.1204 50 58.8 51.3962 58.8 53.3333C58.8 56.4486 56.0784 58.8 52.9455 58.8H11.0546C7.9216 58.8 5.20001 56.4486 5.20001 53.3333C5.20001 51.3962 6.87965 50 8.72728 50H10V26.7999H8C4.68606 26.7999 2 24.1139 2 20.8V11.2ZM51.6 42.85H46.8624L41.6135 47.349C41.2428 47.6667 40.7212 47.7396 40.2777 47.5356C39.8342 47.3316 39.55 46.8881 39.55 46.4V42.85H38.4C35.0584 42.85 32.35 40.1415 32.35 36.8V33.6C32.35 30.2584 35.0584 27.55 38.4 27.55H51.6V24.4266C51.6 23.9401 51.3107 23.3628 50.5631 22.8545C49.8219 22.3504 48.7307 21.9999 47.4667 21.9999H39.48C38.9241 24.7388 36.503 26.7999 33.6 26.7999H27.6V30.4C27.6 30.8425 27.3564 31.2491 26.9662 31.458C26.576 31.6668 26.1026 31.6439 25.7344 31.3984L18.8367 26.7999H12.4V50H26.4144C27.0772 50 27.6144 50.5372 27.6144 51.2V51.28H39.1781V51.2C39.1781 50.5372 39.7153 50 40.3781 50H51.6V42.85ZM7.60001 53.3333C7.60001 52.914 8.00429 52.4 8.72728 52.4H25.2144V52.48C25.2144 53.1427 25.7517 53.68 26.4144 53.68H40.3781C41.0408 53.68 41.5781 53.1427 41.5781 52.48V52.4H55.2727C55.9957 52.4 56.4 52.914 56.4 53.3333C56.4 54.9308 54.9538 56.4 52.9455 56.4H11.0546C9.04624 56.4 7.60001 54.9308 7.60001 53.3333ZM34.85 33.6C34.85 31.6391 36.4391 30.05 38.4 30.05H56C57.9608 30.05 59.55 31.6391 59.55 33.6V36.8C59.55 38.7608 57.9608 40.35 56 40.35H46.4C46.1016 40.35 45.813 40.4567 45.5865 40.6509L42.05 43.6822V41.6C42.05 40.9096 41.4903 40.35 40.8 40.35H38.4C36.4391 40.35 34.85 38.7608 34.85 36.8V33.6Z" fill="#202120"/>
<path fill-rule="evenodd" clip-rule="evenodd" d="M8 13.1417C8 12.4513 8.55964 11.8917 9.25 11.8917H32.35C33.0404 11.8917 33.6 12.4513 33.6 13.1417C33.6 13.8321 33.0404 14.3917 32.35 14.3917H9.25C8.55964 14.3917 8 13.8321 8 13.1417ZM38.9656 35.0974C38.9656 34.4071 39.5253 33.8474 40.2156 33.8474H55.3156C56.006 33.8474 56.5656 34.4071 56.5656 35.0974C56.5656 35.7878 56.006 36.3474 55.3156 36.3474H40.2156C39.5253 36.3474 38.9656 35.7878 38.9656 35.0974ZM22.05 16.8839C21.3596 16.8839 20.8 17.4436 20.8 18.1339C20.8 18.8243 21.3596 19.3839 22.05 19.3839H32.35C33.0403 19.3839 33.6 18.8243 33.6 18.1339C33.6 17.4436 33.0403 16.8839 32.35 16.8839H22.05Z" fill="#FF4612"/>
</svg>
