<svg width="40" height="40" viewBox="0 0 40 40" fill="none" xmlns="http://www.w3.org/2000/svg">
<path d="M30.6066 9.3934C36.4644 15.2513 36.4644 24.7487 30.6066 30.6066C24.7487 36.4644 15.2512 36.4644 9.3934 30.6066C3.53553 24.7487 3.53553 15.2512 9.3934 9.3934C15.2513 3.53553 24.7487 3.53553 30.6066 9.3934" stroke="black" stroke-width="1.5" stroke-linecap="round" stroke-linejoin="round"/>
<path fill-rule="evenodd" clip-rule="evenodd" d="M19.9701 12.054C19.9864 12.0377 20.0127 12.0377 20.029 12.054C20.0453 12.0702 20.0453 12.0966 20.029 12.1129C20.0127 12.1291 19.9864 12.1291 19.9701 12.1129C19.9538 12.0966 19.9538 12.0702 19.9701 12.054ZM21.0897 10.9933C20.4876 10.3912 19.5115 10.3912 18.9094 10.9933C18.3074 11.5953 18.3074 12.5715 18.9094 13.1735C19.5115 13.7756 20.4876 13.7756 21.0897 13.1735C21.6917 12.5715 21.6917 11.5953 21.0897 10.9933ZM11.7894 15.7872C11.9199 15.3941 12.3444 15.1812 12.7375 15.3117C14.1629 15.7849 15.9319 16.093 17.8088 16.2273C17.8242 16.2279 17.8395 16.229 17.8546 16.2306C18.5588 16.2799 19.2778 16.3047 19.9993 16.3047C20.722 16.3047 21.4422 16.2798 22.1473 16.2303C22.1608 16.229 22.1745 16.228 22.1882 16.2274C24.0655 16.0932 25.8346 15.785 27.2598 15.3117C27.6529 15.1811 28.0774 15.394 28.208 15.7871C28.3385 16.1802 28.1257 16.6047 27.7326 16.7352C26.3451 17.1961 24.7003 17.5049 22.9716 17.6676C22.9724 19.9531 22.9812 21.6392 23.078 23.0769C23.081 23.1018 23.0828 23.1271 23.0832 23.1527C23.2091 24.952 23.4767 26.3674 24.0457 28.0993C24.175 28.4928 23.9608 28.9166 23.5673 29.0459C23.1738 29.1752 22.75 28.961 22.6207 28.5675C22.0785 26.9172 21.7921 25.5184 21.6408 23.9168H18.3588C18.2075 25.5184 17.9211 26.9172 17.3789 28.5675C17.2496 28.961 16.8258 29.1752 16.4323 29.0459C16.0387 28.9166 15.8246 28.4928 15.9539 28.0993C16.5241 26.3638 16.7916 24.9462 16.9171 23.1416C16.9177 23.1235 16.919 23.1056 16.9208 23.0879C17.0183 21.6478 17.0272 19.959 17.028 17.6677C15.2987 17.505 13.6531 17.1962 12.2649 16.7353C11.8718 16.6048 11.6589 16.1803 11.7894 15.7872ZM18.4613 22.4168C18.5214 21.1142 18.5274 19.6269 18.528 17.7716C19.017 17.7937 19.5087 17.8047 19.9993 17.8047C20.4902 17.8047 20.9823 17.7937 21.4716 17.7716C21.4722 19.6268 21.4782 21.1142 21.5383 22.4168H18.4613Z" fill="#FF4612"/>
</svg>
