<svg width="40" height="40" viewBox="0 0 40 40" fill="none" xmlns="http://www.w3.org/2000/svg">
<path d="M37.1257 11.7678C37.0535 11.7678 36.9813 11.7484 36.918 11.7097C35.1844 10.7506 33.6854 10.3438 31.8885 10.3438C30.1007 10.3438 28.4031 10.7991 26.859 11.7097C26.6423 11.8356 26.3714 11.7484 26.245 11.5159C26.1276 11.2834 26.2089 10.9831 26.4256 10.8572C28.1051 9.87875 29.9472 9.375 31.8885 9.375C33.8119 9.375 35.4914 9.83031 37.3334 10.8475C37.5592 10.9734 37.6404 11.2641 37.523 11.4966C37.4418 11.6709 37.2883 11.7678 37.1257 11.7678ZM24.2043 16.8537C24.114 16.8537 24.0237 16.8247 23.9425 16.7666C23.7348 16.6116 23.6896 16.3112 23.8341 16.0884C24.7281 14.7322 25.8658 13.6666 27.2202 12.9206C30.0555 11.3512 33.6854 11.3416 36.5298 12.9109C37.8842 13.6569 39.0219 14.7128 39.9159 16.0594C40.0604 16.2725 40.0152 16.5825 39.8075 16.7375C39.5998 16.8925 39.3199 16.8441 39.1755 16.6212C38.3628 15.4006 37.3334 14.4416 36.1144 13.7731C33.5229 12.3491 30.209 12.3491 27.6266 13.7828C26.3985 14.4609 25.3692 15.4297 24.5565 16.6503C24.4843 16.7859 24.3488 16.8537 24.2043 16.8537ZM29.8478 28.5466C29.7305 28.5466 29.6131 28.4981 29.5318 28.4012C28.7462 27.5584 28.3218 27.0159 27.7169 25.8438C27.0938 24.6522 26.7687 23.1991 26.7687 21.6394C26.7687 18.7622 29.0623 16.4178 31.8795 16.4178C34.6968 16.4178 36.9903 18.7622 36.9903 21.6394C36.9903 21.9106 36.7916 22.1237 36.5388 22.1237C36.286 22.1237 36.0873 21.9106 36.0873 21.6394C36.0873 19.295 34.2001 17.3866 31.8795 17.3866C29.5589 17.3866 27.6717 19.295 27.6717 21.6394C27.6717 23.0344 27.9607 24.3228 28.5115 25.3691C29.0894 26.4831 29.4867 26.9578 30.1819 27.7134C30.3535 27.9072 30.3535 28.2075 30.1819 28.4012C30.0826 28.4981 29.9652 28.5466 29.8478 28.5466ZM36.3221 26.7544C35.2476 26.7544 34.2995 26.4637 33.5229 25.8922C32.1775 24.9137 31.3739 23.325 31.3739 21.6394C31.3739 21.3681 31.5725 21.155 31.8253 21.155C32.0782 21.155 32.2768 21.3681 32.2768 21.6394C32.2768 23.0053 32.927 24.2937 34.0286 25.0881C34.6697 25.5531 35.4191 25.7759 36.3221 25.7759C36.5388 25.7759 36.9 25.7469 37.2612 25.6791C37.505 25.6306 37.7397 25.805 37.7849 26.0762C37.83 26.3378 37.6675 26.5897 37.4147 26.6381C36.9 26.7447 36.4485 26.7544 36.3221 26.7544ZM34.5071 28.75C34.471 28.75 34.4259 28.7403 34.3898 28.7306C32.954 28.3044 32.015 27.7328 31.0307 26.6962C29.7666 25.3497 29.0713 23.5575 29.0713 21.6394C29.0713 20.07 30.3174 18.7913 31.8524 18.7913C33.3875 18.7913 34.6336 20.07 34.6336 21.6394C34.6336 22.6759 35.4733 23.5187 36.5117 23.5187C37.5501 23.5187 38.3899 22.6759 38.3899 21.6394C38.3899 17.9872 35.4552 15.0228 31.8434 15.0228C29.279 15.0228 26.9313 16.5534 25.8748 18.9269C25.5227 19.7116 25.3421 20.6319 25.3421 21.6394C25.3421 22.395 25.4053 23.5866 25.9471 25.1366C26.0373 25.3884 25.92 25.6694 25.6852 25.7566C25.4504 25.8534 25.1886 25.7178 25.1073 25.4756C24.6648 24.2066 24.4481 22.9472 24.4481 21.6394C24.4481 20.4769 24.6558 19.4209 25.0621 18.5006C26.2631 15.7978 28.9268 14.0444 31.8434 14.0444C35.9519 14.0444 39.2928 17.4447 39.2928 21.6297C39.2928 23.1991 38.0467 24.4778 36.5117 24.4778C34.9767 24.4778 33.7306 23.1991 33.7306 21.6297C33.7306 20.5931 32.8908 19.7503 31.8524 19.7503C30.814 19.7503 29.9743 20.5931 29.9743 21.6297C29.9743 23.2862 30.5702 24.8362 31.6628 25.9987C32.5206 26.9094 33.3423 27.4131 34.6155 27.7909C34.8593 27.8587 34.9947 28.13 34.9315 28.3819C34.8864 28.6047 34.6968 28.75 34.5071 28.75Z" fill="#202120"/>
<path d="M2.5 7.5V3.75C2.5 3.05964 3.05964 2.5 3.75 2.5H7.5" stroke="#FF4612" stroke-width="0.8125" stroke-linecap="round" stroke-linejoin="round"/>
<path d="M2.5 32.5V36.25C2.5 36.9404 3.05964 37.5 3.75 37.5H7.5" stroke="#FF4612" stroke-width="0.8125" stroke-linecap="round" stroke-linejoin="round"/>
<path d="M37.5 7.5V3.75C37.5 3.05964 36.9404 2.5 36.25 2.5H32.5" stroke="#FF4612" stroke-width="0.8125" stroke-linecap="round" stroke-linejoin="round"/>
<path d="M37.5 32.5V36.25C37.5 36.9404 36.9404 37.5 36.25 37.5H32.5" stroke="#FF4612" stroke-width="0.8125" stroke-linecap="round" stroke-linejoin="round"/>
<path d="M7.56217 22.2432C7.54434 22.7112 7.66183 23.1745 7.90054 23.5774C8.13926 23.9804 8.48909 24.306 8.90812 24.5152C9.32716 24.7245 9.79763 24.8085 10.2632 24.7571C10.7287 24.7058 11.1696 24.5214 11.533 24.2259L11.0933 23.6851C10.8339 23.896 10.5191 24.0277 10.1868 24.0643C9.85448 24.1009 9.51864 24.041 9.21951 23.8916C8.92039 23.7422 8.67067 23.5098 8.50026 23.2222C8.32985 22.9345 8.24599 22.6038 8.25872 22.2697L7.56217 22.2432Z" fill="#202120"/>
<path d="M10.8971 18.2375V20.2888H9.23047" stroke="#202120" stroke-width="0.480769"/>
<rect x="13.5898" y="15.4167" width="1.79487" height="1.79487" rx="0.897436" fill="#202120"/>
<rect x="4.61523" y="15.4167" width="1.79487" height="1.79487" rx="0.897436" fill="#202120"/>
<circle cx="10" cy="18.75" r="9.59375" stroke="#FF4612" stroke-width="0.8125"/>
</svg>
