<svg width="40" height="40" viewBox="0 0 40 40" fill="none" xmlns="http://www.w3.org/2000/svg">
<path fill-rule="evenodd" clip-rule="evenodd" d="M10.8854 4.24512C10.1844 4.24512 9.49015 4.3832 8.84245 4.65149C8.19474 4.91978 7.60623 5.31301 7.1105 5.80874C6.61477 6.30447 6.22153 6.89299 5.95325 7.54069C5.68496 8.18839 5.54688 8.88259 5.54688 9.58366C5.54688 10.2847 5.68496 10.9789 5.95325 11.6266C6.22153 12.2743 6.61477 12.8628 7.1105 13.3586C7.60623 13.8543 8.19474 14.2475 8.84245 14.5158C9.49015 14.7841 10.1844 14.9222 10.8854 14.9222C11.5865 14.9222 12.2807 14.7841 12.9284 14.5158C13.5761 14.2475 14.1646 13.8543 14.6603 13.3586C15.1561 12.8628 15.5493 12.2743 15.8176 11.6266C16.0859 10.9789 16.224 10.2847 16.224 9.58366C16.224 8.88259 16.0859 8.18839 15.8176 7.54069C15.5493 6.89299 15.1561 6.30447 14.6603 5.80874C14.1646 5.31301 13.5761 4.91978 12.9284 4.65149C12.2807 4.3832 11.5865 4.24512 10.8854 4.24512ZM9.44039 6.09505C9.89852 5.90529 10.3895 5.80762 10.8854 5.80762C11.3813 5.80762 11.8723 5.90529 12.3304 6.09505C12.7886 6.28482 13.2048 6.56296 13.5555 6.91359C13.9061 7.26423 14.1843 7.6805 14.374 8.13863C14.5638 8.59676 14.6615 9.08778 14.6615 9.58366C14.6615 10.0795 14.5638 10.5706 14.374 11.0287C14.1843 11.4868 13.9061 11.9031 13.5555 12.2537C13.2048 12.6044 12.7886 12.8825 12.3304 13.0723C11.8723 13.262 11.3813 13.3597 10.8854 13.3597C10.3895 13.3597 9.89852 13.262 9.44039 13.0723C8.98226 12.8825 8.56599 12.6044 8.21535 12.2537C7.86471 11.9031 7.58657 11.4868 7.39681 11.0287C7.20705 10.5706 7.10938 10.0795 7.10938 9.58366C7.10938 9.08778 7.20705 8.59676 7.39681 8.13863C7.58657 7.6805 7.86472 7.26423 8.21535 6.91359C8.56599 6.56296 8.98226 6.28482 9.44039 6.09505ZM14.6254 16.3412C13.1426 15.4552 11.3935 15.1244 9.68955 15.4077C7.98563 15.691 6.43761 16.57 5.32125 17.8881C4.205 19.206 3.59282 20.8774 3.59375 22.6046V22.6048V27.1619C3.59375 27.5933 3.94353 27.9431 4.375 27.9431H6.91136L7.5027 35.0392C7.53644 35.4442 7.87493 35.7556 8.28125 35.7556H13.4896C13.8959 35.7556 14.2344 35.4442 14.2681 35.0392L14.8595 27.9431H15.4427C15.8742 27.9431 16.224 27.5933 16.224 27.1619C16.224 26.7304 15.8742 26.3806 15.4427 26.3806H14.1406C13.7343 26.3806 13.3958 26.6921 13.3621 27.097L12.7707 34.1931H9.00011L8.40876 27.097C8.37502 26.6921 8.03653 26.3806 7.63021 26.3806H5.15625L5.15625 22.6046L5.15625 22.6041C5.15543 21.2469 5.63644 19.9335 6.51357 18.8979C7.39071 17.8623 8.60701 17.1716 9.94581 16.949C11.2846 16.7265 12.6589 16.9864 13.824 17.6825C14.989 18.3786 15.8691 19.4657 16.3075 20.7501C16.4469 21.1585 16.8909 21.3765 17.2992 21.2372C17.7076 21.0978 17.9256 20.6538 17.7863 20.2455C17.2283 18.6107 16.1082 17.2271 14.6254 16.3412Z" fill="#202120"/>
<path d="M18.6982 27.1616C18.6982 29.2336 19.5213 31.2208 20.9865 32.6859C22.4516 34.151 24.4387 34.9741 26.5107 34.9741C28.5827 34.9741 30.5699 34.151 32.035 32.6859C33.5001 31.2208 34.3232 29.2336 34.3232 27.1616C34.3232 25.0896 33.5001 23.1025 32.035 21.6373C30.5699 20.1722 28.5827 19.3491 26.5107 19.3491C24.4387 19.3491 22.4516 20.1722 20.9865 21.6373C19.5213 23.1025 18.6982 25.0896 18.6982 27.1616Z" stroke="#FF4612" stroke-width="1.5" stroke-linecap="round" stroke-linejoin="round"/>
<path d="M20.9873 32.6851L32.0355 21.637" stroke="#FF4612" stroke-width="1.5" stroke-linecap="round" stroke-linejoin="round"/>
</svg>
