<svg width="40" height="40" viewBox="0 0 40 40" fill="none" xmlns="http://www.w3.org/2000/svg">
<path d="M25.625 6.37948V18.6099L28.8393 14.6008L32.0535 17.0063V5.17676M3.125 4.48068C5.61462 4.14479 8.89603 4.60959 12.9688 5.87508C17.0415 7.1408 19.3853 8.53521 20 10.0587V35.1596C17.7613 33.4412 14.9488 32.0466 11.5625 30.9762C8.17625 29.9057 5.36375 29.4409 3.125 29.5818V4.48068Z" stroke="#202120" stroke-width="1.5" stroke-linecap="round" stroke-linejoin="round"/>
<path d="M6.69922 11.3632C8.22517 11.3254 9.88544 11.5535 11.6798 12.0473C13.4744 12.5411 15.1345 13.2748 16.6604 14.2483M6.69922 16.9412C8.22517 16.9034 9.88544 17.1316 11.6798 17.6252C13.4744 18.1192 15.1345 18.8529 16.6604 19.8261M6.69922 22.5193C8.22517 22.4815 9.88544 22.7094 11.6798 23.2032C13.4744 23.6973 15.1345 24.4309 16.6604 25.4042" stroke="#FF4612" stroke-width="1.5" stroke-linecap="round" stroke-linejoin="round"/>
<path fill-rule="evenodd" clip-rule="evenodd" d="M36.875 4.48068C34.3854 4.14479 31.104 4.60959 27.0312 5.87508C22.9585 7.1408 20.6147 8.53521 20 10.0587V35.1596C22.2387 33.4412 25.0512 32.0466 28.4375 30.9762C31.8237 29.9057 34.6362 29.4409 36.875 29.5818V4.48068Z" stroke="#202120" stroke-width="1.5" stroke-linecap="round" stroke-linejoin="round"/>
<path d="M33.301 22.5192C31.7751 22.4814 30.1148 22.7093 28.3204 23.2031C26.5258 23.6971 24.8658 24.4308 23.3398 25.404" stroke="#FF4612" stroke-width="1.5" stroke-linecap="round" stroke-linejoin="round"/>
</svg>
