<svg width="40" height="40" viewBox="0 0 40 40" fill="none" xmlns="http://www.w3.org/2000/svg">
<path d="M32.6049 24.3743L37.5579 32.9518C37.7764 33.3287 37.6023 33.5852 37.1731 33.506L31.8559 32.6066L30.0128 37.6737C29.8639 38.0822 29.5599 38.1107 29.3382 37.737L24.5879 29.7042" stroke="#202120" stroke-width="1.5" stroke-linecap="round" stroke-linejoin="round"/>
<path d="M7.39313 24.3743L2.44011 32.9518C2.22159 33.3287 2.39577 33.5852 2.82488 33.506L8.1421 32.6066L9.98682 37.6737C10.1357 38.0838 10.4397 38.1107 10.6614 37.737L15.4117 29.7137" stroke="#202120" stroke-width="1.5" stroke-linecap="round" stroke-linejoin="round"/>
<path d="M32.6668 14.6662C32.667 13.7836 32.4023 12.9213 31.9068 12.1909C31.4113 11.4606 30.708 10.8958 29.8878 10.5698C30.2367 9.75942 30.3344 8.863 30.1683 7.99649C30.0022 7.12998 29.5799 6.33325 28.956 5.70938C28.3321 5.0855 27.5354 4.66319 26.6689 4.49706C25.8024 4.33093 24.906 4.42864 24.0956 4.77754C23.7692 3.95791 23.2044 3.25505 22.4743 2.75988C21.7441 2.2647 20.8822 2 20 2C19.1178 2 18.2558 2.2647 17.5257 2.75988C16.7955 3.25505 16.2308 3.95791 15.9044 4.77754C15.0938 4.42717 14.1967 4.32831 13.3293 4.49378C12.4618 4.65925 11.6641 5.08142 11.0394 5.70558C10.4147 6.32975 9.99192 7.12714 9.82574 7.99443C9.65956 8.86172 9.75768 9.75893 10.1074 10.5698C9.28713 10.8956 8.58358 11.4601 8.08787 12.1903C7.59217 12.9206 7.32715 13.7828 7.32715 14.6654C7.32715 15.548 7.59217 16.4102 8.08787 17.1404C8.58358 17.8707 9.28713 18.4352 10.1074 18.761C9.75849 19.5714 9.66078 20.4678 9.82691 21.3343C9.99304 22.2008 10.4154 22.9975 11.0392 23.6214C11.6631 24.2453 12.4598 24.6676 13.3263 24.8337C14.1929 24.9998 15.0893 24.9021 15.8996 24.5532C16.2254 25.3735 16.79 26.0771 17.5202 26.5728C18.2504 27.0685 19.1127 27.3335 19.9952 27.3335C20.8778 27.3335 21.7401 27.0685 22.4703 26.5728C23.2005 26.0771 23.7651 25.3735 24.0908 24.5532C24.9012 24.9021 25.7976 24.9998 26.6641 24.8337C27.5306 24.6676 28.3274 24.2453 28.9512 23.6214C29.5751 22.9975 29.9974 22.2008 30.1636 21.3343C30.3297 20.4678 30.232 19.5714 29.8831 18.761C30.7041 18.4362 31.4086 17.8721 31.905 17.1419C32.4014 16.4117 32.6668 15.5491 32.6668 14.6662V14.6662Z" stroke="#FF4612" stroke-width="1.5" stroke-linecap="round" stroke-linejoin="round"/>
<path d="M26.3329 10.7075L18.8606 18.1814C18.7503 18.2918 18.6194 18.3793 18.4752 18.439C18.3311 18.4988 18.1766 18.5295 18.0206 18.5295C17.8646 18.5295 17.7101 18.4988 17.5659 18.439C17.4218 18.3793 17.2909 18.2918 17.1806 18.1814L14.457 15.4579" stroke="#202120" stroke-width="1.5" stroke-linecap="round" stroke-linejoin="round"/>
</svg>
