<svg width="40" height="40" viewBox="0 0 40 40" fill="none" xmlns="http://www.w3.org/2000/svg">
<path d="M22.956 29.6077H5.2169C4.62881 29.6077 4.06481 29.3741 3.64897 28.9582C3.23313 28.5424 2.99951 27.9784 2.99951 27.3903V5.21641C2.99951 4.62833 3.23313 4.06432 3.64897 3.64848C4.06481 3.23264 4.62881 2.99902 5.2169 2.99902H34.7821C35.3702 2.99902 35.9342 3.23264 36.35 3.64848C36.7659 4.06432 36.9995 4.62833 36.9995 5.21641V15.5642" stroke="#202120" stroke-width="1.5" stroke-linecap="round" stroke-linejoin="round"/>
<path d="M9.65137 8.17285H31.8253" stroke="#202120" stroke-width="1.5" stroke-linecap="round" stroke-linejoin="round"/>
<path d="M9.28223 13.3469H24.0648" stroke="#202120" stroke-width="1.5" stroke-linecap="round" stroke-linejoin="round"/>
<path d="M9.28223 18.5208H17.7822" stroke="#202120" stroke-width="1.5" stroke-linecap="round" stroke-linejoin="round"/>
<path d="M9.28223 23.6946H17.7822" stroke="#202120" stroke-width="1.5" stroke-linecap="round" stroke-linejoin="round"/>
<path d="M35.2768 27.4878V36.9989L30.842 33.3033L26.4072 36.9989V27.4863" stroke="#FF4612" stroke-width="1.5" stroke-linecap="round" stroke-linejoin="round"/>
<path d="M30.8424 25.1728C32.067 25.1728 33.0598 24.1801 33.0598 22.9554C33.0598 21.7308 32.067 20.738 30.8424 20.738C29.6178 20.738 28.625 21.7308 28.625 22.9554C28.625 24.1801 29.6178 25.1728 30.8424 25.1728Z" stroke="#FF4612" stroke-width="1.5" stroke-linecap="round" stroke-linejoin="round"/>
<path d="M36.3431 22.9554C36.7181 22.4924 36.944 21.9266 36.9908 21.3326C37.0377 20.7386 36.9033 20.1444 36.6055 19.6283C36.3077 19.1123 35.8604 18.6986 35.3227 18.442C34.7849 18.1854 34.182 18.0979 33.5935 18.1909C33.3797 17.6353 33.0025 17.1574 32.5116 16.8204C32.0208 16.4834 31.4394 16.303 30.844 16.303C30.2486 16.303 29.6671 16.4834 29.1763 16.8204C28.6855 17.1574 28.3083 17.6353 28.0944 18.1909C27.5059 18.0979 26.903 18.1854 26.3653 18.442C25.8275 18.6986 25.3802 19.1123 25.0824 19.6283C24.7846 20.1444 24.6503 20.7386 24.6971 21.3326C24.744 21.9266 24.9698 22.4924 25.3448 22.9554C24.9705 23.4187 24.7452 23.9845 24.6988 24.5783C24.6524 25.1722 24.787 25.7661 25.0848 26.2819C25.3827 26.7978 25.8298 27.2113 26.3673 27.4679C26.9048 27.7246 27.5075 27.8124 28.0959 27.7198C28.3097 28.2755 28.6869 28.7533 29.1778 29.0903C29.6686 29.4273 30.25 29.6077 30.8454 29.6077C31.4408 29.6077 32.0223 29.4273 32.5131 29.0903C33.0039 28.7533 33.3811 28.2755 33.595 27.7198C34.1834 27.8125 34.7861 27.7247 35.3235 27.4679C35.861 27.2112 36.308 26.7975 36.6056 26.2815C36.9032 25.7656 37.0374 25.1715 36.9906 24.5777C36.9437 23.9839 36.718 23.4183 36.3431 22.9554V22.9554Z" stroke="#FF4612" stroke-width="1.5" stroke-linecap="round" stroke-linejoin="round"/>
</svg>
