<svg width="40" height="40" viewBox="0 0 40 40" fill="none" xmlns="http://www.w3.org/2000/svg">
<line x1="4.75" y1="27.25" x2="35.25" y2="27.25" stroke="#202120" stroke-width="1.5" stroke-linecap="round"/>
<path fill-rule="evenodd" clip-rule="evenodd" d="M10.1347 14.2591C10.1347 16.059 8.7614 17.5181 7.06735 17.5181C5.3733 17.5181 4 16.059 4 14.2591C4 12.4591 5.3733 11 7.06735 11C8.7614 11 10.1347 12.4591 10.1347 14.2591ZM15.6889 17.5181C17.383 17.5181 18.7563 16.059 18.7563 14.2591C18.7563 12.4591 17.383 11 15.6889 11C13.9949 11 12.6216 12.4591 12.6216 14.2591C12.6216 16.059 13.9949 17.5181 15.6889 17.5181ZM27.3784 14.2591C27.3784 16.059 26.0051 17.5181 24.311 17.5181C22.617 17.5181 21.2437 16.059 21.2437 14.2591C21.2437 12.4591 22.617 11 24.311 11C26.0051 11 27.3784 12.4591 27.3784 14.2591ZM32.9326 17.5181C34.6266 17.5181 35.9999 16.059 35.9999 14.2591C35.9999 12.4591 34.6266 11 32.9326 11C31.2385 11 29.8652 12.4591 29.8652 14.2591C29.8652 16.059 31.2385 17.5181 32.9326 17.5181Z" fill="#FF4612"/>
</svg>
