<svg width="40" height="40" viewBox="0 0 40 40" fill="none" xmlns="http://www.w3.org/2000/svg">
<path d="M33.0728 17.8333V3.66667C33.0728 2.74619 32.3266 2 31.4062 2H5.33952C4.41904 2 3.67285 2.74619 3.67285 3.66667V36.6458H26.9478" stroke="#202120" stroke-width="1.5" stroke-linecap="round"/>
<rect x="15.9229" y="27.8667" width="4.89999" height="8.77916" rx="0.833333" stroke="#202120" stroke-width="1.5"/>
<rect x="16.3313" y="16.8833" width="4.08333" height="4.08333" rx="0.833333" stroke="#202120" stroke-width="1.5"/>
<rect x="7.75635" y="16.8833" width="4.08333" height="4.08333" rx="0.833333" stroke="#202120" stroke-width="1.5"/>
<rect x="7.75635" y="27.8667" width="4.08333" height="4.08333" rx="0.833333" stroke="#202120" stroke-width="1.5"/>
<path d="M28.9896 18.1083V17.7166C28.9896 17.2564 28.6165 16.8833 28.1562 16.8833H25.7396C25.2793 16.8833 24.9062 17.2564 24.9062 17.7166V20.1333C24.9062 20.5935 25.2793 20.9666 25.7396 20.9666H26.1312" stroke="#202120" stroke-width="1.5" stroke-linecap="round"/>
<rect x="16.3313" y="7.0835" width="4.08333" height="4.08333" rx="0.833333" stroke="#202120" stroke-width="1.5"/>
<rect x="7.75635" y="7.0835" width="4.08333" height="4.08333" rx="0.833333" stroke="#202120" stroke-width="1.5"/>
<rect x="24.9062" y="7.0835" width="4.08333" height="4.08333" rx="0.833333" stroke="#202120" stroke-width="1.5"/>
<path d="M1.42725 36.646H25.7231" stroke="#202120" stroke-width="1.5" stroke-linecap="round"/>
<line x1="26.75" y1="29.4062" x2="39.2369" y2="29.4062" stroke="#FF4612" stroke-width="1.5" stroke-linecap="round"/>
<path d="M33.156 23L33.156 35.3605" stroke="#FF4612" stroke-width="1.5" stroke-linecap="round"/>
</svg>
