<svg width="40" height="40" viewBox="0 0 40 40" fill="none" xmlns="http://www.w3.org/2000/svg">
<path d="M27.3901 12.6376L31.9843 8.07593" stroke="#202120" stroke-width="1.5" stroke-linecap="round" stroke-linejoin="round"/>
<path d="M31.0854 5.95637C31.0854 6.74044 31.3969 7.49241 31.9513 8.04683C32.5058 8.60126 33.2577 8.91273 34.0418 8.91273C34.8259 8.91273 35.5778 8.60126 36.1323 8.04683C36.6867 7.49241 36.9982 6.74044 36.9982 5.95637C36.9982 5.17229 36.6867 4.42033 36.1323 3.8659C35.5778 3.31147 34.8259 3 34.0418 3C33.2577 3 32.5058 3.31147 31.9513 3.8659C31.3969 4.42033 31.0854 5.17229 31.0854 5.95637V5.95637Z" stroke="#202120" stroke-width="1.5" stroke-linecap="round" stroke-linejoin="round"/>
<path d="M28.8115 28.8372L31.9379 31.9827" stroke="#202120" stroke-width="1.5" stroke-linecap="round" stroke-linejoin="round"/>
<path d="M31.1001 34.0418C31.1001 34.8259 31.4116 35.5778 31.966 36.1323C32.5204 36.6867 33.2724 36.9982 34.0565 36.9982C34.8405 36.9982 35.5925 36.6867 36.1469 36.1323C36.7014 35.5778 37.0128 34.8259 37.0128 34.0418C37.0128 33.2577 36.7014 32.5058 36.1469 31.9513C35.5925 31.3969 34.8405 31.0854 34.0565 31.0854C33.2724 31.0854 32.5204 31.3969 31.966 31.9513C31.4116 32.5058 31.1001 33.2577 31.1001 34.0418Z" stroke="#202120" stroke-width="1.5" stroke-linecap="round" stroke-linejoin="round"/>
<path d="M12.6083 12.6376L8.01562 8.07593" stroke="#202120" stroke-width="1.5" stroke-linecap="round" stroke-linejoin="round"/>
<path d="M3 5.95637C3 6.74044 3.31147 7.49241 3.8659 8.04683C4.42033 8.60126 5.17229 8.91273 5.95637 8.91273C6.74044 8.91273 7.49241 8.60126 8.04683 8.04683C8.60126 7.49241 8.91273 6.74044 8.91273 5.95637C8.91273 5.17229 8.60126 4.42033 8.04683 3.8659C7.49241 3.31147 6.74044 3 5.95637 3C5.17229 3 4.42033 3.31147 3.8659 3.8659C3.31147 4.42033 3 5.17229 3 5.95637V5.95637Z" stroke="#202120" stroke-width="1.5" stroke-linecap="round" stroke-linejoin="round"/>
<path d="M11.1884 28.8372L8.06055 31.9827" stroke="#202120" stroke-width="1.5" stroke-linecap="round" stroke-linejoin="round"/>
<path d="M2.98486 34.0418C2.98486 34.8259 3.29634 35.5778 3.85076 36.1323C4.40519 36.6867 5.15715 36.9982 5.94123 36.9982C6.72531 36.9982 7.47727 36.6867 8.0317 36.1323C8.58612 35.5778 8.89759 34.8259 8.89759 34.0418C8.89759 33.2577 8.58612 32.5058 8.0317 31.9513C7.47727 31.3969 6.72531 31.0854 5.94123 31.0854C5.15715 31.0854 4.40519 31.3969 3.85076 31.9513C3.29634 32.5058 2.98486 33.2577 2.98486 34.0418V34.0418Z" stroke="#202120" stroke-width="1.5" stroke-linecap="round" stroke-linejoin="round"/>
<path d="M26.6509 19.26H31.0854" stroke="#202120" stroke-width="1.5" stroke-linecap="round" stroke-linejoin="round"/>
<path d="M31.0854 19.2601C31.0854 20.0442 31.3969 20.7961 31.9513 21.3505C32.5058 21.905 33.2577 22.2164 34.0418 22.2164C34.8259 22.2164 35.5778 21.905 36.1323 21.3505C36.6867 20.7961 36.9982 20.0442 36.9982 19.2601C36.9982 18.476 36.6867 17.724 36.1323 17.1696C35.5778 16.6152 34.8259 16.3037 34.0418 16.3037C33.2577 16.3037 32.5058 16.6152 31.9513 17.1696C31.3969 17.724 31.0854 18.476 31.0854 19.2601Z" stroke="#202120" stroke-width="1.5" stroke-linecap="round" stroke-linejoin="round"/>
<path d="M13.3471 19.26H8.9126" stroke="#202120" stroke-width="1.5" stroke-linecap="round" stroke-linejoin="round"/>
<path d="M3 19.2601C3 20.0442 3.31147 20.7961 3.8659 21.3505C4.42033 21.905 5.17229 22.2164 5.95637 22.2164C6.74044 22.2164 7.49241 21.905 8.04683 21.3505C8.60126 20.7961 8.91273 20.0442 8.91273 19.2601C8.91273 18.476 8.60126 17.724 8.04683 17.1696C7.49241 16.6152 6.74044 16.3037 5.95637 16.3037C5.17229 16.3037 4.42033 16.6152 3.8659 17.1696C3.31147 17.724 3 18.476 3 19.2601V19.2601Z" stroke="#202120" stroke-width="1.5" stroke-linecap="round" stroke-linejoin="round"/>
<path d="M13.3623 26.6508C13.3623 24.8867 14.0631 23.1948 15.3106 21.9473C16.558 20.6998 18.25 19.999 20.0141 19.999C21.7783 19.999 23.4702 20.6998 24.7177 21.9473C25.9651 23.1948 26.6659 24.8867 26.6659 26.6508H13.3623Z" stroke="#FF4612" stroke-width="1.5" stroke-linecap="round" stroke-linejoin="round"/>
<path d="M15.9487 14.4561C15.9487 15.5342 16.377 16.5682 17.1393 17.3305C17.9017 18.0928 18.9356 18.5211 20.0137 18.5211C21.0918 18.5211 22.1258 18.0928 22.8881 17.3305C23.6505 16.5682 24.0787 15.5342 24.0787 14.4561C24.0787 13.378 23.6505 12.3441 22.8881 11.5817C22.1258 10.8194 21.0918 10.3911 20.0137 10.3911C18.9356 10.3911 17.9017 10.8194 17.1393 11.5817C16.377 12.3441 15.9487 13.378 15.9487 14.4561Z" stroke="#FF4612" stroke-width="1.5" stroke-linecap="round" stroke-linejoin="round"/>
</svg>
