<svg width="40" height="40" viewBox="0 0 40 40" fill="none" xmlns="http://www.w3.org/2000/svg">
<path d="M34.7334 14.3322V5.26506C34.7334 4.66388 34.4945 4.08732 34.0694 3.66221C33.6443 3.23711 33.0678 2.99829 32.4666 2.99829H5.26531C4.66412 2.99829 4.08756 3.23711 3.66246 3.66221C3.23736 4.08732 2.99854 4.66388 2.99854 5.26506V30.1996C2.99854 30.8008 3.23736 31.3773 3.66246 31.8024C4.08756 32.2275 4.66412 32.4663 5.26531 32.4663H16.5992" stroke="#202120" stroke-width="1.5" stroke-linecap="round" stroke-linejoin="round"/>
<path d="M2.99854 9.79858H34.7334" stroke="#202120" stroke-width="1.5" stroke-linecap="round" stroke-linejoin="round"/>
<path d="M7.53174 18.5991H9.79851" stroke="#202120" stroke-width="1.5" stroke-linecap="round" stroke-linejoin="round"/>
<path d="M7.53174 24.1323H9.79851" stroke="#202120" stroke-width="1.5" stroke-linecap="round" stroke-linejoin="round"/>
<path d="M14.3325 18.5991H19.2625" stroke="#202120" stroke-width="1.5" stroke-linecap="round" stroke-linejoin="round"/>
<path d="M14.3325 24.1323H17.1105" stroke="#202120" stroke-width="1.5" stroke-linecap="round" stroke-linejoin="round"/>
<path d="M31.9515 35.9721L29.6923 36.9997L27.4346 35.9721C25.9658 35.3519 24.7077 34.3202 23.8119 33.0013C22.9161 31.6824 22.4208 30.1326 22.3857 28.5386V22.8702L29.6923 20.3767L37.0004 22.8702V28.5386C36.965 30.1325 36.4695 31.6822 35.5738 33.001C34.678 34.3198 33.4201 35.3516 31.9515 35.9721V35.9721Z" stroke="#FF4612" stroke-width="1.5" stroke-linecap="round" stroke-linejoin="round"/>
<path d="M26.6592 28.628L28.8519 30.8222L33.2404 25.3381" stroke="#FF4612" stroke-width="1.5" stroke-linecap="round" stroke-linejoin="round"/>
</svg>
