<svg width="40" height="40" viewBox="0 0 40 40" fill="none" xmlns="http://www.w3.org/2000/svg">
<path fill-rule="evenodd" clip-rule="evenodd" d="M8.25 5C8.25 2.92894 9.92893 1.25 12 1.25H28C30.0711 1.25 31.75 2.92893 31.75 5V8.25H34C36.0711 8.25 37.75 9.92893 37.75 12V28C37.75 30.0711 36.0711 31.75 34 31.75H25.1608L26.7165 36.7783L27.0171 37.75H26H14H12.9829L13.2835 36.7783L14.8392 31.75H6C3.92893 31.75 2.25 30.0711 2.25 28V20.5V12C2.25 9.92893 3.92893 8.25 6 8.25H8.25V5ZM31.75 26.5318V9.75H34C35.2426 9.75 36.25 10.7574 36.25 12V26.5318H31.75ZM30.25 5V26.5318H9.75V5C9.75 3.75736 10.7574 2.75 12 2.75H28C29.2426 2.75 30.25 3.75736 30.25 5ZM8.25 9.75V26.5318H3.75V20.5V12C3.75 10.7574 4.75736 9.75 6 9.75H8.25ZM16.4094 31.75L15.0171 36.25H24.9829L23.5906 31.75H16.4094ZM6 30.25C4.76797 30.25 3.76722 29.2598 3.75022 28.0318H36.2498C36.2328 29.2598 35.232 30.25 34 30.25H6ZM14.5 7.78049H13.5C13.2239 7.78049 13 8.00434 13 8.28049V9.28049C13 9.55663 13.2239 9.78049 13.5 9.78049H14.5C14.7761 9.78049 15 9.55663 15 9.28049V8.28049C15 8.00434 14.7761 7.78049 14.5 7.78049ZM13.5 6.28049C12.3954 6.28049 11.5 7.17592 11.5 8.28049V9.28049C11.5 10.3851 12.3954 11.2805 13.5 11.2805H14.5C15.6046 11.2805 16.5 10.3851 16.5 9.28049V8.28049C16.5 7.17592 15.6046 6.28049 14.5 6.28049H13.5ZM18.5 8.53049C18.5 8.11627 18.8358 7.78049 19.25 7.78049H26.75C27.1642 7.78049 27.5 8.11627 27.5 8.53049C27.5 8.9447 27.1642 9.28049 26.75 9.28049H19.25C18.8358 9.28049 18.5 8.9447 18.5 8.53049ZM19.25 21.7805C18.8358 21.7805 18.5 22.1163 18.5 22.5305C18.5 22.9447 18.8358 23.2805 19.25 23.2805H26.75C27.1642 23.2805 27.5 22.9447 27.5 22.5305C27.5 22.1163 27.1642 21.7805 26.75 21.7805H19.25ZM14.5 21.7805H13.5C13.2239 21.7805 13 22.0043 13 22.2805V23.2805C13 23.5566 13.2239 23.7805 13.5 23.7805H14.5C14.7761 23.7805 15 23.5566 15 23.2805V22.2805C15 22.0043 14.7761 21.7805 14.5 21.7805ZM13.5 20.2805C12.3954 20.2805 11.5 21.1759 11.5 22.2805V23.2805C11.5 24.3851 12.3954 25.2805 13.5 25.2805H14.5C15.6046 25.2805 16.5 24.3851 16.5 23.2805V22.2805C16.5 21.1759 15.6046 20.2805 14.5 20.2805H13.5Z" fill="#202120"/>
<path fill-rule="evenodd" clip-rule="evenodd" d="M16.9194 15.2803C17.2123 14.9874 17.2123 14.5126 16.9194 14.2197C16.6265 13.9268 16.1517 13.9268 15.8588 14.2197L13.9142 16.1642L13.0303 15.2803C12.7374 14.9874 12.2626 14.9874 11.9697 15.2803C11.6768 15.5732 11.6768 16.0481 11.9697 16.341L13.3839 17.7552C13.6768 18.0481 14.1517 18.0481 14.4445 17.7552L16.9194 15.2803ZM19.25 14.7803C18.8358 14.7803 18.5 15.1161 18.5 15.5303C18.5 15.9445 18.8358 16.2803 19.25 16.2803H26.75C27.1642 16.2803 27.5 15.9445 27.5 15.5303C27.5 15.1161 27.1642 14.7803 26.75 14.7803H19.25Z" fill="#FF4612"/>
</svg>
