<svg width="40" height="40" viewBox="0 0 40 40" fill="none" xmlns="http://www.w3.org/2000/svg">
<path d="M29.6332 17.7324H10.3656C8.41331 17.7272 6.54248 16.9493 5.16202 15.5689C3.78155 14.1884 3.00372 12.3176 2.99854 10.3653V10.3653C3.00412 8.41318 3.78208 6.54259 5.16246 5.16221C6.54284 3.78183 8.41343 3.00387 10.3656 2.99829H29.6332C31.5852 3.00427 33.4556 3.78236 34.8359 5.16265C36.2162 6.54294 36.9943 8.41331 37.0002 10.3653V10.3653C36.9947 12.3175 36.2167 14.1881 34.8363 15.5684C33.4559 16.9488 31.5853 17.7268 29.6332 17.7324V17.7324Z" stroke="#FF4612" stroke-width="1.5" stroke-linecap="round" stroke-linejoin="round"/>
<path d="M29.6332 37.0002H10.3656C8.41331 36.995 6.54248 36.2172 5.16202 34.8367C3.78155 33.4562 3.00372 31.5854 2.99854 29.6331V29.6331C3.00412 27.681 3.78208 25.8104 5.16246 24.43C6.54284 23.0497 8.41343 22.2717 10.3656 22.2661H29.6332C31.5852 22.2721 33.4556 23.0502 34.8359 24.4305C36.2162 25.8108 36.9943 27.6811 37.0002 29.6331V29.6331C36.9947 31.5853 36.2167 33.4559 34.8363 34.8363C33.4559 36.2166 31.5853 36.9946 29.6332 37.0002V37.0002Z" stroke="#202120" stroke-width="1.5" stroke-linecap="round" stroke-linejoin="round"/>
<path d="M7.53271 10.3652C7.53271 10.7373 7.606 11.1058 7.7484 11.4495C7.8908 11.7933 8.09951 12.1057 8.36262 12.3688C8.62573 12.6319 8.93809 12.8406 9.28187 12.983C9.62564 13.1254 9.99409 13.1987 10.3662 13.1987C10.7383 13.1987 11.1067 13.1254 11.4505 12.983C11.7943 12.8406 12.1066 12.6319 12.3698 12.3688C12.6329 12.1057 12.8416 11.7933 12.984 11.4495C13.1264 11.1058 13.1997 10.7373 13.1997 10.3652C13.1997 9.99312 13.1264 9.62466 12.984 9.28089C12.8416 8.93712 12.6329 8.62476 12.3698 8.36164C12.1066 8.09853 11.7943 7.88982 11.4505 7.74742C11.1067 7.60503 10.7383 7.53174 10.3662 7.53174C9.99409 7.53174 9.62564 7.60503 9.28187 7.74742C8.93809 7.88982 8.62573 8.09853 8.36262 8.36164C8.09951 8.62476 7.8908 8.93712 7.7484 9.28089C7.606 9.62466 7.53271 9.99312 7.53271 10.3652V10.3652Z" stroke="#FF4612" stroke-width="1.5" stroke-linecap="round" stroke-linejoin="round"/>
<path d="M26.7998 29.633C26.7998 30.3845 27.0983 31.1052 27.6297 31.6366C28.1611 32.168 28.8818 32.4665 29.6333 32.4665C30.3848 32.4665 31.1055 32.168 31.6369 31.6366C32.1682 31.1052 32.4668 30.3845 32.4668 29.633C32.4668 28.8816 32.1682 28.1608 31.6369 27.6295C31.1055 27.0981 30.3848 26.7996 29.6333 26.7996C28.8818 26.7996 28.1611 27.0981 27.6297 27.6295C27.0983 28.1608 26.7998 28.8816 26.7998 29.633V29.633Z" stroke="#202120" stroke-width="1.5" stroke-linecap="round" stroke-linejoin="round"/>
</svg>
