<svg width="40" height="40" viewBox="0 0 40 40" fill="none" xmlns="http://www.w3.org/2000/svg">
<path d="M4.47754 9.9072C4.47754 10.6204 4.81118 11.3267 5.45941 11.9856C6.10764 12.6445 7.05777 13.2433 8.25555 13.7476C9.45332 14.2519 10.8753 14.652 12.4403 14.9249C14.0052 15.1978 15.6826 15.3383 17.3765 15.3383C19.0704 15.3383 20.7477 15.1978 22.3127 14.9249C23.8776 14.652 25.2996 14.2519 26.4974 13.7476C27.6952 13.2433 28.6453 12.6445 29.2935 11.9856C29.9417 11.3267 30.2754 10.6204 30.2754 9.9072C30.2754 9.19397 29.9417 8.48773 29.2935 7.8288C28.6453 7.16986 27.6952 6.57114 26.4974 6.06681C25.2996 5.56249 23.8776 5.16243 22.3127 4.88949C20.7477 4.61655 19.0704 4.47607 17.3765 4.47607C15.6826 4.47607 14.0052 4.61655 12.4403 4.88949C10.8753 5.16243 9.45332 5.56249 8.25555 6.06681C7.05777 6.57114 6.10764 7.16986 5.45941 7.8288C4.81118 8.48773 4.47754 9.19397 4.47754 9.9072V9.9072Z" stroke="#202120" stroke-width="1.5625" stroke-linecap="round" stroke-linejoin="round"/>
<path d="M18.7333 20.7394C18.2852 20.7598 17.8344 20.7693 17.3755 20.7693C10.2526 20.7693 4.47656 18.3388 4.47656 15.3381" stroke="#202120" stroke-width="1.5625" stroke-linecap="round" stroke-linejoin="round"/>
<path d="M18.7333 26.8495C18.2852 26.8699 17.8344 26.8794 17.3755 26.8794C10.2526 26.8794 4.47656 24.4489 4.47656 21.4482" stroke="#202120" stroke-width="1.5625" stroke-linecap="round" stroke-linejoin="round"/>
<path d="M30.2744 16.017V9.90698" stroke="#202120" stroke-width="1.5625" stroke-linecap="round" stroke-linejoin="round"/>
<path d="M4.47656 9.90576V27.5569C4.47656 30.5576 10.2526 32.988 17.3755 32.988C17.8344 32.988 18.2879 32.9785 18.7333 32.9582" stroke="#202120" stroke-width="1.5625" stroke-linecap="round" stroke-linejoin="round"/>
<path d="M25.1396 26.0053C25.1396 27.1077 25.5484 28.1649 26.2759 28.9444C27.0034 29.7239 27.9901 30.1618 29.019 30.1618C30.0479 30.1618 31.0346 29.7239 31.7622 28.9444C32.4897 28.1649 32.8984 27.1077 32.8984 26.0053C32.8984 24.903 32.4897 23.8458 31.7622 23.0663C31.0346 22.2868 30.0479 21.8489 29.019 21.8489C27.9901 21.8489 27.0034 22.2868 26.2759 23.0663C25.5484 23.8458 25.1396 24.903 25.1396 26.0053V26.0053Z" stroke="#FF4612" stroke-width="1.5" stroke-linecap="round" stroke-linejoin="round"/>
<path d="M35.6699 35.7036C35.1882 34.4082 34.2893 33.2855 33.0977 32.4912C31.9061 31.6968 30.4809 31.27 29.0195 31.27C27.5581 31.27 26.1328 31.6968 24.9413 32.4912C23.7497 33.2855 22.8508 34.4082 22.3691 35.7036" stroke="#FF4612" stroke-width="1.5" stroke-linecap="round" stroke-linejoin="round"/>
</svg>
