<svg width="40" height="40" viewBox="0 0 40 40" fill="none" xmlns="http://www.w3.org/2000/svg">
<path d="M25.6671 12.0667L21.1338 16.6" stroke="#202120" stroke-width="1.5" stroke-linecap="round" stroke-linejoin="round"/>
<path d="M25.667 6.39998C25.667 7.30171 26.264 8.16651 27.3267 8.80413C28.3894 9.44175 29.8307 9.79996 31.3336 9.79996C32.8365 9.79996 34.2778 9.44175 35.3405 8.80413C36.4032 8.16651 37.0003 7.30171 37.0003 6.39998C37.0003 5.49825 36.4032 4.63345 35.3405 3.99583C34.2778 3.35821 32.8365 3 31.3336 3C29.8307 3 28.3894 3.35821 27.3267 3.99583C26.264 4.63345 25.667 5.49825 25.667 6.39998V6.39998Z" stroke="#202120" stroke-width="1.5" stroke-linecap="round" stroke-linejoin="round"/>
<path d="M25.667 6.39856V13.1985C25.667 15.0753 28.2041 16.5985 31.3336 16.5985C34.4631 16.5985 37.0003 15.0753 37.0003 13.1985V6.39856" stroke="#202120" stroke-width="1.5" stroke-linecap="round" stroke-linejoin="round"/>
<path d="M20.5156 27.3151L25.667 32.4664" stroke="#202120" stroke-width="1.5" stroke-linecap="round" stroke-linejoin="round"/>
<path d="M25.667 26.7999C25.667 27.7016 26.264 28.5664 27.3267 29.204C28.3894 29.8417 29.8307 30.1999 31.3336 30.1999C32.8365 30.1999 34.2778 29.8417 35.3405 29.204C36.4032 28.5664 37.0003 27.7016 37.0003 26.7999C37.0003 25.8982 36.4032 25.0334 35.3405 24.3957C34.2778 23.7581 32.8365 23.3999 31.3336 23.3999C29.8307 23.3999 28.3894 23.7581 27.3267 24.3957C26.264 25.0334 25.667 25.8982 25.667 26.7999Z" stroke="#202120" stroke-width="1.5" stroke-linecap="round" stroke-linejoin="round"/>
<path d="M3 12.0666C3 13.2689 3.95523 14.422 5.65555 15.2722C7.35587 16.1223 9.662 16.5999 12.0666 16.5999C14.4712 16.5999 16.7774 16.1223 18.4777 15.2722C20.178 14.422 21.1332 13.2689 21.1332 12.0666C21.1332 10.8643 20.178 9.71126 18.4777 8.8611C16.7774 8.01094 14.4712 7.53333 12.0666 7.53333C9.662 7.53333 7.35587 8.01094 5.65555 8.8611C3.95523 9.71126 3 10.8643 3 12.0666V12.0666Z" stroke="#FF4612" stroke-width="1.5" stroke-linecap="round" stroke-linejoin="round"/>
<path d="M3 12.0667V18.8666C3 21.3705 7.05882 23.3999 12.0666 23.3999C17.0744 23.3999 21.1332 21.3705 21.1332 18.8666V12.0667" stroke="#FF4612" stroke-width="1.5" stroke-linecap="round" stroke-linejoin="round"/>
<path d="M3 18.8666V25.6665C3 28.1704 7.05882 30.1998 12.0666 30.1998C17.0744 30.1998 21.1332 28.1704 21.1332 25.6665V18.8666" stroke="#FF4612" stroke-width="1.5" stroke-linecap="round" stroke-linejoin="round"/>
<path d="M25.667 26.7983V33.5983C25.667 35.4751 28.2041 36.9983 31.3336 36.9983C34.4631 36.9983 37.0003 35.4751 37.0003 33.5983V26.7983" stroke="#202120" stroke-width="1.5" stroke-linecap="round" stroke-linejoin="round"/>
</svg>
