<svg width="40" height="40" viewBox="0 0 40 40" fill="none" xmlns="http://www.w3.org/2000/svg">
<path fill-rule="evenodd" clip-rule="evenodd" d="M14.4691 4.38371C14.5986 4.25417 14.7743 4.1814 14.9575 4.1814H25.0427C25.2259 4.1814 25.4016 4.25417 25.5311 4.38371C25.6607 4.51325 25.7335 4.68894 25.7335 4.87214V8.44434H14.2668V4.87214C14.2668 4.68894 14.3396 4.51325 14.4691 4.38371ZM13.5102 9.94434C13.5124 9.94436 13.5146 9.94436 13.5168 9.94436C13.519 9.94436 13.5212 9.94436 13.5234 9.94434H26.4768C26.479 9.94436 26.4813 9.94436 26.4835 9.94436C26.4857 9.94436 26.4879 9.94436 26.4901 9.94434H32.1336L29.6102 33.9095L29.6102 33.9097C29.5551 34.4333 29.3082 34.9181 28.917 35.2706C28.5258 35.623 28.018 35.8182 27.4915 35.8184H12.5082C11.9814 35.8184 11.4734 35.6234 11.0819 35.2709C10.6905 34.9184 10.4434 34.4335 10.3884 33.9097L10.3884 33.9096L7.86639 9.94434H13.5102ZM12.7668 8.44434V4.87214C12.7668 4.29112 12.9976 3.73389 13.4084 3.32305C13.8193 2.91221 14.3765 2.6814 14.9575 2.6814H25.0427C25.6237 2.6814 26.181 2.91221 26.5918 3.32305C27.0027 3.73389 27.2335 4.29112 27.2335 4.87214V8.44434H32.9562H32.9753H36.5687C36.9829 8.44434 37.3187 8.78012 37.3187 9.19434C37.3187 9.60855 36.9829 9.94434 36.5687 9.94434H33.6419L31.1019 34.0664L31.1019 34.0666C31.0081 34.9587 30.5875 35.7846 29.921 36.385C29.2545 36.9855 28.3893 37.318 27.4923 37.3184H27.4919H12.5081C11.6107 37.3184 10.7451 36.9861 10.0782 36.3856C9.41135 35.7851 8.99043 34.959 8.89663 34.0666L8.89661 34.0664L6.35811 9.94434H3.43164C3.01743 9.94434 2.68164 9.60855 2.68164 9.19434C2.68164 8.78012 3.01743 8.44434 3.43164 8.44434H7.02468H7.04379H12.7668Z" fill="#202120"/>
<path fill-rule="evenodd" clip-rule="evenodd" d="M26.5209 14.8974C26.9518 14.9179 27.2846 15.2839 27.2641 15.7149L26.5437 30.8427C26.5232 31.2737 26.1571 31.6064 25.7262 31.5859C25.2952 31.5654 24.9624 31.1994 24.983 30.7684L25.7033 15.6406C25.7238 15.2096 26.0899 14.8769 26.5209 14.8974ZM19.9998 14.8965C20.4312 14.8965 20.781 15.2463 20.781 15.6778V30.8055C20.781 31.237 20.4312 31.5868 19.9998 31.5868C19.5683 31.5868 19.2185 31.237 19.2185 30.8055V15.6778C19.2185 15.2463 19.5683 14.8965 19.9998 14.8965ZM14.297 15.6406C14.2765 15.2096 13.9104 14.8769 13.4795 14.8974C13.0485 14.9179 12.7157 15.2839 12.7363 15.7149L13.4566 30.8427C13.4771 31.2737 13.8432 31.6064 14.2741 31.5859C14.7051 31.5654 15.0379 31.1994 15.0174 30.7684L14.297 15.6406Z" fill="#FF4612"/>
</svg>
