<svg width="40" height="40" viewBox="0 0 40 40" fill="none" xmlns="http://www.w3.org/2000/svg">
<path d="M3.00024 3.00024H16.6002V16.6002H3.00024V3.00024Z" stroke="#202120" stroke-width="1.5" stroke-linecap="round" stroke-linejoin="round"/>
<path d="M23.3999 9.80021C23.3999 10.6932 23.5758 11.5774 23.9175 12.4024C24.2592 13.2275 24.7601 13.9771 25.3916 14.6085C26.023 15.2399 26.7726 15.7408 27.5976 16.0826C28.4226 16.4243 29.3069 16.6002 30.1999 16.6002C31.0929 16.6002 31.9771 16.4243 32.8021 16.0826C33.6271 15.7408 34.3767 15.2399 35.0082 14.6085C35.6396 13.9771 36.1405 13.2275 36.4822 12.4024C36.8239 11.5774 36.9998 10.6932 36.9998 9.80021C36.9998 8.90723 36.8239 8.02299 36.4822 7.19798C36.1405 6.37297 35.6396 5.62334 35.0082 4.99191C34.3767 4.36047 33.6271 3.85959 32.8021 3.51786C31.9771 3.17613 31.0929 3.00024 30.1999 3.00024C29.3069 3.00024 28.4226 3.17613 27.5976 3.51786C26.7726 3.85959 26.023 4.36047 25.3916 4.99191C24.7601 5.62334 24.2592 6.37297 23.9175 7.19798C23.5758 8.02299 23.3999 8.90723 23.3999 9.80021V9.80021Z" stroke="#202120" stroke-width="1.5" stroke-linecap="round" stroke-linejoin="round"/>
<path d="M30.2544 22.9875C30.1413 22.7702 29.9708 22.5881 29.7614 22.4609C29.5519 22.3338 29.3116 22.2666 29.0667 22.2666C28.8217 22.2666 28.5814 22.3338 28.372 22.4609C28.1625 22.5881 27.992 22.7702 27.8789 22.9875L21.3253 34.7847C21.2013 35.0104 21.1354 35.2634 21.1336 35.5208C21.1317 35.7783 21.194 36.0322 21.3147 36.2596C21.4285 36.4801 21.6001 36.6655 21.8112 36.7959C22.0223 36.9264 22.2649 36.9969 22.513 37H35.6203C35.8684 36.9969 36.111 36.9264 36.3221 36.7959C36.5332 36.6655 36.7049 36.4801 36.8186 36.2596C36.9393 36.0322 37.0016 35.7783 36.9997 35.5208C36.9979 35.2634 36.932 35.0104 36.808 34.7847L30.2544 22.9875Z" stroke="#FF4612" stroke-width="1.5" stroke-linecap="round" stroke-linejoin="round"/>
<path d="M10.7081 21.5625C10.5978 21.4289 10.4594 21.3213 10.3026 21.2474C10.1459 21.1736 9.97475 21.1353 9.80147 21.1353C9.6282 21.1353 9.45707 21.1736 9.30033 21.2474C9.14359 21.3213 9.00511 21.4289 8.89481 21.5625L3.28862 28.2673C3.1018 28.4918 2.99951 28.7746 2.99951 29.0666C2.99951 29.3587 3.1018 29.6415 3.28862 29.866L8.89179 36.5708C9.00209 36.7044 9.14057 36.812 9.29731 36.8859C9.45405 36.9597 9.62518 36.998 9.79845 36.998C9.97172 36.998 10.1429 36.9597 10.2996 36.8859C10.4563 36.812 10.5948 36.7044 10.7051 36.5708L16.3083 29.866C16.4951 29.6415 16.5974 29.3587 16.5974 29.0666C16.5974 28.7746 16.4951 28.4918 16.3083 28.2673L10.7081 21.5625Z" stroke="#202120" stroke-width="1.5" stroke-linecap="round" stroke-linejoin="round"/>
</svg>
