<svg width="40" height="40" viewBox="0 0 40 40" fill="none" xmlns="http://www.w3.org/2000/svg">
<path d="M25.4167 20L29.7501 24.3334L25.4167 28.6667" stroke="#FF4612" stroke-width="1.5" stroke-linecap="round" stroke-linejoin="round"/>
<path d="M14.5834 20L10.25 24.3334L14.5834 28.6667" stroke="#FF4612" stroke-width="1.5" stroke-linecap="round" stroke-linejoin="round"/>
<path d="M22.1666 20L17.8333 28.6667" stroke="#FF4612" stroke-width="1.5" stroke-linecap="round" stroke-linejoin="round"/>
<path d="M3.38867 7H36.6111V33.0002H3.38867V7Z" stroke="#202120" stroke-width="1.5" stroke-linecap="round" stroke-linejoin="round"/>
<path d="M3.38867 14.2224H36.6111" stroke="#202120" stroke-width="1.5" stroke-linecap="round" stroke-linejoin="round"/>
<path d="M8.44437 10.25C8.51579 10.25 8.5856 10.2712 8.64499 10.3109C8.70437 10.3505 8.75066 10.4069 8.77799 10.4729C8.80532 10.5389 8.81247 10.6115 8.79854 10.6816C8.78461 10.7516 8.75021 10.816 8.69971 10.8665C8.64921 10.917 8.58486 10.9514 8.51482 10.9653C8.44477 10.9792 8.37216 10.9721 8.30617 10.9447C8.24019 10.9174 8.18379 10.8711 8.14411 10.8117C8.10443 10.7524 8.08325 10.6825 8.08325 10.6111C8.08325 10.5153 8.1213 10.4235 8.18902 10.3558C8.25674 10.288 8.34859 10.25 8.44437 10.25" stroke="#202120" stroke-width="1.5" stroke-linecap="round" stroke-linejoin="round"/>
<path d="M12.7776 10.25C12.849 10.25 12.9189 10.2712 12.9782 10.3109C13.0376 10.3505 13.0839 10.4069 13.1112 10.4729C13.1386 10.5389 13.1457 10.6115 13.1318 10.6816C13.1179 10.7516 13.0835 10.816 13.033 10.8665C12.9825 10.917 12.9181 10.9514 12.8481 10.9653C12.778 10.9792 12.7054 10.9721 12.6394 10.9447C12.5734 10.9174 12.517 10.8711 12.4774 10.8117C12.4377 10.7524 12.4165 10.6825 12.4165 10.6111C12.4165 10.5153 12.4545 10.4235 12.5223 10.3558C12.59 10.288 12.6818 10.25 12.7776 10.25Z" stroke="#202120" stroke-width="1.5" stroke-linecap="round" stroke-linejoin="round"/>
<path d="M17.1111 10.25C17.1825 10.25 17.2524 10.2712 17.3117 10.3109C17.3711 10.3505 17.4174 10.4069 17.4447 10.4729C17.4721 10.5389 17.4792 10.6115 17.4653 10.6816C17.4514 10.7516 17.417 10.816 17.3665 10.8665C17.316 10.917 17.2516 10.9514 17.1816 10.9653C17.1115 10.9792 17.0389 10.9721 16.9729 10.9447C16.9069 10.9174 16.8505 10.8711 16.8109 10.8117C16.7712 10.7524 16.75 10.6825 16.75 10.6111C16.75 10.5153 16.788 10.4235 16.8558 10.3558C16.9235 10.288 17.0153 10.25 17.1111 10.25Z" stroke="#202120" stroke-width="1.5" stroke-linecap="round" stroke-linejoin="round"/>
</svg>
