<svg width="40" height="40" viewBox="0 0 40 40" fill="none" xmlns="http://www.w3.org/2000/svg">
<path d="M9.83333 10H7.33333C5.49238 10 4 11.4924 4 13.3333V32.0833C4 33.6942 5.30584 35 6.91667 35C8.5275 35 9.83333 33.6942 9.83333 32.0833" stroke="#202120" stroke-width="1.5" stroke-linecap="round" stroke-linejoin="round"/>
<path d="M9.8335 32.0833V7.85715C9.8335 7.09939 10.1345 6.37266 10.6703 5.83684C11.2062 5.30102 11.9329 5 12.6906 5H24.6135C25.6081 4.99999 26.5619 5.39507 27.2652 6.09833L30.4018 9.235C31.1051 9.93827 31.5002 10.8921 31.5002 11.8867V20" stroke="#FF4612" stroke-width="1.5" stroke-linecap="round" stroke-linejoin="round"/>
<path d="M25 13.5H14" stroke="#FF4612" stroke-width="1.2" stroke-linecap="round" stroke-linejoin="round"/>
<path d="M19 10.5H14" stroke="#FF4612" stroke-width="1.2" stroke-linecap="round" stroke-linejoin="round"/>
<path d="M25 17H14" stroke="#FF4612" stroke-width="1.2" stroke-linecap="round" stroke-linejoin="round"/>
<path d="M9.78797 32.7376L13.8432 22.1419C14.3369 20.8519 15.575 20 16.9563 20H32.3301C33.4273 20 34.4543 20.54 35.0762 21.444C35.6981 22.3479 35.8354 23.5 35.4432 24.5248L32.2538 32.8581C31.7601 34.1481 30.5219 35 29.1406 35H6.9165" stroke="#202120" stroke-width="1.5" stroke-linecap="round" stroke-linejoin="round"/>
</svg>
