<svg width="40" height="40" viewBox="0 0 40 40" fill="none" xmlns="http://www.w3.org/2000/svg">
<path d="M25.9219 35.2978L20.1828 34.3845C19.703 34.3084 19.2552 34.0966 18.8927 33.7742C18.5301 33.4519 18.2682 33.0325 18.1379 32.5661V32.5661C18.036 32.2014 18.0175 31.8185 18.084 31.4457C18.1504 31.073 18.3001 30.7199 18.5219 30.4125C18.7436 30.1051 19.0319 29.8513 19.3653 29.6698C19.6987 29.4883 20.0688 29.3838 20.4482 29.3639L22.4788 29.2568L18.4618 22.2089C18.1574 21.6748 18.0784 21.0422 18.2421 20.45C18.4058 19.8579 18.7989 19.3548 19.3348 19.0515C19.8707 18.7481 20.5056 18.6694 21.0998 18.8325C21.6939 18.9957 22.1988 19.3874 22.5032 19.9214L24.7986 23.9488L27.7374 22.8748C28.7703 22.4974 29.9041 22.4973 30.9371 22.8746C31.9701 23.252 32.8352 23.9823 33.3787 24.9356L36.0253 29.5791" stroke="#FF4612" stroke-width="1.5" stroke-linecap="round" stroke-linejoin="round"/>
<path d="M3 28.2498H14.6193" stroke="#202120" stroke-width="1.5" stroke-linecap="round" stroke-linejoin="round"/>
<path d="M15.0059 35.1972H5.32777C4.71144 35.1972 4.12036 34.9532 3.68455 34.5189C3.24874 34.0846 3.00391 33.4956 3.00391 32.8814V5.09146C3.00391 4.47727 3.24874 3.88823 3.68455 3.45392C4.12036 3.01962 4.71144 2.77563 5.32777 2.77563H23.9187C24.535 2.77563 25.1261 3.01962 25.5619 3.45392C25.9977 3.88823 26.2425 4.47727 26.2425 5.09146V15.5127" stroke="#202120" stroke-width="1.5" stroke-linecap="round" stroke-linejoin="round"/>
<path d="M7.65137 9.72314H12.2991V14.3548H7.65137V9.72314Z" stroke="#202120" stroke-width="1.5" stroke-linecap="round" stroke-linejoin="round"/>
<path d="M16.9478 9.72314H21.5955V14.3548H16.9478V9.72314Z" stroke="#202120" stroke-width="1.5" stroke-linecap="round" stroke-linejoin="round"/>
<path d="M7.65137 18.9863H12.2991V23.618H7.65137V18.9863Z" stroke="#202120" stroke-width="1.5" stroke-linecap="round" stroke-linejoin="round"/>
</svg>
