<svg width="40" height="40" viewBox="0 0 40 40" fill="none" xmlns="http://www.w3.org/2000/svg">
<path d="M3.02686 30.3371C3.02686 27.5595 7.08019 27.5595 7.08019 30.3371C7.08019 31.8006 5.05352 34.3339 5.05352 34.3339C5.05352 34.3339 3.02686 31.6609 3.02686 30.3371Z" fill="#FF4612"/>
<path d="M5.05322 19.1338L5.05322 29.2671" stroke="#FF4612" stroke-width="1.5"/>
<path d="M9.87776 21.4529L3.05854 18.504C2.26426 18.1605 2.25161 17.0388 3.03795 16.6775L19.3347 9.18978C19.5965 9.06948 19.8975 9.06797 20.1605 9.18564L36.8974 16.6732C37.6959 17.0304 37.6833 18.1682 36.8771 18.5077L29.8823 21.4529" stroke="#202120" stroke-width="1.5" stroke-linecap="round"/>
<path d="M10.1201 27.4329C13.6668 25.2138 25.8268 25.2138 29.8801 27.4329M10.6428 28.52C15.2945 30.6965 25.1733 30.6984 29.3996 28.5257C29.7063 28.3681 29.8801 28.0443 29.8801 27.6995C29.8801 25.0953 29.8802 22.8302 29.8802 20.229C29.8802 19.8658 29.6863 19.5282 29.3577 19.3735C24.7341 17.1961 15.2661 17.1961 10.6426 19.3735C10.3141 19.5282 10.1202 19.8651 10.1202 20.2283C10.1202 22.5004 10.1201 25.3939 10.1201 27.666C10.1201 28.0292 10.3139 28.3661 10.6428 28.52Z" stroke="#202120" stroke-width="1.5"/>
</svg>
