<svg width="40" height="40" viewBox="0 0 40 40" fill="none" xmlns="http://www.w3.org/2000/svg">
<path fill-rule="evenodd" clip-rule="evenodd" d="M22.1618 4.73267L34.6062 14.2623C35.4848 14.9351 36 15.9787 36 17.0853L35.9999 30.6667C35.9999 33.6122 33.6121 36 30.6665 36H9.33333C6.38781 36 4 33.6122 4 30.6667V17.0853C3.99999 15.9787 4.51521 14.9351 5.39378 14.2623L17.8382 4.73267C19.1139 3.75578 20.8861 3.75578 22.1618 4.73267Z" stroke="#202120" stroke-width="1.5" stroke-linecap="round" stroke-linejoin="round"/>
<path d="M35.8051 15.9309L22.1619 26.3785C20.8863 27.3554 19.1141 27.3554 17.8385 26.3785L4.19531 15.9309" stroke="#202120" stroke-width="1.5" stroke-linecap="round" stroke-linejoin="round"/>
<path d="M23.5556 16.4445L20 19.1111" stroke="#FF4612" stroke-width="1.5" stroke-linecap="round" stroke-linejoin="round"/>
<path d="M16.4443 16.4445L19.9999 19.1111" stroke="#FF4612" stroke-width="1.5" stroke-linecap="round" stroke-linejoin="round"/>
<path d="M20 12V19.1111" stroke="#FF4612" stroke-width="1.5" stroke-linecap="round" stroke-linejoin="round"/>
</svg>
