<svg width="40" height="40" viewBox="0 0 40 40" fill="none" xmlns="http://www.w3.org/2000/svg">
<path fill-rule="evenodd" clip-rule="evenodd" d="M16.5347 29.3782L30.4382 15.4796C31.0786 14.8395 32.1154 14.8395 32.7541 15.4796L34.5197 17.2446C35.1601 17.8847 35.1601 18.9211 34.5197 19.5596L20.6129 33.4615C20.1822 33.8921 19.6401 34.1933 19.0488 34.3325L16.3497 34.9694C15.557 35.156 14.8445 34.4455 15.0296 33.6514L15.6618 30.9483C15.801 30.354 16.104 29.8104 16.5347 29.3782V29.3782Z" stroke="#FF4612" stroke-width="1.5" stroke-linecap="round" stroke-linejoin="round"/>
<path d="M28.125 18.5399L31.25 21.6638" stroke="#FF4612" stroke-width="1.5" stroke-linecap="round" stroke-linejoin="round"/>
<path d="M11.6665 21.6662H15.2082" stroke="#202120" stroke-width="1.5" stroke-linecap="round" stroke-linejoin="round"/>
<path d="M11.6665 13.3329H21.8748" stroke="#202120" stroke-width="1.5" stroke-linecap="round" stroke-linejoin="round"/>
<path d="M31.6667 11.2495V9.99951C31.6667 7.23784 29.4283 4.99951 26.6667 4.99951H10C7.23833 4.99951 5 7.23784 5 9.99951V24.9995C5 27.7612 7.23833 29.9995 10 29.9995H11.875" stroke="#202120" stroke-width="1.5" stroke-linecap="round" stroke-linejoin="round"/>
</svg>
