<svg width="40" height="40" viewBox="0 0 40 40" fill="none" xmlns="http://www.w3.org/2000/svg">
<path d="M17.3333 2.19617C18.2035 2.06695 19.0939 2 20 2C29.9411 2 38 10.0589 38 20C38 29.9411 29.9411 38 20 38C10.0589 38 2 29.9411 2 20C2 19.1974 2.05253 18.4071 2.15433 17.6323" stroke="#202120" stroke-width="1.5" stroke-linecap="round"/>
<path d="M19.8389 9.75012V22.0001L28.1355 25.2544" stroke="#202120" stroke-width="1.5" stroke-linecap="round" stroke-linejoin="round"/>
<path fill-rule="evenodd" clip-rule="evenodd" d="M8 15C11.866 15 15 11.866 15 8C15 4.13401 11.866 1 8 1C4.13401 1 1 4.13401 1 8C1 11.866 4.13401 15 8 15ZM9.75381 5.18908C10.0059 4.93697 10.4146 4.93697 10.6668 5.18908C10.9189 5.44118 10.9189 5.84992 10.6668 6.10202L8.84086 7.92792L10.6668 9.75381C10.9189 10.0059 10.9189 10.4147 10.6668 10.6668C10.4146 10.9189 10.0059 10.9189 9.7538 10.6668L7.92791 8.84087L6.10202 10.6668C5.84991 10.9189 5.44117 10.9189 5.18907 10.6668C4.93697 10.4147 4.93697 10.0059 5.18907 9.75381L7.01496 7.92792L5.18907 6.10203C4.93697 5.84992 4.93697 5.44118 5.18907 5.18908C5.44117 4.93697 5.84991 4.93697 6.10202 5.18908L7.92791 7.01497L9.75381 5.18908Z" fill="#FF4612"/>
</svg>
