<svg width="40" height="40" viewBox="0 0 40 40" fill="none" xmlns="http://www.w3.org/2000/svg">
<g clip-path="url(#clip0_1331_1516)">
<path d="M29.7819 20.8152C29.7819 23.4097 28.7513 25.8979 26.9167 27.7325C25.0821 29.5671 22.5939 30.5977 19.9994 30.5977C17.4049 30.5977 14.9166 29.5671 13.082 27.7325C11.2475 25.8979 10.2168 23.4097 10.2168 20.8152V17.5543C10.2168 14.9598 11.2475 12.4716 13.082 10.637C14.9166 8.80239 17.4049 7.77173 19.9994 7.77173C22.5939 7.77173 25.0821 8.80239 26.9167 10.637C28.7513 12.4716 29.7819 14.9598 29.7819 17.5543V20.8152Z" stroke="#202120" stroke-width="1.5" stroke-linecap="round" stroke-linejoin="round"/>
<path d="M17.1466 19.9999C17.3885 19.9999 17.6249 20.0716 17.826 20.206C18.0271 20.3403 18.1838 20.5313 18.2764 20.7547C18.3689 20.9782 18.3932 21.2241 18.346 21.4613C18.2988 21.6985 18.1823 21.9164 18.0113 22.0874C17.8403 22.2584 17.6224 22.3748 17.3852 22.422C17.148 22.4692 16.9021 22.445 16.6787 22.3524C16.4553 22.2599 16.2643 22.1032 16.1299 21.9021C15.9955 21.701 15.9238 21.4646 15.9238 21.2227C15.9238 20.8984 16.0527 20.5874 16.282 20.358C16.5113 20.1287 16.8223 19.9999 17.1466 19.9999Z" fill="#202120"/>
<path d="M22.8537 19.9999C23.0955 19.9999 23.3319 20.0716 23.533 20.206C23.7341 20.3403 23.8909 20.5313 23.9834 20.7547C24.076 20.9782 24.1002 21.2241 24.053 21.4613C24.0058 21.6985 23.8894 21.9164 23.7183 22.0874C23.5473 22.2584 23.3294 22.3748 23.0922 22.422C22.855 22.4692 22.6092 22.445 22.3857 22.3524C22.1623 22.2599 21.9713 22.1032 21.8369 21.9021C21.7026 21.701 21.6309 21.4646 21.6309 21.2227C21.6309 20.8984 21.7597 20.5874 21.989 20.358C22.2183 20.1287 22.5294 19.9999 22.8537 19.9999Z" fill="#202120"/>
<path d="M22.3052 24.751C21.6937 25.3623 20.8644 25.7057 19.9998 25.7057C19.1351 25.7057 18.3058 25.3623 17.6943 24.751" stroke="#202120" stroke-width="1.5" stroke-linecap="round" stroke-linejoin="round"/>
<path d="M29.7819 18.3696C29.7819 18.3696 23.2602 18.3696 19.9994 13.4783C16.7385 18.3696 10.2168 18.3696 10.2168 18.3696" stroke="#202120" stroke-width="1.5" stroke-linecap="round" stroke-linejoin="round"/>
<path d="M1.25 11.0326V6.14128C1.25 4.84403 1.76533 3.59992 2.68262 2.68262C3.59992 1.76533 4.84404 1.25 6.14128 1.25H11.0326" stroke="#FF4612" stroke-width="1.5" stroke-linecap="round" stroke-linejoin="round"/>
<path d="M38.7494 11.0326V6.14128C38.7494 4.84403 38.234 3.59992 37.3167 2.68262C36.3994 1.76533 35.1553 1.25 33.8581 1.25H28.9668" stroke="#FF4612" stroke-width="1.5" stroke-linecap="round" stroke-linejoin="round"/>
<path d="M1.25 28.9673V33.8586C1.25 35.1558 1.76533 36.3999 2.68262 37.3172C3.59992 38.2345 4.84404 38.7499 6.14128 38.7499H11.0326" stroke="#FF4612" stroke-width="1.5" stroke-linecap="round" stroke-linejoin="round"/>
<path d="M38.7494 28.9673V33.8586C38.7494 35.1558 38.234 36.3999 37.3167 37.3172C36.3994 38.2345 35.1553 38.7499 33.8581 38.7499H28.9668" stroke="#FF4612" stroke-width="1.5" stroke-linecap="round" stroke-linejoin="round"/>
</g>
<defs>
<clipPath id="clip0_1331_1516">
<rect width="40" height="40" fill="white"/>
</clipPath>
</defs>
</svg>
