<svg width="40" height="40" viewBox="0 0 40 40" fill="none" xmlns="http://www.w3.org/2000/svg">
<path d="M15.4008 26.5003C15.3674 27.3761 15.5873 28.243 16.034 28.9972C16.4807 29.7513 17.1354 30.3606 17.9196 30.7521C18.7037 31.1437 19.5842 31.3009 20.4554 31.2048C21.3266 31.1088 22.1517 30.7636 22.8317 30.2107L22.0088 29.1986C21.5234 29.5933 20.9344 29.8397 20.3125 29.9083C19.6906 29.9768 19.0621 29.8646 18.5023 29.5851C17.9425 29.3056 17.4752 28.8706 17.1563 28.3323C16.8374 27.794 16.6805 27.1752 16.7043 26.5499L15.4008 26.5003Z" fill="#202120"/>
<path d="M21.6434 19.004V22.8427H18.5244" stroke="#202120" stroke-width="1.1996"/>
<rect x="26.6816" y="13.7258" width="3.35887" height="3.35887" rx="1.67944" fill="#202120"/>
<rect x="9.88672" y="13.7258" width="3.35887" height="3.35887" rx="1.67944" fill="#202120"/>
<circle cx="19.9637" cy="19.9637" r="17.9637" stroke="#FF4612" stroke-width="1.5"/>
</svg>
