<svg width="40" height="40" viewBox="0 0 40 40" fill="none" xmlns="http://www.w3.org/2000/svg">
<path d="M30.8753 11.4988L27.2685 4.28516C27.1321 4.01218 26.9432 3.76874 26.7127 3.56877C26.4822 3.36879 26.2146 3.2162 25.9251 3.1197C25.6356 3.0232 25.3299 2.98468 25.0255 3.00635C24.7211 3.02803 24.424 3.10946 24.1511 3.24601L7.64551 11.4988" stroke="#FF4612" stroke-width="1.5" stroke-linecap="round" stroke-linejoin="round"/>
<path d="M35.5217 30.0827V32.4056C35.5217 33.6378 35.0322 34.8195 34.161 35.6908C33.2897 36.5621 32.108 37.0516 30.8758 37.0516H7.64596C6.41378 37.0516 5.23206 36.5621 4.36077 35.6908C3.48948 34.8195 3 33.6378 3 32.4056V16.1447C3 14.9126 3.48948 13.7308 4.36077 12.8596C5.23206 11.9883 6.41378 11.4988 7.64596 11.4988H30.8758C32.108 11.4988 33.2897 11.9883 34.161 12.8596C35.0322 13.7308 35.5217 14.9126 35.5217 16.1447V18.4677" stroke="#202120" stroke-width="1.5" stroke-linecap="round" stroke-linejoin="round"/>
<path d="M35.5221 30.0827C36.1382 30.0827 36.7291 29.8379 37.1647 29.4023C37.6004 28.9667 37.8451 28.3758 37.8451 27.7597V20.7908C37.8451 20.1747 37.6004 19.5838 37.1647 19.1482C36.7291 18.7125 36.1382 18.4678 35.5221 18.4678H29.7147C28.1744 18.4678 26.6973 19.0796 25.6082 20.1687C24.5191 21.2578 23.9072 22.735 23.9072 24.2752C23.9072 25.8155 24.5191 27.2926 25.6082 28.3817C26.6973 29.4708 28.1744 30.0827 29.7147 30.0827H35.5221Z" stroke="#202120" stroke-width="1.5" stroke-linecap="round" stroke-linejoin="round"/>
<path d="M29.714 23.6948C29.8289 23.6948 29.9412 23.7289 30.0367 23.7927C30.1322 23.8565 30.2066 23.9472 30.2506 24.0533C30.2945 24.1594 30.306 24.2762 30.2836 24.3889C30.2612 24.5015 30.2059 24.605 30.1247 24.6862C30.0435 24.7674 29.94 24.8227 29.8273 24.8452C29.7147 24.8676 29.5979 24.8561 29.4918 24.8121C29.3857 24.7682 29.295 24.6937 29.2312 24.5982C29.1674 24.5027 29.1333 24.3904 29.1333 24.2756C29.1333 24.1215 29.1945 23.9738 29.3034 23.8649C29.4123 23.756 29.56 23.6948 29.714 23.6948" stroke="#202120" stroke-width="1.5" stroke-linecap="round" stroke-linejoin="round"/>
</svg>
