<svg width="40" height="40" viewBox="0 0 40 40" fill="none" xmlns="http://www.w3.org/2000/svg">
<path d="M4.42334 15.2278C5.7223 12.3803 7.82625 9.97519 10.4757 8.30911C13.1252 6.64303 16.2044 5.7888 19.3336 5.85177C20.66 5.86587 21.9802 6.03411 23.2678 6.35311L26.7931 2.31043C26.977 2.1567 27.199 2.05546 27.4356 2.01739C27.6723 1.97932 27.9148 2.00583 28.1376 2.09413C28.3605 2.18242 28.5553 2.32923 28.7017 2.51906C28.848 2.70888 28.9404 2.93469 28.9691 3.17266L29.602 9.34333C32.0071 11.1686 33.7912 13.6908 34.7113 16.5665H38.0002V27.2829H33.5736C32.6592 28.9157 31.4472 30.3628 30.0002 31.5496C28.4629 32.8234 26.6986 33.7952 24.8002 34.4136" stroke="#202120" stroke-width="1.5" stroke-linecap="round" stroke-linejoin="round"/>
<path d="M2 23.3508C2 24.6769 3.00089 25.9487 4.78249 26.8864C6.56408 27.824 8.98044 28.3508 11.5 28.3508C14.0196 28.3508 16.4359 27.824 18.2175 26.8864C19.9991 25.9487 21 24.6769 21 23.3508C21 22.0247 19.9991 20.753 18.2175 19.8153C16.4359 18.8776 14.0196 18.3508 11.5 18.3508C8.98044 18.3508 6.56408 18.8776 4.78249 19.8153C3.00089 20.753 2 22.0247 2 23.3508V23.3508Z" stroke="#FF4612" stroke-width="1.5" stroke-linecap="round" stroke-linejoin="round"/>
<path d="M21 23.3508V33.3508C21 36.1125 16.7472 38.3508 11.5 38.3508C6.25283 38.3508 2 36.1125 2 33.3508V23.3508" stroke="#FF4612" stroke-width="1.5" stroke-linecap="round" stroke-linejoin="round"/>
<path d="M2 28.3508C2 31.1125 6.25283 33.3508 11.5 33.3508C16.7472 33.3508 21 31.1125 21 28.3508" stroke="#FF4612" stroke-width="1.5" stroke-linecap="round" stroke-linejoin="round"/>
<path d="M27.2504 13.9976C27.0032 13.9976 26.7615 14.0709 26.556 14.2082C26.3504 14.3455 26.1902 14.5408 26.0956 14.7691C26.001 14.9975 25.9763 15.2488 26.0245 15.4913C26.0727 15.7337 26.1918 15.9565 26.3666 16.1313C26.5414 16.3061 26.7641 16.4251 27.0065 16.4733C27.249 16.5216 27.5003 16.4968 27.7287 16.4022C27.9571 16.3076 28.1523 16.1474 28.2896 15.9419C28.427 15.7363 28.5003 15.4947 28.5003 15.2475C28.5003 14.916 28.3686 14.598 28.1342 14.3636C27.8998 14.1292 27.5819 13.9976 27.2504 13.9976Z" fill="#202120"/>
<path d="M28.5908 32.5859L30.0006 37.9975" stroke="#202120" stroke-width="1.5" stroke-linecap="round" stroke-linejoin="round"/>
</svg>
