<svg width="40" height="40" viewBox="0 0 40 40" fill="none" xmlns="http://www.w3.org/2000/svg">
<path d="M15.718 24.9554L16.6695 21.1241C16.7068 20.9742 16.6989 20.8167 16.6468 20.6713C16.5947 20.526 16.5008 20.3992 16.3769 20.3071L13.206 17.9642C13.1026 17.8875 12.9818 17.8375 12.8544 17.8187C12.7269 17.7999 12.5969 17.8128 12.4756 17.8563C12.3544 17.8998 12.2458 17.9726 12.1594 18.0681C12.0731 18.1636 12.0116 18.279 11.9806 18.404L11.029 22.2353C10.9917 22.3852 10.9996 22.5427 11.0517 22.6881C11.1038 22.8335 11.1977 22.9602 11.3217 23.0523L14.4925 25.3999C14.5963 25.4766 14.7174 25.5264 14.8451 25.545C14.9728 25.5635 15.1031 25.5502 15.2244 25.5062C15.3457 25.4622 15.4542 25.3889 15.5403 25.2928C15.6265 25.1967 15.6875 25.0808 15.718 24.9554V24.9554Z" stroke="#202120" stroke-width="1.5" stroke-linecap="round" stroke-linejoin="round"/>
<path d="M22.6668 20.764L18.2486 8.45625C18.1779 8.26159 18.033 8.10286 17.8456 8.01486C17.6581 7.92685 17.4434 7.91673 17.2485 7.98673L2.51802 13.2689C2.32335 13.3395 2.16463 13.4844 2.07662 13.6719C1.98862 13.8594 1.9785 14.0741 2.04849 14.269L9.44974 34.8951C9.52037 35.0902 9.66555 35.2492 9.85337 35.3372C10.0412 35.4253 10.2563 35.4351 10.4514 35.3646L20.4475 31.7744" stroke="#202120" stroke-width="1.5" stroke-linecap="round" stroke-linejoin="round"/>
<path d="M23.7045 14.5117C23.3539 16.0376 24.7015 17.1535 26.2274 17.5057C27.7534 17.8578 29.4546 17.4431 29.8067 15.9187C30.1589 14.3943 27.6344 11.4019 27.6344 11.4019C27.6344 11.4019 24.0567 12.9873 23.7045 14.5117Z" stroke="#202120" stroke-width="1.5" stroke-linecap="round" stroke-linejoin="round"/>
<path d="M26.2272 17.5056L25.875 19.0303" stroke="#202120" stroke-width="1.5" stroke-linecap="round" stroke-linejoin="round"/>
<path d="M34.3139 20.7437L37.6005 6.47172C37.6237 6.37152 37.6269 6.26774 37.61 6.1663C37.593 6.06486 37.5562 5.96775 37.5017 5.88054C37.4472 5.79332 37.3761 5.71771 37.2923 5.65802C37.2086 5.59833 37.1139 5.55574 37.0136 5.53267L21.7651 2.02064C21.6649 1.99745 21.5611 1.99424 21.4597 2.01119C21.3582 2.02814 21.2611 2.06493 21.1739 2.11944C21.0867 2.17394 21.0111 2.24511 20.9514 2.32886C20.8917 2.41262 20.8491 2.50732 20.8261 2.60754L18.998 10.5409" stroke="#202120" stroke-width="1.5" stroke-linecap="round" stroke-linejoin="round"/>
<path d="M33.5569 7.9585C33.4531 7.9585 33.3535 7.99973 33.2801 8.07312C33.2068 8.14651 33.1655 8.24605 33.1655 8.34984" stroke="#202120" stroke-width="1.5" stroke-linecap="round" stroke-linejoin="round"/>
<path d="M33.948 8.34984C33.948 8.24605 33.9068 8.14651 33.8334 8.07312C33.76 7.99973 33.6604 7.9585 33.5566 7.9585" stroke="#202120" stroke-width="1.5" stroke-linecap="round" stroke-linejoin="round"/>
<path d="M33.5566 8.7412C33.6604 8.7412 33.76 8.69996 33.8334 8.62657C33.9068 8.55318 33.948 8.45364 33.948 8.34985" stroke="#202120" stroke-width="1.5" stroke-linecap="round" stroke-linejoin="round"/>
<path d="M33.1655 8.34985C33.1655 8.45364 33.2068 8.55318 33.2801 8.62657C33.3535 8.69996 33.4531 8.7412 33.5569 8.7412" stroke="#202120" stroke-width="1.5" stroke-linecap="round" stroke-linejoin="round"/>
<path d="M11.8381 30.7368C11.7343 30.7368 11.6348 30.778 11.5614 30.8514C11.488 30.9248 11.4468 31.0244 11.4468 31.1282" stroke="#202120" stroke-width="1.5" stroke-linecap="round" stroke-linejoin="round"/>
<path d="M12.2292 31.1282C12.2294 31.0767 12.2195 31.0257 12.1999 30.9782C12.1803 30.9306 12.1515 30.8874 12.1151 30.851C12.0787 30.8146 12.0355 30.7858 11.9879 30.7662C11.9403 30.7466 11.8893 30.7366 11.8379 30.7368" stroke="#202120" stroke-width="1.5" stroke-linecap="round" stroke-linejoin="round"/>
<path d="M11.8379 31.5193C11.8893 31.5195 11.9403 31.5095 11.9879 31.4899C12.0355 31.4703 12.0787 31.4415 12.1151 31.4051C12.1515 31.3687 12.1803 31.3255 12.1999 31.2779C12.2195 31.2304 12.2294 31.1794 12.2292 31.1279" stroke="#202120" stroke-width="1.5" stroke-linecap="round" stroke-linejoin="round"/>
<path d="M11.4468 31.1279C11.4468 31.2317 11.488 31.3313 11.5614 31.4047C11.6348 31.478 11.7343 31.5193 11.8381 31.5193" stroke="#202120" stroke-width="1.5" stroke-linecap="round" stroke-linejoin="round"/>
<path d="M15.8591 11.832C15.7553 11.832 15.6558 11.8733 15.5824 11.9467C15.509 12.02 15.4678 12.1196 15.4678 12.2234" stroke="#202120" stroke-width="1.5" stroke-linecap="round" stroke-linejoin="round"/>
<path d="M16.2502 12.2234C16.2504 12.1719 16.2405 12.1209 16.2209 12.0734C16.2013 12.0258 16.1725 11.9826 16.1361 11.9462C16.0997 11.9098 16.0565 11.881 16.0089 11.8614C15.9613 11.8418 15.9103 11.8318 15.8589 11.832" stroke="#202120" stroke-width="1.5" stroke-linecap="round" stroke-linejoin="round"/>
<path d="M15.8589 12.6147C15.9103 12.6149 15.9613 12.605 16.0089 12.5854C16.0565 12.5658 16.0997 12.537 16.1361 12.5006C16.1725 12.4642 16.2013 12.421 16.2209 12.3734C16.2405 12.3258 16.2504 12.2748 16.2502 12.2234" stroke="#202120" stroke-width="1.5" stroke-linecap="round" stroke-linejoin="round"/>
<path d="M15.4678 12.2234C15.4678 12.3272 15.509 12.4267 15.5824 12.5001C15.6558 12.5735 15.7553 12.6147 15.8591 12.6147" stroke="#202120" stroke-width="1.5" stroke-linecap="round" stroke-linejoin="round"/>
<path d="M23.9111 23.9114H37.9968V37.9971H23.9111V23.9114Z" stroke="#FF4612" stroke-width="1.5" stroke-linecap="round" stroke-linejoin="round"/>
<path d="M30.9536 30.563C31.0574 30.563 31.1569 30.6042 31.2303 30.6776C31.3037 30.751 31.345 30.8505 31.345 30.9543" stroke="#FF4612" stroke-width="1.5" stroke-linecap="round" stroke-linejoin="round"/>
<path d="M30.5625 30.9543C30.5625 30.8505 30.6037 30.751 30.6771 30.6776C30.7505 30.6042 30.8501 30.563 30.9538 30.563" stroke="#FF4612" stroke-width="1.5" stroke-linecap="round" stroke-linejoin="round"/>
<path d="M30.9538 31.3454C30.8501 31.3454 30.7505 31.3042 30.6771 31.2308C30.6037 31.1574 30.5625 31.0579 30.5625 30.9541" stroke="#FF4612" stroke-width="1.5" stroke-linecap="round" stroke-linejoin="round"/>
<path d="M31.345 30.9541C31.345 31.0579 31.3037 31.1574 31.2303 31.2308C31.1569 31.3042 31.0574 31.3454 30.9536 31.3454" stroke="#FF4612" stroke-width="1.5" stroke-linecap="round" stroke-linejoin="round"/>
<path d="M27.8242 27.4329C27.928 27.4329 28.0276 27.4741 28.1009 27.5475C28.1743 27.6209 28.2156 27.7204 28.2156 27.8242" stroke="#FF4612" stroke-width="1.5" stroke-linecap="round" stroke-linejoin="round"/>
<path d="M27.4326 27.8242C27.4326 27.7204 27.4738 27.6209 27.5472 27.5475C27.6206 27.4741 27.7202 27.4329 27.824 27.4329" stroke="#FF4612" stroke-width="1.5" stroke-linecap="round" stroke-linejoin="round"/>
<path d="M27.824 28.2153C27.7202 28.2153 27.6206 28.1741 27.5472 28.1007C27.4738 28.0273 27.4326 27.9278 27.4326 27.824" stroke="#FF4612" stroke-width="1.5" stroke-linecap="round" stroke-linejoin="round"/>
<path d="M28.2156 27.824C28.2156 27.9278 28.1743 28.0273 28.1009 28.1007C28.0276 28.1741 27.928 28.2153 27.8242 28.2153" stroke="#FF4612" stroke-width="1.5" stroke-linecap="round" stroke-linejoin="round"/>
<path d="M34.084 27.4329C34.1878 27.4329 34.2873 27.4741 34.3607 27.5475C34.4341 27.6209 34.4753 27.7204 34.4753 27.8242" stroke="#FF4612" stroke-width="1.5" stroke-linecap="round" stroke-linejoin="round"/>
<path d="M33.6934 27.8242C33.6934 27.7204 33.7346 27.6209 33.808 27.5475C33.8814 27.4741 33.9809 27.4329 34.0847 27.4329" stroke="#FF4612" stroke-width="1.5" stroke-linecap="round" stroke-linejoin="round"/>
<path d="M34.0847 28.2153C33.9809 28.2153 33.8814 28.1741 33.808 28.1007C33.7346 28.0273 33.6934 27.9278 33.6934 27.824" stroke="#FF4612" stroke-width="1.5" stroke-linecap="round" stroke-linejoin="round"/>
<path d="M34.4753 27.824C34.4753 27.9278 34.4341 28.0273 34.3607 28.1007C34.2873 28.1741 34.1878 28.2153 34.084 28.2153" stroke="#FF4612" stroke-width="1.5" stroke-linecap="round" stroke-linejoin="round"/>
<path d="M27.8242 33.6931C27.928 33.6931 28.0276 33.7343 28.1009 33.8077C28.1743 33.8811 28.2156 33.9807 28.2156 34.0845" stroke="#FF4612" stroke-width="1.5" stroke-linecap="round" stroke-linejoin="round"/>
<path d="M27.4326 34.0845C27.4326 33.9807 27.4738 33.8811 27.5472 33.8077C27.6206 33.7343 27.7202 33.6931 27.824 33.6931" stroke="#FF4612" stroke-width="1.5" stroke-linecap="round" stroke-linejoin="round"/>
<path d="M27.824 34.4758C27.7202 34.4758 27.6206 34.4346 27.5472 34.3612C27.4738 34.2878 27.4326 34.1883 27.4326 34.0845" stroke="#FF4612" stroke-width="1.5" stroke-linecap="round" stroke-linejoin="round"/>
<path d="M28.2156 34.0845C28.2156 34.1883 28.1743 34.2878 28.1009 34.3612C28.0276 34.4346 27.928 34.4758 27.8242 34.4758" stroke="#FF4612" stroke-width="1.5" stroke-linecap="round" stroke-linejoin="round"/>
<path d="M34.084 33.6931C34.1878 33.6931 34.2873 33.7343 34.3607 33.8077C34.4341 33.8811 34.4753 33.9807 34.4753 34.0845" stroke="#FF4612" stroke-width="1.5" stroke-linecap="round" stroke-linejoin="round"/>
<path d="M33.6934 34.0845C33.6934 33.9807 33.7346 33.8811 33.808 33.8077C33.8814 33.7343 33.9809 33.6931 34.0847 33.6931" stroke="#FF4612" stroke-width="1.5" stroke-linecap="round" stroke-linejoin="round"/>
<path d="M34.0847 34.4758C33.9809 34.4758 33.8814 34.4346 33.808 34.3612C33.7346 34.2878 33.6934 34.1883 33.6934 34.0845" stroke="#FF4612" stroke-width="1.5" stroke-linecap="round" stroke-linejoin="round"/>
<path d="M34.4753 34.0845C34.4753 34.1883 34.4341 34.2878 34.3607 34.3612C34.2873 34.4346 34.1878 34.4758 34.084 34.4758" stroke="#FF4612" stroke-width="1.5" stroke-linecap="round" stroke-linejoin="round"/>
</svg>
