<svg width="40" height="40" viewBox="0 0 40 40" fill="none" xmlns="http://www.w3.org/2000/svg">
<path d="M12.8609 16.9978H9.75439V23.2108H12.8609V20.1043H11.8254" stroke="#FF4612" stroke-width="1.5" stroke-linecap="round" stroke-linejoin="round"/>
<path d="M21.6626 23.2108V16.9978" stroke="#FF4612" stroke-width="1.5" stroke-linecap="round" stroke-linejoin="round"/>
<path d="M21.6626 16.9978H22.8275C23.3425 16.9978 23.8363 17.2024 24.2004 17.5665C24.5645 17.9306 24.7691 18.4244 24.7691 18.9394C24.7691 19.4543 24.5645 19.9481 24.2004 20.3123C23.8363 20.6764 23.3425 20.8809 22.8275 20.8809H21.6626" stroke="#FF4612" stroke-width="1.5" stroke-linecap="round" stroke-linejoin="round"/>
<path d="M27.6167 23.2108V16.9978" stroke="#FF4612" stroke-width="1.5" stroke-linecap="round" stroke-linejoin="round"/>
<path d="M27.6167 16.9978H28.7816C29.2966 16.9978 29.7904 17.2024 30.1545 17.5665C30.5186 17.9306 30.7232 18.4244 30.7232 18.9394C30.7232 19.4543 30.5186 19.9481 30.1545 20.3123C29.7904 20.6764 29.2966 20.8809 28.7816 20.8809H27.6167" stroke="#FF4612" stroke-width="1.5" stroke-linecap="round" stroke-linejoin="round"/>
<path d="M30.7229 23.2106L28.3931 20.8807" stroke="#FF4612" stroke-width="1.5" stroke-linecap="round" stroke-linejoin="round"/>
<path d="M15.5791 16.9978L15.7083 23.2108C16.5322 23.2108 17.3223 22.8835 17.9049 22.3009C18.4875 21.7183 18.8148 20.9282 18.8148 20.1043C18.8148 19.2804 18.4875 18.4903 17.9049 17.9077C17.3223 17.3251 16.5322 16.9978 15.7083 16.9978H15.5791Z" stroke="#FF4612" stroke-width="1.5" stroke-linecap="round" stroke-linejoin="round"/>
<path d="M19.3906 2.11081L19.7984 3.06086H20.598C20.6378 3.0601 20.677 3.07142 20.7103 3.09334C20.7436 3.11526 20.7695 3.14674 20.7845 3.18364C20.7995 3.22053 20.8029 3.2611 20.7944 3.29999C20.7858 3.33889 20.7657 3.37428 20.7366 3.4015L20.0436 4.0189L20.4274 4.89976C20.4472 4.94041 20.4533 4.98643 20.4445 5.03082C20.4358 5.0752 20.4128 5.11552 20.379 5.14565C20.3452 5.17577 20.3025 5.19405 20.2573 5.19771C20.2122 5.20136 20.1671 5.19019 20.1289 5.16589L19.2013 4.63364L18.2738 5.16589C18.2356 5.19019 18.1905 5.20136 18.1453 5.19771C18.1002 5.19405 18.0575 5.17577 18.0237 5.14565C17.9899 5.11552 17.9669 5.0752 17.9581 5.03082C17.9494 4.98643 17.9554 4.94041 17.9753 4.89976L18.3591 4.0189L17.6661 3.4015C17.6355 3.37493 17.6139 3.33945 17.6045 3.30004C17.595 3.26062 17.5982 3.21925 17.6134 3.1817C17.6287 3.14415 17.6554 3.11232 17.6897 3.09065C17.724 3.06898 17.7642 3.05857 17.8047 3.06086H18.6043L19.0148 2.11081C19.033 2.07688 19.0601 2.04852 19.0932 2.02875C19.1263 2.00898 19.1641 1.99854 19.2027 1.99854C19.2412 1.99854 19.2791 2.00898 19.3122 2.02875C19.3452 2.04852 19.3723 2.07688 19.3906 2.11081Z" fill="#202120"/>
<path d="M19.3906 34.9093L19.7984 35.8593H20.598C20.6378 35.8586 20.677 35.8699 20.7103 35.8918C20.7436 35.9137 20.7695 35.9452 20.7845 35.9821C20.7995 36.019 20.8029 36.0596 20.7944 36.0985C20.7858 36.1373 20.7657 36.1727 20.7366 36.2L20.0436 36.8174L20.4274 37.6982C20.4472 37.7389 20.4533 37.7849 20.4445 37.8293C20.4358 37.8737 20.4128 37.914 20.379 37.9441C20.3452 37.9742 20.3025 37.9925 20.2573 37.9962C20.2122 37.9998 20.1671 37.9886 20.1289 37.9643L19.2013 37.4321L18.2738 37.9643C18.2356 37.9886 18.1905 37.9998 18.1453 37.9962C18.1002 37.9925 18.0575 37.9742 18.0237 37.9441C17.9899 37.914 17.9669 37.8737 17.9581 37.8293C17.9494 37.7849 17.9554 37.7389 17.9753 37.6982L18.3591 36.8174L17.6661 36.2C17.6355 36.1734 17.6139 36.1379 17.6045 36.0985C17.595 36.0591 17.5982 36.0177 17.6134 35.9802C17.6287 35.9426 17.6554 35.9108 17.6897 35.8891C17.724 35.8674 17.7642 35.857 17.8047 35.8593H18.6043L19.0148 34.9093C19.033 34.8753 19.0601 34.847 19.0932 34.8272C19.1263 34.8074 19.1641 34.797 19.2027 34.797C19.2412 34.797 19.2791 34.8074 19.3122 34.8272C19.3452 34.847 19.3723 34.8753 19.3906 34.9093Z" fill="#202120"/>
<path d="M28.1904 4.51071L28.5982 5.46076H29.3978C29.4376 5.46 29.4768 5.47133 29.5101 5.49324C29.5434 5.51516 29.5693 5.54665 29.5843 5.58354C29.5993 5.62043 29.6027 5.661 29.5942 5.6999C29.5856 5.73879 29.5655 5.77418 29.5364 5.8014L28.8434 6.4188L29.2272 7.29967C29.2471 7.34032 29.2531 7.38633 29.2443 7.43072C29.2356 7.4751 29.2126 7.51542 29.1788 7.54555C29.145 7.57567 29.1023 7.59395 29.0571 7.59761C29.012 7.60126 28.9669 7.59009 28.9287 7.56579L28.0011 7.03355L27.0736 7.56579C27.0354 7.59009 26.9903 7.60126 26.9451 7.59761C26.9 7.59395 26.8573 7.57567 26.8235 7.54555C26.7897 7.51542 26.7667 7.4751 26.7579 7.43072C26.7492 7.38633 26.7552 7.34032 26.7751 7.29967L27.1589 6.4188L26.4659 5.8014C26.4353 5.77483 26.4137 5.73935 26.4043 5.69994C26.3948 5.66053 26.398 5.61915 26.4132 5.5816C26.4285 5.54406 26.4552 5.51222 26.4895 5.49055C26.5238 5.46888 26.564 5.45847 26.6045 5.46076H27.4041L27.8146 4.51071C27.8328 4.47678 27.8599 4.44842 27.893 4.42865C27.9261 4.40888 27.9639 4.39844 28.0025 4.39844C28.041 4.39844 28.0789 4.40888 28.112 4.42865C28.145 4.44842 28.1721 4.47678 28.1904 4.51071Z" fill="#202120"/>
<path d="M10.9912 4.91073L11.3989 5.86079H12.1985C12.2384 5.86003 12.2776 5.87135 12.3109 5.89327C12.3442 5.91519 12.37 5.94667 12.3851 5.98356C12.4001 6.02046 12.4035 6.06103 12.395 6.09992C12.3864 6.13881 12.3663 6.17421 12.3371 6.20142L11.6442 6.81883L12.028 7.69969C12.0478 7.74034 12.0539 7.78636 12.0451 7.83074C12.0364 7.87513 12.0134 7.91545 11.9796 7.94557C11.9458 7.9757 11.9031 7.99398 11.8579 7.99763C11.8128 8.00129 11.7677 7.99011 11.7294 7.96581L10.8019 7.43357L9.87439 7.96581C9.83618 7.99011 9.79107 8.00129 9.74591 7.99763C9.70076 7.99398 9.65804 7.9757 9.62424 7.94557C9.59045 7.91545 9.56744 7.87513 9.55871 7.83074C9.54998 7.78636 9.55601 7.74034 9.57587 7.69969L9.95968 6.81883L9.2667 6.20142C9.23605 6.17485 9.2145 6.13938 9.20505 6.09996C9.1956 6.06055 9.19874 6.01917 9.21401 5.98163C9.22929 5.94408 9.25594 5.91225 9.29024 5.89058C9.32454 5.86891 9.36477 5.85849 9.40529 5.86079H10.2049L10.6153 4.91073C10.6336 4.8768 10.6607 4.84844 10.6938 4.82867C10.7269 4.8089 10.7647 4.79846 10.8033 4.79846C10.8418 4.79846 10.8797 4.8089 10.9127 4.82867C10.9458 4.84844 10.9729 4.8768 10.9912 4.91073Z" fill="#202120"/>
<path d="M28.5903 32.1095L28.9981 33.0595H29.7977C29.8375 33.0588 29.8767 33.0701 29.91 33.092C29.9433 33.1139 29.9692 33.1454 29.9842 33.1823C29.9992 33.2192 30.0026 33.2598 29.9941 33.2987C29.9855 33.3375 29.9654 33.3729 29.9363 33.4002L29.2433 34.0176L29.6271 34.8984C29.647 34.9391 29.653 34.9851 29.6443 35.0295C29.6355 35.0739 29.6125 35.1142 29.5787 35.1443C29.5449 35.1744 29.5022 35.1927 29.457 35.1964C29.4119 35.2 29.3668 35.1888 29.3286 35.1645L28.401 34.6323L27.4735 35.1645C27.4353 35.1888 27.3902 35.2 27.345 35.1964C27.2999 35.1927 27.2572 35.1744 27.2234 35.1443C27.1896 35.1142 27.1666 35.0739 27.1578 35.0295C27.1491 34.9851 27.1551 34.9391 27.175 34.8984L27.5588 34.0176L26.8658 33.4002C26.8352 33.3736 26.8136 33.3381 26.8042 33.2987C26.7947 33.2593 26.7979 33.2179 26.8131 33.1804C26.8284 33.1428 26.8551 33.111 26.8894 33.0893C26.9237 33.0676 26.9639 33.0572 27.0044 33.0595H27.804L28.2145 32.1095C28.2327 32.0755 28.2598 32.0472 28.2929 32.0274C28.326 32.0076 28.3638 31.9972 28.4024 31.9972C28.4409 31.9972 28.4788 32.0076 28.5119 32.0274C28.545 32.0472 28.5721 32.0755 28.5903 32.1095Z" fill="#202120"/>
<path d="M11.791 32.1095L12.1988 33.0595H12.9983C13.0382 33.0588 13.0774 33.0701 13.1107 33.092C13.144 33.1139 13.1698 33.1454 13.1849 33.1823C13.1999 33.2192 13.2033 33.2598 13.1948 33.2987C13.1862 33.3375 13.1661 33.3729 13.1369 33.4002L12.444 34.0176L12.8278 34.8984C12.8476 34.9391 12.8537 34.9851 12.8449 35.0295C12.8362 35.0739 12.8132 35.1142 12.7794 35.1443C12.7456 35.1744 12.7029 35.1927 12.6577 35.1964C12.6126 35.2 12.5675 35.1888 12.5293 35.1645L11.6017 34.6323L10.6742 35.1645C10.636 35.1888 10.5909 35.2 10.5457 35.1964C10.5006 35.1927 10.4578 35.1744 10.424 35.1443C10.3903 35.1142 10.3672 35.0739 10.3585 35.0295C10.3498 34.9851 10.3558 34.9391 10.3757 34.8984L10.7595 34.0176L10.0665 33.4002C10.0359 33.3736 10.0143 33.3381 10.0049 33.2987C9.99541 33.2593 9.99854 33.2179 10.0138 33.1804C10.0291 33.1428 10.0557 33.111 10.09 33.0893C10.1243 33.0676 10.1646 33.0572 10.2051 33.0595H11.0047L11.4152 32.1095C11.4334 32.0755 11.4605 32.0472 11.4936 32.0274C11.5267 32.0076 11.5645 31.9972 11.6031 31.9972C11.6416 31.9972 11.6795 32.0076 11.7125 32.0274C11.7456 32.0472 11.7727 32.0755 11.791 32.1095Z" fill="#202120"/>
<path d="M36.1899 18.5101L36.5977 19.4602H37.3973C37.4371 19.4594 37.4763 19.4707 37.5096 19.4926C37.5429 19.5146 37.5688 19.546 37.5838 19.5829C37.5988 19.6198 37.6023 19.6604 37.5937 19.6993C37.5851 19.7382 37.565 19.7736 37.5359 19.8008L36.8429 20.4182L37.2267 21.2991C37.2466 21.3397 37.2526 21.3857 37.2439 21.4301C37.2351 21.4745 37.2121 21.5148 37.1783 21.5449C37.1445 21.5751 37.1018 21.5933 37.0567 21.597C37.0115 21.6007 36.9664 21.5895 36.9282 21.5652L36.0006 21.0329L35.0731 21.5652C35.0349 21.5895 34.9898 21.6007 34.9446 21.597C34.8995 21.5933 34.8568 21.5751 34.823 21.5449C34.7892 21.5148 34.7662 21.4745 34.7574 21.4301C34.7487 21.3857 34.7547 21.3397 34.7746 21.2991L35.1584 20.4182L34.4654 19.8008C34.4348 19.7742 34.4132 19.7387 34.4038 19.6993C34.3943 19.6599 34.3975 19.6185 34.4127 19.581C34.428 19.5434 34.4547 19.5116 34.489 19.4899C34.5233 19.4683 34.5635 19.4579 34.604 19.4602H35.4036L35.8141 18.5101C35.8323 18.4762 35.8594 18.4478 35.8925 18.428C35.9256 18.4083 35.9634 18.3978 36.002 18.3978C36.0405 18.3978 36.0784 18.4083 36.1115 18.428C36.1446 18.4478 36.1717 18.4762 36.1899 18.5101Z" fill="#202120"/>
<path d="M3.79145 18.5101L4.19924 19.4602H4.99884C5.03871 19.4594 5.07788 19.4707 5.11118 19.4926C5.14447 19.5146 5.17033 19.546 5.18535 19.5829C5.20036 19.6198 5.20381 19.6604 5.19526 19.6993C5.1867 19.7382 5.16654 19.7736 5.13743 19.8008L4.44445 20.4182L4.82826 21.2991C4.84813 21.3397 4.85415 21.3857 4.84542 21.4301C4.83669 21.4745 4.81368 21.5148 4.77989 21.5449C4.74609 21.5751 4.70337 21.5933 4.65822 21.597C4.61306 21.6007 4.56795 21.5895 4.52974 21.5652L3.60221 21.0329L2.67468 21.5652C2.63647 21.5895 2.59136 21.6007 2.54621 21.597C2.50105 21.5933 2.45833 21.5751 2.42454 21.5449C2.39074 21.5148 2.36773 21.4745 2.359 21.4301C2.35027 21.3857 2.3563 21.3397 2.37617 21.2991L2.75997 20.4182L2.06699 19.8008C2.03635 19.7742 2.01479 19.7387 2.00534 19.6993C1.9959 19.6599 1.99903 19.6185 2.01431 19.581C2.02958 19.5434 2.05624 19.5116 2.09054 19.4899C2.12484 19.4683 2.16506 19.4579 2.20559 19.4602H3.00518L3.41564 18.5101C3.43387 18.4762 3.46097 18.4478 3.49406 18.428C3.52714 18.4083 3.56498 18.3978 3.60354 18.3978C3.64211 18.3978 3.67995 18.4083 3.71303 18.428C3.74612 18.4478 3.77322 18.4762 3.79145 18.5101Z" fill="#202120"/>
<path d="M6.19135 26.5096L6.59914 27.4597H7.39874C7.43861 27.4589 7.47778 27.4702 7.51108 27.4921C7.54438 27.5141 7.57024 27.5455 7.58525 27.5824C7.60026 27.6193 7.60371 27.6599 7.59516 27.6988C7.58661 27.7377 7.56645 27.7731 7.53733 27.8003L6.84435 28.4177L7.22816 29.2986C7.24803 29.3392 7.25406 29.3852 7.24533 29.4296C7.23659 29.474 7.21358 29.5143 7.17979 29.5445C7.146 29.5746 7.10327 29.5929 7.05812 29.5965C7.01297 29.6002 6.96785 29.589 6.92964 29.5647L6.00211 29.0324L5.07459 29.5647C5.03638 29.589 4.99126 29.6002 4.94611 29.5965C4.90095 29.5929 4.85823 29.5746 4.82444 29.5445C4.79065 29.5143 4.76763 29.474 4.7589 29.4296C4.75017 29.3852 4.7562 29.3392 4.77607 29.2986L5.15988 28.4177L4.46689 27.8003C4.43625 27.7737 4.41469 27.7383 4.40525 27.6988C4.3958 27.6594 4.39893 27.6181 4.41421 27.5805C4.42949 27.543 4.45614 27.5111 4.49044 27.4895C4.52474 27.4678 4.56497 27.4574 4.60549 27.4597H5.40508L5.81554 26.5096C5.83377 26.4757 5.86087 26.4473 5.89396 26.4276C5.92705 26.4078 5.96489 26.3973 6.00345 26.3973C6.04201 26.3973 6.07985 26.4078 6.11294 26.4276C6.14603 26.4473 6.17313 26.4757 6.19135 26.5096Z" fill="#202120"/>
<path d="M34.5898 26.5096L34.9976 27.4597H35.7972C35.8371 27.4589 35.8762 27.4702 35.9095 27.4921C35.9428 27.5141 35.9687 27.5455 35.9837 27.5824C35.9987 27.6193 36.0022 27.6599 35.9936 27.6988C35.985 27.7377 35.9649 27.7731 35.9358 27.8003L35.2428 28.4177L35.6266 29.2986C35.6465 29.3392 35.6525 29.3852 35.6438 29.4296C35.635 29.474 35.612 29.5143 35.5782 29.5445C35.5444 29.5746 35.5017 29.5929 35.4566 29.5965C35.4114 29.6002 35.3663 29.589 35.3281 29.5647L34.4006 29.0324L33.473 29.5647C33.4348 29.589 33.3897 29.6002 33.3445 29.5965C33.2994 29.5929 33.2567 29.5746 33.2229 29.5445C33.1891 29.5143 33.1661 29.474 33.1573 29.4296C33.1486 29.3852 33.1546 29.3392 33.1745 29.2986L33.5583 28.4177L32.8653 27.8003C32.8347 27.7737 32.8131 27.7383 32.8037 27.6988C32.7942 27.6594 32.7974 27.6181 32.8126 27.5805C32.8279 27.543 32.8546 27.5111 32.8889 27.4895C32.9232 27.4678 32.9634 27.4574 33.0039 27.4597H33.8035L34.214 26.5096C34.2322 26.4757 34.2593 26.4473 34.2924 26.4276C34.3255 26.4078 34.3633 26.3973 34.4019 26.3973C34.4404 26.3973 34.4783 26.4078 34.5114 26.4276C34.5445 26.4473 34.5716 26.4757 34.5898 26.5096Z" fill="#202120"/>
<path d="M5.79145 10.5105L6.19924 11.4605H6.99884C7.03871 11.4598 7.07788 11.4711 7.11118 11.493C7.14447 11.5149 7.17033 11.5464 7.18535 11.5833C7.20036 11.6202 7.20381 11.6608 7.19526 11.6997C7.1867 11.7385 7.16654 11.7739 7.13743 11.8012L6.44445 12.4186L6.82826 13.2994C6.84813 13.3401 6.85415 13.3861 6.84542 13.4305C6.83669 13.4749 6.81368 13.5152 6.77989 13.5453C6.74609 13.5754 6.70337 13.5937 6.65822 13.5974C6.61306 13.601 6.56795 13.5898 6.52974 13.5655L5.60221 13.0333L4.67468 13.5655C4.63647 13.5898 4.59136 13.601 4.54621 13.5974C4.50105 13.5937 4.45833 13.5754 4.42454 13.5453C4.39074 13.5152 4.36773 13.4749 4.359 13.4305C4.35027 13.3861 4.3563 13.3401 4.37617 13.2994L4.75997 12.4186L4.06699 11.8012C4.03635 11.7746 4.01479 11.7391 4.00534 11.6997C3.9959 11.6603 3.99903 11.6189 4.01431 11.5814C4.02958 11.5438 4.05624 11.512 4.09054 11.4903C4.12484 11.4686 4.16506 11.4582 4.20559 11.4605H5.00518L5.41564 10.5105C5.43387 10.4765 5.46097 10.4482 5.49406 10.4284C5.52714 10.4086 5.56498 10.3982 5.60354 10.3982C5.64211 10.3982 5.67995 10.4086 5.71303 10.4284C5.74612 10.4482 5.77322 10.4765 5.79145 10.5105Z" fill="#202120"/>
<path d="M34.1899 10.1106L34.5977 11.0606H35.3973C35.4371 11.0599 35.4763 11.0712 35.5096 11.0931C35.5429 11.115 35.5688 11.1465 35.5838 11.1834C35.5988 11.2203 35.6023 11.2609 35.5937 11.2997C35.5851 11.3386 35.565 11.374 35.5359 11.4013L34.8429 12.0187L35.2267 12.8995C35.2466 12.9402 35.2526 12.9862 35.2439 13.0306C35.2351 13.075 35.2121 13.1153 35.1783 13.1454C35.1445 13.1755 35.1018 13.1938 35.0567 13.1975C35.0115 13.2011 34.9664 13.1899 34.9282 13.1656L34.0006 12.6334L33.0731 13.1656C33.0349 13.1899 32.9898 13.2011 32.9446 13.1975C32.8995 13.1938 32.8568 13.1755 32.823 13.1454C32.7892 13.1153 32.7662 13.075 32.7574 13.0306C32.7487 12.9862 32.7547 12.9402 32.7746 12.8995L33.1584 12.0187L32.4654 11.4013C32.4348 11.3747 32.4132 11.3392 32.4038 11.2998C32.3943 11.2604 32.3975 11.219 32.4127 11.1815C32.428 11.1439 32.4547 11.1121 32.489 11.0904C32.5233 11.0687 32.5635 11.0583 32.604 11.0606H33.4036L33.8141 10.1106C33.8323 10.0766 33.8594 10.0483 33.8925 10.0285C33.9256 10.0087 33.9634 9.99829 34.002 9.99829C34.0405 9.99829 34.0784 10.0087 34.1115 10.0285C34.1446 10.0483 34.1717 10.0766 34.1899 10.1106Z" fill="#202120"/>
</svg>
