<svg width="40" height="40" viewBox="0 0 40 40" fill="none" xmlns="http://www.w3.org/2000/svg">
<path d="M19.2164 38.0082C19.1677 36.7613 19.3774 35.5178 19.8324 34.3558C20.2874 33.1938 20.9777 32.1385 21.8601 31.2561C22.7425 30.3737 23.7978 29.6833 24.9598 29.2284C26.1218 28.7734 27.3653 28.5637 28.6122 28.6124C29.8591 28.5637 31.1027 28.7734 32.2646 29.2284C33.4266 29.6833 34.482 30.3737 35.3643 31.2561C36.2467 32.1385 36.9371 33.1938 37.392 34.3558C37.847 35.5178 38.0567 36.7613 38.0081 38.0082H19.2164Z" stroke="#FF4612" stroke-width="1.5" stroke-linecap="round" stroke-linejoin="round"/>
<path d="M22.3511 19.9994C22.3511 20.822 22.5131 21.6365 22.8279 22.3965C23.1427 23.1564 23.6041 23.847 24.1857 24.4286C24.7674 25.0103 25.4579 25.4717 26.2179 25.7865C26.9779 26.1013 27.7924 26.2633 28.615 26.2633C29.4376 26.2633 30.2521 26.1013 31.0121 25.7865C31.772 25.4717 32.4626 25.0103 33.0442 24.4286C33.6259 23.847 34.0873 23.1564 34.4021 22.3965C34.7169 21.6365 34.8789 20.822 34.8789 19.9994C34.8789 19.1768 34.7169 18.3623 34.4021 17.6023C34.0873 16.8423 33.6259 16.1518 33.0442 15.5701C32.4626 14.9885 31.772 14.5271 31.0121 14.2123C30.2521 13.8975 29.4376 13.7355 28.615 13.7355C27.7924 13.7355 26.9779 13.8975 26.2179 14.2123C25.4579 14.5271 24.7674 14.9885 24.1857 15.5701C23.6041 16.1518 23.1427 16.8423 22.8279 17.6023C22.5131 18.3623 22.3511 19.1768 22.3511 19.9994Z" stroke="#FF4612" stroke-width="1.5" stroke-linecap="round" stroke-linejoin="round"/>
<path d="M34.8757 19.7114C33.7588 20.4184 32.4626 20.7901 31.1408 20.7825C29.601 20.6953 28.1125 20.1983 26.8293 19.3429C25.546 18.4875 24.5146 17.3047 23.8418 15.917" stroke="#FF4612" stroke-width="1.5" stroke-linecap="round" stroke-linejoin="round"/>
<path d="M3.92627 23.9144H19.2337" stroke="#202120" stroke-width="1.5" stroke-linecap="round" stroke-linejoin="round"/>
<path d="M4.54932 8.25464H28.4257" stroke="#202120" stroke-width="1.5" stroke-linecap="round" stroke-linejoin="round"/>
<path d="M20.016 16.0845H1.99316" stroke="#202120" stroke-width="1.5" stroke-linecap="round" stroke-linejoin="round"/>
<path d="M15.3181 30.9612C11.6548 30.7429 8.21893 29.1123 5.73323 26.4125C3.24753 23.7128 1.90573 20.1542 1.99008 16.4854C1.99483 13.0913 3.18962 9.80629 5.36648 7.20222C7.54335 4.59815 10.5644 2.83988 13.9039 2.23344C17.2434 1.62701 20.6898 2.21082 23.6433 3.88324C26.5967 5.55567 28.8702 8.21082 30.068 11.3865" stroke="#202120" stroke-width="1.5" stroke-linecap="round" stroke-linejoin="round"/>
<path d="M15.2726 2.03931C7.75589 10.2262 7.76998 20.8983 15.318 30.9613" stroke="#202120" stroke-width="1.5" stroke-linecap="round" stroke-linejoin="round"/>
<path d="M17.7139 2.04236C20.5243 5.06371 22.3481 8.86919 22.9427 12.9525" stroke="#202120" stroke-width="1.5" stroke-linecap="round" stroke-linejoin="round"/>
</svg>
