<svg width="40" height="40" viewBox="0 0 40 40" fill="none" xmlns="http://www.w3.org/2000/svg">
<path d="M2.04004 23.3013H11.0193C11.1405 23.3013 11.2601 23.2731 11.3685 23.2189C11.4769 23.1647 11.5712 23.086 11.644 22.989L13.09 21.062C13.1649 20.962 13.2626 20.8815 13.375 20.8271C13.4874 20.7727 13.6112 20.7461 13.736 20.7495C13.8609 20.7529 13.983 20.7861 14.0924 20.8465C14.2017 20.9068 14.2949 20.9925 14.3643 21.0963L16.1289 23.7511C16.2048 23.8648 16.3093 23.9565 16.4318 24.0172C16.5543 24.0779 16.6906 24.1053 16.827 24.0968C16.9634 24.0882 17.0952 24.044 17.2092 23.9685C17.3232 23.8931 17.4154 23.789 17.4766 23.6667L19.8815 18.857C19.9518 18.7162 20.063 18.6 20.2004 18.5236C20.3379 18.4471 20.4953 18.414 20.652 18.4285C20.8086 18.443 20.9572 18.5045 21.0783 18.6049C21.1994 18.7054 21.2874 18.84 21.3306 18.9913L23.3514 26.0638C23.3944 26.2152 23.4822 26.35 23.6032 26.4506C23.7242 26.5511 23.8728 26.6128 24.0295 26.6275C24.1861 26.6422 24.3436 26.6092 24.4812 26.5329C24.6188 26.4565 24.7301 26.3404 24.8005 26.1997L26.0295 23.7417C26.0942 23.6119 26.1938 23.5026 26.3171 23.4262C26.4404 23.3498 26.5825 23.3093 26.7276 23.3091H37.9571" stroke="#FF4612" stroke-width="1.5" stroke-linecap="round" stroke-linejoin="round"/>
<path d="M34.9843 20.0004C36.2352 17.6357 36.9235 15.0364 37 12.3883C37 0.504193 21.917 -0.423166 20 11.4779C18.083 -0.423166 3 0.504193 3 13.3017C3.03077 15.6049 3.53177 17.8803 4.47495 20.0004" stroke="#202120" stroke-width="1.5" stroke-linecap="round" stroke-linejoin="round"/>
<path d="M8 26.0004C11.2447 30.1491 15.0838 33.8045 19.3952 36.8505C19.5412 36.9533 19.7171 37.0058 19.8961 36.9999C20.075 36.9941 20.247 36.9302 20.3859 36.818C24.3181 33.6146 27.8781 29.9863 31 26.0004" stroke="#202120" stroke-width="1.5" stroke-linecap="round" stroke-linejoin="round"/>
</svg>
