<svg width="40" height="40" viewBox="0 0 40 40" fill="none" xmlns="http://www.w3.org/2000/svg">
<path d="M20.4336 14.4276C20.4902 14.4276 20.5456 14.4444 20.5926 14.4758C20.6397 14.5073 20.6764 14.552 20.698 14.6043C20.7197 14.6566 20.7254 14.7141 20.7143 14.7696C20.7033 14.8251 20.676 14.8761 20.636 14.9161C20.596 14.9562 20.545 14.9834 20.4895 14.9945C20.434 15.0055 20.3764 14.9998 20.3241 14.9782C20.2718 14.9565 20.2271 14.9198 20.1957 14.8728C20.1642 14.8257 20.1475 14.7704 20.1475 14.7138C20.1473 14.6762 20.1546 14.6389 20.1689 14.6041C20.1833 14.5693 20.2043 14.5377 20.2309 14.5111C20.2575 14.4845 20.2892 14.4634 20.3239 14.4491C20.3587 14.4348 20.396 14.4275 20.4336 14.4276" stroke="#FF4612" stroke-width="1.5" stroke-linecap="round" stroke-linejoin="round"/>
<path d="M17 5.43365C17.0001 4.81454 17.1676 4.20697 17.4847 3.67523C17.8018 3.14349 18.2567 2.70737 18.8014 2.41302C19.3461 2.11867 19.9602 1.97704 20.5787 2.00311C21.1973 2.02918 21.7973 2.22199 22.3153 2.56113C22.8332 2.90027 23.2499 3.37313 23.5211 3.92967C23.7924 4.4862 23.9081 5.10571 23.8561 5.72264C23.8041 6.33956 23.5863 6.93096 23.2257 7.43423C22.8651 7.93751 22.3752 8.33394 21.8078 8.58159C21.3993 8.75985 21.0518 9.05345 20.8078 9.42637C20.5638 9.79929 20.4339 10.2353 20.4341 10.681V11.1572" stroke="#FF4612" stroke-width="1.5" stroke-linecap="round" stroke-linejoin="round"/>
<path d="M33.4336 26.4276C33.4902 26.4276 33.5456 26.4443 33.5926 26.4758C33.6397 26.5072 33.6764 26.5519 33.698 26.6042C33.7197 26.6565 33.7254 26.714 33.7143 26.7696C33.7033 26.8251 33.676 26.8761 33.636 26.9161C33.596 26.9561 33.545 26.9834 33.4895 26.9944C33.434 27.0054 33.3764 26.9998 33.3241 26.9781C33.2718 26.9565 33.2271 26.9198 33.1957 26.8727C33.1642 26.8257 33.1475 26.7703 33.1475 26.7137C33.1473 26.6761 33.1546 26.6388 33.1689 26.604C33.1833 26.5692 33.2043 26.5376 33.2309 26.511C33.2575 26.4844 33.2892 26.4634 33.3239 26.449C33.3587 26.4347 33.396 26.4274 33.4336 26.4276" stroke="#FF4612" stroke-width="1.5" stroke-linecap="round" stroke-linejoin="round"/>
<path d="M30 17.4336C30.0001 16.8145 30.1676 16.2069 30.4847 15.6752C30.8018 15.1434 31.2567 14.7073 31.8014 14.413C32.3461 14.1186 32.9602 13.977 33.5787 14.003C34.1973 14.0291 34.7973 14.2219 35.3153 14.5611C35.8332 14.9002 36.2499 15.3731 36.5211 15.9296C36.7924 16.4861 36.9081 17.1057 36.8561 17.7226C36.8041 18.3395 36.5863 18.9309 36.2257 19.4342C35.8651 19.9374 35.3752 20.3339 34.8078 20.5815C34.3993 20.7598 34.0518 21.0534 33.8078 21.4263C33.5638 21.7992 33.4339 22.2353 33.4341 22.6809V23.1571" stroke="#FF4612" stroke-width="1.5" stroke-linecap="round" stroke-linejoin="round"/>
<path d="M33.4336 26.4276C33.4902 26.4276 33.5456 26.4443 33.5926 26.4758C33.6397 26.5072 33.6764 26.5519 33.698 26.6042C33.7197 26.6565 33.7254 26.714 33.7143 26.7696C33.7033 26.8251 33.676 26.8761 33.636 26.9161C33.596 26.9561 33.545 26.9834 33.4895 26.9944C33.434 27.0054 33.3764 26.9998 33.3241 26.9781C33.2718 26.9565 33.2271 26.9198 33.1957 26.8727C33.1642 26.8257 33.1475 26.7703 33.1475 26.7137C33.1473 26.6761 33.1546 26.6388 33.1689 26.604C33.1833 26.5692 33.2043 26.5376 33.2309 26.511C33.2575 26.4844 33.2892 26.4634 33.3239 26.449C33.3587 26.4347 33.396 26.4274 33.4336 26.4276" stroke="#FF4612" stroke-width="1.5" stroke-linecap="round" stroke-linejoin="round"/>
<path d="M30 17.4336C30.0001 16.8145 30.1676 16.2069 30.4847 15.6752C30.8018 15.1434 31.2567 14.7073 31.8014 14.413C32.3461 14.1186 32.9602 13.977 33.5787 14.003C34.1973 14.0291 34.7973 14.2219 35.3153 14.5611C35.8332 14.9002 36.2499 15.3731 36.5211 15.9296C36.7924 16.4861 36.9081 17.1057 36.8561 17.7226C36.8041 18.3395 36.5863 18.9309 36.2257 19.4342C35.8651 19.9374 35.3752 20.3339 34.8078 20.5815C34.3993 20.7598 34.0518 21.0534 33.8078 21.4263C33.5638 21.7992 33.4339 22.2353 33.4341 22.6809V23.1571" stroke="#FF4612" stroke-width="1.5" stroke-linecap="round" stroke-linejoin="round"/>
<path d="M6.43364 22.4276C6.49024 22.4276 6.54557 22.4443 6.59263 22.4758C6.63969 22.5072 6.67637 22.5519 6.69803 22.6042C6.71969 22.6565 6.72536 22.714 6.71431 22.7696C6.70327 22.8251 6.67602 22.8761 6.63599 22.9161C6.59597 22.9561 6.54498 22.9834 6.48947 22.9944C6.43396 23.0054 6.37641 22.9998 6.32412 22.9781C6.27183 22.9565 6.22714 22.9198 6.19569 22.8727C6.16425 22.8257 6.14746 22.7703 6.14746 22.7137C6.14731 22.6761 6.15461 22.6388 6.16894 22.604C6.18327 22.5692 6.20434 22.5376 6.23094 22.511C6.25755 22.4844 6.28916 22.4634 6.32394 22.449C6.35873 22.4347 6.39602 22.4274 6.43364 22.4276" stroke="#FF4612" stroke-width="1.5" stroke-linecap="round" stroke-linejoin="round"/>
<path d="M3 13.4336C3.00009 12.8145 3.16756 12.2069 3.48466 11.6752C3.80177 11.1434 4.25673 10.7073 4.8014 10.413C5.34606 10.1186 5.96017 9.97697 6.57873 10.003C7.1973 10.0291 7.79731 10.2219 8.31527 10.5611C8.83323 10.9002 9.24988 11.3731 9.52112 11.9296C9.79236 12.4861 9.9081 13.1057 9.85609 13.7226C9.80408 14.3395 9.58627 14.9309 9.22569 15.4342C8.86511 15.9374 8.37519 16.3339 7.80776 16.5815C7.39931 16.7598 7.05177 17.0534 6.80776 17.4263C6.56376 17.7992 6.4339 18.2353 6.43411 18.6809V19.1571" stroke="#FF4612" stroke-width="1.5" stroke-linecap="round" stroke-linejoin="round"/>
<path d="M14.8125 25.2499C14.8125 26.6422 15.3656 27.9775 16.3502 28.9621C17.3347 29.9466 18.67 30.4997 20.0624 30.4997C21.4547 30.4997 22.79 29.9466 23.7746 28.9621C24.7591 27.9775 25.3122 26.6422 25.3122 25.2499C25.3122 23.8575 24.7591 22.5222 23.7746 21.5376C22.79 20.5531 21.4547 20 20.0624 20C18.67 20 17.3347 20.5531 16.3502 21.5376C15.3656 22.5222 14.8125 23.8575 14.8125 25.2499V25.2499Z" stroke="#202120" stroke-width="1.5" stroke-linecap="round" stroke-linejoin="round"/>
<path d="M28.8975 38.0001C28.2861 36.2467 27.1443 34.727 25.6304 33.6517C24.1166 32.5763 22.3057 31.9986 20.4488 31.9986C18.5919 31.9986 16.7809 32.5763 15.2671 33.6517C13.7532 34.727 12.6114 36.2467 12 38.0001" stroke="#202120" stroke-width="1.5" stroke-linecap="round" stroke-linejoin="round"/>
</svg>
