<svg width="40" height="40" viewBox="0 0 40 40" fill="none" xmlns="http://www.w3.org/2000/svg">
<path d="M36.4346 25.4774H23.9116C23.047 25.4774 22.3462 26.1783 22.3462 27.0428V36.4351C22.3462 37.2996 23.047 38.0005 23.9116 38.0005H36.4346C37.2991 38.0005 38 37.2996 38 36.4351V27.0428C38 26.1783 37.2991 25.4774 36.4346 25.4774Z" stroke="#FF4612" stroke-width="1.5" stroke-linecap="round" stroke-linejoin="round"/>
<path d="M26.2598 25.4774L27.0425 23.912C27.2135 23.4333 27.5343 23.0225 27.9573 22.7405C28.3802 22.4585 28.8828 22.3204 29.3905 22.3467H30.9559C31.4636 22.3204 31.9662 22.4585 32.3892 22.7405C32.8122 23.0225 33.133 23.4333 33.304 23.912L34.0867 25.4774" stroke="#FF4612" stroke-width="1.5" stroke-linecap="round" stroke-linejoin="round"/>
<path d="M22.3462 31.739H38" stroke="#FF4612" stroke-width="1.5" stroke-linecap="round" stroke-linejoin="round"/>
<path d="M30.1733 31.739V34.0871" stroke="#FF4612" stroke-width="1.5" stroke-linecap="round" stroke-linejoin="round"/>
<path d="M9.82324 18.4331V23.1293" stroke="#202120" stroke-width="1.5" stroke-linecap="round" stroke-linejoin="round"/>
<path d="M12.9537 38.0004L13.7364 28.6081H17.6499V23.1293C17.6499 21.0535 16.8253 19.0626 15.3574 17.5948C13.8896 16.127 11.8988 15.3024 9.82299 15.3024C7.74717 15.3024 5.75637 16.127 4.28854 17.5948C2.82071 19.0626 1.99609 21.0535 1.99609 23.1293V28.6081H5.90954L6.69223 38.0004H12.9537Z" stroke="#202120" stroke-width="1.5" stroke-linecap="round" stroke-linejoin="round"/>
<path d="M9.82404 12.9543C12.8499 12.9543 15.3029 10.5013 15.3029 7.47542C15.3029 4.44954 12.8499 1.99658 9.82404 1.99658C6.79817 1.99658 4.34521 4.44954 4.34521 7.47542C4.34521 10.5013 6.79817 12.9543 9.82404 12.9543Z" stroke="#202120" stroke-width="1.5" stroke-linecap="round" stroke-linejoin="round"/>
<path d="M5.0957 4.68896C5.94398 5.57249 6.96253 6.27492 8.08984 6.75382C9.21715 7.23273 10.4298 7.47818 11.6546 7.47535C12.9077 7.47964 14.1486 7.22934 15.302 6.73962" stroke="#202120" stroke-width="1.5" stroke-linecap="round" stroke-linejoin="round"/>
</svg>
