<svg width="40" height="40" viewBox="0 0 40 40" fill="none" xmlns="http://www.w3.org/2000/svg">
<rect x="1.25" y="7.66656" width="37.5" height="26.35" rx="2.5" stroke="#202120" stroke-width="1.5"/>
<path d="M25 23L34 23" stroke="#202120" stroke-width="1.5" stroke-linecap="round" stroke-linejoin="round"/>
<path d="M28.125 19H33.55" stroke="#202120" stroke-width="1.5" stroke-linecap="round" stroke-linejoin="round"/>
<path d="M5.4248 26.5028C5.4507 25.7442 5.6344 24.9993 5.9642 24.3157C6.34395 23.5562 7.93115 23.0292 9.92445 22.2899C10.4639 22.0899 10.3755 20.6841 10.1368 20.4206C9.75683 20.0086 9.46817 19.521 9.28974 18.9897C9.1113 18.4584 9.04713 17.8954 9.1014 17.3376C9.0688 16.9901 9.11033 16.6397 9.22325 16.3095C9.33616 15.9792 9.51788 15.6767 9.7564 15.4219C9.99492 15.1671 10.2848 14.9659 10.6069 14.8315C10.929 14.6971 11.2759 14.6325 11.6248 14.6422C11.9737 14.6325 12.3206 14.6971 12.6427 14.8315C12.9648 14.9659 13.2547 15.1671 13.4932 15.4219C13.7317 15.6767 13.9134 15.9792 14.0264 16.3095C14.1393 16.6397 14.1808 16.9901 14.1482 17.3376C14.2025 17.8954 14.1383 18.4584 13.9599 18.9897C13.7814 19.521 13.4928 20.0086 13.1128 20.4206C12.8741 20.6841 12.7858 22.0899 13.3252 22.2899C15.3185 23.0292 16.9057 23.5562 17.2854 24.3157C17.6152 24.9993 17.7989 25.7442 17.8248 26.5028H5.4248Z" stroke="#FF4612" stroke-width="1.5" stroke-linecap="round" stroke-linejoin="round"/>
</svg>
