<svg width="40" height="40" viewBox="0 0 40 40" fill="none" xmlns="http://www.w3.org/2000/svg">
<g clip-path="url(#clip0_3151_1833)">
<path d="M23.8772 15.2304C22.8831 14.8907 22.2516 14.7604 22.2966 14.1711C22.3314 13.7122 22.6793 13.4763 23.3173 13.5286C23.7826 13.5644 24.0644 13.7571 24.2067 14.0472C24.2961 14.2282 24.4336 14.381 24.6041 14.4892C24.7745 14.5973 24.9714 14.6565 25.1732 14.6603C26.1003 14.6805 26.6648 13.6039 26.0838 12.8806C25.5615 12.2307 24.7023 11.791 23.4907 11.6983C21.364 11.5349 20.0239 12.4859 19.899 14.105C19.7659 15.8389 20.9317 16.308 22.6958 16.9037C23.901 17.2919 24.1993 17.4801 24.1645 17.9868C24.1268 18.4779 23.6963 18.7211 23.0419 18.6743C22.4967 18.6321 22.1616 18.4164 22.0037 18.0923C21.8266 17.7252 21.4291 17.5223 21.0244 17.5141C20.874 17.5096 20.7244 17.5363 20.5849 17.5926C20.4454 17.6488 20.3191 17.7333 20.2139 17.8408C20.2139 17.8408 19.7549 18.3539 18.86 18.3539C18.2092 18.3365 17.6328 17.9868 17.6328 17.0753L17.6548 14.0279C17.8269 14.1341 18.0213 14.1989 18.2227 14.2172C18.4242 14.2354 18.6271 14.2067 18.8155 14.1331C19.0039 14.0596 19.1726 13.9434 19.3085 13.7935C19.4443 13.6437 19.5434 13.4643 19.5981 13.2696C19.6528 13.0749 19.6616 12.8702 19.6237 12.6715C19.5858 12.4728 19.5022 12.2857 19.3797 12.1248C19.2571 11.9639 19.0989 11.8337 18.9174 11.7444C18.736 11.6551 18.5363 11.6092 18.334 11.6102C18.0989 11.6118 17.8689 11.6785 17.6695 11.8029L17.6713 10.684C17.6719 10.5899 17.6539 10.4965 17.6183 10.4093C17.5827 10.3222 17.5301 10.2429 17.4638 10.1761C17.3974 10.1093 17.3185 10.0563 17.2315 10.0201C17.1446 9.98395 17.0514 9.96533 16.9572 9.96533H15.9879C15.7991 9.96533 15.618 10.0401 15.4842 10.1732C15.3504 10.3063 15.2747 10.487 15.2738 10.6758L15.2315 17.2185C15.1682 18.0327 14.6055 18.3457 13.9759 18.3503C13.3077 18.3503 12.7073 18.0006 12.7073 17.0716L12.7523 12.9411C12.7528 12.8789 12.741 12.8171 12.7175 12.7595C12.694 12.7018 12.6593 12.6493 12.6154 12.6051C12.5716 12.5609 12.5194 12.5259 12.4619 12.5019C12.4044 12.478 12.3428 12.4657 12.2805 12.4657H10.8293C10.7049 12.4657 10.5854 12.5149 10.497 12.6026C10.4087 12.6902 10.3585 12.8093 10.3575 12.9338L10.3117 17.6481C10.2951 19.6133 11.8436 20.4972 13.9759 20.4972C14.8681 20.4972 15.4803 20.1374 15.9034 19.6372C16.445 20.2218 17.2904 20.4972 18.3138 20.4972C19.3373 20.4972 20.1028 20.3632 20.8628 19.9318C21.3915 20.243 22.0652 20.4376 22.8822 20.5C25.0906 20.6698 26.4344 19.6739 26.5666 17.9519C26.6822 16.4163 25.5285 15.8004 23.8772 15.2304Z" fill="#FF4612"/>
<path d="M11.6131 11.4193C11.8722 11.4202 12.1256 11.344 12.3413 11.2005C12.5569 11.057 12.725 10.8527 12.8243 10.6134C12.9235 10.3741 12.9493 10.1107 12.8984 9.85671C12.8476 9.60272 12.7223 9.36958 12.5387 9.18693C12.355 9.00429 12.1211 8.88038 11.8669 8.83096C11.6126 8.78155 11.3494 8.80886 11.1106 8.90941C10.8719 9.00997 10.6685 9.17924 10.5262 9.3957C10.3839 9.61216 10.3092 9.86604 10.3116 10.1251C10.3138 10.4689 10.4518 10.7979 10.6957 11.0404C10.9395 11.2829 11.2693 11.419 11.6131 11.4193Z" fill="#FF4612"/>
<path d="M26.9472 21.0405C24.8066 21.0405 23.2003 22.2448 22.7579 24.2779C22.6367 22.3733 21.4224 21.2314 19.6316 21.2314C18.3823 21.2314 17.5654 21.7923 17.0853 22.545C16.5401 21.6996 15.6277 21.2314 14.4905 21.2314C13.4349 21.2314 10.102 21.1029 10.102 25.3849C10.102 25.4767 10.102 25.5538 10.102 25.6355V25.641V28.5021C10.0976 28.6583 10.1246 28.8139 10.1814 28.9595C10.2382 29.1052 10.3236 29.238 10.4326 29.35C10.5415 29.4621 10.6719 29.5512 10.8159 29.612C10.9599 29.6729 11.1146 29.7042 11.271 29.7042C11.4273 29.7042 11.582 29.6729 11.726 29.612C11.87 29.5512 12.0004 29.4621 12.1093 29.35C12.2183 29.238 12.3037 29.1052 12.3605 28.9595C12.4173 28.8139 12.4443 28.6583 12.4399 28.5021V25.0783C12.4399 24.0852 13.0007 23.4133 13.9296 23.4133C14.7787 23.4133 15.2743 24.0053 15.2743 25.0655V28.5085C15.2743 28.8186 15.3975 29.1161 15.6168 29.3354C15.8362 29.5547 16.1336 29.6779 16.4437 29.6779C16.7539 29.6779 17.0513 29.5547 17.2706 29.3354C17.4899 29.1161 17.6131 28.8186 17.6131 28.5085V24.7901C17.7049 23.9576 18.2217 23.4133 19.0542 23.4133C19.951 23.4133 20.4311 24.0053 20.4311 25.0655V28.5085C20.4267 28.6648 20.4537 28.8203 20.5104 28.966C20.5672 29.1116 20.6526 29.2444 20.7616 29.3565C20.8706 29.4685 21.0009 29.5576 21.1449 29.6185C21.2889 29.6793 21.4437 29.7106 21.6 29.7106C21.7563 29.7106 21.911 29.6793 22.0551 29.6185C22.1991 29.5576 22.3294 29.4685 22.4384 29.3565C22.5474 29.2444 22.6328 29.1116 22.6895 28.966C22.7463 28.8203 22.7733 28.6648 22.7689 28.5085V26.6782C23.2279 28.6737 24.8342 29.8688 27.0114 29.8688C28.0349 29.8688 29.006 29.5558 29.7119 29.0427C29.7366 29.0253 29.7596 29.0078 29.7834 28.9904C29.8073 28.9729 29.8385 28.9518 29.8642 28.9307C29.8642 28.9307 29.8642 28.9234 29.8697 28.9206C29.9083 28.8894 29.9496 28.8591 29.9863 28.8288C30.671 28.2028 30.2773 27.0527 29.3575 26.9316C29.1574 26.9045 28.9537 26.933 28.7686 27.014C28.5836 27.0949 28.4244 27.2252 28.3084 27.3905C28.0413 27.7393 27.5796 27.9357 26.9481 27.9357C25.865 27.9357 25.2252 27.2629 25.1756 26.2128H30.2378C30.4401 26.2128 30.6341 26.1325 30.7772 25.9894C30.9202 25.8464 31.0006 25.6524 31.0006 25.4501V25.261C31.0006 22.6165 29.3924 21.0405 26.9472 21.0405ZM25.1747 24.6203C25.2399 23.5372 25.909 22.9139 26.9306 22.9139C28.0138 22.9139 28.5388 23.5868 28.5884 24.6203H25.1747Z" fill="#FF4612"/>
<path fill-rule="evenodd" clip-rule="evenodd" d="M33 14C36.866 14 40 10.866 40 7C40 3.13401 36.866 0 33 0C29.134 0 26 3.13401 26 7C26 10.866 29.134 14 33 14ZM34.7538 4.18908C35.0059 3.93697 35.4147 3.93697 35.6668 4.18908C35.9189 4.44118 35.9189 4.84992 35.6668 5.10202L33.8409 6.92792L35.6668 8.75381C35.9189 9.00592 35.9189 9.41466 35.6668 9.66676C35.4147 9.91886 35.0059 9.91886 34.7538 9.66676L32.9279 7.84087L31.102 9.66676C30.8499 9.91886 30.4412 9.91886 30.1891 9.66676C29.937 9.41466 29.937 9.00592 30.1891 8.75381L32.015 6.92792L30.1891 5.10203C29.937 4.84992 29.937 4.44118 30.1891 4.18908C30.4412 3.93697 30.8499 3.93697 31.102 4.18908L32.9279 6.01497L34.7538 4.18908Z" fill="#FF4612"/>
<path fill-rule="evenodd" clip-rule="evenodd" d="M26.5321 0.741646C24.9001 0.0357766 22.949 -0.212087 21.4212 0.197137L8.86708 3.56144C6.56577 4.17784 4.17735 6.56626 3.56095 8.86757L0.196649 21.4217C-0.419753 23.723 0.454678 26.9847 2.13958 28.6696L11.3294 37.865C13.0143 39.5499 16.276 40.4232 18.5773 39.8068L31.1315 36.4381C33.4328 35.8217 35.8212 33.4332 36.4376 31.1319L39.8063 18.5778C40.2117 17.0508 39.9635 15.0994 39.2584 13.4679C38.882 13.832 38.4741 14.1637 38.0389 14.4583C38.1157 14.6685 38.1847 14.8864 38.2448 15.1102C38.5478 16.2395 38.5783 17.3557 38.3569 18.1913L38.3565 18.193L34.9888 30.7432L34.9887 30.7438C34.7651 31.5784 34.1824 32.5295 33.3557 33.3562C32.529 34.1829 31.5779 34.7656 30.7434 34.9891L30.7427 34.9893L18.1893 38.3579L18.1886 38.358C17.3538 38.5815 16.2391 38.5523 15.1103 38.2499C13.9812 37.9475 13.0011 37.4154 12.39 36.8043L3.20056 27.6093L3.20025 27.609C2.58903 26.9978 2.05665 26.0175 1.75397 24.8884C1.45131 23.7594 1.42202 22.6446 1.64553 21.8099L1.64557 21.8098L5.00983 9.25585L5.00987 9.25566C5.23341 8.42111 5.81615 7.47001 6.64284 6.64332C7.46952 5.81664 8.42063 5.2339 9.25518 5.01036L9.25536 5.01031L21.8093 1.64606L21.8095 1.64601C22.6441 1.42251 23.7589 1.4518 24.8879 1.75446C25.1123 1.81462 25.3309 1.88386 25.5418 1.96098C25.8364 1.52588 26.168 1.11792 26.5321 0.741646Z" fill="#202120"/>
</g>
<defs>
<clipPath id="clip0_3151_1833">
<rect width="40" height="40" fill="white"/>
</clipPath>
</defs>
</svg>
