<svg width="40" height="40" viewBox="0 0 40 40" fill="none" xmlns="http://www.w3.org/2000/svg">
<g clip-path="url(#clip0_1342_1311)">
<path d="M14.6425 19.7259C14.1368 19.2201 13.8743 18.2423 14.0593 17.5515L15.069 13.7851C15.2513 13.0943 15.9703 12.378 16.6611 12.1931L20.4266 11.1842C21.1173 11.002 22.0961 11.2608 22.6018 11.7666L25.3585 14.5242C25.8643 15.029 26.1258 16.0078 25.9408 16.6985L24.932 20.4649C24.7498 21.1548 24.0308 21.8711 23.34 22.0561L19.5736 23.0658C18.8837 23.248 17.905 22.9883 17.3992 22.4825L14.6425 19.7259Z" fill="#FF4612"/>
<path d="M21.3643 15.4455C21.0062 15.3234 20.7783 15.276 20.7947 15.0637C20.8075 14.8987 20.9323 14.813 21.1593 14.8313C21.2242 14.8291 21.2885 14.845 21.3449 14.8772C21.4014 14.9094 21.4478 14.9566 21.4791 15.0135C21.504 15.0632 21.539 15.1072 21.5819 15.1426C21.6247 15.178 21.6745 15.2041 21.728 15.2192C21.7815 15.2343 21.8375 15.2381 21.8926 15.2304C21.9476 15.2226 22.0004 15.2035 22.0477 15.1742C22.0949 15.1449 22.1355 15.106 22.1669 15.0602C22.1983 15.0143 22.2198 14.9624 22.23 14.9077C22.2402 14.8531 22.2389 14.7969 22.2262 14.7428C22.2135 14.6887 22.1897 14.6378 22.1562 14.5934C21.9676 14.3592 21.6577 14.2007 21.2212 14.1669C20.4548 14.1086 19.9718 14.4503 19.9272 15.0345C19.8789 15.6596 20.299 15.8282 20.9351 16.0433C21.3698 16.1827 21.4819 16.2511 21.4627 16.4333C21.4436 16.6156 21.2941 16.6994 21.0581 16.6812C20.8622 16.6666 20.741 16.5901 20.6845 16.4716C20.6499 16.4081 20.5987 16.3552 20.5365 16.3184C20.4742 16.2817 20.4032 16.2625 20.3309 16.2629C20.2767 16.2613 20.2228 16.271 20.1726 16.2914C20.1224 16.3118 20.077 16.3425 20.0393 16.3814C19.9742 16.4427 19.8976 16.4904 19.8139 16.5217C19.7301 16.553 19.641 16.5672 19.5517 16.5637C19.3166 16.5573 19.1097 16.4306 19.1097 16.1025L19.1179 15.0035C19.191 15.0496 19.2758 15.0739 19.3622 15.0737C19.4353 15.0749 19.5077 15.059 19.5737 15.0273C19.6397 14.9956 19.6973 14.9491 19.7422 14.8912C19.787 14.8334 19.8177 14.7659 19.8319 14.6942C19.8462 14.6224 19.8435 14.5483 19.8241 14.4777C19.8047 14.4072 19.7691 14.3421 19.7202 14.2877C19.6713 14.2333 19.6104 14.191 19.5424 14.1642C19.4743 14.1374 19.4009 14.1268 19.328 14.1333C19.2551 14.1398 19.1848 14.1632 19.1225 14.2016V13.8006C19.1229 13.7667 19.1165 13.733 19.1037 13.7015C19.0909 13.6701 19.0721 13.6415 19.0481 13.6174C19.0242 13.5933 18.9958 13.5743 18.9644 13.5613C18.9331 13.5483 18.8994 13.5417 18.8655 13.5418H18.5165C18.4486 13.5418 18.3835 13.5686 18.3354 13.6164C18.2873 13.6642 18.26 13.7291 18.2595 13.7969L18.244 16.1554C18.2212 16.4488 18.0189 16.5618 17.7884 16.5637C17.5469 16.5637 17.3327 16.4379 17.3327 16.1025L17.3491 14.6135C17.3493 14.5909 17.3451 14.5686 17.3367 14.5477C17.3282 14.5268 17.3157 14.5078 17.2998 14.4918C17.284 14.4758 17.2651 14.4631 17.2443 14.4544C17.2235 14.4457 17.2012 14.4412 17.1787 14.4412H16.6556C16.6106 14.4412 16.5674 14.4591 16.5354 14.4908C16.5035 14.5226 16.4854 14.5657 16.4852 14.6107L16.4688 16.3094C16.4633 17.0193 17.021 17.3383 17.7902 17.3383C17.9216 17.3431 18.0524 17.3176 18.1725 17.2639C18.2926 17.2102 18.3987 17.1296 18.4828 17.0284C18.6796 17.2389 18.984 17.3383 19.3531 17.3383C19.7221 17.3383 19.9983 17.29 20.2716 17.1341C20.4958 17.2574 20.7452 17.3275 21.0007 17.3392C21.7972 17.4002 22.2811 17.0403 22.3285 16.4215C22.3713 15.8665 21.9548 15.6451 21.3597 15.4391" fill="white"/>
<path d="M16.943 14.0722C17.0364 14.0727 17.1279 14.0455 17.2058 13.9939C17.2837 13.9423 17.3445 13.8688 17.3805 13.7826C17.4165 13.6964 17.4261 13.6014 17.408 13.5098C17.3899 13.4181 17.345 13.3339 17.2789 13.2679C17.2128 13.2018 17.1286 13.1569 17.037 13.1388C16.9454 13.1207 16.8504 13.1303 16.7642 13.1663C16.678 13.2023 16.6044 13.2631 16.5529 13.341C16.5013 13.4189 16.4741 13.5103 16.4746 13.6038C16.4749 13.7279 16.5243 13.8469 16.6121 13.9347C16.6999 14.0225 16.8189 14.0719 16.943 14.0722Z" fill="white"/>
<path d="M22.4714 17.5396C21.6995 17.5396 21.1209 17.9743 20.9614 18.707C20.9176 18.0199 20.4793 17.6135 19.8341 17.6135C19.3839 17.6135 19.0896 17.8158 18.9164 18.0873C18.7205 17.7811 18.3915 17.6135 17.9814 17.6135C17.6005 17.6135 16.3994 17.567 16.3994 19.1107C16.3994 19.1426 16.3994 19.1709 16.3994 19.2019V20.2334C16.4045 20.3418 16.4511 20.4441 16.5296 20.519C16.608 20.594 16.7124 20.6358 16.8209 20.6358C16.9294 20.6358 17.0337 20.594 17.1122 20.519C17.1907 20.4441 17.2373 20.3418 17.2424 20.2334V18.995C17.2424 18.6369 17.4447 18.3954 17.7791 18.3954C18.0853 18.3954 18.2639 18.6086 18.2639 18.9895V20.2307C18.269 20.3391 18.3156 20.4414 18.3941 20.5163C18.4726 20.5912 18.5769 20.633 18.6854 20.633C18.7939 20.633 18.8983 20.5912 18.9767 20.5163C19.0552 20.4414 19.1018 20.3391 19.1069 20.2307V18.8911C19.1415 18.5913 19.3265 18.3954 19.6263 18.3954C19.9498 18.3954 20.123 18.6086 20.123 18.9895V20.2307C20.128 20.3391 20.1746 20.4414 20.2531 20.5163C20.3316 20.5912 20.436 20.633 20.5445 20.633C20.653 20.633 20.7573 20.5912 20.8358 20.5163C20.9143 20.4414 20.9609 20.3391 20.9659 20.2307V19.5718C21.1309 20.2909 21.7096 20.7219 22.4951 20.7219C22.8424 20.7258 23.1823 20.6213 23.4675 20.423L23.4939 20.4039C23.503 20.3966 23.513 20.3902 23.5221 20.382C23.5221 20.382 23.5312 20.3738 23.5221 20.382C23.5367 20.3711 23.5513 20.3601 23.565 20.3483C23.6192 20.296 23.6576 20.2295 23.6756 20.1564C23.6936 20.0832 23.6906 20.0065 23.6669 19.935C23.6431 19.8636 23.5997 19.8003 23.5415 19.7524C23.4833 19.7046 23.4128 19.6742 23.3381 19.6648C23.2659 19.6547 23.1924 19.6648 23.1257 19.6939C23.0589 19.723 23.0015 19.77 22.9599 19.8297C22.8642 19.9555 22.6974 20.0266 22.4705 20.0266C22.0795 20.0266 21.849 19.7842 21.8326 19.406H23.6552C23.7277 19.406 23.7972 19.3772 23.8485 19.3259C23.8998 19.2746 23.9286 19.2051 23.9286 19.1326V19.0643C23.9286 18.1119 23.3499 17.5442 22.4705 17.5442L22.4714 17.5396ZM21.8326 18.8337C21.8563 18.4437 22.0987 18.2186 22.465 18.2186C22.8551 18.2186 23.0446 18.461 23.0619 18.8337H21.8326Z" fill="white"/>
</g>
<path d="M5 7C5 6.44772 5.44772 6 6 6H34C34.5523 6 35 6.44772 35 7V28C35 28.5523 34.5523 29 34 29H6C5.44772 29 5 28.5523 5 28V7Z" stroke="#202120" stroke-width="1.5" stroke-linecap="round" stroke-linejoin="round"/>
<path d="M1.22771 33.6833L4.53474 29.0833C4.57232 29.031 4.63276 29 4.69713 29H34.7974C34.8572 29 34.9139 29.0268 34.9519 29.073L38.7314 33.673C38.8386 33.8035 38.7457 34 38.5768 34H1.3901C1.22715 34 1.13259 33.8156 1.22771 33.6833Z" stroke="#202120" stroke-width="1.5" stroke-linecap="round"/>
<defs>
<clipPath id="clip0_1342_1311">
<rect width="12" height="12" fill="white" transform="translate(14 11.125)"/>
</clipPath>
</defs>
</svg>
