<svg width="40" height="40" viewBox="0 0 40 40" fill="none" xmlns="http://www.w3.org/2000/svg">
<g clip-path="url(#clip0_2026_3400)">
<path d="M2.67007 28.1395L2.66991 28.1393C1.94308 27.4125 1.35697 26.304 1.02955 25.0826C0.702131 23.8612 0.655237 22.6084 0.921087 21.6158C0.921095 21.6158 0.921103 21.6157 0.921112 21.6157L4.28539 9.06171L4.28541 9.06162C4.55128 8.06902 5.21825 7.00725 6.11251 6.11299C7.00676 5.21874 8.06853 4.55177 9.06113 4.2859L9.06122 4.28588L21.6152 0.9216C21.6153 0.921592 21.6153 0.921584 21.6153 0.921575C22.6079 0.655725 23.8607 0.702619 25.0821 1.03004C26.3035 1.35746 27.412 1.94357 28.1388 2.6704L37.3286 11.8602L37.3291 11.8607C38.0554 12.5855 38.6412 13.6936 38.9692 14.9158C39.297 16.1378 39.3451 17.3919 39.0815 18.3851C39.0815 18.3852 39.0814 18.3853 39.0814 18.3854L35.7132 30.9376L35.7131 30.9379C35.4473 31.9305 34.7803 32.9923 33.886 33.8865C32.9918 34.7808 31.93 35.4477 30.9374 35.7136L30.9371 35.7137L18.3833 39.0823C17.3906 39.3482 16.1377 39.3016 14.9163 38.9744C13.6949 38.6472 12.5865 38.0614 11.8597 37.3346L2.67007 28.1395Z" stroke="#202120" stroke-width="1.5"/>
<path d="M23.8772 15.2303C22.8831 14.8907 22.2516 14.7603 22.2966 14.171C22.3314 13.7121 22.6793 13.4762 23.3173 13.5285C23.7826 13.5643 24.0644 13.7571 24.2067 14.0471C24.2961 14.2281 24.4336 14.381 24.6041 14.4891C24.7745 14.5972 24.9714 14.6565 25.1732 14.6603C26.1003 14.6805 26.6648 13.6038 26.0838 12.8805C25.5615 12.2306 24.7023 11.791 23.4907 11.6982C21.364 11.5349 20.0239 12.4858 19.899 14.105C19.7659 15.8389 20.9317 16.3079 22.6958 16.9036C23.901 17.2919 24.1993 17.48 24.1645 17.9867C24.1268 18.4778 23.6963 18.721 23.0419 18.6742C22.4967 18.632 22.1616 18.4163 22.0037 18.0923C21.8266 17.7251 21.4291 17.5223 21.0244 17.514C20.874 17.5095 20.7244 17.5363 20.5849 17.5925C20.4454 17.6487 20.3191 17.7333 20.2139 17.8408C20.2139 17.8408 19.7549 18.3539 18.86 18.3539C18.2092 18.3364 17.6328 17.9867 17.6328 17.0753L17.6548 14.0279C17.8269 14.1341 18.0213 14.1988 18.2227 14.2171C18.4242 14.2354 18.6271 14.2066 18.8155 14.1331C19.0039 14.0596 19.1726 13.9433 19.3085 13.7934C19.4443 13.6436 19.5434 13.4643 19.5981 13.2696C19.6528 13.0748 19.6616 12.8701 19.6237 12.6714C19.5858 12.4728 19.5022 12.2856 19.3797 12.1248C19.2571 11.9639 19.0989 11.8337 18.9174 11.7444C18.736 11.6551 18.5363 11.6091 18.334 11.6101C18.0989 11.6118 17.8689 11.6785 17.6695 11.8029L17.6713 10.684C17.6719 10.5898 17.6539 10.4965 17.6183 10.4093C17.5827 10.3221 17.5301 10.2429 17.4638 10.1761C17.3974 10.1093 17.3185 10.0562 17.2315 10.0201C17.1446 9.98389 17.0514 9.96527 16.9572 9.96527H15.9879C15.7991 9.96527 15.618 10.04 15.4842 10.1731C15.3504 10.3063 15.2747 10.487 15.2738 10.6757L15.2315 17.2184C15.1682 18.0326 14.6055 18.3456 13.9759 18.3502C13.3077 18.3502 12.7073 18.0005 12.7073 17.0716L12.7523 12.9411C12.7528 12.8788 12.741 12.8171 12.7175 12.7594C12.694 12.7017 12.6593 12.6493 12.6154 12.6051C12.5716 12.5609 12.5194 12.5258 12.4619 12.5019C12.4044 12.4779 12.3428 12.4656 12.2805 12.4656H10.8293C10.7049 12.4656 10.5854 12.5148 10.497 12.6025C10.4087 12.6902 10.3585 12.8092 10.3575 12.9337L10.3117 17.648C10.2951 19.6132 11.8436 20.4972 13.9759 20.4972C14.8681 20.4972 15.4803 20.1373 15.9034 19.6371C16.445 20.2218 17.2904 20.4972 18.3138 20.4972C19.3373 20.4972 20.1028 20.3631 20.8628 19.9317C21.3915 20.2429 22.0652 20.4375 22.8822 20.4999C25.0906 20.6697 26.4344 19.6738 26.5666 17.9518C26.6822 16.4162 25.5285 15.8003 23.8772 15.2303Z" fill="#FF4612"/>
<path d="M11.6131 11.4193C11.8722 11.4202 12.1256 11.344 12.3413 11.2005C12.5569 11.057 12.725 10.8526 12.8243 10.6133C12.9235 10.3741 12.9493 10.1107 12.8984 9.85668C12.8476 9.60269 12.7223 9.36955 12.5387 9.1869C12.355 9.00426 12.1211 8.88035 11.8669 8.83093C11.6126 8.78152 11.3494 8.80882 11.1106 8.90938C10.8719 9.00994 10.6685 9.17921 10.5262 9.39567C10.3839 9.61213 10.3092 9.86601 10.3116 10.125C10.3138 10.4689 10.4518 10.7979 10.6957 11.0404C10.9395 11.2828 11.2693 11.419 11.6131 11.4193Z" fill="#FF4612"/>
<path d="M26.9472 21.0405C24.8066 21.0405 23.2003 22.2447 22.7579 24.2779C22.6367 22.3732 21.4224 21.2314 19.6316 21.2314C18.3823 21.2314 17.5654 21.7922 17.0853 22.5449C16.5401 21.6995 15.6277 21.2314 14.4905 21.2314C13.4349 21.2314 10.102 21.1029 10.102 25.3848C10.102 25.4766 10.102 25.5537 10.102 25.6354V25.6409V28.502C10.0976 28.6583 10.1246 28.8138 10.1814 28.9595C10.2382 29.1051 10.3236 29.2379 10.4326 29.35C10.5415 29.4621 10.6719 29.5511 10.8159 29.612C10.9599 29.6728 11.1146 29.7042 11.271 29.7042C11.4273 29.7042 11.582 29.6728 11.726 29.612C11.87 29.5511 12.0004 29.4621 12.1093 29.35C12.2183 29.2379 12.3037 29.1051 12.3605 28.9595C12.4173 28.8138 12.4443 28.6583 12.4399 28.502V25.0783C12.4399 24.0851 13.0007 23.4132 13.9296 23.4132C14.7787 23.4132 15.2743 24.0053 15.2743 25.0654V28.5084C15.2743 28.8186 15.3975 29.116 15.6168 29.3353C15.8362 29.5546 16.1336 29.6778 16.4437 29.6778C16.7539 29.6778 17.0513 29.5546 17.2706 29.3353C17.4899 29.116 17.6131 28.8186 17.6131 28.5084V24.7901C17.7049 23.9575 18.2217 23.4132 19.0542 23.4132C19.951 23.4132 20.4311 24.0053 20.4311 25.0654V28.5084C20.4267 28.6647 20.4537 28.8202 20.5104 28.9659C20.5672 29.1115 20.6526 29.2443 20.7616 29.3564C20.8706 29.4685 21.0009 29.5576 21.1449 29.6184C21.2889 29.6792 21.4437 29.7106 21.6 29.7106C21.7563 29.7106 21.911 29.6792 22.0551 29.6184C22.1991 29.5576 22.3294 29.4685 22.4384 29.3564C22.5474 29.2443 22.6328 29.1115 22.6895 28.9659C22.7463 28.8202 22.7733 28.6647 22.7689 28.5084V26.6782C23.2279 28.6736 24.8342 29.8687 27.0114 29.8687C28.0349 29.8687 29.006 29.5557 29.7119 29.0426C29.7366 29.0252 29.7596 29.0078 29.7834 28.9903C29.8073 28.9729 29.8385 28.9518 29.8642 28.9307C29.8642 28.9307 29.8642 28.9233 29.8697 28.9206C29.9083 28.8894 29.9496 28.8591 29.9863 28.8288C30.671 28.2028 30.2773 27.0527 29.3575 26.9315C29.1574 26.9045 28.9537 26.933 28.7686 27.0139C28.5836 27.0948 28.4244 27.2251 28.3084 27.3904C28.0413 27.7392 27.5796 27.9357 26.9481 27.9357C25.865 27.9357 25.2252 27.2629 25.1756 26.2128H30.2378C30.4401 26.2128 30.6341 26.1324 30.7772 25.9894C30.9202 25.8463 31.0006 25.6523 31.0006 25.45V25.2609C31.0006 22.6165 29.3924 21.0405 26.9472 21.0405ZM25.1747 24.6202C25.2399 23.5371 25.909 22.9139 26.9306 22.9139C28.0138 22.9139 28.5388 23.5867 28.5884 24.6202H25.1747Z" fill="#FF4612"/>
</g>
<defs>
<clipPath id="clip0_2026_3400">
<rect width="40" height="40" fill="white"/>
</clipPath>
</defs>
</svg>
