<svg width="40" height="40" viewBox="0 0 40 40" fill="none" xmlns="http://www.w3.org/2000/svg">
<path d="M22.4314 23.3907L26.5245 27.1025C26.714 27.2744 26.9871 27.3183 27.221 27.2147C27.4549 27.111 27.6058 26.8792 27.6058 26.6233V23.3906H28.8994C31.0427 23.3906 32.7802 21.6531 32.7802 19.5098V11.7482C32.7802 9.60487 31.0427 7.86737 28.8994 7.86737H15.9633C13.82 7.86737 12.0825 9.60487 12.0825 11.7482V19.5099C12.0825 21.6532 13.82 23.3907 15.9633 23.3907H22.4314ZM22.4314 23.3907L22.4315 25.9778C22.4315 27.4067 21.2731 28.5651 19.8443 28.5651H15.9634L11.8702 32.2769C11.6807 32.4488 11.4076 32.4927 11.1737 32.389C10.9397 32.2853 10.789 32.0535 10.789 31.7976V28.5651H9.49541C8.06654 28.5651 6.9082 27.4067 6.9082 25.9778V19.5098C6.9082 18.0809 8.06654 16.9226 9.49541 16.9226H12.0826" stroke="#202120" stroke-width="1.5" stroke-linecap="round" stroke-linejoin="round"/>
<path fill-rule="evenodd" clip-rule="evenodd" d="M23.1839 12.3928C23.1827 11.9785 22.8459 11.6437 22.4317 11.645C22.0175 11.6462 21.6827 11.9829 21.6839 12.3972L21.6869 13.409H19.1973C18.7831 13.409 18.4473 13.7448 18.4473 14.159C18.4473 14.5732 18.7831 14.909 19.1973 14.909H22.4572L21.532 16.0305L21.526 16.0378L19.5889 18.3857C19.3253 18.7052 19.3707 19.1779 19.6902 19.4415C20.0097 19.7051 20.4824 19.6598 20.746 19.3403L22.1856 17.5953L24.1906 19.4179C24.4971 19.6966 24.9714 19.674 25.25 19.3675C25.5287 19.061 25.5061 18.5867 25.1996 18.308L23.1413 16.4369L24.4018 14.909H25.6653C26.0795 14.909 26.4153 14.5732 26.4153 14.159C26.4153 13.7448 26.0795 13.409 25.6653 13.409H24.0506H24.0468H23.1869L23.1839 12.3928Z" fill="#FF4612"/>
</svg>
