<svg width="40" height="40" viewBox="0 0 40 40" fill="none" xmlns="http://www.w3.org/2000/svg">
<g clip-path="url(#clip0_2040_4570)">
<path d="M27.9657 37.6004C28.0074 37.7257 28.0188 37.8592 27.9988 37.9897C27.9788 38.1203 27.928 38.2443 27.8507 38.3514C27.7734 38.4585 27.6717 38.5457 27.5541 38.6058C27.4364 38.6659 27.3062 38.6971 27.1741 38.6969H12.8221C12.69 38.6971 12.5597 38.6659 12.4421 38.6058C12.3244 38.5457 12.2228 38.4585 12.1454 38.3514C12.0681 38.2443 12.0174 38.1203 11.9974 37.9897C11.9774 37.8592 11.9887 37.7257 12.0305 37.6004L12.8054 35.2789C12.9589 34.8186 13.2533 34.4182 13.6468 34.1343C14.0404 33.8505 14.5133 33.6976 14.9985 33.6974H24.9976C25.4829 33.6976 25.9557 33.8505 26.3493 34.1343C26.7429 34.4182 27.0373 34.8186 27.1907 35.2789L27.9657 37.6004Z" stroke="#202120" stroke-width="1.5" stroke-linecap="round" stroke-linejoin="round"/>
<path d="M23.3311 33.6974H16.665V32.0309C16.665 31.1469 17.0162 30.2992 17.6413 29.6741C18.2663 29.049 19.1141 28.6979 19.9981 28.6979C20.882 28.6979 21.7298 29.049 22.3549 29.6741C22.9799 30.2992 23.3311 31.1469 23.3311 32.0309V33.6974Z" stroke="#202120" stroke-width="1.5" stroke-linecap="round" stroke-linejoin="round"/>
<path d="M19.998 28.6979V8.69971" stroke="#202120" stroke-width="1.5" stroke-linecap="round" stroke-linejoin="round"/>
<path d="M22.4981 6.19985C22.4981 6.86283 22.2347 7.49866 21.7659 7.96746C21.2971 8.43625 20.6613 8.69962 19.9983 8.69962C19.3353 8.69962 18.6995 8.43625 18.2307 7.96746C17.7619 7.49866 17.4985 6.86283 17.4985 6.19985C17.8533 4.63511 18.4468 3.13433 19.2584 1.75026C19.3286 1.61463 19.4348 1.50091 19.5653 1.42153C19.6958 1.34215 19.8456 1.30017 19.9983 1.30017C20.151 1.30017 20.3008 1.34215 20.4313 1.42153C20.5618 1.50091 20.668 1.61463 20.7382 1.75026C21.5508 3.1338 22.1445 4.63476 22.4981 6.19985Z" stroke="#202120" stroke-width="1.5" stroke-linecap="round" stroke-linejoin="round"/>
<path d="M4.99951 12.0326H34.9967" stroke="#202120" stroke-width="1.5" stroke-linecap="round" stroke-linejoin="round"/>
<path d="M8.33252 12.0326V20.3652" stroke="#202120" stroke-width="1.5" stroke-linecap="round" stroke-linejoin="round"/>
<path d="M14.1054 20.3653C14.2255 20.3641 14.3445 20.3888 14.4542 20.4379C14.5638 20.487 14.6616 20.5592 14.7407 20.6496C14.8199 20.7399 14.8786 20.8464 14.9127 20.9616C14.9469 21.0767 14.9557 21.1979 14.9387 21.3169C14.7122 22.9058 13.9201 24.3598 12.7078 25.4116C11.4954 26.4634 9.94431 27.0426 8.33928 27.0426C6.73425 27.0426 5.18311 26.4634 3.97078 25.4116C2.75844 24.3598 1.96631 22.9058 1.7399 21.3169C1.72283 21.1979 1.73168 21.0767 1.76584 20.9616C1.80001 20.8464 1.85867 20.7399 1.93782 20.6496C2.01696 20.5592 2.11472 20.487 2.22438 20.4379C2.33404 20.3888 2.45302 20.3641 2.57315 20.3653H14.1054Z" stroke="#FF4612" stroke-width="1.5" stroke-linecap="round" stroke-linejoin="round"/>
<path d="M31.6636 12.0326V20.3652" stroke="#202120" stroke-width="1.5" stroke-linecap="round" stroke-linejoin="round"/>
<path d="M25.4843 20.3653C25.4202 20.3656 25.3568 20.379 25.298 20.4047C25.2393 20.4303 25.1864 20.4677 25.1426 20.5145C25.0987 20.5613 25.0649 20.6165 25.0431 20.6768C25.0214 20.7371 25.0121 20.8012 25.016 20.8652C25.1378 22.5044 25.8609 24.0408 27.0464 25.1794C28.2319 26.3179 29.7963 26.9783 31.4391 27.0337C33.0819 27.089 34.6872 26.5355 35.9467 25.4794C37.2063 24.4233 38.0312 22.9391 38.2631 21.3119C38.2802 21.1929 38.2713 21.0717 38.2371 20.9565C38.203 20.8414 38.1443 20.7349 38.0652 20.6445C37.986 20.5542 37.8883 20.482 37.7786 20.4329C37.6689 20.3838 37.55 20.3591 37.4298 20.3603L25.4843 20.3653Z" stroke="#FF4612" stroke-width="1.5" stroke-linecap="round" stroke-linejoin="round"/>
</g>
<defs>
<clipPath id="clip0_2040_4570">
<rect width="39.9963" height="39.9963" fill="white" transform="translate(0 0.000366211)"/>
</clipPath>
</defs>
</svg>
