<svg width="40" height="40" viewBox="0 0 40 40" fill="none" xmlns="http://www.w3.org/2000/svg">
<path d="M4.47705 9.90561C4.47705 10.6188 4.81069 11.3251 5.45892 11.984C6.10715 12.6429 7.05728 13.2417 8.25506 13.746C9.45283 14.2503 10.8748 14.6504 12.4398 14.9233C14.0047 15.1963 15.6821 15.3367 17.376 15.3367C19.0699 15.3367 20.7472 15.1963 22.3122 14.9233C23.8771 14.6504 25.2991 14.2503 26.4969 13.746C27.6947 13.2417 28.6448 12.6429 29.293 11.984C29.9413 11.3251 30.2749 10.6188 30.2749 9.90561C30.2749 9.19239 29.9413 8.48615 29.293 7.82721C28.6448 7.16828 27.6947 6.56955 26.4969 6.06523C25.2991 5.5609 23.8771 5.16085 22.3122 4.88791C20.7472 4.61497 19.0699 4.47449 17.376 4.47449C15.6821 4.47449 14.0047 4.61497 12.4398 4.88791C10.8748 5.16085 9.45283 5.5609 8.25506 6.06523C7.05728 6.56955 6.10715 7.16828 5.45892 7.82721C4.81069 8.48615 4.47705 9.19239 4.47705 9.90561V9.90561Z" stroke="#202120" stroke-width="1.5" stroke-linecap="round" stroke-linejoin="round"/>
<path d="M18.7328 20.738C18.2847 20.7584 17.8339 20.7679 17.375 20.7679C10.2521 20.7679 4.47607 18.3375 4.47607 15.3368" stroke="#202120" stroke-width="1.5" stroke-linecap="round" stroke-linejoin="round"/>
<path d="M18.7328 26.848C18.2847 26.8684 17.8339 26.8779 17.375 26.8779C10.2521 26.8779 4.47607 24.4475 4.47607 21.4468" stroke="#202120" stroke-width="1.5" stroke-linecap="round" stroke-linejoin="round"/>
<path d="M30.2739 16.0155V9.90552" stroke="#202120" stroke-width="1.5" stroke-linecap="round" stroke-linejoin="round"/>
<path d="M4.47607 9.90417V27.5553C4.47607 30.556 10.2521 32.9865 17.375 32.9865C17.8339 32.9865 18.2874 32.977 18.7328 32.9566" stroke="#202120" stroke-width="1.5" stroke-linecap="round" stroke-linejoin="round"/>
<path d="M35.2598 35.5819C35.2598 35.9576 35.1106 36.3179 34.8449 36.5836C34.5792 36.8493 34.2189 36.9986 33.8432 36.9986H23.9264C23.5507 36.9986 23.1904 36.8493 22.9247 36.5836C22.659 36.3179 22.5098 35.9576 22.5098 35.5819V27.0818C22.5098 26.7061 22.659 26.3458 22.9247 26.0801C23.1904 25.8144 23.5507 25.6652 23.9264 25.6652H33.8432C34.2189 25.6652 34.5792 25.8144 34.8449 26.0801C35.1106 26.3458 35.2598 26.7061 35.2598 27.0818V35.5819Z" stroke="#FF4612" stroke-width="1.5" stroke-linecap="round" stroke-linejoin="round"/>
<path d="M27.1143 31.4225C27.1143 31.8921 27.3008 32.3425 27.6329 32.6746C27.965 33.0067 28.4154 33.1933 28.8851 33.1933C29.3548 33.1933 29.8052 33.0067 30.1373 32.6746C30.4694 32.3425 30.6559 31.8921 30.6559 31.4225C30.6559 30.9528 30.4694 30.5024 30.1373 30.1703C29.8052 29.8382 29.3548 29.6516 28.8851 29.6516C28.4154 29.6516 27.965 29.8382 27.6329 30.1703C27.3008 30.5024 27.1143 30.9528 27.1143 31.4225V31.4225Z" stroke="#FF4612" stroke-width="1.5" stroke-linecap="round" stroke-linejoin="round"/>
<path d="M32.4266 23.5402C32.4266 22.6009 32.0535 21.7001 31.3893 21.0359C30.7251 20.3717 29.8243 19.9985 28.8849 19.9985C27.9456 19.9985 27.0448 20.3717 26.3806 21.0359C25.7164 21.7001 25.3433 22.6009 25.3433 23.5402V25.6652H32.4266V23.5402Z" stroke="#FF4612" stroke-width="1.5" stroke-linecap="round" stroke-linejoin="round"/>
</svg>
