<svg width="40" height="40" viewBox="0 0 40 40" fill="none" xmlns="http://www.w3.org/2000/svg">
<path d="M36.2607 14.8241C36.4568 14.8241 36.6448 14.7462 36.7834 14.6076C36.922 14.4689 36.9999 14.2809 36.9999 14.0849V10.3889C36.9999 9.60472 36.6884 8.85265 36.1339 8.29815C35.5794 7.74364 34.8273 7.43213 34.0431 7.43213H5.95384C5.16965 7.43213 4.41759 7.74364 3.86309 8.29815C3.30859 8.85265 2.99707 9.60472 2.99707 10.3889V14.0849C2.99707 14.2809 3.07495 14.4689 3.21357 14.6076C3.3522 14.7462 3.54022 14.8241 3.73626 14.8241C5.10858 14.8241 6.4247 15.3692 7.39508 16.3396C8.36545 17.31 8.91061 18.6261 8.91061 19.9984C8.91061 21.3707 8.36545 22.6868 7.39508 23.6572C6.4247 24.6276 5.10858 25.1728 3.73626 25.1728C3.54022 25.1728 3.3522 25.2506 3.21357 25.3893C3.07495 25.5279 2.99707 25.7159 2.99707 25.912V29.6079C2.99707 30.3921 3.30859 31.1442 3.86309 31.6987C4.41759 32.2532 5.16965 32.5647 5.95384 32.5647H34.0431C34.8273 32.5647 35.5794 32.2532 36.1339 31.6987C36.6884 31.1442 36.9999 30.3921 36.9999 29.6079V25.912C36.9999 25.7159 36.922 25.5279 36.7834 25.3893C36.6448 25.2506 36.4568 25.1728 36.2607 25.1728C34.8884 25.1728 33.5723 24.6276 32.6019 23.6572C31.6315 22.6868 31.0864 21.3707 31.0864 19.9984C31.0864 18.6261 31.6315 17.31 32.6019 16.3396C33.5723 15.3692 34.8884 14.8241 36.2607 14.8241V14.8241Z" stroke="#202120" stroke-width="1.5" stroke-linecap="round" stroke-linejoin="round"/>
<path d="M19.3155 15.1064C19.3718 14.9722 19.4666 14.8576 19.5878 14.777C19.7091 14.6964 19.8514 14.6534 19.997 14.6534C20.1426 14.6534 20.2849 14.6964 20.4062 14.777C20.5274 14.8576 20.6222 14.9722 20.6785 15.1064L21.9056 18.0395H24.2858C24.4387 18.0396 24.5878 18.087 24.7126 18.1753C24.8373 18.2636 24.9317 18.3884 24.9826 18.5326C25.0335 18.6767 25.0385 18.8331 24.9968 18.9802C24.9552 19.1272 24.8689 19.2578 24.75 19.3538L22.5487 21.1279L23.6117 23.9634C23.6672 24.1117 23.6738 24.2738 23.6303 24.426C23.5869 24.5782 23.4957 24.7124 23.3702 24.8089C23.2447 24.9055 23.0916 24.9591 22.9333 24.9621C22.7751 24.965 22.62 24.9171 22.491 24.8253L19.9985 23.0513L17.5059 24.8253C17.3771 24.9174 17.2221 24.9657 17.0637 24.963C16.9054 24.9603 16.7521 24.9069 16.6264 24.8105C16.5007 24.7141 16.4093 24.58 16.3656 24.4277C16.322 24.2755 16.3284 24.1133 16.3838 23.9649L17.4468 21.1294L15.2455 19.3553C15.1266 19.2593 15.0403 19.1287 14.9987 18.9816C14.957 18.8346 14.962 18.6782 15.0129 18.534C15.0638 18.3899 15.1582 18.2651 15.2829 18.1768C15.4077 18.0885 15.5568 18.0411 15.7097 18.041H18.0766L19.3155 15.1064Z" stroke="#FF4612" stroke-width="1.5" stroke-linecap="round" stroke-linejoin="round"/>
<path d="M8.91064 10.7585C9.00867 10.7585 9.10268 10.7975 9.17199 10.8668C9.2413 10.9361 9.28024 11.0301 9.28024 11.1281" stroke="#202120" stroke-width="1.5" stroke-linecap="round" stroke-linejoin="round"/>
<path d="M8.54102 11.1281C8.54102 11.0301 8.57995 10.9361 8.64927 10.8668C8.71858 10.7975 8.81259 10.7585 8.91061 10.7585" stroke="#202120" stroke-width="1.5" stroke-linecap="round" stroke-linejoin="round"/>
<path d="M8.91061 11.4978C8.81259 11.4978 8.71858 11.4588 8.64927 11.3895C8.57995 11.3202 8.54102 11.2262 8.54102 11.1282" stroke="#202120" stroke-width="1.5" stroke-linecap="round" stroke-linejoin="round"/>
<path d="M9.28024 11.1282C9.28024 11.2262 9.2413 11.3202 9.17199 11.3895C9.10268 11.4588 9.00867 11.4978 8.91064 11.4978" stroke="#202120" stroke-width="1.5" stroke-linecap="round" stroke-linejoin="round"/>
<path d="M13.3457 10.7585C13.4437 10.7585 13.5377 10.7975 13.607 10.8668C13.6764 10.9361 13.7153 11.0301 13.7153 11.1281" stroke="#202120" stroke-width="1.5" stroke-linecap="round" stroke-linejoin="round"/>
<path d="M12.9761 11.1281C12.9761 11.0301 13.015 10.9361 13.0843 10.8668C13.1536 10.7975 13.2476 10.7585 13.3457 10.7585" stroke="#202120" stroke-width="1.5" stroke-linecap="round" stroke-linejoin="round"/>
<path d="M13.3457 11.4978C13.2476 11.4978 13.1536 11.4588 13.0843 11.3895C13.015 11.3202 12.9761 11.2262 12.9761 11.1282" stroke="#202120" stroke-width="1.5" stroke-linecap="round" stroke-linejoin="round"/>
<path d="M13.7153 11.1282C13.7153 11.2262 13.6764 11.3202 13.607 11.3895C13.5377 11.4588 13.4437 11.4978 13.3457 11.4978" stroke="#202120" stroke-width="1.5" stroke-linecap="round" stroke-linejoin="round"/>
<path d="M17.7808 10.7585C17.8788 10.7585 17.9728 10.7975 18.0421 10.8668C18.1114 10.9361 18.1504 11.0301 18.1504 11.1281" stroke="#202120" stroke-width="1.5" stroke-linecap="round" stroke-linejoin="round"/>
<path d="M17.4116 11.1281C17.4116 11.0301 17.4506 10.9361 17.5199 10.8668C17.5892 10.7975 17.6832 10.7585 17.7812 10.7585" stroke="#202120" stroke-width="1.5" stroke-linecap="round" stroke-linejoin="round"/>
<path d="M17.7812 11.4978C17.6832 11.4978 17.5892 11.4588 17.5199 11.3895C17.4506 11.3202 17.4116 11.2262 17.4116 11.1282" stroke="#202120" stroke-width="1.5" stroke-linecap="round" stroke-linejoin="round"/>
<path d="M18.1504 11.1282C18.1504 11.2262 18.1114 11.3202 18.0421 11.3895C17.9728 11.4588 17.8788 11.4978 17.7808 11.4978" stroke="#202120" stroke-width="1.5" stroke-linecap="round" stroke-linejoin="round"/>
<path d="M22.2163 10.7585C22.3143 10.7585 22.4083 10.7975 22.4777 10.8668C22.547 10.9361 22.5859 11.0301 22.5859 11.1281" stroke="#202120" stroke-width="1.5" stroke-linecap="round" stroke-linejoin="round"/>
<path d="M21.8467 11.1281C21.8467 11.0301 21.8856 10.9361 21.9549 10.8668C22.0242 10.7975 22.1183 10.7585 22.2163 10.7585" stroke="#202120" stroke-width="1.5" stroke-linecap="round" stroke-linejoin="round"/>
<path d="M22.2163 11.4978C22.1183 11.4978 22.0242 11.4588 21.9549 11.3895C21.8856 11.3202 21.8467 11.2262 21.8467 11.1282" stroke="#202120" stroke-width="1.5" stroke-linecap="round" stroke-linejoin="round"/>
<path d="M22.5859 11.1282C22.5859 11.2262 22.547 11.3202 22.4777 11.3895C22.4083 11.4588 22.3143 11.4978 22.2163 11.4978" stroke="#202120" stroke-width="1.5" stroke-linecap="round" stroke-linejoin="round"/>
<path d="M26.6514 10.7585C26.7494 10.7585 26.8434 10.7975 26.9127 10.8668C26.982 10.9361 27.021 11.0301 27.021 11.1281" stroke="#202120" stroke-width="1.5" stroke-linecap="round" stroke-linejoin="round"/>
<path d="M26.2812 11.1281C26.2812 11.0301 26.3202 10.9361 26.3895 10.8668C26.4588 10.7975 26.5528 10.7585 26.6508 10.7585" stroke="#202120" stroke-width="1.5" stroke-linecap="round" stroke-linejoin="round"/>
<path d="M26.6508 11.4978C26.5528 11.4978 26.4588 11.4588 26.3895 11.3895C26.3202 11.3202 26.2812 11.2262 26.2812 11.1282" stroke="#202120" stroke-width="1.5" stroke-linecap="round" stroke-linejoin="round"/>
<path d="M27.021 11.1282C27.021 11.2262 26.982 11.3202 26.9127 11.3895C26.8434 11.4588 26.7494 11.4978 26.6514 11.4978" stroke="#202120" stroke-width="1.5" stroke-linecap="round" stroke-linejoin="round"/>
<path d="M31.0864 10.7585C31.1844 10.7585 31.2785 10.7975 31.3478 10.8668C31.4171 10.9361 31.456 11.0301 31.456 11.1281" stroke="#202120" stroke-width="1.5" stroke-linecap="round" stroke-linejoin="round"/>
<path d="M30.7168 11.1281C30.7168 11.0301 30.7557 10.9361 30.825 10.8668C30.8944 10.7975 30.9884 10.7585 31.0864 10.7585" stroke="#202120" stroke-width="1.5" stroke-linecap="round" stroke-linejoin="round"/>
<path d="M31.0864 11.4978C30.9884 11.4978 30.8944 11.4588 30.825 11.3895C30.7557 11.3202 30.7168 11.2262 30.7168 11.1282" stroke="#202120" stroke-width="1.5" stroke-linecap="round" stroke-linejoin="round"/>
<path d="M31.456 11.1282C31.456 11.2262 31.4171 11.3202 31.3478 11.3895C31.2785 11.4588 31.1844 11.4978 31.0864 11.4978" stroke="#202120" stroke-width="1.5" stroke-linecap="round" stroke-linejoin="round"/>
<path d="M8.91064 28.4991C9.00867 28.4991 9.10268 28.5381 9.17199 28.6074C9.2413 28.6767 9.28024 28.7707 9.28024 28.8687" stroke="#202120" stroke-width="1.5" stroke-linecap="round" stroke-linejoin="round"/>
<path d="M8.54102 28.8687C8.54102 28.7707 8.57995 28.6767 8.64927 28.6074C8.71858 28.5381 8.81259 28.4991 8.91061 28.4991" stroke="#202120" stroke-width="1.5" stroke-linecap="round" stroke-linejoin="round"/>
<path d="M8.91061 29.2384C8.81259 29.2384 8.71858 29.1994 8.64927 29.1301C8.57995 29.0608 8.54102 28.9668 8.54102 28.8688" stroke="#202120" stroke-width="1.5" stroke-linecap="round" stroke-linejoin="round"/>
<path d="M9.28024 28.8688C9.28024 28.9668 9.2413 29.0608 9.17199 29.1301C9.10268 29.1994 9.00867 29.2384 8.91064 29.2384" stroke="#202120" stroke-width="1.5" stroke-linecap="round" stroke-linejoin="round"/>
<path d="M13.3457 28.4991C13.4437 28.4991 13.5377 28.5381 13.607 28.6074C13.6764 28.6767 13.7153 28.7707 13.7153 28.8687" stroke="#202120" stroke-width="1.5" stroke-linecap="round" stroke-linejoin="round"/>
<path d="M12.9761 28.8687C12.9761 28.7707 13.015 28.6767 13.0843 28.6074C13.1536 28.5381 13.2476 28.4991 13.3457 28.4991" stroke="#202120" stroke-width="1.5" stroke-linecap="round" stroke-linejoin="round"/>
<path d="M13.3457 29.2384C13.2476 29.2384 13.1536 29.1994 13.0843 29.1301C13.015 29.0608 12.9761 28.9668 12.9761 28.8688" stroke="#202120" stroke-width="1.5" stroke-linecap="round" stroke-linejoin="round"/>
<path d="M13.7153 28.8688C13.7153 28.9668 13.6764 29.0608 13.607 29.1301C13.5377 29.1994 13.4437 29.2384 13.3457 29.2384" stroke="#202120" stroke-width="1.5" stroke-linecap="round" stroke-linejoin="round"/>
<path d="M17.7808 28.4991C17.8788 28.4991 17.9728 28.5381 18.0421 28.6074C18.1114 28.6767 18.1504 28.7707 18.1504 28.8687" stroke="#202120" stroke-width="1.5" stroke-linecap="round" stroke-linejoin="round"/>
<path d="M17.4116 28.8687C17.4116 28.7707 17.4506 28.6767 17.5199 28.6074C17.5892 28.5381 17.6832 28.4991 17.7812 28.4991" stroke="#202120" stroke-width="1.5" stroke-linecap="round" stroke-linejoin="round"/>
<path d="M17.7812 29.2384C17.6832 29.2384 17.5892 29.1994 17.5199 29.1301C17.4506 29.0608 17.4116 28.9668 17.4116 28.8688" stroke="#202120" stroke-width="1.5" stroke-linecap="round" stroke-linejoin="round"/>
<path d="M18.1504 28.8688C18.1504 28.9668 18.1114 29.0608 18.0421 29.1301C17.9728 29.1994 17.8788 29.2384 17.7808 29.2384" stroke="#202120" stroke-width="1.5" stroke-linecap="round" stroke-linejoin="round"/>
<path d="M22.2163 28.4991C22.3143 28.4991 22.4083 28.5381 22.4777 28.6074C22.547 28.6767 22.5859 28.7707 22.5859 28.8687" stroke="#202120" stroke-width="1.5" stroke-linecap="round" stroke-linejoin="round"/>
<path d="M21.8467 28.8687C21.8467 28.7707 21.8856 28.6767 21.9549 28.6074C22.0242 28.5381 22.1183 28.4991 22.2163 28.4991" stroke="#202120" stroke-width="1.5" stroke-linecap="round" stroke-linejoin="round"/>
<path d="M22.2163 29.2384C22.1183 29.2384 22.0242 29.1994 21.9549 29.1301C21.8856 29.0608 21.8467 28.9668 21.8467 28.8688" stroke="#202120" stroke-width="1.5" stroke-linecap="round" stroke-linejoin="round"/>
<path d="M22.5859 28.8688C22.5859 28.9668 22.547 29.0608 22.4777 29.1301C22.4083 29.1994 22.3143 29.2384 22.2163 29.2384" stroke="#202120" stroke-width="1.5" stroke-linecap="round" stroke-linejoin="round"/>
<path d="M26.6514 28.4991C26.7494 28.4991 26.8434 28.5381 26.9127 28.6074C26.982 28.6767 27.021 28.7707 27.021 28.8687" stroke="#202120" stroke-width="1.5" stroke-linecap="round" stroke-linejoin="round"/>
<path d="M26.2812 28.8687C26.2812 28.7707 26.3202 28.6767 26.3895 28.6074C26.4588 28.5381 26.5528 28.4991 26.6508 28.4991" stroke="#202120" stroke-width="1.5" stroke-linecap="round" stroke-linejoin="round"/>
<path d="M26.6508 29.2384C26.5528 29.2384 26.4588 29.1994 26.3895 29.1301C26.3202 29.0608 26.2812 28.9668 26.2812 28.8688" stroke="#202120" stroke-width="1.5" stroke-linecap="round" stroke-linejoin="round"/>
<path d="M27.021 28.8688C27.021 28.9668 26.982 29.0608 26.9127 29.1301C26.8434 29.1994 26.7494 29.2384 26.6514 29.2384" stroke="#202120" stroke-width="1.5" stroke-linecap="round" stroke-linejoin="round"/>
<path d="M31.0864 28.4991C31.1844 28.4991 31.2785 28.5381 31.3478 28.6074C31.4171 28.6767 31.456 28.7707 31.456 28.8687" stroke="#202120" stroke-width="1.5" stroke-linecap="round" stroke-linejoin="round"/>
<path d="M30.7168 28.8687C30.7168 28.7707 30.7557 28.6767 30.825 28.6074C30.8944 28.5381 30.9884 28.4991 31.0864 28.4991" stroke="#202120" stroke-width="1.5" stroke-linecap="round" stroke-linejoin="round"/>
<path d="M31.0864 29.2384C30.9884 29.2384 30.8944 29.1994 30.825 29.1301C30.7557 29.0608 30.7168 28.9668 30.7168 28.8688" stroke="#202120" stroke-width="1.5" stroke-linecap="round" stroke-linejoin="round"/>
<path d="M31.456 28.8688C31.456 28.9668 31.4171 29.0608 31.3478 29.1301C31.2785 29.1994 31.1844 29.2384 31.0864 29.2384" stroke="#202120" stroke-width="1.5" stroke-linecap="round" stroke-linejoin="round"/>
</svg>
