<svg width="40" height="40" viewBox="0 0 40 40" fill="none" xmlns="http://www.w3.org/2000/svg">
<path fill-rule="evenodd" clip-rule="evenodd" d="M20 5.77682C11.5394 5.77682 4.75 11.9836 4.75 19.5708C4.75 24.062 7.12527 28.042 10.8216 30.5695C11.0403 30.7191 11.155 30.9641 11.148 31.2107C11.147 32.0825 11.1477 33.1265 11.1486 34.2636C11.1489 34.7267 11.1492 35.2052 11.1495 35.6939L16.3428 33.1193C16.5275 33.0278 16.7316 33.0193 16.9129 33.0797C17.9125 33.2659 18.9429 33.3666 19.9999 33.3666C28.4604 33.3666 35.2499 27.1582 35.2499 19.5708L35.25 19.5598C35.2424 11.9782 28.4557 5.77682 20 5.77682ZM16.775 34.5793C17.819 34.7658 18.8955 34.8666 19.9999 34.8666C29.1417 34.8666 36.7419 28.1292 36.7499 19.5844L36.75 19.5726C36.75 11.0213 29.1466 4.27682 20 4.27682C10.8535 4.27682 3.25 11.0194 3.25 19.5708C3.25 24.482 5.78028 28.7969 9.64768 31.5782C9.64721 32.3703 9.64786 33.2833 9.64856 34.2647L9.64856 34.2665V34.2673V34.2676V34.2679V34.2682C9.64916 35.1078 9.64979 35.9974 9.64979 36.9042C9.64979 37.3184 9.98558 37.6542 10.3998 37.6542C10.5361 37.6542 10.664 37.6178 10.7742 37.5542L16.775 34.5793Z" fill="#202120"/>
<path fill-rule="evenodd" clip-rule="evenodd" d="M20.3145 19.6281C20.4881 19.8017 20.4881 20.0831 20.3145 20.2566C20.1409 20.4302 19.8595 20.4302 19.6859 20.2566C19.5124 20.0831 19.5124 19.8017 19.6859 19.6281C19.8595 19.4545 20.1409 19.4545 20.3145 19.6281Z" fill="#202120"/>
<path d="M20.3145 19.6281C20.4881 19.8017 20.4881 20.0831 20.3145 20.2566C20.1409 20.4302 19.8595 20.4302 19.6859 20.2566C19.5124 20.0831 19.5124 19.8017 19.6859 19.6281C19.8595 19.4545 20.1409 19.4545 20.3145 19.6281" stroke="#FF4612" stroke-width="2" stroke-linecap="round" stroke-linejoin="round"/>
<path fill-rule="evenodd" clip-rule="evenodd" d="M27.4258 19.6281C27.5994 19.8017 27.5994 20.0831 27.4258 20.2566C27.2522 20.4302 26.9708 20.4302 26.7973 20.2566C26.6237 20.0831 26.6237 19.8017 26.7973 19.6281C26.9708 19.4545 27.2522 19.4545 27.4258 19.6281Z" fill="#202120"/>
<path d="M27.4258 19.6281C27.5994 19.8017 27.5994 20.0831 27.4258 20.2566C27.2522 20.4302 26.9708 20.4302 26.7973 20.2566C26.6237 20.0831 26.6237 19.8017 26.7973 19.6281C26.9708 19.4545 27.2522 19.4545 27.4258 19.6281" stroke="#FF4612" stroke-width="2" stroke-linecap="round" stroke-linejoin="round"/>
<path fill-rule="evenodd" clip-rule="evenodd" d="M13.2032 19.6281C13.3767 19.8017 13.3767 20.0831 13.2032 20.2566C13.0296 20.4302 12.7482 20.4302 12.5746 20.2566C12.4011 20.0831 12.4011 19.8017 12.5746 19.6281C12.7482 19.4545 13.0296 19.4545 13.2032 19.6281Z" fill="#202120"/>
<path d="M13.2032 19.6281C13.3767 19.8017 13.3767 20.0831 13.2032 20.2566C13.0296 20.4302 12.7482 20.4302 12.5746 20.2566C12.4011 20.0831 12.4011 19.8017 12.5746 19.6281C12.7482 19.4545 13.0296 19.4545 13.2032 19.6281" stroke="#FF4612" stroke-width="2" stroke-linecap="round" stroke-linejoin="round"/>
</svg>
