<svg width="40" height="40" viewBox="0 0 40 40" fill="none" xmlns="http://www.w3.org/2000/svg">
<path d="M8.40793 16.2363H31.5886C33.2479 16.2363 34.8393 16.8955 36.0126 18.0688C37.186 19.2422 37.8451 20.8336 37.8451 22.4929V25.5274C37.8451 25.9382 37.7642 26.345 37.607 26.7245C37.4498 27.1041 37.2194 27.4489 36.9289 27.7394C36.6384 28.0299 36.2935 28.2603 35.914 28.4175C35.5345 28.5747 35.1277 28.6557 34.7169 28.6557H5.29528C4.46561 28.6557 3.66992 28.3261 3.08325 27.7394C2.49658 27.1527 2.16699 26.357 2.16699 25.5274V22.4929C2.16699 20.8363 2.82401 19.2473 3.99397 18.0744C5.16392 16.9015 6.7513 16.2405 8.40793 16.2363V16.2363Z" stroke="#202120" stroke-width="1.5" stroke-linecap="round" stroke-linejoin="round"/>
<path d="M7.59474 25.5586C8.88188 25.5586 9.92531 24.5152 9.92531 23.2281C9.92531 21.9409 8.88188 20.8975 7.59474 20.8975C6.30759 20.8975 5.26416 21.9409 5.26416 23.2281C5.26416 24.5152 6.30759 25.5586 7.59474 25.5586Z" stroke="#FF4612" stroke-width="1.5" stroke-linecap="round" stroke-linejoin="round"/>
<path d="M32.4019 25.5586C33.689 25.5586 34.7324 24.5152 34.7324 23.2281C34.7324 21.9409 33.689 20.8975 32.4019 20.8975C31.1147 20.8975 30.0713 21.9409 30.0713 23.2281C30.0713 24.5152 31.1147 25.5586 32.4019 25.5586Z" stroke="#FF4612" stroke-width="1.5" stroke-linecap="round" stroke-linejoin="round"/>
<path d="M7.5791 16.2988L8.70529 9.52602C8.83191 8.79151 9.21663 8.12636 9.79015 7.65033C10.3637 7.17431 11.0883 6.91869 11.8336 6.92953H28.2258C28.9711 6.91869 29.6957 7.17431 30.2692 7.65033C30.8428 8.12636 31.2275 8.79151 31.3541 9.52602L32.4803 16.2988" stroke="#202120" stroke-width="1.5" stroke-linecap="round" stroke-linejoin="round"/>
<path d="M9.92534 28.6555V30.9548C9.92534 31.5771 9.67815 32.1738 9.23815 32.6138C8.79815 33.0538 8.20138 33.301 7.57913 33.301C6.95687 33.301 6.3601 33.0538 5.9201 32.6138C5.4801 32.1738 5.23291 31.5771 5.23291 30.9548V28.6555" stroke="#202120" stroke-width="1.5" stroke-linecap="round" stroke-linejoin="round"/>
<path d="M34.7325 28.6555V30.9548C34.7325 31.5771 34.4853 32.1738 34.0453 32.6138C33.6053 33.0538 33.0085 33.301 32.3863 33.301C31.764 33.301 31.1672 33.0538 30.7272 32.6138C30.2872 32.1738 30.04 31.5771 30.04 30.9548V28.6555" stroke="#202120" stroke-width="1.5" stroke-linecap="round" stroke-linejoin="round"/>
<path d="M31.8076 12.67L34.4979 11.1058C35.0352 10.7968 35.6731 10.7138 36.2715 10.8751C36.8699 11.0365 37.3798 11.4289 37.6888 11.9661C37.9979 12.5033 38.0808 13.1413 37.9195 13.7397C37.7582 14.3381 37.3657 14.8479 36.8285 15.157L34.0756 16.7368" stroke="#202120" stroke-width="1.5" stroke-linecap="round" stroke-linejoin="round"/>
<path d="M8.18905 12.6701L5.49872 11.106C5.23272 10.9529 4.93918 10.8538 4.63486 10.8142C4.33055 10.7746 4.02142 10.7954 3.72512 10.8752C3.12672 11.0366 2.61691 11.429 2.30786 11.9662C1.99881 12.5034 1.91582 13.1414 2.07715 13.7398C2.23849 14.3382 2.63093 14.848 3.16814 15.1571L5.92104 16.7369" stroke="#202120" stroke-width="1.5" stroke-linecap="round" stroke-linejoin="round"/>
</svg>
