<svg width="40" height="40" viewBox="0 0 40 40" fill="none" xmlns="http://www.w3.org/2000/svg">
<path d="M6.68815 37.9454L3.54084 34.2246C2.54341 32.9777 2.00001 31.4285 2 29.8318V21.7509C2 21.1293 2.24696 20.533 2.68656 20.0934C3.12616 19.6538 3.72239 19.4069 4.34408 19.4069V19.4069C4.96576 19.4069 5.56199 19.6538 6.00159 20.0934C6.44119 20.533 6.68815 21.1293 6.68815 21.7509V27.6111" stroke="#202120" stroke-width="1.5" stroke-linecap="round" stroke-linejoin="round"/>
<path d="M13.7205 37.9455V33.2573C13.7211 31.8667 13.3094 30.5072 12.5375 29.3505L10.7529 26.6783C10.5999 26.425 10.3972 26.2053 10.157 26.0326C9.91679 25.8599 9.64403 25.7377 9.35523 25.6735C9.06643 25.6092 8.7676 25.6042 8.4768 25.6587C8.186 25.7132 7.90928 25.8261 7.66337 25.9907V25.9907C7.22164 26.2866 6.90281 26.7333 6.76649 27.2473C6.63016 27.7612 6.68568 28.3072 6.92265 28.7832L9.03544 32.2994" stroke="#202120" stroke-width="1.5" stroke-linecap="round" stroke-linejoin="round"/>
<path d="M32.4731 37.9454L35.6205 34.2246C36.6179 32.9777 37.1613 31.4285 37.1613 29.8318V21.7509C37.1613 21.1293 36.9143 20.533 36.4747 20.0934C36.0351 19.6538 35.4389 19.4069 34.8172 19.4069C34.1955 19.4069 33.5993 19.6538 33.1597 20.0934C32.7201 20.533 32.4731 21.1293 32.4731 21.7509V27.6111" stroke="#202120" stroke-width="1.5" stroke-linecap="round" stroke-linejoin="round"/>
<path d="M25.4409 37.9456V33.2574C25.4403 31.8669 25.852 30.5073 26.6239 29.3506L28.4085 26.6753C28.5609 26.4215 28.7632 26.2013 29.0032 26.0279C29.2432 25.8546 29.5159 25.7318 29.8047 25.6669C30.0936 25.6021 30.3926 25.5965 30.6836 25.6506C30.9747 25.7046 31.2517 25.8172 31.498 25.9814V25.9814C31.9418 26.2771 32.2623 26.7247 32.3993 27.2401C32.5363 27.7555 32.4803 28.3032 32.2419 28.7802L30.1291 32.2964" stroke="#202120" stroke-width="1.5" stroke-linecap="round" stroke-linejoin="round"/>
<path d="M19.5001 20.0004L11.4041 11.3629C10.6928 10.636 10.2232 9.69849 10.062 8.68336C9.90073 7.66823 10.056 6.62695 10.5058 5.70713V5.70713C10.8454 5.01296 11.3414 4.41125 11.953 3.9516C12.5646 3.49195 13.2742 3.18752 14.0234 3.0634C14.7726 2.93928 15.54 2.99902 16.2622 3.23771C16.9844 3.4764 17.6407 3.8872 18.1772 4.43624L19.5001 5.78764L20.8229 4.43624C21.3595 3.88725 22.016 3.47653 22.7382 3.23795C23.4605 2.99937 24.2279 2.93976 24.9771 3.06402C25.7263 3.18828 26.4359 3.49286 27.0474 3.95265C27.659 4.41245 28.1549 5.01429 28.4943 5.70857V5.70857C28.9439 6.62834 29.0992 7.66943 28.9382 8.68445C28.7772 9.69947 28.3082 10.637 27.5974 11.3643L19.5001 20.0004Z" stroke="#FF4612" stroke-width="1.5" stroke-linecap="round" stroke-linejoin="round"/>
</svg>
