<svg width="40" height="40" viewBox="0 0 40 40" fill="none" xmlns="http://www.w3.org/2000/svg">
<path d="M2.75098 19.4999H17.7488" stroke="#202120" stroke-width="1.5" stroke-linecap="round" stroke-linejoin="round"/>
<path d="M22.248 19.4999H37.2458" stroke="#202120" stroke-width="1.5" stroke-linecap="round" stroke-linejoin="round"/>
<path d="M2.75098 12.001H37.2459V32.9979H2.75098V12.001Z" stroke="#202120" stroke-width="1.5" stroke-linecap="round" stroke-linejoin="round"/>
<path d="M22.2479 21.748C22.2479 22.3446 22.0109 22.9169 21.589 23.3388C21.1671 23.7606 20.5949 23.9977 19.9982 23.9977C19.4016 23.9977 18.8293 23.7606 18.4074 23.3388C17.9856 22.9169 17.7485 22.3446 17.7485 21.748V17.9985H22.2479V21.748Z" stroke="#FF4612" stroke-width="1.5" stroke-linecap="round" stroke-linejoin="round"/>
<path d="M13.9995 11.9995C13.9995 10.4084 14.6316 8.88253 15.7566 7.75747C16.8817 6.63242 18.4076 6.00037 19.9986 6.00037C21.5897 6.00037 23.1156 6.63242 24.2406 7.75747C25.3657 8.88253 25.9977 10.4084 25.9977 11.9995" stroke="#202120" stroke-width="1.5" stroke-linecap="round" stroke-linejoin="round"/>
</svg>
