<svg width="40" height="40" viewBox="0 0 40 40" fill="none" xmlns="http://www.w3.org/2000/svg">
<path d="M30.6081 16.3029C30.6122 13.0291 29.4047 9.86952 27.2183 7.43286" stroke="#202120" stroke-width="1.5" stroke-linecap="round" stroke-linejoin="round"/>
<path d="M4 19.2585V23.6932C3.99929 26.3099 4.77022 28.8686 6.21634 31.0494C7.66246 33.2301 9.71954 34.936 12.1302 35.9536" stroke="#202120" stroke-width="1.5" stroke-linecap="round" stroke-linejoin="round"/>
<path d="M23.9558 4.78086C21.9877 3.64457 19.7612 3.0314 17.4888 2.99982C15.2164 2.96824 12.9738 3.51931 10.9748 4.60047C8.97581 5.68164 7.28711 7.25685 6.06972 9.17591C4.85233 11.095 4.14684 13.2939 4.02051 15.563" stroke="#202120" stroke-width="1.5" stroke-linecap="round" stroke-linejoin="round"/>
<path d="M13.6079 8.23701C14.9553 7.61939 16.4361 7.34928 17.9148 7.45136C19.3935 7.55344 20.8231 8.02446 22.0728 8.82138C23.3226 9.61829 24.3528 10.7157 25.0691 12.0133C25.7855 13.3109 26.1653 14.7674 26.1738 16.2496" stroke="#202120" stroke-width="1.5" stroke-linecap="round" stroke-linejoin="round"/>
<path d="M19.4779 32.2951C18.1691 32.624 16.8026 32.6502 15.4821 32.3719C14.1617 32.0935 12.922 31.5178 11.8574 30.6886C10.7927 29.8594 9.93108 28.7984 9.33791 27.5863C8.74473 26.3741 8.43563 25.0428 8.43409 23.6933V16.3022C8.43094 14.1199 9.23552 12.0137 10.6928 10.3893" stroke="#202120" stroke-width="1.5" stroke-linecap="round" stroke-linejoin="round"/>
<path d="M21.7392 20.0368V16.3026C21.7392 15.1263 21.2719 13.9983 20.4402 13.1665C19.6085 12.3348 18.4804 11.8676 17.3042 11.8676C16.1279 11.8676 14.9999 12.3348 14.1681 13.1665C13.3364 13.9983 12.8691 15.1263 12.8691 16.3026V20.7376" stroke="#202120" stroke-width="1.5" stroke-linecap="round" stroke-linejoin="round"/>
<path d="M12.8691 23.6932C12.8691 24.8695 13.3364 25.9975 14.1681 26.8293C14.9999 27.661 16.1279 28.1283 17.3042 28.1283" stroke="#202120" stroke-width="1.5" stroke-linecap="round" stroke-linejoin="round"/>
<path d="M17.3032 16.3021V22.7421" stroke="#202120" stroke-width="1.5" stroke-linecap="round" stroke-linejoin="round"/>
<path d="M17.3032 36.9974C18.5653 36.9984 19.8211 36.8202 21.0331 36.4681" stroke="#202120" stroke-width="1.5" stroke-linecap="round" stroke-linejoin="round"/>
<path d="M36.9012 28.1233C36.9012 27.755 36.7549 27.4017 36.4945 27.1413C36.234 26.8808 35.8808 26.7345 35.5124 26.7345H26.485C26.1167 26.7345 25.7634 26.8808 25.503 27.1413C25.2425 27.4017 25.0962 27.755 25.0962 28.1233V35.0675C25.0962 35.4358 25.2425 35.7891 25.503 36.0495C25.7634 36.31 26.1167 36.4563 26.485 36.4563H35.5124C35.8808 36.4563 36.234 36.31 36.4945 36.0495C36.7549 35.7891 36.9012 35.4358 36.9012 35.0675V28.1233Z" stroke="#FF4612" stroke-width="1.5" stroke-linecap="round" stroke-linejoin="round"/>
<path d="M27.1792 24.304C27.1792 23.2911 27.5816 22.3196 28.2978 21.6034C29.0141 20.8871 29.9855 20.4847 30.9985 20.4847C32.0114 20.4847 32.9829 20.8871 33.6991 21.6034C34.4154 22.3196 34.8178 23.2911 34.8178 24.304V26.7345H27.1792V24.304Z" stroke="#FF4612" stroke-width="1.5" stroke-linecap="round" stroke-linejoin="round"/>
</svg>
