<svg width="40" height="40" viewBox="0 0 40 40" fill="none" xmlns="http://www.w3.org/2000/svg">
<path d="M20.3042 36.9985C23.8328 36.9985 27.2168 35.5968 29.7119 33.1017C32.207 30.6067 33.6087 27.2226 33.6087 23.694V16.3026C33.6128 13.029 32.4054 9.86954 30.219 7.43298" stroke="#202120" stroke-width="1.5" stroke-linecap="round" stroke-linejoin="round"/>
<path d="M7 19.2592V23.694C6.99929 26.3107 7.77025 28.8696 9.21642 31.0504C10.6626 33.2312 12.7197 34.9372 15.1305 35.9548" stroke="#FF4612" stroke-width="1.5" stroke-linecap="round" stroke-linejoin="round"/>
<path d="M26.9566 4.78093C24.9883 3.64459 22.7618 3.0314 20.4893 2.99982C18.2168 2.96824 15.9741 3.51933 13.9751 4.60053C11.976 5.68173 10.2872 7.25701 9.0698 9.17614C7.85236 11.0953 7.14684 13.2943 7.02051 15.5635" stroke="#202120" stroke-width="1.5" stroke-linecap="round" stroke-linejoin="round"/>
<path d="M16.6084 8.23728C17.9599 7.61784 19.4453 7.34803 20.9283 7.45266C22.4113 7.55729 23.8442 8.03299 25.0953 8.83605C26.3464 9.63911 27.3756 10.7438 28.0882 12.0485C28.8009 13.3532 29.1742 14.8161 29.1738 16.3028V23.6941C29.1741 24.4421 29.0802 25.1871 28.8944 25.9116" stroke="#202120" stroke-width="1.5" stroke-linecap="round" stroke-linejoin="round"/>
<path d="M26.9151 29.6071C25.7175 30.946 24.1417 31.8896 22.3961 32.3133C20.6504 32.7369 18.8173 32.6205 17.1393 31.9796C15.4613 31.3386 14.0174 30.2033 12.9987 28.7238C11.9801 27.2442 11.4346 25.4903 11.4346 23.694V16.3026C11.4317 14.1203 12.2363 12.0141 13.6934 10.3895" stroke="#202120" stroke-width="1.5" stroke-linecap="round" stroke-linejoin="round"/>
<path d="M15.8696 23.6941C15.8696 24.8703 16.3369 25.9983 17.1686 26.83C18.0003 27.6617 19.1283 28.129 20.3045 28.129C21.4807 28.129 22.6087 27.6617 23.4404 26.83C24.2721 25.9983 24.7393 24.8703 24.7393 23.6941V16.3028C24.7393 15.1266 24.2721 13.9985 23.4404 13.1669C22.6087 12.3352 21.4807 11.8679 20.3045 11.8679C19.1283 11.8679 18.0003 12.3352 17.1686 13.1669C16.3369 13.9985 15.8696 15.1266 15.8696 16.3028V20.7376" stroke="#202120" stroke-width="1.5" stroke-linecap="round" stroke-linejoin="round"/>
<path d="M20.3042 16.3027V23.7327" stroke="#202120" stroke-width="1.5" stroke-linecap="round" stroke-linejoin="round"/>
</svg>
