<svg width="40" height="40" viewBox="0 0 40 40" fill="none" xmlns="http://www.w3.org/2000/svg">
<path d="M29.6081 16.3029C29.6122 13.0291 28.4047 9.86952 26.2183 7.43286" stroke="#202120" stroke-width="1.5" stroke-linecap="round" stroke-linejoin="round"/>
<path d="M3 19.2585V23.6932C2.99929 26.3099 3.77022 28.8686 5.21634 31.0494C6.66246 33.2301 8.71954 34.936 11.1302 35.9536" stroke="#202120" stroke-width="1.5" stroke-linecap="round" stroke-linejoin="round"/>
<path d="M22.9558 4.78086C20.9877 3.64457 18.7612 3.0314 16.4888 2.99982C14.2164 2.96824 11.9738 3.51931 9.9748 4.60047C7.97581 5.68164 6.28711 7.25685 5.06972 9.17591C3.85233 11.095 3.14684 13.2939 3.02051 15.563" stroke="#202120" stroke-width="1.5" stroke-linecap="round" stroke-linejoin="round"/>
<path d="M12.6079 8.23701C13.9553 7.61939 15.4361 7.34928 16.9148 7.45136C18.3935 7.55344 19.8231 8.02446 21.0728 8.82138C22.3226 9.61829 23.3528 10.7157 24.0691 12.0133C24.7855 13.3109 25.1653 14.7674 25.1738 16.2496" stroke="#202120" stroke-width="1.5" stroke-linecap="round" stroke-linejoin="round"/>
<path d="M18.4779 32.2951C17.1691 32.624 15.8026 32.6502 14.4821 32.3719C13.1617 32.0935 11.922 31.5178 10.8574 30.6886C9.79272 29.8594 8.93108 28.7984 8.33791 27.5863C7.74473 26.3741 7.43563 25.0428 7.43409 23.6933V16.3022C7.43094 14.1199 8.23552 12.0137 9.69282 10.3893" stroke="#202120" stroke-width="1.5" stroke-linecap="round" stroke-linejoin="round"/>
<path d="M20.7392 20.0368V16.3026C20.7392 15.1263 20.2719 13.9983 19.4402 13.1665C18.6085 12.3348 17.4804 11.8676 16.3042 11.8676C15.1279 11.8676 13.9999 12.3348 13.1681 13.1665C12.3364 13.9983 11.8691 15.1263 11.8691 16.3026V20.7376" stroke="#202120" stroke-width="1.5" stroke-linecap="round" stroke-linejoin="round"/>
<path d="M11.8691 23.6932C11.8691 24.8695 12.3364 25.9975 13.1681 26.8293C13.9999 27.661 15.1279 28.1283 16.3042 28.1283" stroke="#202120" stroke-width="1.5" stroke-linecap="round" stroke-linejoin="round"/>
<path d="M16.3032 16.3021V22.7421" stroke="#202120" stroke-width="1.5" stroke-linecap="round" stroke-linejoin="round"/>
<path d="M16.3032 36.9974C17.5653 36.9984 18.8211 36.8202 20.0331 36.4681" stroke="#202120" stroke-width="1.5" stroke-linecap="round" stroke-linejoin="round"/>
<path d="M23 28.3987C23 30.2552 23.7375 32.0357 25.0503 33.3484C26.363 34.6612 28.1435 35.3987 30 35.3987C31.8565 35.3987 33.637 34.6612 34.9497 33.3484C36.2625 32.0357 37 30.2552 37 28.3987C37 26.5422 36.2625 24.7617 34.9497 23.4489C33.637 22.1362 31.8565 21.3987 30 21.3987C28.1435 21.3987 26.363 22.1362 25.0503 23.4489C23.7375 24.7617 23 26.5422 23 28.3987Z" stroke="#FF4612" stroke-width="1.5" stroke-linecap="round" stroke-linejoin="round"/>
<path d="M33.1196 26.364L29.7304 30.8825C29.6552 30.9826 29.5593 31.0655 29.4493 31.1254C29.3393 31.1853 29.2177 31.2209 29.0928 31.2299C28.9678 31.2389 28.8424 31.2209 28.725 31.1773C28.6076 31.1337 28.5009 31.0654 28.4121 30.977L26.6621 29.227" stroke="#FF4612" stroke-width="1.5" stroke-linecap="round" stroke-linejoin="round"/>
</svg>
