<svg width="40" height="40" viewBox="0 0 40 40" fill="none" xmlns="http://www.w3.org/2000/svg">
<path fill-rule="evenodd" clip-rule="evenodd" d="M23.9062 22.6628L25.4805 21.0914C26.1919 20.3781 27.1581 19.9773 28.1655 19.9778H33.1022C34.1503 19.9778 35 20.8275 35 21.8756V31.2318C35.0024 32.24 34.6036 33.2078 33.8915 33.9216C33.1795 34.6354 32.2126 35.0365 31.2044 35.0365H7.79557C5.69934 35.0365 4 33.3372 4 31.2409V21.8847C4 20.8366 4.84967 19.9869 5.89779 19.9869H10.8467C11.8541 19.9865 12.8203 20.3872 13.5316 21.1006L15.106 22.6719C15.817 23.384 16.7817 23.7845 17.7879 23.7856H21.2364C22.2398 23.7789 23.1996 23.3752 23.9062 22.6628Z" stroke="#202120" stroke-width="1.5" stroke-linecap="round" stroke-linejoin="round"/>
<path d="M34.2556 6.52563H4.88794" stroke="#FF4612" stroke-width="1.5" stroke-linecap="round" stroke-linejoin="round"/>
<path d="M34.112 13.679H4.74438" stroke="#FF4612" stroke-width="1.5" stroke-linecap="round" stroke-linejoin="round"/>
</svg>
