<svg width="40" height="40" viewBox="0 0 40 40" fill="none" xmlns="http://www.w3.org/2000/svg">
<path d="M20 6.854V10.899" stroke="#FF4612" stroke-width="1.5" stroke-linecap="round" stroke-linejoin="round"/>
<path d="M20 6.85394C21.3403 6.85394 22.4269 5.76735 22.4269 4.42697C22.4269 3.08659 21.3403 2 20 2C18.6596 2 17.573 3.08659 17.573 4.42697C17.573 5.76735 18.6596 6.85394 20 6.85394Z" stroke="#FF4612" stroke-width="1.5" stroke-linecap="round" stroke-linejoin="round"/>
<path d="M33.3482 20.6067H29.7078" stroke="#FF4612" stroke-width="1.5" stroke-linecap="round" stroke-linejoin="round"/>
<path d="M35.7751 23.0336C37.1155 23.0336 38.2021 21.947 38.2021 20.6067C38.2021 19.2663 37.1155 18.1797 35.7751 18.1797C34.4347 18.1797 33.3481 19.2663 33.3481 20.6067C33.3481 21.947 34.4347 23.0336 35.7751 23.0336Z" stroke="#FF4612" stroke-width="1.5" stroke-linecap="round" stroke-linejoin="round"/>
<path d="M29.6673 10.9829L26.8083 13.8435" stroke="#FF4612" stroke-width="1.5" stroke-linecap="round" stroke-linejoin="round"/>
<path d="M31.3842 11.695C32.7246 11.695 33.8112 10.6084 33.8112 9.26804C33.8112 7.92766 32.7246 6.84106 31.3842 6.84106C30.0439 6.84106 28.9573 7.92766 28.9573 9.26804C28.9573 10.6084 30.0439 11.695 31.3842 11.695Z" stroke="#FF4612" stroke-width="1.5" stroke-linecap="round" stroke-linejoin="round"/>
<path d="M6.65161 20.6067H10.2921" stroke="#FF4612" stroke-width="1.5" stroke-linecap="round" stroke-linejoin="round"/>
<path d="M4.22458 23.0336C5.56496 23.0336 6.65155 21.947 6.65155 20.6067C6.65155 19.2663 5.56496 18.1797 4.22458 18.1797C2.8842 18.1797 1.79761 19.2663 1.79761 20.6067C1.79761 21.947 2.8842 23.0336 4.22458 23.0336Z" stroke="#FF4612" stroke-width="1.5" stroke-linecap="round" stroke-linejoin="round"/>
<path d="M10.3325 10.9829L13.1915 13.8435" stroke="#FF4612" stroke-width="1.5" stroke-linecap="round" stroke-linejoin="round"/>
<path d="M8.61569 11.695C9.95607 11.695 11.0427 10.6084 11.0427 9.26804C11.0427 7.92766 9.95607 6.84106 8.61569 6.84106C7.27531 6.84106 6.18872 7.92766 6.18872 9.26804C6.18872 10.6084 7.27531 11.695 8.61569 11.695Z" stroke="#FF4612" stroke-width="1.5" stroke-linecap="round" stroke-linejoin="round"/>
<path d="M14.5684 20.0681C16.0463 21.599 17.9554 22.6436 20.0416 23.063C22.1278 23.4824 24.2922 23.2566 26.247 22.4158" stroke="#202120" stroke-width="1.5" stroke-linecap="round" stroke-linejoin="round"/>
<path d="M19.9999 29.5736C23.4814 29.5736 26.3036 26.7514 26.3036 23.27C26.3036 19.7885 23.4814 16.9663 19.9999 16.9663C16.5185 16.9663 13.6963 19.7885 13.6963 23.27C13.6963 26.7514 16.5185 29.5736 19.9999 29.5736Z" stroke="#202120" stroke-width="1.5" stroke-linecap="round" stroke-linejoin="round"/>
<path d="M29.6431 38.0001C28.7856 36.1664 27.423 34.6153 25.7152 33.5286C24.0073 32.4419 22.025 31.8647 20.0008 31.8647C17.9765 31.8647 15.9942 32.4419 14.2864 33.5286C12.5785 34.6153 11.2159 36.1664 10.3584 38.0001" stroke="#202120" stroke-width="1.5" stroke-linecap="round" stroke-linejoin="round"/>
<path d="M20 31.8645V37.9999" stroke="#202120" stroke-width="1.5" stroke-linecap="round" stroke-linejoin="round"/>
</svg>
