<svg width="40" height="40" viewBox="0 0 40 40" fill="none" xmlns="http://www.w3.org/2000/svg">
<path fill-rule="evenodd" clip-rule="evenodd" d="M5.5 7.47359C5.5 6.38363 6.38359 5.50003 7.47356 5.50003H15.4917C16.5816 5.50003 17.4652 6.38362 17.4652 7.47359V15.4916C17.4652 16.5816 16.5816 17.4652 15.4917 17.4652H7.47356C6.3836 17.4652 5.5 16.5816 5.5 15.4916V7.47359ZM7.47356 7.00003C7.21202 7.00003 7 7.21205 7 7.47359V15.4916C7 15.7531 7.21202 15.9652 7.47356 15.9652H15.4917C15.7532 15.9652 15.9652 15.7531 15.9652 15.4916V7.47359C15.9652 7.21205 15.7532 7.00003 15.4917 7.00003H7.47356ZM22.2126 7.47359C22.2126 6.38363 23.0962 5.50003 24.1862 5.50003H32.2043C33.2943 5.50003 34.1779 6.38362 34.1779 7.47359V15.4916C34.1779 16.5816 33.2943 17.4652 32.2043 17.4652H24.1862C23.0962 17.4652 22.2126 16.5816 22.2126 15.4916V7.47359ZM24.1862 7.00003C23.9247 7.00003 23.7126 7.21205 23.7126 7.47359V15.4916C23.7126 15.7531 23.9247 15.9652 24.1862 15.9652H32.2043C32.4659 15.9652 32.6779 15.7531 32.6779 15.4916V7.47359C32.6779 7.21205 32.4659 7.00003 32.2043 7.00003H24.1862ZM7.47356 22.5368C6.38359 22.5368 5.5 23.4204 5.5 24.5103V32.5283C5.5 33.6183 6.3836 34.5019 7.47356 34.5019H15.4917C16.5816 34.5019 17.4652 33.6183 17.4652 32.5283V24.5103C17.4652 23.4204 16.5816 22.5368 15.4917 22.5368H7.47356ZM7 24.5103C7 24.2488 7.21202 24.0368 7.47356 24.0368H15.4917C15.7532 24.0368 15.9652 24.2488 15.9652 24.5103V32.5283C15.9652 32.7899 15.7532 33.0019 15.4917 33.0019H7.47356C7.21202 33.0019 7 32.7899 7 32.5283V24.5103Z" fill="#202120"/>
<path fill-rule="evenodd" clip-rule="evenodd" d="M22.722 22.7558C23.2102 22.2676 24.0016 22.2676 24.4898 22.7558L24.5039 22.7699C24.9921 23.2581 24.9921 24.0495 24.5039 24.5377L24.4898 24.5518C24.0016 25.04 23.2102 25.04 22.722 24.5518L22.7079 24.5377C22.4735 24.3033 22.3418 23.9853 22.3418 23.6538C22.3418 23.3223 22.4735 23.0043 22.7079 22.7699L22.722 22.7558ZM32.3302 22.7558C32.8184 22.2676 33.6098 22.2676 34.098 22.7558L34.1121 22.7699C34.6002 23.2581 34.6002 24.0495 34.1121 24.5377L34.098 24.5518C33.6098 25.04 32.8184 25.04 32.3302 24.5518L32.3161 24.5377C32.0816 24.3033 31.95 23.9853 31.95 23.6538C31.95 23.3223 32.0816 23.0043 32.3161 22.7699L32.3302 22.7558ZM24.4898 32.6458C24.0016 32.1576 23.2102 32.1576 22.722 32.6458L22.7079 32.6599C22.4735 32.8943 22.3418 33.2123 22.3418 33.5438C22.3418 33.8753 22.4735 34.1933 22.7079 34.4277L22.722 34.4418C23.2102 34.93 24.0016 34.93 24.4898 34.4418L24.5039 34.4277C24.9921 33.9395 24.9921 33.1481 24.5039 32.6599L24.4898 32.6458ZM32.3302 32.6458C32.8184 32.1576 33.6098 32.1576 34.098 32.6458L34.1121 32.6599C34.6002 33.1481 34.6002 33.9395 34.1121 34.4277L34.098 34.4418C33.6098 34.93 32.8184 34.93 32.3302 34.4418L32.3161 34.4277C32.0816 34.1933 31.95 33.8753 31.95 33.5438C31.95 33.2123 32.0816 32.8943 32.3161 32.6599L32.3302 32.6458ZM29.2945 27.7009C28.8063 27.2127 28.0149 27.2127 27.5267 27.7009L27.5126 27.715C27.2782 27.9494 27.1465 28.2674 27.1465 28.5989C27.1465 28.9304 27.2782 29.2483 27.5126 29.4828L27.5267 29.4969C28.0149 29.985 28.8063 29.985 29.2945 29.4969L29.3086 29.4828C29.7968 28.9946 29.7968 28.2031 29.3086 27.715L29.2945 27.7009Z" fill="#FF4612"/>
</svg>
