<svg width="40" height="40" viewBox="0 0 40 40" fill="none" xmlns="http://www.w3.org/2000/svg">
<path d="M19.9985 26.7407V37.2139C19.9985 37.4215 20.081 37.6205 20.2277 37.7673C20.3745 37.914 20.5735 37.9965 20.7811 37.9965H33.3014C33.509 37.9965 33.708 37.914 33.8547 37.7673C34.0015 37.6205 34.0839 37.4215 34.0839 37.2139V26.7407" stroke="#FF4612" stroke-width="1.5" stroke-linecap="round" stroke-linejoin="round"/>
<path d="M16.8687 29.3887L26.0304 21.6371C26.313 21.3979 26.6712 21.2667 27.0414 21.2667C27.4116 21.2667 27.7699 21.3979 28.0525 21.6371L37.2142 29.3887" stroke="#FF4612" stroke-width="1.5" stroke-linecap="round" stroke-linejoin="round"/>
<path d="M29.389 37.9964H24.6938V33.3013C24.6938 32.6787 24.9412 32.0816 25.3814 31.6413C25.8217 31.2011 26.4188 30.9537 27.0414 30.9537C27.664 30.9537 28.2611 31.2011 28.7014 31.6413C29.1416 32.0816 29.389 32.6787 29.389 33.3013V37.9964Z" stroke="#FF4612" stroke-width="1.5" stroke-linecap="round" stroke-linejoin="round"/>
<path d="M15.3036 37.9964H3.56574C3.3582 37.9964 3.15916 37.9139 3.01241 37.7672C2.86566 37.6204 2.78322 37.4214 2.78322 37.2139V3.31807C2.78245 3.18201 2.81717 3.0481 2.88396 2.92955C2.95074 2.81101 3.04729 2.71192 3.16406 2.64208C3.28083 2.57224 3.41379 2.53405 3.54983 2.53129C3.68587 2.52853 3.82027 2.56128 3.93978 2.62632L19.5902 11.1637C19.7152 11.2316 19.8192 11.3324 19.8912 11.4551C19.9632 11.5778 20.0004 11.7178 19.9987 11.8601V20.7809" stroke="#202120" stroke-width="1.5" stroke-linecap="round" stroke-linejoin="round"/>
<path d="M16.8687 9.68318V2.00037" stroke="#202120" stroke-width="1.5" stroke-linecap="round" stroke-linejoin="round"/>
<path d="M2.7832 11.3907H9.04338" stroke="#202120" stroke-width="1.5" stroke-linecap="round" stroke-linejoin="round"/>
<path d="M2.7832 16.0858H10.6084" stroke="#202120" stroke-width="1.5" stroke-linecap="round" stroke-linejoin="round"/>
<path d="M2.7832 20.7809H13.7385" stroke="#202120" stroke-width="1.5" stroke-linecap="round" stroke-linejoin="round"/>
<path d="M9.04346 37.9965V32.5189C9.04346 32.3113 9.1259 32.1123 9.27265 31.9655C9.4194 31.8188 9.61844 31.7363 9.82598 31.7363H12.9561C13.1636 31.7363 13.3626 31.8188 13.5094 31.9655C13.6561 32.1123 13.7386 32.3113 13.7386 32.5189V37.9965" stroke="#202120" stroke-width="1.5" stroke-linecap="round" stroke-linejoin="round"/>
</svg>
