<svg width="40" height="40" viewBox="0 0 40 40" fill="none" xmlns="http://www.w3.org/2000/svg">
<path d="M37.9998 38H18.7983L21.1985 21.1987H35.5996L37.9998 38Z" stroke="#FF4612" stroke-width="1.5" stroke-linecap="round" stroke-linejoin="round"/>
<path d="M24.7988 25.9992V17.5985C24.7988 16.6437 25.1781 15.7279 25.8533 15.0527C26.5285 14.3775 27.4443 13.9982 28.3991 13.9982C29.354 13.9982 30.2697 14.3775 30.9449 15.0527C31.6201 15.7279 31.9994 16.6437 31.9994 17.5985V25.9992" stroke="#FF4612" stroke-width="1.5" stroke-linecap="round" stroke-linejoin="round"/>
<path d="M4.39746 6.79763C4.39746 8.07077 4.90321 9.29176 5.80346 10.192C6.7037 11.0923 7.92469 11.598 9.19783 11.598C10.471 11.598 11.692 11.0923 12.5922 10.192C13.4924 9.29176 13.9982 8.07077 13.9982 6.79763C13.9982 5.52449 13.4924 4.3035 12.5922 3.40325C11.692 2.50301 10.471 1.99725 9.19783 1.99725C7.92469 1.99725 6.7037 2.50301 5.80346 3.40325C4.90321 4.3035 4.39746 5.52449 4.39746 6.79763V6.79763Z" stroke="#202120" stroke-width="1.5" stroke-linecap="round" stroke-linejoin="round"/>
<path d="M15.5021 17.7184C14.7305 16.32 13.5158 15.2178 12.0492 14.5853C10.5826 13.9528 8.94738 13.8258 7.40074 14.2244C5.85409 14.623 4.48386 15.5245 3.50564 16.787C2.52742 18.0496 1.99673 19.6015 1.99707 21.1987V25.9991H4.39725L5.59735 38H12.7979L13.614 29.8394" stroke="#202120" stroke-width="1.5" stroke-linecap="round" stroke-linejoin="round"/>
</svg>
