<svg width="40" height="40" viewBox="0 0 40 40" fill="none" xmlns="http://www.w3.org/2000/svg">
<path d="M21.3569 36.7043L22.7301 36.1095C29.2609 33.2768 34.9275 26.1272 34.9275 18.1561V8.54488C34.9277 7.96839 34.7802 7.4044 34.5032 6.92227C34.2261 6.44015 33.8316 6.0609 33.3681 5.83119C29.0821 4.00403 24.5491 3.04539 19.9738 2.99854C15.4338 3.04277 10.9363 4.00173 6.68883 5.83119C6.22532 6.0609 5.83077 6.44015 5.55372 6.92227C5.27666 7.4044 5.12917 7.96839 5.12939 8.54488V18.1589C5.12939 26.13 10.6867 33.274 17.2175 36.1123L18.5907 36.7072C19.4817 37.0944 20.4665 37.0934 21.3569 36.7043V36.7043Z" stroke="#202120" stroke-width="1.5" stroke-linecap="round" stroke-linejoin="round"/>
<path d="M26.9807 13.9L20.1271 23.0439C19.975 23.2467 19.7811 23.4145 19.5586 23.5358C19.336 23.6571 19.09 23.7293 18.8372 23.7473C18.5843 23.7653 18.3306 23.7287 18.0931 23.6401C17.8556 23.5516 17.6399 23.413 17.4606 23.2338L13.918 19.6912" stroke="#FF4612" stroke-width="1.5" stroke-linecap="round" stroke-linejoin="round"/>
</svg>
