<svg width="40" height="40" viewBox="0 0 40 40" fill="none" xmlns="http://www.w3.org/2000/svg">
<g clip-path="url(#clip0_2301_2355)">
<path d="M15.2687 18.668L10.3098 26.1659M21.3185 22.6692L17.4622 28.5" stroke="#FF4612" stroke-width="1.5" stroke-linecap="round" stroke-linejoin="round"/>
<path d="M15.2692 18.6678C14.1594 16.7738 13.8604 14.5123 14.4396 12.395C15.0189 10.2776 16.4275 8.4833 18.3468 7.41798C19.3059 6.86625 20.3703 6.52237 21.4709 6.40865C22.0935 6.36605 22.686 6.68172 22.9979 7.2222C23.3098 7.76268 23.2867 8.43361 22.9384 8.95135L20.6331 12.4367C20.5133 12.6179 20.4703 12.8392 20.5137 13.052C20.5571 13.2648 20.6832 13.4517 20.8644 13.5715L23.8188 15.5255C24.1961 15.775 24.7041 15.6714 24.9537 15.2942L27.2587 11.8089C27.5988 11.2857 28.2071 11.0018 28.8266 11.0773C29.446 11.1527 29.9684 11.5744 30.1729 12.164C30.4991 13.2213 30.5992 14.3354 30.4668 15.4339C30.2377 17.6171 29.1379 19.6156 27.4162 20.9774C25.6944 22.3391 23.4963 22.949 21.3191 22.669" stroke="#FF4612" stroke-width="1.5" stroke-linecap="round" stroke-linejoin="round"/>
<path d="M1.6665 24.2117L19.9998 29.2117" stroke="#202120" stroke-width="1.5" stroke-linecap="round" stroke-linejoin="round"/>
<path d="M20 29.2117L38.3333 24.2117" stroke="#202120" stroke-width="1.5" stroke-linecap="round" stroke-linejoin="round"/>
<path d="M1.6665 24.2118L8.5 22.5002" stroke="#202120" stroke-width="1.5" stroke-linecap="round" stroke-linejoin="round"/>
<path d="M1.6665 33.8135V24.4202" stroke="#202120" stroke-width="1.5" stroke-linecap="round" stroke-linejoin="round"/>
<path d="M38.3333 24.4202V33.8135" stroke="#202120" stroke-width="1.5" stroke-linecap="round" stroke-linejoin="round"/>
<path d="M20 36.6467V29.2117" stroke="#202120" stroke-width="1.5" stroke-linecap="round" stroke-linejoin="round"/>
<path d="M38.3332 24.2118L31.5 22.5002" stroke="#202120" stroke-width="1.5" stroke-linecap="round" stroke-linejoin="round"/>
</g>
<defs>
<clipPath id="clip0_2301_2355">
<rect width="40" height="40" fill="white"/>
</clipPath>
</defs>
</svg>
