<svg width="40" height="40" viewBox="0 0 40 40" fill="none" xmlns="http://www.w3.org/2000/svg">
<path d="M17.2381 35.465H5.04762C4.23934 35.465 3.46417 35.144 2.89263 34.5724C2.32109 34.0009 2 33.2257 2 32.4174V8.03648C2 7.2282 2.32109 6.45303 2.89263 5.88149C3.46417 5.30995 4.23934 4.98886 5.04762 4.98886H32.4762C33.2845 4.98886 34.0596 5.30995 34.6312 5.88149C35.2027 6.45303 35.5238 7.2282 35.5238 8.03648V17.1793" stroke="#202120" stroke-width="1.5" stroke-linecap="round" stroke-linejoin="round"/>
<path d="M2 14.1317H35.5238" stroke="#202120" stroke-width="1.5" stroke-linejoin="round"/>
<path d="M11.1426 8.0364V1.94116" stroke="#202120" stroke-width="1.5" stroke-linecap="round" stroke-linejoin="round"/>
<path d="M26.3809 8.0364V1.94116" stroke="#202120" stroke-width="1.5" stroke-linecap="round" stroke-linejoin="round"/>
<path d="M19.5352 28.7983C19.5352 31.2231 20.4984 33.5487 22.213 35.2633C23.9277 36.9779 26.2532 37.9412 28.678 37.9412C31.1028 37.9412 33.4284 36.9779 35.143 35.2633C36.8576 33.5487 37.8209 31.2231 37.8209 28.7983C37.8209 26.3735 36.8576 24.048 35.143 22.3333C33.4284 20.6187 31.1028 19.6555 28.678 19.6555C26.2532 19.6555 23.9277 20.6187 22.213 22.3333C20.4984 24.048 19.5352 26.3735 19.5352 28.7983Z" stroke="#FF4612" stroke-width="1.5" stroke-linecap="round" stroke-linejoin="round"/>
<path d="M29 25.4412V32.1079" stroke="#FF4612" stroke-width="1.5" stroke-linecap="round" stroke-linejoin="round"/>
<path d="M25.666 28.7745H32.3327" stroke="#FF4612" stroke-width="1.5" stroke-linecap="round" stroke-linejoin="round"/>
</svg>
