<svg width="40" height="40" viewBox="0 0 40 40" fill="none" xmlns="http://www.w3.org/2000/svg">
<path d="M28.3368 32.5053H6.66113" stroke="#202120" stroke-width="1.5" stroke-linecap="round" stroke-linejoin="round"/>
<path d="M14.9979 24.1684H6.66113" stroke="#202120" stroke-width="1.5" stroke-linecap="round" stroke-linejoin="round"/>
<path d="M14.9979 15.8316H6.66113" stroke="#202120" stroke-width="1.5" stroke-linecap="round" stroke-linejoin="round"/>
<path d="M28.3368 7.49481H6.66113" stroke="#202120" stroke-width="1.5" stroke-linecap="round" stroke-linejoin="round"/>
<path fill-rule="evenodd" clip-rule="evenodd" d="M23.8217 15.485C25.8431 13.4636 29.1198 13.4636 31.1412 15.485C33.1591 17.5029 33.1626 20.7718 31.1516 22.794C31.1481 22.7975 31.1446 22.8009 31.1411 22.8044C31.1376 22.8078 31.1342 22.8113 31.1309 22.8148C29.1087 24.8259 25.8397 24.8224 23.8217 22.8045C21.8003 20.7831 21.8003 17.5064 23.8217 15.485ZM31.642 24.3661C29.021 26.46 25.1889 26.293 22.7611 23.8651C20.1539 21.258 20.1539 17.0315 22.7611 14.4243C25.3682 11.8171 29.5947 11.8171 32.2019 14.4243C34.6298 16.8522 34.7967 20.6844 32.7027 23.3054L35.5364 26.1391C35.8293 26.432 35.8293 26.9069 35.5364 27.1998C35.2435 27.4927 34.7687 27.4927 34.4758 27.1998L31.642 24.3661Z" fill="#FF4612"/>
</svg>
