<svg width="40" height="40" viewBox="0 0 40 40" fill="none" xmlns="http://www.w3.org/2000/svg">
<path d="M12.4102 14.047L27.179 25.524" stroke="#FF4612" stroke-width="1.5" stroke-linecap="round" stroke-linejoin="round"/>
<path d="M12.4102 25.524L27.179 14.047" stroke="#FF4612" stroke-width="1.5" stroke-linecap="round" stroke-linejoin="round"/>
<path d="M2.99512 5.3979C2.99512 6.03425 3.5007 6.64454 4.40063 7.09451C5.30057 7.54448 6.52114 7.79726 7.79385 7.79726C9.06655 7.79726 10.2871 7.54448 11.1871 7.09451C12.087 6.64454 12.5926 6.03425 12.5926 5.3979C12.5926 4.76155 12.087 4.15126 11.1871 3.70129C10.2871 3.25132 9.06655 2.99854 7.79385 2.99854C6.52114 2.99854 5.30057 3.25132 4.40063 3.70129C3.5007 4.15126 2.99512 4.76155 2.99512 5.3979V5.3979Z" stroke="#202120" stroke-width="1.5" stroke-linecap="round" stroke-linejoin="round"/>
<path d="M12.5926 9.39532C12.5926 10.7198 10.4427 11.7947 7.79385 11.7947C5.14495 11.7947 2.99512 10.7198 2.99512 9.39532" stroke="#202120" stroke-width="1.5" stroke-linecap="round" stroke-linejoin="round"/>
<path d="M12.5926 5.3963V13.3942C12.5926 14.7186 10.4427 15.7935 7.79385 15.7935C5.14495 15.7935 2.99512 14.7186 2.99512 13.3942V5.3963" stroke="#202120" stroke-width="1.5" stroke-linecap="round" stroke-linejoin="round"/>
<path d="M26.9888 5.39796C26.9888 6.03431 27.4943 6.6446 28.3943 7.09457C29.2942 7.54454 30.5148 7.79733 31.7875 7.79733C33.0602 7.79733 34.2808 7.54454 35.1807 7.09457C36.0807 6.6446 36.5862 6.03431 36.5862 5.39796C36.5862 4.76161 36.0807 4.15132 35.1807 3.70135C34.2808 3.25139 33.0602 2.9986 31.7875 2.9986C30.5148 2.9986 29.2942 3.25139 28.3943 3.70135C27.4943 4.15132 26.9888 4.76161 26.9888 5.39796V5.39796Z" stroke="#202120" stroke-width="1.5" stroke-linecap="round" stroke-linejoin="round"/>
<path d="M36.5862 9.39532C36.5862 10.7198 34.4364 11.7947 31.7875 11.7947C29.1386 11.7947 26.9888 10.7198 26.9888 9.39532" stroke="#202120" stroke-width="1.5" stroke-linecap="round" stroke-linejoin="round"/>
<path d="M36.5862 5.3963V13.3942C36.5862 14.7186 34.4364 15.7935 31.7875 15.7935C29.1386 15.7935 26.9888 14.7186 26.9888 13.3942V5.3963" stroke="#202120" stroke-width="1.5" stroke-linecap="round" stroke-linejoin="round"/>
<path d="M2.99512 26.1925C2.99512 26.8289 3.5007 27.4392 4.40063 27.8891C5.30057 28.3391 6.52114 28.5919 7.79385 28.5919C9.06655 28.5919 10.2871 28.3391 11.1871 27.8891C12.087 27.4392 12.5926 26.8289 12.5926 26.1925C12.5926 25.5562 12.087 24.9459 11.1871 24.4959C10.2871 24.0459 9.06655 23.7932 7.79385 23.7932C6.52114 23.7932 5.30057 24.0459 4.40063 24.4959C3.5007 24.9459 2.99512 25.5562 2.99512 26.1925V26.1925Z" stroke="#202120" stroke-width="1.5" stroke-linecap="round" stroke-linejoin="round"/>
<path d="M12.5926 30.1897C12.5926 31.5141 10.4427 32.5891 7.79385 32.5891C5.14495 32.5891 2.99512 31.5141 2.99512 30.1897" stroke="#202120" stroke-width="1.5" stroke-linecap="round" stroke-linejoin="round"/>
<path d="M12.5926 26.1909V34.1887C12.5926 35.5132 10.4427 36.5881 7.79385 36.5881C5.14495 36.5881 2.99512 35.5132 2.99512 34.1887V26.1909" stroke="#202120" stroke-width="1.5" stroke-linecap="round" stroke-linejoin="round"/>
<path d="M26.9888 26.1925C26.9888 26.8289 27.4943 27.4392 28.3943 27.8891C29.2942 28.3391 30.5148 28.5919 31.7875 28.5919C33.0602 28.5919 34.2808 28.3391 35.1807 27.8891C36.0807 27.4392 36.5862 26.8289 36.5862 26.1925C36.5862 25.5562 36.0807 24.9459 35.1807 24.4959C34.2808 24.0459 33.0602 23.7932 31.7875 23.7932C30.5148 23.7932 29.2942 24.0459 28.3943 24.4959C27.4943 24.9459 26.9888 25.5562 26.9888 26.1925V26.1925Z" stroke="#202120" stroke-width="1.5" stroke-linecap="round" stroke-linejoin="round"/>
<path d="M36.5862 30.1897C36.5862 31.5141 34.4364 32.5891 31.7875 32.5891C29.1386 32.5891 26.9888 31.5141 26.9888 30.1897" stroke="#202120" stroke-width="1.5" stroke-linecap="round" stroke-linejoin="round"/>
<path d="M36.5862 26.1909V34.1887C36.5862 35.5132 34.4364 36.5881 31.7875 36.5881C29.1386 36.5881 26.9888 35.5132 26.9888 34.1887V26.1909" stroke="#202120" stroke-width="1.5" stroke-linecap="round" stroke-linejoin="round"/>
</svg>
