<svg width="40" height="40" viewBox="0 0 40 40" fill="none" xmlns="http://www.w3.org/2000/svg">
<path d="M1.99854 6.79705V4.39694C1.99854 3.76039 2.2514 3.14991 2.70151 2.6998C3.15162 2.24969 3.7621 1.99683 4.39865 1.99683H6.79876" stroke="#FF4612" stroke-width="1.5" stroke-linecap="round" stroke-linejoin="round"/>
<path d="M37.9999 6.79705V4.39694C37.9999 3.76039 37.7471 3.14991 37.297 2.6998C36.8468 2.24969 36.2364 1.99683 35.5998 1.99683H33.1997" stroke="#FF4612" stroke-width="1.5" stroke-linecap="round" stroke-linejoin="round"/>
<path d="M1.99854 33.1983V35.5984C1.99854 36.235 2.2514 36.8454 2.70151 37.2956C3.15162 37.7457 3.7621 37.9985 4.39865 37.9985H6.79876" stroke="#FF4612" stroke-width="1.5" stroke-linecap="round" stroke-linejoin="round"/>
<path d="M37.9999 33.1983V35.5984C37.9999 36.235 37.7471 36.8454 37.297 37.2956C36.8468 37.7457 36.2364 37.9985 35.5998 37.9985H33.1997" stroke="#FF4612" stroke-width="1.5" stroke-linecap="round" stroke-linejoin="round"/>
<path d="M11.999 16.3974H28.7999V30.3981H11.999V16.3974Z" stroke="#202120" stroke-width="1.5" stroke-linecap="round" stroke-linejoin="round"/>
<path d="M20.3923 7.99719C18.907 7.99719 17.4825 8.58722 16.4323 9.63748C15.382 10.6877 14.792 12.1122 14.792 13.5975V16.3976H25.9926V13.5975C25.9926 12.1122 25.4025 10.6877 24.3523 9.63748C23.302 8.58722 21.8776 7.99719 20.3923 7.99719V7.99719Z" stroke="#202120" stroke-width="1.5" stroke-linecap="round" stroke-linejoin="round"/>
<path d="M20.4677 22.7444C20.6205 22.7444 20.77 22.7898 20.897 22.8747C21.0241 22.9596 21.1232 23.0803 21.1817 23.2215C21.2402 23.3628 21.2555 23.5182 21.2257 23.6681C21.1959 23.818 21.1222 23.9557 21.0142 24.0638C20.9061 24.1719 20.7684 24.2455 20.6184 24.2753C20.4685 24.3051 20.3131 24.2898 20.1719 24.2313C20.0307 24.1728 19.91 24.0738 19.8251 23.9467C19.7401 23.8196 19.6948 23.6701 19.6948 23.5173C19.6948 23.3123 19.7762 23.1157 19.9212 22.9708C20.0661 22.8259 20.2627 22.7444 20.4677 22.7444Z" fill="#202120" stroke="#202120" stroke-width="1.5" stroke-linecap="round" stroke-linejoin="round"/>
</svg>
