<svg width="40" height="40" viewBox="0 0 40 40" fill="none" xmlns="http://www.w3.org/2000/svg">
<path fill-rule="evenodd" clip-rule="evenodd" d="M16.6667 17.4108H23.3333C24.25 17.4108 25 18.1608 25 19.0774V24.1658C25 25.0858 24.2533 25.8324 23.3333 25.8324H16.6667C15.7467 25.8324 15 25.0858 15 24.1658V19.0774C15 18.1574 15.7467 17.4108 16.6667 17.4108Z" fill="#FF4612" stroke="#FF4612" stroke-width="1.5" stroke-linecap="round" stroke-linejoin="round"/>
<path d="M17.1934 17.4112V15.3062C17.1934 13.7562 18.45 12.4995 20 12.4995C21.55 12.4995 22.8067 13.7562 22.8067 15.3062V17.4078" stroke="#FF4612" stroke-width="1.5" stroke-linecap="round" stroke-linejoin="round"/>
<path fill-rule="evenodd" clip-rule="evenodd" d="M9.95533 8.44495L18.8587 5.20162C19.5953 4.93328 20.4037 4.93328 21.1403 5.20162L30.0437 8.44495C32.0203 9.16495 33.3337 11.0416 33.3337 13.1433V21.2633C33.3337 27.2316 30.287 29.68 21.6587 34.565C20.6303 35.1466 19.3703 35.1466 18.342 34.565C9.71366 29.68 6.66699 27.2316 6.66699 21.2633V13.1433C6.66699 11.0416 7.98033 9.16495 9.95533 8.44495Z" stroke="#323232" stroke-width="1.5" stroke-linecap="round" stroke-linejoin="round"/>
</svg>
