<svg width="40" height="40" viewBox="0 0 40 40" fill="none" xmlns="http://www.w3.org/2000/svg">
<path d="M34.2302 14.7891L35.9706 17.7814C36.7615 19.1412 36.7615 20.8209 35.9706 22.1807L29.4528 33.3868C28.6694 34.7336 27.229 35.5622 25.6709 35.5622H12.5791C11.021 35.5622 9.58057 34.7336 8.79724 33.3868L2.27938 22.1807C1.48848 20.8209 1.48848 19.1412 2.27938 17.7814L8.79724 6.57527C9.58057 5.22848 11.021 4.3999 12.5791 4.3999L23.6755 4.3999" stroke="#FF4612" stroke-width="2" stroke-linecap="round"/>
<path d="M31.1933 11.2324L26.9014 7.33594" stroke="#202120" stroke-width="2" stroke-linecap="round" stroke-linejoin="round"/>
<path fill-rule="evenodd" clip-rule="evenodd" d="M19.1528 24.0131L15.5161 24.1888L15.3405 20.5521C15.3261 20.2556 15.4298 19.9647 15.63 19.7454L29.8255 4.10787C30.2417 3.64936 30.9498 3.61516 31.4072 4.03147L34.0469 6.4279C34.5054 6.84416 34.5396 7.55226 34.1233 8.00966L19.9279 23.6472C19.7288 23.8676 19.4493 23.9988 19.1528 24.0131V24.0131Z" stroke="#202120" stroke-width="2" stroke-linecap="round" stroke-linejoin="round"/>
</svg>
