<svg width="40" height="40" viewBox="0 0 40 40" fill="none" xmlns="http://www.w3.org/2000/svg">
<path d="M17.0423 17.0484L15.0458 15.0518M17.0423 17.0484C16.261 17.8296 16.0006 19.1317 16.4346 20.1734C16.8687 21.215 17.9103 21.9095 19.1255 21.9095C20.3408 21.9095 21.2956 21.215 21.8164 20.1734C22.2505 19.1317 21.9901 17.8296 21.2088 17.0484M17.0423 17.0484C18.1707 15.9199 19.9936 15.9199 21.122 17.0484L23.1185 15.0518M23.1185 23.1248L21.122 21.1282M15.0458 23.1248L17.0423 21.1282M7.14671 35.538V31.8921M34.6633 9.93031H36.4862M34.6633 19.9998V7.93379C34.6633 5.93726 33.1009 4.37476 31.1044 4.37476H7.05991C5.06343 4.37476 3.50098 5.93726 3.50098 7.93379V28.3331C3.50098 30.3296 5.06343 31.8921 7.05991 31.8921H20.1672" stroke="#202120" stroke-width="2" stroke-linecap="round" stroke-linejoin="round"/>
<path d="M33.8823 28.681L36.834 26.0773L33.8823 23.4727" stroke="#FF4612" stroke-width="1.6" stroke-linecap="round" stroke-linejoin="round"/>
<path d="M25.2026 26.0769H36.8346" stroke="#FF4612" stroke-width="1.6" stroke-linecap="round" stroke-linejoin="round"/>
<path d="M27.6318 30.4169L24.6809 33.0206L27.6318 35.6252" stroke="#FF4612" stroke-width="1.6" stroke-linecap="round" stroke-linejoin="round"/>
<path d="M36.3125 33.021L24.6812 33.021" stroke="#FF4612" stroke-width="1.6" stroke-linecap="round" stroke-linejoin="round"/>
</svg>
