<svg width="40" height="40" viewBox="0 0 40 40" fill="none" xmlns="http://www.w3.org/2000/svg">
<path d="M37.9012 29.6185C38.2584 30.2373 38.2584 30.9997 37.9012 31.6185L36.1867 34.588C35.8294 35.2068 35.1692 35.588 34.4546 35.588L31.0257 35.588C30.3112 35.588 29.6509 35.2068 29.2936 34.588L27.5792 31.6185C27.2219 30.9997 27.2219 30.2373 27.5792 29.6185L29.2936 26.6489C29.6509 26.0301 30.3112 25.6489 31.0257 25.6489L34.4546 25.6489C35.1692 25.6489 35.8294 26.0301 36.1867 26.6489L37.9012 29.6185Z" stroke="#202120" stroke-width="2"/>
<path d="M34.5143 13.9776C34.7822 14.4417 34.7822 15.0135 34.5143 15.4776L33.3939 17.418C33.126 17.8821 32.6308 18.168 32.0949 18.168L29.8542 18.168C29.3183 18.168 28.8232 17.8821 28.5552 17.418L27.4349 15.4776C27.1669 15.0135 27.1669 14.4417 27.4349 13.9776L28.5552 12.0371C28.8232 11.573 29.3183 11.2871 29.8542 11.2871L32.0949 11.2871C32.6308 11.2871 33.126 11.573 33.3939 12.0371L34.5143 13.9776Z" stroke="#202120" stroke-width="2"/>
<line x1="17.5435" y1="23.4887" x2="27.3758" y2="16.6817" stroke="#202120" stroke-width="2" stroke-linecap="round"/>
<line x1="21.0433" y1="30.1764" x2="27.0009" y2="30.8383" stroke="#202120" stroke-width="2" stroke-linecap="round"/>
<line x1="3.625" y1="33.5913" x2="13.9845" y2="33.5913" stroke="#202120" stroke-width="2" stroke-linecap="round"/>
<line x1="3.625" y1="29.177" x2="13.9845" y2="29.177" stroke="#202120" stroke-width="2" stroke-linecap="round"/>
<path d="M1.7421 22.8263C3.64741 21.6025 5.84708 20.9143 8.11013 20.8339C10.3732 20.7535 12.6161 21.2839 14.6035 22.3695C16.5908 23.455 18.0787 24.5232 19.8451 27.5288C21.61 31.1443 21.1694 34.0926 21.1694 36.3571H18.0795" stroke="#FF4612" stroke-width="2" stroke-linecap="round" stroke-linejoin="round"/>
<path d="M3.16553 7.00317C4.21682 8.06465 5.47743 8.90886 6.87191 9.48529C8.2664 10.0617 9.76609 10.3585 11.2812 10.3579C12.8165 10.3591 14.3358 10.055 15.7457 9.46403" stroke="#FF4612" stroke-width="2" stroke-linecap="round" stroke-linejoin="round"/>
<path d="M1.3999 10.4666C1.3999 12.4974 2.20662 14.445 3.6426 15.8809C5.07857 17.3169 7.02617 18.1236 9.05694 18.1236C11.0877 18.1236 13.0353 17.3169 14.4713 15.8809C15.9073 14.445 16.714 12.4974 16.714 10.4666C16.714 8.43583 15.9073 6.48824 14.4713 5.05226C13.0353 3.61629 11.0877 2.80957 9.05694 2.80957C7.02617 2.80957 5.07857 3.61629 3.6426 5.05226C2.20662 6.48824 1.3999 8.43583 1.3999 10.4666V10.4666Z" stroke="#FF4612" stroke-width="2" stroke-linecap="round" stroke-linejoin="round"/>
</svg>
