<svg width="40" height="40" viewBox="0 0 40 40" fill="none" xmlns="http://www.w3.org/2000/svg">
<path d="M35.5348 34.8842H36.0723C36.6202 34.8842 37.1456 34.6538 37.533 34.2438C37.9204 33.8338 38.138 33.2776 38.138 32.6978V30.4435C38.1383 30.1228 38.0718 29.806 37.9432 29.5156C37.8146 29.2251 37.6272 28.9683 37.3942 28.7632L35.0395 26.6859L34.1129 23.0921C33.9345 22.3981 33.5453 21.7855 33.0054 21.3488C32.4655 20.9121 31.8048 20.6756 31.1253 20.6758H23.6094C23.0159 20.6774 22.4354 20.8593 21.9368 21.2C21.4382 21.5407 21.0425 22.0258 20.7968 22.5976L19.0421 26.6859L15.4482 28.7946C15.1265 28.984 14.8585 29.2609 14.6719 29.5968C14.4854 29.9327 14.3871 30.3152 14.3872 30.7048V32.6978C14.387 32.9848 14.4402 33.2691 14.5439 33.5343C14.6475 33.7996 14.7995 34.0406 14.9912 34.2437C15.1829 34.4467 15.4105 34.6078 15.6611 34.7177C15.9116 34.8276 16.1801 34.8842 16.4513 34.8842H17.5061" stroke="#FF4612" stroke-width="1.5" stroke-linecap="round" stroke-linejoin="round"/>
<path d="M22.6484 34.8843H30.2212" stroke="#FF4612" stroke-width="1.5" stroke-linecap="round" stroke-linejoin="round"/>
<path d="M20.0665 37.7988C21.4923 37.7988 22.6481 36.5755 22.6481 35.0664C22.6481 33.5574 21.4923 32.334 20.0665 32.334C18.6407 32.334 17.4849 33.5574 17.4849 35.0664C17.4849 36.5755 18.6407 37.7988 20.0665 37.7988Z" stroke="#FF4612" stroke-width="1.5" stroke-linecap="round" stroke-linejoin="round"/>
<path d="M32.8028 37.7988C34.2286 37.7988 35.3844 36.5755 35.3844 35.0664C35.3844 33.5574 34.2286 32.334 32.8028 32.334C31.377 32.334 30.2212 33.5574 30.2212 35.0664C30.2212 36.5755 31.377 37.7988 32.8028 37.7988Z" stroke="#FF4612" stroke-width="1.5" stroke-linecap="round" stroke-linejoin="round"/>
<path d="M19 26.6758L35 26.6758" stroke="#FF4612" stroke-width="1.5" stroke-linecap="round" stroke-linejoin="round"/>
<path d="M27.123 20.6758V26.5049" stroke="#FF4612" stroke-width="1.5" stroke-linecap="round" stroke-linejoin="round"/>
<path d="M26.0418 14.6758C28.3303 14.6758 30.1856 12.8205 30.1856 10.532C30.1856 8.24338 28.3303 6.38812 26.0418 6.38812C23.7532 6.38812 21.8979 8.24338 21.8979 10.532C21.8979 12.8205 23.7532 14.6758 26.0418 14.6758Z" stroke="#202120" stroke-width="1.5" stroke-linecap="round" stroke-linejoin="round"/>
<path d="M13.5125 14.6758C15.801 14.6758 17.6563 12.8205 17.6563 10.532C17.6563 8.24338 15.801 6.38812 13.5125 6.38812C11.2239 6.38812 9.36865 8.24338 9.36865 10.532C9.36865 12.8205 11.2239 14.6758 13.5125 14.6758Z" stroke="#202120" stroke-width="1.5" stroke-linecap="round" stroke-linejoin="round"/>
<path d="M26.0414 10.532L23.7393 1.32349H26.5018" stroke="#202120" stroke-width="1.5" stroke-linecap="round" stroke-linejoin="round"/>
<path d="M17.656 5.02126L16.5513 1.78394H18.959" stroke="#202120" stroke-width="1.5" stroke-linecap="round" stroke-linejoin="round"/>
<path d="M24.3694 3.85638L17.656 5.02114L13.5122 10.5319" stroke="#202120" stroke-width="1.5" stroke-linecap="round" stroke-linejoin="round"/>
<path d="M4.40214 30.9518C5.72881 30.9518 6.80429 29.8763 6.80429 28.5496C6.80429 27.2229 5.72881 26.1475 4.40214 26.1475C3.07548 26.1475 2 27.2229 2 28.5496C2 29.8763 3.07548 30.9518 4.40214 30.9518Z" stroke="#202120" stroke-width="1.5" stroke-linecap="round" stroke-linejoin="round"/>
<path d="M6.8042 28.5134V19.2325C6.8042 19.143 6.82578 19.0548 6.86713 18.9754C6.90847 18.896 6.96834 18.8278 7.04168 18.7764C7.11502 18.7251 7.19965 18.6922 7.28841 18.6805C7.37716 18.6689 7.46742 18.6788 7.55153 18.7094C8.50533 19.0093 9.37561 19.5285 10.0926 20.2253C10.8097 20.9221 11.3535 21.7772 11.6806 22.7221" stroke="#202120" stroke-width="1.5" stroke-linecap="round" stroke-linejoin="round"/>
</svg>
