<svg width="40" height="40" viewBox="0 0 40 40" fill="none" xmlns="http://www.w3.org/2000/svg">
<path d="M23.3167 7.71796L17.0085 16.1342C16.8685 16.3209 16.6901 16.4753 16.4852 16.587C16.2804 16.6986 16.0539 16.765 15.8212 16.7816C15.5885 16.7982 15.3549 16.7645 15.1363 16.683C14.9177 16.6015 14.7192 16.4739 14.5542 16.309L11.2935 13.0483" stroke="#FF4612" stroke-width="1.5" stroke-linecap="round" stroke-linejoin="round"/>
<path d="M8.05615 34.7593C8.05615 35.5565 8.37284 36.321 8.93653 36.8847C9.50023 37.4484 10.2648 37.7651 11.062 37.7651C11.8592 37.7651 12.6237 37.4484 13.1874 36.8847C13.7511 36.321 14.0678 35.5565 14.0678 34.7593C14.0678 33.9621 13.7511 33.1976 13.1874 32.6339C12.6237 32.0702 11.8592 31.7535 11.062 31.7535C10.2648 31.7535 9.50023 32.0702 8.93653 32.6339C8.37284 33.1976 8.05615 33.9621 8.05615 34.7593V34.7593Z" stroke="#202120" stroke-width="1.5" stroke-linecap="round" stroke-linejoin="round"/>
<path d="M20.0796 34.7593C20.0796 35.5565 20.3963 36.321 20.96 36.8847C21.5237 37.4484 22.2882 37.7651 23.0854 37.7651C23.8826 37.7651 24.6471 37.4484 25.2108 36.8847C25.7745 36.321 26.0912 35.5565 26.0912 34.7593C26.0912 33.9621 25.7745 33.1976 25.2108 32.6339C24.6471 32.0702 23.8826 31.7535 23.0854 31.7535C22.2882 31.7535 21.5237 32.0702 20.96 32.6339C20.3963 33.1976 20.0796 33.9621 20.0796 34.7593V34.7593Z" stroke="#202120" stroke-width="1.5" stroke-linecap="round" stroke-linejoin="round"/>
<path d="M2.04492 12.5161L5.77854 25.1598C5.91526 25.6718 6.21726 26.1242 6.63761 26.4469C7.05797 26.7696 7.57313 26.9443 8.10304 26.944H25.4454C25.9761 26.9454 26.4924 26.7711 26.9137 26.4484C27.335 26.1256 27.6378 25.6726 27.7747 25.1598L32.9655 5.67571C33.1701 4.90774 33.6228 4.22889 34.253 3.74474C34.8833 3.26058 35.6559 2.99825 36.4507 2.99854H38.1147" stroke="#202120" stroke-width="1.5" stroke-linecap="round" stroke-linejoin="round"/>
</svg>
