<svg width="40" height="40" viewBox="0 0 40 40" fill="none" xmlns="http://www.w3.org/2000/svg">
<path d="M18.4717 17.4178L17.2197 22.4291L22.2299 21.176L29.7463 13.6596L25.9881 9.90137L18.4717 17.4178Z" stroke="#FF4612" stroke-width="1.5" stroke-linecap="round" stroke-linejoin="round"/>
<path d="M29.7465 13.6596L34.1319 9.27546C34.2965 9.11093 34.4271 8.91558 34.5162 8.70056C34.6053 8.48554 34.6512 8.25507 34.6512 8.02233C34.6512 7.78958 34.6053 7.55911 34.5162 7.34409C34.4271 7.12907 34.2965 6.93372 34.1319 6.76919L32.8787 5.51724C32.5465 5.18511 32.096 4.99854 31.6262 4.99854C31.1564 4.99854 30.7059 5.18511 30.3737 5.51724L25.9883 9.90025" stroke="#FF4612" stroke-width="1.5" stroke-linecap="round" stroke-linejoin="round"/>
<path d="M31.5446 22.4239V26.699C31.5445 26.9683 31.4914 27.235 31.3882 27.4838C31.285 27.7327 31.1338 27.9587 30.9432 28.149L23.9444 35.1479C23.754 35.3385 23.528 35.4897 23.2792 35.5929C23.0303 35.6961 22.7636 35.7492 22.4943 35.7492H6.94263C6.39892 35.7492 5.87748 35.5333 5.49302 35.1488C5.10856 34.7643 4.89258 34.2429 4.89258 33.6992V7.04858C4.89258 6.50488 5.10856 5.98344 5.49302 5.59898C5.87748 5.21452 6.39892 4.99854 6.94263 4.99854H22.318" stroke="#202120" stroke-width="1.5" stroke-linecap="round" stroke-linejoin="round"/>
<path d="M23.3442 35.5646V29.599C23.3442 29.0553 23.5602 28.5339 23.9447 28.1494C24.3291 27.7649 24.8506 27.549 25.3943 27.549H31.3599" stroke="#202120" stroke-width="1.5" stroke-linecap="round" stroke-linejoin="round"/>
</svg>
