<svg width="40" height="40" viewBox="0 0 40 40" fill="none" xmlns="http://www.w3.org/2000/svg">
<path fill-rule="evenodd" clip-rule="evenodd" d="M17.7185 29.0612L31.8668 14.9129C32.5185 14.2612 33.5735 14.2612 34.2235 14.9129L36.0202 16.7096C36.6718 17.3612 36.6718 18.4162 36.0202 19.0662L21.8685 33.2179C21.4302 33.6562 20.8785 33.9629 20.2768 34.1046L17.5302 34.7529C16.7235 34.9429 15.9985 34.2196 16.1868 33.4112L16.8302 30.6596C16.9718 30.0546 17.2802 29.5012 17.7185 29.0612V29.0612Z" stroke="#202120" stroke-width="1.5" stroke-linecap="round" stroke-linejoin="round"/>
<path d="M29.2168 17.5496L33.3835 21.7162" stroke="#202120" stroke-width="1.5" stroke-linecap="round" stroke-linejoin="round"/>
<path d="M11.6668 34.9995H11.4152C6.95183 34.9995 3.3335 31.3812 3.3335 26.9178V26.9178C3.3335 23.7245 5.2135 20.8295 8.1335 19.5328L14.7335 16.5995C16.9235 15.6262 18.3335 13.4562 18.3335 11.0612V11.0612C18.3335 7.71285 15.6202 4.99951 12.2718 4.99951H11.6668" stroke="#FF4612" stroke-width="1.5" stroke-linecap="round" stroke-linejoin="round"/>
</svg>
