<svg width="40" height="40" viewBox="0 0 40 40" fill="none" xmlns="http://www.w3.org/2000/svg">
<path d="M15 16.25L9 18.8183C7.23006 19.5773 5.81991 20.9881 5.06167 22.7583L3.10667 27.3333C2.70617 28.2676 2.49977 29.2735 2.5 30.29V38.75" stroke="#202120" stroke-width="1.5" stroke-linecap="round" stroke-linejoin="round"/>
<path d="M15 24.0633V6.25C15 4.92392 15.5268 3.65215 16.4645 2.71447C17.4021 1.77678 18.6739 1.25 20 1.25H32.5C33.8261 1.25 35.0978 1.77678 36.0355 2.71447C36.9732 3.65215 37.5 4.92392 37.5 6.25V33.75C37.5 35.0761 36.9732 36.3478 36.0355 37.2855C35.0978 38.2232 33.8261 38.75 32.5 38.75H20C18.6739 38.75 17.4021 38.2232 16.4645 37.2855C15.5268 36.3478 15 35.0761 15 33.75V32.9167" stroke="#FF4612" stroke-width="1.5" stroke-linecap="round" stroke-linejoin="round"/>
<path d="M17.0234 31.25H37.5001" stroke="#FF4612" stroke-width="1.5" stroke-linecap="round" stroke-linejoin="round"/>
<path d="M13.75 25L16.5383 22.9083C16.8229 22.6952 17.148 22.5423 17.4937 22.4589C17.8393 22.3756 18.1984 22.3636 18.5489 22.4236C18.8993 22.4837 19.2339 22.6145 19.5321 22.8082C19.8303 23.0019 20.0859 23.2543 20.2833 23.55V23.55C20.5695 23.9795 20.7222 24.484 20.7222 25C20.7222 25.5161 20.5695 26.0206 20.2833 26.45L17.5417 30.5617C16.7001 31.8241 15.4954 32.8015 14.0867 33.365L10 35V38.75" stroke="#202120" stroke-width="1.5" stroke-linecap="round" stroke-linejoin="round"/>
</svg>
