<svg width="40" height="40" viewBox="0 0 40 40" fill="none" xmlns="http://www.w3.org/2000/svg">
<g clip-path="url(#clip0_2026_3446)">
<path d="M1.66699 30.2115L20.0003 35.2115" stroke="#202120" stroke-width="1.5" stroke-linecap="round" stroke-linejoin="round"/>
<path d="M20 35.2115L38.3333 30.2115" stroke="#202120" stroke-width="1.5" stroke-linecap="round" stroke-linejoin="round"/>
<path d="M1.66699 30.2117L10.822 27.8134" stroke="#202120" stroke-width="1.5" stroke-linecap="round" stroke-linejoin="round"/>
<path d="M1.66699 37.8133V30.4199" stroke="#202120" stroke-width="1.5" stroke-linecap="round" stroke-linejoin="round"/>
<path d="M38.334 30.4199V37.8133" stroke="#202120" stroke-width="1.5" stroke-linecap="round" stroke-linejoin="round"/>
<path d="M20 38.6465V35.2115" stroke="#202120" stroke-width="1.5" stroke-linecap="round" stroke-linejoin="round"/>
<path d="M25.8337 10.1033C25.8337 13.3249 24.862 21.7699 20.0003 21.7699C15.1387 21.7699 14.167 13.3333 14.167 10.1033C14.167 4.26994 20.0003 1.35327 20.0003 1.35327C20.0003 1.35327 25.8337 4.26994 25.8337 10.1033Z" stroke="#FF4612" stroke-width="1.5" stroke-linecap="round" stroke-linejoin="round"/>
<path d="M20.0002 12.1832C21.2641 12.1832 22.2886 11.1587 22.2886 9.8949C22.2886 8.63109 21.2641 7.60657 20.0002 7.60657C18.7364 7.60657 17.7119 8.63109 17.7119 9.8949C17.7119 11.1587 18.7364 12.1832 20.0002 12.1832Z" stroke="#FF4612" stroke-width="1.5" stroke-linecap="round" stroke-linejoin="round"/>
<path d="M16.1384 20.2682L14.7918 20.9432C14.0303 21.3474 13.3328 21.8618 12.7218 22.4699C12.5755 22.6268 12.3862 22.7369 12.1775 22.7865C11.9688 22.8362 11.7502 22.823 11.549 22.7488C11.3477 22.6745 11.173 22.5425 11.0465 22.3692C10.9201 22.1959 10.8477 21.9892 10.8384 21.7749C10.6956 20.526 10.9616 19.2645 11.5966 18.1797C12.2315 17.0948 13.2012 16.2452 14.3601 15.7582" stroke="#FF4612" stroke-width="1.5" stroke-linecap="round" stroke-linejoin="round"/>
<path d="M23.8623 20.2682L25.209 20.9432C25.9704 21.3474 26.6679 21.8618 27.279 22.4699C27.4252 22.6268 27.6146 22.7369 27.8232 22.7865C28.0319 22.8362 28.2506 22.823 28.4518 22.7488C28.653 22.6745 28.8278 22.5425 28.9542 22.3692C29.0806 22.1959 29.153 21.9892 29.1623 21.7749C29.3052 20.526 29.0391 19.2645 28.4042 18.1797C27.7692 17.0948 26.7995 16.2452 25.6406 15.7582" stroke="#FF4612" stroke-width="1.5" stroke-linecap="round" stroke-linejoin="round"/>
<path d="M38.3337 30.2117L29.1787 27.8134" stroke="#202120" stroke-width="1.5" stroke-linecap="round" stroke-linejoin="round"/>
<path d="M22.3337 26.6784C22.3337 27.9667 21.2887 31.0834 20.0003 31.0834C18.712 31.0834 17.667 27.9667 17.667 26.6784C17.667 26.0595 17.9128 25.466 18.3504 25.0284C18.788 24.5909 19.3815 24.345 20.0003 24.345C20.6192 24.345 21.2127 24.5909 21.6502 25.0284C22.0878 25.466 22.3337 26.0595 22.3337 26.6784V26.6784Z" stroke="#FF4612" stroke-width="1.5" stroke-linecap="round" stroke-linejoin="round"/>
</g>
<defs>
<clipPath id="clip0_2026_3446">
<rect width="40" height="40" fill="white"/>
</clipPath>
</defs>
</svg>
