<svg width="40" height="41" viewBox="0 0 40 41" fill="none" xmlns="http://www.w3.org/2000/svg">
<path d="M16.8352 35.5886C16.9457 35.5886 17.0517 35.6325 17.1299 35.7107C17.208 35.7888 17.2519 35.8948 17.2519 36.0054C17.2519 36.1159 17.208 36.2219 17.1299 36.3C17.0517 36.3782 16.9457 36.4221 16.8352 36.4221C16.7247 36.4221 16.6187 36.3782 16.5405 36.3C16.4624 36.2219 16.4185 36.1159 16.4185 36.0054C16.4185 35.8948 16.4624 35.7888 16.5405 35.7107C16.6187 35.6325 16.7247 35.5886 16.8352 35.5886Z" stroke="#202120" stroke-width="1.5" stroke-linecap="round" stroke-linejoin="round"/>
<path d="M25.1696 39.3392H9.33385C7.49261 39.3392 6 37.8466 6 36.0054V4.33385C6 2.49261 7.49261 1 9.33385 1H24.3362C26.1774 1 27.67 2.49261 27.67 4.33385V25.1704" stroke="#202120" stroke-width="1.5" stroke-linecap="round" stroke-linejoin="round"/>
<path d="M20.1688 32.6716H6" stroke="#202120" stroke-width="1.5" stroke-linecap="round" stroke-linejoin="round"/>
<path d="M27.67 7.66772H6" stroke="#202120" stroke-width="1.5" stroke-linecap="round" stroke-linejoin="round"/>
<path d="M14.3345 4.33374H19.3352" stroke="#202120" stroke-width="1.5" stroke-linecap="round" stroke-linejoin="round"/>
<line x1="25.0959" y1="32.5063" x2="37.5828" y2="32.5063" stroke="#FF4612" stroke-width="1.5" stroke-linecap="round"/>
<path d="M31.502 26.1001L31.502 38.4606" stroke="#FF4612" stroke-width="1.5" stroke-linecap="round"/>
</svg>
