<svg width="40" height="40" viewBox="0 0 40 40" fill="none" xmlns="http://www.w3.org/2000/svg">
<path fill-rule="evenodd" clip-rule="evenodd" d="M14.6616 37.3927C14.856 36.9323 15.385 36.7174 15.8433 36.9126C16.7291 37.2899 17.6036 37.4656 18.4741 37.4446C18.9717 37.4326 19.3848 37.8281 19.3968 38.328C19.4087 38.8279 19.015 39.2429 18.5174 39.2549C17.385 39.2822 16.2566 39.0555 15.1396 38.5797C14.6813 38.3845 14.4673 37.853 14.6616 37.3927ZM34.0893 22.3594C34.5868 22.3417 35.0043 22.7324 35.0219 23.2321C35.1958 28.1604 33.3438 31.4802 29.5181 32.9828C29.1541 34.6148 27.8429 36.2295 25.6423 37.8696C25.2425 38.1676 24.678 38.0836 24.3814 37.682C24.0848 37.2805 24.1685 36.7134 24.5682 36.4154C26.6601 34.8563 27.7142 33.4444 27.8121 32.24C27.8415 31.8786 28.0828 31.5696 28.4253 31.4549C31.7966 30.3254 33.3753 27.6851 33.2205 23.2963C33.2029 22.7965 33.5918 22.3771 34.0893 22.3594ZM19.7119 4.2467C28.1272 4.38195 31.3501 9.40302 31.4198 19.0281C31.4713 26.1514 30.2839 29.1818 27.645 29.5872C26.6461 29.7406 25.5851 29.3886 25.0013 28.6529C24.2521 27.7087 24.2523 26.2504 24.9997 25.3313C25.7157 24.5083 25.9618 23.7816 26.0015 22.7072C26.0095 22.493 26.0102 22.3171 26.0076 21.9107C26.0061 21.6804 26.0058 21.5759 26.0066 21.4491C26.0066 20.4913 26.0072 19.7448 26.0086 18.8572C26.0094 18.3375 26.0099 18.003 26.0102 17.7362L26.0105 16.9051C26.0101 16.4372 26.0089 15.9731 26.0066 15.417C25.9942 12.5383 23.7235 9.67087 19.6993 9.67894C14.8617 9.68865 13.4812 11.7242 13.3883 19.0462C13.2834 27.3135 14.4776 29.5976 19.7217 29.5979C20.5526 29.6203 21.1977 29.3585 21.1996 28.6896C21.2017 27.9752 20.7084 27.7615 19.6824 27.7867C16.8365 27.7388 15.2433 26.1384 15.191 23.2592C15.1937 19.6155 15.1941 17.3182 15.1921 16.3719L15.191 16.0214C15.1861 15.086 15.3425 14.2061 15.8257 13.3851C16.5517 12.1517 17.8554 11.4567 19.7135 11.4899C22.4908 11.5395 24.0744 13.1303 24.204 16.0167V22.6562C24.204 23.1563 23.8004 23.5616 23.3027 23.5616C22.8049 23.5616 22.4014 23.1563 22.4014 22.6562L22.4023 16.0578C22.3164 14.1564 21.4965 13.3328 19.6814 13.3004C17.603 13.2632 16.9847 14.3136 16.9936 16.0119C16.9967 16.6136 16.9967 19.0274 16.9934 23.2433C17.0278 25.1307 17.8381 25.9446 19.6747 25.9763C20.338 25.9595 20.9064 26.0213 21.4821 26.2707C22.4261 26.6797 23.0056 27.5107 23.0022 28.6948C22.9988 29.8928 22.3536 30.7138 21.3546 31.1193C20.7775 31.3535 20.1891 31.422 19.6975 31.4084C13.1657 31.4084 11.4699 28.1647 11.5859 19.0231C11.6899 10.8268 13.6882 7.88021 19.6957 7.86816C24.8191 7.85788 27.7929 11.613 27.8091 15.4092C27.8121 16.1071 27.8133 16.6612 27.8131 17.2586L27.8128 17.738C27.8125 18.0054 27.812 18.3403 27.8111 18.8599C27.8106 19.2146 27.8102 19.5467 27.8099 19.8792L27.8091 21.4546C27.8084 21.5768 27.8087 21.6762 27.8102 21.8989C27.813 22.3317 27.8121 22.5251 27.8029 22.7744C27.7488 24.2371 27.3683 25.3604 26.3766 26.4996C26.188 26.7317 26.1879 27.2432 26.4109 27.5243C26.5671 27.7211 26.9788 27.8577 27.3725 27.7972C28.7908 27.5793 29.6629 25.3535 29.6172 19.0413C29.5538 10.2804 26.9177 6.17353 19.6831 6.05725C12.3892 5.94002 9.92375 9.37491 9.78312 19.0479C9.65592 27.7981 12.8888 32.9668 17.9399 33.2203C21.5249 33.4002 22.5205 33.0659 23.5058 31.7881C23.6323 31.624 24.1858 30.8603 24.3477 30.6471C24.6496 30.2495 25.2151 30.173 25.6109 30.4763C26.0067 30.7795 26.0829 31.3476 25.781 31.7452C25.6369 31.9351 25.078 32.7061 24.9309 32.8969C23.5322 34.7109 21.9698 35.2356 17.8499 35.0288C11.6465 34.7175 7.84099 28.6333 7.98072 19.0215C8.13429 8.45781 11.2544 4.11077 19.7119 4.2467ZM19.6975 15.1113C20.1953 15.1113 20.5988 15.5167 20.5988 16.0167V23.2598C20.5988 23.7599 20.1953 24.1652 19.6975 24.1652C19.1997 24.1652 18.7962 23.7599 18.7962 23.2598V16.0167C18.7962 15.5167 19.1997 15.1113 19.6975 15.1113ZM34.1182 16.3185C34.616 16.3185 35.0195 16.7239 35.0195 17.2239V19.6383C35.0195 20.1383 34.616 20.5437 34.1182 20.5437C33.6204 20.5437 33.2169 20.1383 33.2169 19.6383V17.2239C33.2169 16.7239 33.6204 16.3185 34.1182 16.3185ZM19.6969 0.625005C28.5447 0.61946 33.1451 5.23783 34.997 13.4011C35.1076 13.8887 34.8038 14.374 34.3185 14.4851C33.8332 14.5962 33.3501 14.291 33.2395 13.8035C31.5591 6.39625 27.6091 2.43083 19.698 2.43579C15.8754 2.43819 13.0645 3.19119 11.2477 4.65169C10.859 4.96412 10.2918 4.9009 9.98081 4.51049C9.66979 4.12007 9.73273 3.55031 10.1214 3.23788C12.3028 1.48423 15.5005 0.627642 19.6969 0.625005ZM7.56579 5.80829C7.86866 5.41146 8.43441 5.33641 8.82944 5.64065C9.22448 5.94489 9.29919 6.51322 8.99633 6.91004C8.4405 7.63832 8.04804 8.35512 7.81421 9.05985C7.65681 9.53422 7.14639 9.7906 6.67416 9.63249C6.20193 9.47437 5.94671 8.96163 6.10411 8.48725C6.40435 7.58239 6.89316 6.6896 7.56579 5.80829Z" fill="#202120"/>
<path d="M6.76631 11.9399C6.84789 11.4466 6.51596 10.9803 6.02491 10.8984C5.53387 10.8164 5.06967 11.1499 4.98809 11.6431C4.57721 14.1275 4.37278 16.5917 4.37502 19.0355C4.37439 27.3471 6.68504 33.2555 11.3557 36.6676C11.7583 36.9617 12.322 36.8722 12.6148 36.4678C12.9075 36.0634 12.8185 35.4972 12.4159 35.2031C8.27271 32.1764 6.17702 26.8176 6.17763 19.0347C6.17546 16.6908 6.37161 14.3264 6.76631 11.9399Z" fill="#FF4612"/>
</svg>
