<svg width="40" height="40" viewBox="0 0 40 40" fill="none" xmlns="http://www.w3.org/2000/svg">
<path d="M4.07517 15.725C3.88633 15.725 3.69749 15.6687 3.52753 15.5562C3.0932 15.2562 2.99878 14.675 3.30092 14.2437C5.17044 11.6187 7.54984 9.55622 10.3824 8.11247C16.312 5.07497 23.9034 5.05622 29.8519 8.09372C32.6845 9.53747 35.0639 11.5812 36.9335 14.1875C37.2356 14.6 37.1412 15.2 36.7068 15.5C36.2725 15.8 35.6871 15.7062 35.385 15.275C33.6854 12.9125 31.5326 11.0562 28.9833 9.76247C23.5635 7.00622 16.6331 7.00622 11.2322 9.78122C8.664 11.0937 6.51121 12.9687 4.81165 15.3312C4.66058 15.5937 4.37731 15.725 4.07517 15.725ZM15.8777 38.3562C15.6322 38.3562 15.3867 38.2625 15.2168 38.075C13.5739 36.4437 12.6863 35.3937 11.4211 33.125C10.1181 30.8187 9.43825 28.0062 9.43825 24.9875C9.43825 19.4187 14.2348 14.8812 20.1266 14.8812C26.0185 14.8812 30.815 19.4187 30.815 24.9875C30.815 25.5125 30.3996 25.925 29.8708 25.925C29.3421 25.925 28.9266 25.5125 28.9266 24.9875C28.9266 20.45 24.9798 16.7562 20.1266 16.7562C15.2734 16.7562 11.3267 20.45 11.3267 24.9875C11.3267 27.6875 11.9309 30.1812 13.0829 32.2062C14.2915 34.3625 15.1224 35.2812 16.5764 36.7437C16.9352 37.1187 16.9352 37.7 16.5764 38.075C16.3687 38.2625 16.1232 38.3562 15.8777 38.3562ZM29.4176 34.8875C27.1704 34.8875 25.1876 34.325 23.5635 33.2187C20.7498 31.325 19.0691 28.25 19.0691 24.9875C19.0691 24.4625 19.4846 24.05 20.0133 24.05C20.5421 24.05 20.9575 24.4625 20.9575 24.9875C20.9575 27.6312 22.3172 30.125 24.621 31.6625C25.9618 32.5625 27.5292 32.9937 29.4176 32.9937C29.8708 32.9937 30.6262 32.9375 31.3815 32.8062C31.8914 32.7125 32.3824 33.05 32.4768 33.575C32.5712 34.0812 32.2313 34.5687 31.7026 34.6625C30.6262 34.8687 29.682 34.8875 29.4176 34.8875ZM25.6219 38.75C25.5464 38.75 25.4519 38.7312 25.3764 38.7125C22.3738 37.8875 20.4099 36.7812 18.3515 34.775C15.7078 32.1687 14.2537 28.7 14.2537 24.9875C14.2537 21.95 16.8597 19.475 20.07 19.475C23.2803 19.475 25.8863 21.95 25.8863 24.9875C25.8863 26.9937 27.6425 28.625 29.8142 28.625C31.9858 28.625 33.742 26.9937 33.742 24.9875C33.742 17.9187 27.6047 12.1812 20.0511 12.1812C14.688 12.1812 9.77816 15.1437 7.56872 19.7375C6.83224 21.2562 6.45456 23.0375 6.45456 24.9875C6.45456 26.45 6.58675 28.7562 7.71979 31.7562C7.90864 32.2437 7.66314 32.7875 7.17216 32.9562C6.68117 33.1437 6.13353 32.8812 5.96358 32.4125C5.03826 29.9562 4.58504 27.5187 4.58504 24.9875C4.58504 22.7375 5.01937 20.6937 5.86916 18.9125C8.38074 13.6812 13.9515 10.2875 20.0511 10.2875C28.6433 10.2875 35.6305 16.8687 35.6305 24.9687C35.6305 28.0062 33.0245 30.4812 29.8142 30.4812C26.6039 30.4812 23.9979 28.0062 23.9979 24.9687C23.9979 22.9625 22.2416 21.3312 20.07 21.3312C17.8983 21.3312 16.1421 22.9625 16.1421 24.9687C16.1421 28.175 17.3884 31.175 19.6734 33.425C21.4674 35.1875 23.1858 36.1625 25.8485 36.8937C26.3584 37.025 26.6416 37.55 26.5094 38.0375C26.415 38.4687 26.0185 38.75 25.6219 38.75Z" fill="#202120"/>
<path d="M30.6639 5.76875C30.7961 5.84375 30.9472 5.88125 31.0982 5.88125C31.4382 5.88125 31.7592 5.69375 31.9291 5.35625C32.1746 4.90625 32.0047 4.34375 31.5326 4.1C27.6802 2.13125 24.1678 1.25 20.1455 1.25C16.0854 1.25 12.2331 2.225 8.72062 4.11875C8.26741 4.3625 8.09745 4.94375 8.34294 5.39375C8.60732 5.84375 9.17384 6.0125 9.62706 5.76875C12.8562 4.00625 16.4064 3.125 20.1455 3.125C23.9034 3.125 27.0382 3.9125 30.6639 5.76875Z" fill="#FF4612"/>
</svg>
