<svg width="40" height="40" viewBox="0 0 40 40" fill="none" xmlns="http://www.w3.org/2000/svg">
<path d="M33.748 21.2365L19.8285 25.9155L17.9629 24.0624L15.1965 24.9913C15.0122 25.0533 14.8461 25.16 14.7132 25.302C14.5803 25.444 14.4847 25.6167 14.435 25.8048C14.3853 25.9928 14.3831 26.1902 14.4285 26.3794C14.4739 26.5685 14.5656 26.7433 14.6953 26.8883L18.4375 31.077C18.7444 31.4208 19.1457 31.6668 19.5913 31.7844C20.0369 31.9019 20.5073 31.8858 20.9439 31.738L25.0433 30.3611L24.213 36.2823C24.1849 36.4806 24.2079 36.6828 24.28 36.8696C24.3521 37.0565 24.4709 37.2217 24.6249 37.3497C24.7789 37.4777 24.9632 37.5641 25.1601 37.6007C25.357 37.6374 25.56 37.623 25.7497 37.559L27.8817 36.8431C28.0447 36.7881 28.1937 36.698 28.3182 36.5792C28.4427 36.4604 28.5396 36.3157 28.6022 36.1554L31.7257 28.1148L35.6231 26.8053C36.3615 26.556 36.9707 26.0236 37.3166 25.3251C37.6625 24.6267 37.7168 23.8195 37.4676 23.081C37.2183 22.3425 36.6859 21.7334 35.9875 21.3874C35.289 21.0415 34.4818 20.9872 33.7433 21.2365H33.748Z" stroke="#FF4612" stroke-width="1.5" stroke-linecap="round" stroke-linejoin="round"/>
<path d="M29.851 22.5461L25.4963 19.5479C25.3461 19.4445 25.174 19.3775 24.9934 19.3522C24.8129 19.3269 24.6289 19.3441 24.4561 19.4023L22.3602 20.1072C22.1703 20.1707 21.9998 20.2818 21.8649 20.4299C21.7301 20.5779 21.6354 20.7581 21.5898 20.9531C21.5443 21.1481 21.5494 21.3516 21.6048 21.544C21.6601 21.7365 21.7638 21.9116 21.906 22.0527L24.2823 24.4181" stroke="#FF4612" stroke-width="1.5" stroke-linecap="round" stroke-linejoin="round"/>
<path d="M14.1249 32.9222H7.07582C5.82947 32.9222 4.63417 32.4271 3.75287 31.5458C2.87157 30.6645 2.37646 29.4692 2.37646 28.2229V14.1248C2.37646 12.8784 2.87157 11.6831 3.75287 10.8018C4.63417 9.92053 5.82947 9.42542 7.07582 9.42542H28.2229C29.4693 9.42542 30.6646 9.92053 31.5459 10.8018C32.4272 11.6831 32.9223 12.8784 32.9223 14.1248V16.4745" stroke="#202120" stroke-width="1.5" stroke-linecap="round" stroke-linejoin="round"/>
<path d="M10.6006 9.42542V32.9222" stroke="#202120" stroke-width="1.5" stroke-linecap="round" stroke-linejoin="round"/>
<path d="M24.6987 9.42542V15.2996" stroke="#202120" stroke-width="1.5" stroke-linecap="round" stroke-linejoin="round"/>
<path d="M22.3489 9.42551V4.72615C22.3489 4.10297 22.1014 3.50532 21.6607 3.06467C21.2201 2.62402 20.6224 2.37646 19.9992 2.37646H15.2999C14.6767 2.37646 14.079 2.62402 13.6384 3.06467C13.1977 3.50532 12.9502 4.10297 12.9502 4.72615V9.42551" stroke="#202120" stroke-width="1.5" stroke-linecap="round" stroke-linejoin="round"/>
</svg>
