<svg width="40" height="40" viewBox="0 0 40 40" fill="none" xmlns="http://www.w3.org/2000/svg">
<path d="M28.9645 5.96201H30.1277C31.7846 5.96201 33.1277 7.30516 33.1277 8.96201V23.1251V27.3357C33.1277 27.601 33.0753 27.8637 32.9737 28.1088C32.8721 28.3539 32.7232 28.5765 32.5354 28.764L25.6419 35.6575C25.4545 35.8452 25.2318 35.9941 24.9868 36.0957C24.7417 36.1974 24.479 36.2497 24.2137 36.2498H8.89614C8.36062 36.2498 7.84703 36.037 7.46836 35.6584C7.08969 35.2797 6.87695 34.7661 6.87695 34.2306V7.9812C6.87695 7.44568 7.08969 6.93209 7.46836 6.55342C7.84703 6.17475 8.36062 5.96201 8.89614 5.96201H11.5436" stroke="#202120" stroke-width="1.5" stroke-linecap="round" stroke-linejoin="round"/>
<path d="M25.0508 35.5678V29.692C25.0508 29.1565 25.2635 28.6429 25.6422 28.2642C26.0209 27.8856 26.5344 27.6728 27.07 27.6728H32.9458" stroke="#202120" stroke-width="1.5" stroke-linecap="round" stroke-linejoin="round"/>
<path d="M19.9214 3.74951L19.9214 16.9824" stroke="#FF4612" stroke-width="1.5" stroke-linecap="round" stroke-linejoin="round"/>
<path d="M26 19.9995H14" stroke="#FF4612" stroke-width="1.5" stroke-linecap="round" stroke-linejoin="round"/>
<path d="M24.2976 7.8848L19.9214 3.74951" stroke="#FF4612" stroke-width="1.5" stroke-linecap="round" stroke-linejoin="round"/>
<path d="M15.5449 7.8848L19.9212 3.74952" stroke="#FF4612" stroke-width="1.5" stroke-linecap="round" stroke-linejoin="round"/>
</svg>
