<svg width="40" height="40" viewBox="0 0 40 40" fill="none" xmlns="http://www.w3.org/2000/svg">
<path d="M15.7981 26.3007C15.7981 27.4148 16.2406 28.4832 17.0284 29.2709C17.8161 30.0586 18.8845 30.5012 19.9985 30.5012C21.1125 30.5012 22.1809 30.0586 22.9686 29.2709C23.7564 28.4832 24.1989 27.4148 24.1989 26.3007C24.1989 25.1867 23.7564 24.1183 22.9686 23.3306C22.1809 22.5429 21.1125 22.1003 19.9985 22.1003C18.8845 22.1003 17.8161 22.5429 17.0284 23.3306C16.2406 24.1183 15.7981 25.1867 15.7981 26.3007V26.3007Z" stroke="#FF4612" stroke-width="1.5" stroke-linecap="round" stroke-linejoin="round"/>
<path d="M26.7576 36.5017C26.2681 35.0994 25.3545 33.8841 24.1434 33.0242C22.9324 32.1642 21.4839 31.7023 19.9986 31.7023C18.5133 31.7023 17.0647 32.1642 15.8537 33.0242C14.6426 33.8841 13.7291 35.0994 13.2395 36.5017" stroke="#FF4612" stroke-width="1.5" stroke-linecap="round" stroke-linejoin="round"/>
<path d="M4.55518 7.69894C4.55518 8.25055 4.66382 8.79675 4.87491 9.30637C5.086 9.81598 5.3954 10.279 5.78545 10.6691C6.17549 11.0591 6.63854 11.3685 7.14816 11.5796C7.65777 11.7907 8.20398 11.8993 8.75558 11.8993C9.30719 11.8993 9.85339 11.7907 10.363 11.5796C10.8726 11.3685 11.3357 11.0591 11.7257 10.6691C12.1158 10.279 12.4252 9.81598 12.6363 9.30637C12.8473 8.79675 12.956 8.25055 12.956 7.69894C12.956 7.14734 12.8473 6.60113 12.6363 6.09152C12.4252 5.5819 12.1158 5.11885 11.7257 4.72881C11.3357 4.33876 10.8726 4.02936 10.363 3.81827C9.85339 3.60718 9.30719 3.49854 8.75558 3.49854C8.20398 3.49854 7.65777 3.60718 7.14816 3.81827C6.63854 4.02936 6.17549 4.33876 5.78545 4.72881C5.3954 5.11885 5.086 5.5819 4.87491 6.09152C4.66382 6.60113 4.55518 7.14734 4.55518 7.69894V7.69894Z" stroke="#202120" stroke-width="1.5" stroke-linecap="round" stroke-linejoin="round"/>
<path d="M15.518 17.9C15.0288 16.4972 14.1152 15.2813 12.904 14.4209C11.6928 13.5605 10.2439 13.0983 8.75815 13.0983C7.27243 13.0983 5.82352 13.5605 4.61229 14.4209C3.40105 15.2813 2.4875 16.4972 1.99829 17.9" stroke="#202120" stroke-width="1.5" stroke-linecap="round" stroke-linejoin="round"/>
<path d="M27.0408 7.69894C27.0408 8.81296 27.4833 9.88135 28.271 10.6691C29.0588 11.4568 30.1272 11.8993 31.2412 11.8993C32.3552 11.8993 33.4236 11.4568 34.2113 10.6691C34.999 9.88135 35.4416 8.81296 35.4416 7.69894C35.4416 6.58492 34.999 5.51653 34.2113 4.72881C33.4236 3.94108 32.3552 3.49854 31.2412 3.49854C30.1272 3.49854 29.0588 3.94108 28.271 4.72881C27.4833 5.51653 27.0408 6.58492 27.0408 7.69894V7.69894Z" stroke="#202120" stroke-width="1.5" stroke-linecap="round" stroke-linejoin="round"/>
<path d="M38.0002 17.9C37.511 16.4972 36.5974 15.2813 35.3862 14.4209C34.1749 13.5605 32.726 13.0983 31.2403 13.0983C29.7546 13.0983 28.3057 13.5605 27.0945 14.4209C25.8832 15.2813 24.9697 16.4972 24.4805 17.9" stroke="#202120" stroke-width="1.5" stroke-linecap="round" stroke-linejoin="round"/>
</svg>
