<svg width="40" height="40" viewBox="0 0 40 40" fill="none" xmlns="http://www.w3.org/2000/svg">
<path d="M19.3157 34.421H5C4.99991 32.1719 5.60541 29.9642 6.75291 28.0298C7.90041 26.0954 9.54758 24.5056 11.5215 23.4274C13.4953 22.3492 15.7231 21.8224 17.9709 21.9022C20.2186 21.982 22.4034 22.6656 24.2958 23.8811" stroke="#202120" stroke-width="1.5" stroke-linecap="round" stroke-linejoin="round"/>
<path d="M10.9734 7.74341C12.1507 8.96529 13.5625 9.93708 15.1241 10.6006C16.6858 11.2641 18.3653 11.6058 20.0621 11.6051C21.7814 11.6065 23.4828 11.2564 25.0619 10.5761" stroke="#202120" stroke-width="1.5" stroke-linecap="round" stroke-linejoin="round"/>
<path d="M9.92114 11.6052C9.92114 13.6223 10.7224 15.5567 12.1487 16.9829C13.5749 18.4092 15.5093 19.2105 17.5264 19.2105C19.5434 19.2105 21.4778 18.4092 22.9041 16.9829C24.3303 15.5567 25.1316 13.6223 25.1316 11.6052C25.1316 9.5882 24.3303 7.65378 22.9041 6.22752C21.4778 4.80126 19.5434 4 17.5264 4C15.5093 4 13.5749 4.80126 12.1487 6.22752C10.7224 7.65378 9.92114 9.5882 9.92114 11.6052V11.6052Z" stroke="#202120" stroke-width="1.5" stroke-linecap="round" stroke-linejoin="round"/>
<path d="M31.4465 36.3066C31.5025 36.3066 31.5573 36.3233 31.6039 36.3544C31.6505 36.3855 31.6868 36.4298 31.7083 36.4816C31.7297 36.5334 31.7354 36.5903 31.7244 36.6453C31.7135 36.7003 31.6865 36.7508 31.6469 36.7904C31.6072 36.8301 31.5567 36.857 31.5018 36.868C31.4468 36.8789 31.3898 36.8733 31.338 36.8519C31.2862 36.8304 31.242 36.7941 31.2108 36.7475C31.1797 36.7009 31.1631 36.6461 31.1631 36.59C31.1629 36.5528 31.1702 36.5159 31.1844 36.4814C31.1985 36.447 31.2194 36.4157 31.2458 36.3893C31.2721 36.363 31.3034 36.3421 31.3379 36.3279C31.3723 36.3137 31.4092 36.3065 31.4465 36.3066" stroke="#FF4612" stroke-width="1.5" stroke-linecap="round" stroke-linejoin="round"/>
<path d="M28.0459 27.4002C28.046 26.7871 28.2118 26.1854 28.5258 25.6589C28.8399 25.1323 29.2904 24.7004 29.8298 24.4089C30.3691 24.1175 30.9773 23.9772 31.5898 24.003C32.2024 24.0288 32.7965 24.2198 33.3095 24.5556C33.8224 24.8915 34.235 25.3597 34.5036 25.9108C34.7722 26.462 34.8868 27.0754 34.8353 27.6864C34.7838 28.2973 34.5681 28.8829 34.211 29.3813C33.8539 29.8797 33.3688 30.2723 32.8069 30.5175C32.4024 30.694 32.0582 30.9848 31.8166 31.3541C31.575 31.7233 31.4464 32.1551 31.4466 32.5965V33.068" stroke="#FF4612" stroke-width="1.5" stroke-linecap="round" stroke-linejoin="round"/>
</svg>
