<svg width="40" height="40" viewBox="0 0 40 40" fill="none" xmlns="http://www.w3.org/2000/svg">
<path d="M6.68815 37.9436L3.54084 34.2227C2.54341 32.9759 2.00001 31.4267 2 29.8299V21.7491C2 21.1274 2.24696 20.5312 2.68656 20.0916C3.12616 19.652 3.72239 19.405 4.34408 19.405V19.405C4.96576 19.405 5.56199 19.652 6.00159 20.0916C6.44119 20.5312 6.68815 21.1274 6.68815 21.7491V27.6093" stroke="#202120" stroke-width="1.5" stroke-linecap="round" stroke-linejoin="round"/>
<path d="M13.7205 37.9437V33.2555C13.7211 31.8649 13.3094 30.5054 12.5375 29.3487L10.7529 26.6765C10.5999 26.4232 10.3972 26.2036 10.157 26.0309C9.91679 25.8582 9.64403 25.736 9.35523 25.6717C9.06643 25.6074 8.7676 25.6024 8.4768 25.6569C8.186 25.7114 7.90928 25.8244 7.66337 25.9889V25.9889C7.22164 26.2849 6.90281 26.7316 6.76649 27.2455C6.63016 27.7595 6.68568 28.3055 6.92265 28.7815L9.03544 32.2976" stroke="#202120" stroke-width="1.5" stroke-linecap="round" stroke-linejoin="round"/>
<path d="M32.4731 37.9436L35.6205 34.2227C36.6179 32.9759 37.1613 31.4267 37.1613 29.8299V21.7491C37.1613 21.1274 36.9143 20.5312 36.4747 20.0916C36.0351 19.652 35.4389 19.405 34.8172 19.405C34.1955 19.405 33.5993 19.652 33.1597 20.0916C32.7201 20.5312 32.4731 21.1274 32.4731 21.7491V27.6093" stroke="#202120" stroke-width="1.5" stroke-linecap="round" stroke-linejoin="round"/>
<path d="M25.4409 37.9437V33.2556C25.4403 31.865 25.852 30.5054 26.6239 29.3487L28.4085 26.6734C28.5609 26.4196 28.7632 26.1994 29.0032 26.026C29.2432 25.8527 29.5159 25.7299 29.8047 25.665C30.0936 25.6002 30.3926 25.5946 30.6836 25.6487C30.9747 25.7027 31.2517 25.8153 31.498 25.9795V25.9795C31.9418 26.2752 32.2623 26.7228 32.3993 27.2382C32.5363 27.7536 32.4803 28.3013 32.2419 28.7784L30.1291 32.2945" stroke="#202120" stroke-width="1.5" stroke-linecap="round" stroke-linejoin="round"/>
<path d="M13.4515 15.2435C14.2726 15.2475 15.0617 14.929 15.6452 14.3581C16.2286 13.7872 16.5587 13.0107 16.5627 12.1994C16.5668 11.3881 16.2445 10.6084 15.6667 10.0319C15.0889 9.45542 14.3031 9.12929 13.4819 9.1253C12.6608 9.12132 11.8717 9.43979 11.2883 10.0107C10.7048 10.5815 10.3747 11.358 10.3707 12.1693C10.3667 12.9807 10.689 13.7603 11.2667 14.3368C11.8445 14.9134 12.6304 15.2395 13.4515 15.2435V15.2435Z" stroke="#FF4612" stroke-width="1.5" stroke-linecap="round" stroke-linejoin="round"/>
<path d="M20.7655 19.4861L15.3557 14.6069" stroke="#FF4612" stroke-width="1.5" stroke-linecap="round" stroke-linejoin="round"/>
<path d="M22.7364 22.4207C23.2838 22.4234 23.8098 22.211 24.1988 21.8305C24.5878 21.4499 24.8078 20.9322 24.8105 20.3913C24.8132 19.8505 24.5984 19.3307 24.2132 18.9463C23.828 18.562 23.3041 18.3446 22.7567 18.3419C22.2093 18.3393 21.6832 18.5516 21.2942 18.9322C20.9052 19.3127 20.6852 19.8304 20.6825 20.3713C20.6798 20.9122 20.8947 21.432 21.2799 21.8163C21.665 22.2006 22.189 22.418 22.7364 22.4207Z" stroke="#FF4612" stroke-width="1.5" stroke-linecap="round" stroke-linejoin="round"/>
<path d="M20.7658 5.0849L15.3794 9.78082" stroke="#FF4612" stroke-width="1.5" stroke-linecap="round" stroke-linejoin="round"/>
<path d="M22.8067 6.08733C23.3541 6.08999 23.8802 5.87767 24.2691 5.4971C24.6581 5.11652 24.8782 4.59885 24.8809 4.05797C24.8835 3.51709 24.6687 2.99731 24.2835 2.61297C23.8983 2.22863 23.3744 2.01122 22.827 2.00856C22.2796 2.0059 21.7535 2.21821 21.3645 2.59879C20.9756 2.97937 20.7555 3.49704 20.7528 4.03791C20.7501 4.57879 20.965 5.09857 21.3502 5.48291C21.7354 5.86725 22.2593 6.08467 22.8067 6.08733V6.08733Z" stroke="#FF4612" stroke-width="1.5" stroke-linecap="round" stroke-linejoin="round"/>
</svg>
