<svg width="40" height="40" viewBox="0 0 40 40" fill="none" xmlns="http://www.w3.org/2000/svg">
<path d="M17.534 34.421H3.21826C3.21817 32.1719 3.82367 29.9642 4.97117 28.0298C6.11867 26.0954 7.76584 24.5056 9.73973 23.4274C11.7136 22.3492 13.9414 21.8224 16.1891 21.9022C18.4369 21.982 20.6217 22.6656 22.5141 23.8811" stroke="#202120" stroke-width="1.5" stroke-linecap="round" stroke-linejoin="round"/>
<path d="M9.19165 7.74341C10.369 8.96529 11.7807 9.93708 13.3424 10.6006C14.9041 11.2641 16.5836 11.6058 18.2803 11.6051C19.9997 11.6065 21.7011 11.2564 23.2801 10.5761" stroke="#202120" stroke-width="1.5" stroke-linecap="round" stroke-linejoin="round"/>
<path d="M8.1394 11.6052C8.1394 13.6223 8.94067 15.5567 10.3669 16.9829C11.7932 18.4092 13.7276 19.2105 15.7446 19.2105C17.7617 19.2105 19.6961 18.4092 21.1224 16.9829C22.5486 15.5567 23.3499 13.6223 23.3499 11.6052C23.3499 9.5882 22.5486 7.65378 21.1224 6.22752C19.6961 4.80126 17.7617 4 15.7446 4C13.7276 4 11.7932 4.80126 10.3669 6.22752C8.94067 7.65378 8.1394 9.5882 8.1394 11.6052V11.6052Z" stroke="#202120" stroke-width="1.5" stroke-linecap="round" stroke-linejoin="round"/>
<path d="M24 31.4642L27.6927 35L27.6688 34.9772L36 27" stroke="#FF4612" stroke-width="1.5" stroke-linecap="round" stroke-linejoin="round"/>
</svg>
