<svg width="40" height="40" viewBox="0 0 40 40" fill="none" xmlns="http://www.w3.org/2000/svg">
<path d="M6.68815 37.9441L3.54084 34.2232C2.54341 32.9764 2.00001 31.4272 2 29.8304V21.7496C2 21.1279 2.24696 20.5317 2.68656 20.0921C3.12616 19.6525 3.72239 19.4055 4.34408 19.4055V19.4055C4.96576 19.4055 5.56199 19.6525 6.00159 20.0921C6.44119 20.5317 6.68815 21.1279 6.68815 21.7496V27.6098" stroke="#202120" stroke-width="1.5" stroke-linecap="round" stroke-linejoin="round"/>
<path d="M13.7205 37.9442V33.256C13.7211 31.8654 13.3094 30.5059 12.5375 29.3492L10.7529 26.677C10.5999 26.4237 10.3972 26.2041 10.157 26.0313C9.91679 25.8586 9.64403 25.7365 9.35523 25.6722C9.06643 25.6079 8.7676 25.6029 8.4768 25.6574C8.186 25.7119 7.90928 25.8249 7.66337 25.9894V25.9894C7.22164 26.2853 6.90281 26.7321 6.76649 27.246C6.63016 27.76 6.68568 28.306 6.92265 28.782L9.03544 32.2981" stroke="#202120" stroke-width="1.5" stroke-linecap="round" stroke-linejoin="round"/>
<path d="M32.4731 37.9441L35.6205 34.2232C36.6179 32.9764 37.1613 31.4272 37.1613 29.8304V21.7496C37.1613 21.1279 36.9143 20.5317 36.4747 20.0921C36.0351 19.6525 35.4389 19.4055 34.8172 19.4055C34.1955 19.4055 33.5993 19.6525 33.1597 20.0921C32.7201 20.5317 32.4731 21.1279 32.4731 21.7496V27.6098" stroke="#202120" stroke-width="1.5" stroke-linecap="round" stroke-linejoin="round"/>
<path d="M25.4409 37.9442V33.256C25.4403 31.8655 25.852 30.5059 26.6239 29.3492L28.4085 26.6739C28.5609 26.4201 28.7632 26.1999 29.0032 26.0265C29.2432 25.8532 29.5159 25.7304 29.8047 25.6655C30.0936 25.6007 30.3926 25.5951 30.6836 25.6491C30.9747 25.7032 31.2517 25.8158 31.498 25.98V25.98C31.9418 26.2757 32.2623 26.7233 32.3993 27.2387C32.5363 27.7541 32.4803 28.3018 32.2419 28.7788L30.1291 32.295" stroke="#202120" stroke-width="1.5" stroke-linecap="round" stroke-linejoin="round"/>
<path d="M20.1959 6.96057L21.1434 8.9125H22.9874C23.0808 8.90828 23.1732 8.9331 23.2519 8.98354C23.3307 9.03399 23.3918 9.10759 23.427 9.19421C23.4621 9.28083 23.4696 9.37622 23.4483 9.46726C23.4271 9.5583 23.3781 9.64051 23.3082 9.70258L21.7073 11.3751L22.5942 13.4158C22.6334 13.5091 22.6423 13.6125 22.6197 13.7112C22.597 13.8099 22.5439 13.8989 22.4678 13.9658C22.3918 14.0327 22.2967 14.074 22.1959 14.0839C22.0951 14.0939 21.9938 14.0719 21.9061 14.0211L19.7606 12.8134L17.6172 14.0211C17.5296 14.0719 17.4283 14.0939 17.3275 14.0839C17.2267 14.074 17.1316 14.0327 17.0555 13.9658C16.9795 13.8989 16.9264 13.8099 16.9037 13.7112C16.881 13.6125 16.8899 13.5091 16.9291 13.4158L17.816 11.3751L16.2129 9.70258C16.1432 9.64059 16.0943 9.55852 16.073 9.46763C16.0517 9.37675 16.059 9.2815 16.094 9.19495C16.129 9.10841 16.1899 9.0348 16.2683 8.98423C16.3468 8.93366 16.439 8.9086 16.5322 8.9125H18.38L19.3297 6.96057C19.3712 6.88163 19.4335 6.81552 19.5098 6.76941C19.5861 6.72329 19.6736 6.69891 19.7628 6.69891C19.852 6.69891 19.9395 6.72329 20.0158 6.76941C20.0921 6.81552 20.1544 6.88163 20.1959 6.96057V6.96057Z" stroke="#FF4612" stroke-width="1.5" stroke-linecap="round" stroke-linejoin="round"/>
<path d="M12 5.42032V11.0647C12.0217 12.9298 12.6161 14.7431 13.7026 16.2592C14.7892 17.7752 16.3154 18.9208 18.0746 19.5406L18.9031 19.8466C19.4566 20.0498 20.0643 20.0498 20.6178 19.8466L21.4463 19.5406C23.2055 18.9208 24.7317 17.7752 25.8182 16.2592C26.9048 14.7431 27.4991 12.9298 27.5208 11.0647V5.42032C27.5201 5.19856 27.4543 4.98189 27.3316 4.79718C27.2089 4.61246 27.0347 4.46781 26.8305 4.38116C24.5916 3.44707 22.1863 2.97714 19.7604 2.99981C17.3345 2.97714 14.9293 3.44707 12.6903 4.38116C12.4862 4.46781 12.312 4.61246 12.1893 4.79718C12.0665 4.98189 12.0007 5.19856 12 5.42032V5.42032Z" stroke="#FF4612" stroke-width="1.5" stroke-linecap="round" stroke-linejoin="round"/>
</svg>
