<svg width="40" height="40" viewBox="0 0 40 40" fill="none" xmlns="http://www.w3.org/2000/svg">
<path d="M24.5728 6.42647L28.9987 2.00049" stroke="#FF4612" stroke-width="1.5" stroke-linecap="round" stroke-linejoin="round"/>
<path d="M31.2139 13.0653L35.6398 8.63934" stroke="#FF4612" stroke-width="1.5" stroke-linecap="round" stroke-linejoin="round"/>
<path d="M20.1455 4.2134C20.2909 4.06789 20.4635 3.95245 20.6535 3.87369C20.8435 3.79493 21.0471 3.75439 21.2528 3.75439C21.4585 3.75439 21.6621 3.79493 21.8521 3.87369C22.0421 3.95245 22.2147 4.06789 22.3601 4.2134L33.4266 15.2799C33.72 15.5734 33.8848 15.9714 33.8848 16.3864C33.8848 16.8014 33.72 17.1994 33.4266 17.4929C32.331 18.5978 30.4983 20.4211 28.445 22.4745C26.679 24.0778 24.3516 24.9192 21.9686 24.8157C19.5857 24.7123 17.3399 23.6723 15.7195 21.922C13.9702 20.3018 12.9308 18.0566 12.8274 15.6744C12.7239 13.2922 13.5647 10.9655 15.1671 9.19967L20.1455 4.2134Z" stroke="#202120" stroke-width="1.5" stroke-linecap="round" stroke-linejoin="round"/>
<path d="M22.3604 18.5994C22.0321 18.9278 21.6138 19.1515 21.1584 19.2421C20.703 19.3327 20.2309 19.2863 19.8019 19.1086C19.3729 18.931 19.0062 18.6301 18.7482 18.244C18.4902 17.8579 18.3525 17.404 18.3525 16.9397C18.3525 16.4753 18.4902 16.0214 18.7482 15.6354C19.0062 15.2493 19.3729 14.9484 19.8019 14.7707C20.2309 14.5931 20.703 14.5466 21.1584 14.6373C21.6138 14.7279 22.0321 14.9516 22.3604 15.2799C22.8005 15.7202 23.0477 16.3172 23.0477 16.9397C23.0477 17.5622 22.8005 18.1592 22.3604 18.5994Z" stroke="#202120" stroke-width="1.5" stroke-linecap="round" stroke-linejoin="round"/>
<path d="M17.5717 23.39L14.0597 26.9004L10.7402 23.581L14.2506 20.069" stroke="#202120" stroke-width="1.5" stroke-linecap="round" stroke-linejoin="round"/>
<path d="M15.2941 37.9968L18.2896 35.0013C18.7404 34.5507 18.9937 33.9395 18.9938 33.3022C18.994 32.6648 18.741 32.0535 18.2904 31.6027C17.8398 31.152 17.2286 30.8986 16.5913 30.8985C15.9539 30.8984 15.3426 31.1514 14.8919 31.602L9.53156 36.9607C9.0049 37.5115 8.30124 37.8595 7.54383 37.9436C6.78642 38.0277 6.02355 37.8427 5.38887 37.4208C5.01725 37.1573 4.70764 36.8159 4.48164 36.4203C4.25565 36.0248 4.11872 35.5846 4.08042 35.1307C4.04212 34.6767 4.10337 34.2199 4.25989 33.7921C4.41642 33.3642 4.66444 32.9757 4.98665 32.6537L12.3987 25.2416" stroke="#202120" stroke-width="1.5" stroke-linecap="round" stroke-linejoin="round"/>
</svg>
