<svg width="40" height="40" viewBox="0 0 40 40" fill="none" xmlns="http://www.w3.org/2000/svg">
<path fill-rule="evenodd" clip-rule="evenodd" d="M5 4.75C3.75721 4.75 2.75 5.75721 2.75 7V13C2.75 14.2428 3.75721 15.25 5 15.25H12C12.1481 15.25 12.2928 15.2938 12.416 15.376L15.75 17.5986V16C15.75 15.5858 16.0858 15.25 16.5 15.25H21C22.2428 15.25 23.25 14.2428 23.25 13V7C23.25 5.75721 22.2428 4.75 21 4.75H5ZM1.25 7C1.25 4.92879 2.92879 3.25 5 3.25H21C23.0712 3.25 24.75 4.92879 24.75 7V12.25H29.6667C30.7176 12.25 31.7023 12.5384 32.4454 13.0437C33.1846 13.5463 33.75 14.3189 33.75 15.2667V17.25H35C37.0712 17.25 38.75 18.9288 38.75 21V23C38.75 25.0712 37.0712 26.75 35 26.75H33.75V31.25H34.5455C35.7002 31.25 36.75 32.1226 36.75 33.3333C36.75 35.2804 35.049 36.75 33.0909 36.75H6.90909C4.95099 36.75 3.25 35.2804 3.25 33.3333C3.25 32.1226 4.29977 31.25 5.45455 31.25H6.25V16.75H5C2.92879 16.75 1.25 15.0712 1.25 13V7ZM7.75 31.25H16.5088C16.923 31.25 17.2588 31.5858 17.2588 32V32.05H24.4861V32C24.4861 31.5858 24.8219 31.25 25.2361 31.25H32.25V26.75H29.2774L25.9881 29.5694C25.7657 29.7601 25.4527 29.8038 25.1866 29.6814C24.9205 29.559 24.75 29.2929 24.75 29V26.75H24C21.9288 26.75 20.25 25.0712 20.25 23V21C20.25 18.9288 21.9288 17.25 24 17.25H32.25V15.2667C32.25 14.9626 32.0692 14.6018 31.602 14.2841C31.1387 13.9691 30.4567 13.75 29.6667 13.75H24.675C24.3276 15.4618 22.8144 16.75 21 16.75H17.25V19C17.25 19.2766 17.0978 19.5307 16.8539 19.6613C16.61 19.7918 16.3141 19.7775 16.084 19.624L11.7729 16.75H7.75V31.25ZM21.75 21C21.75 19.7572 22.7572 18.75 24 18.75H35C36.2428 18.75 37.25 19.7572 37.25 21V23C37.25 24.2428 36.2428 25.25 35 25.25H29C28.821 25.25 28.6478 25.314 28.5119 25.4306L26.25 27.3693V26C26.25 25.5858 25.9142 25.25 25.5 25.25H24C22.7572 25.25 21.75 24.2428 21.75 23V21ZM4.75 33.3333C4.75 33.0713 5.00267 32.75 5.45455 32.75H15.7588V32.8C15.7588 33.2142 16.0946 33.55 16.5088 33.55H25.2361C25.6503 33.55 25.9861 33.2142 25.9861 32.8V32.75H34.5455C34.9973 32.75 35.25 33.0713 35.25 33.3333C35.25 34.3318 34.3461 35.25 33.0909 35.25H6.90909C5.65389 35.25 4.75 34.3318 4.75 33.3333Z" fill="#202120"/>
<path fill-rule="evenodd" clip-rule="evenodd" d="M5 8.24487C5 7.83066 5.33579 7.49487 5.75 7.49487H20.25C20.6642 7.49487 21 7.83066 21 8.24487C21 8.65909 20.6642 8.99487 20.25 8.99487H5.75C5.33579 8.99487 5 8.65909 5 8.24487ZM24.3696 21.9358C24.3696 21.5216 24.7054 21.1858 25.1196 21.1858H34.6196C35.0338 21.1858 35.3696 21.5216 35.3696 21.9358C35.3696 22.3501 35.0338 22.6858 34.6196 22.6858H25.1196C24.7054 22.6858 24.3696 22.3501 24.3696 21.9358ZM13.75 10.615C13.3358 10.615 13 10.9508 13 11.365C13 11.7792 13.3358 12.115 13.75 12.115H20.25C20.6642 12.115 21 11.7792 21 11.365C21 10.9508 20.6642 10.615 20.25 10.615H13.75Z" fill="#FF4612"/>
</svg>
