<svg width="24" height="24" viewBox="0 0 24 24" fill="none" xmlns="http://www.w3.org/2000/svg">
<path fill-rule="evenodd" clip-rule="evenodd" d="M17.8336 6.16637C14.6118 2.94454 9.3882 2.94454 6.16637 6.16637L6.16637 6.16637C2.94454 9.38818 2.94454 14.6118 6.16637 17.8336C9.38818 21.0554 14.6118 21.0554 17.8336 17.8336C21.0553 14.6119 21.0554 9.38857 17.834 6.16671L17.8336 6.16637ZM18.8943 5.10571C22.7019 8.91332 22.7019 15.0867 18.8943 18.8943C15.0867 22.7019 8.9133 22.7019 5.10571 18.8943C1.2981 15.0867 1.2981 8.9133 5.10571 5.10571C8.91332 1.2981 15.0867 1.2981 18.8943 5.10571ZM7.73729 8.90217C7.34417 8.77166 6.91969 8.98454 6.78918 9.37765C6.65867 9.77077 6.87155 10.1953 7.26467 10.3258C8.04881 10.5861 8.95982 10.7665 9.91675 10.8715C9.91543 12.1047 9.90701 13.0302 9.85407 13.8212C9.85222 13.8389 9.85098 13.8569 9.85039 13.875C9.77615 14.9346 9.61921 15.7563 9.28747 16.7659C9.15817 17.1594 9.37236 17.5833 9.76588 17.7126C10.1594 17.8419 10.5832 17.6277 10.7125 17.2342C11.0147 16.3143 11.1873 15.5193 11.2859 14.65H12.7141C12.8127 15.5193 12.9853 16.3143 13.2875 17.2342C13.4168 17.6277 13.8406 17.8419 14.2341 17.7126C14.6276 17.5833 14.8418 17.1594 14.7125 16.7659C14.3806 15.7558 14.2237 14.9339 14.1495 13.8736C14.1489 13.8564 14.1478 13.8394 14.146 13.8225C14.093 13.0312 14.0846 12.1054 14.0832 10.8714C15.0399 10.7664 15.9506 10.586 16.7344 10.3257C17.1275 10.1952 17.3403 9.77067 17.2097 9.37757C17.0792 8.98447 16.6547 8.77164 16.2616 8.9022C15.4342 9.17699 14.3969 9.35825 13.2888 9.43732L13.2698 9.43866C12.8539 9.46788 12.4281 9.48272 11.9999 9.48272C11.5723 9.48272 11.1472 9.46793 10.732 9.43881C10.7245 9.43817 10.717 9.43764 10.7095 9.43722C9.60172 9.35809 8.56472 9.17687 7.73729 8.90217ZM11.4168 10.9742C11.4159 11.8054 11.4114 12.5139 11.3893 13.15H12.6107C12.5886 12.5139 12.5841 11.8054 12.5832 10.9742C12.3887 10.9799 12.1941 10.9827 11.9999 10.9827C11.8057 10.9827 11.6112 10.9799 11.4168 10.9742ZM12.8662 6.38379C12.3878 5.9054 11.6122 5.9054 11.1338 6.38379C10.6554 6.86219 10.6554 7.63781 11.1338 8.11621C11.6122 8.5946 12.3878 8.5946 12.8662 8.11621C13.3446 7.63781 13.3446 6.86219 12.8662 6.38379Z" fill="#202120"/>
</svg>
