<svg width="24" height="24" viewBox="0 0 24 24" fill="none" xmlns="http://www.w3.org/2000/svg">
<path d="M15.1885 7.25C14.7743 7.25 14.4385 7.58579 14.4385 8C14.4385 8.41421 14.7743 8.75 15.1885 8.75H18.6893L13.0616 14.3778L9.34189 10.6581C9.20123 10.5175 9.01047 10.4384 8.81156 10.4384C8.61264 10.4384 8.42188 10.5175 8.28123 10.6581L2.96967 15.9697C2.67678 16.2626 2.67678 16.7374 2.96967 17.0303C3.26256 17.3232 3.73744 17.3232 4.03033 17.0303L8.81156 12.2491L12.5312 15.9688C12.8241 16.2617 13.299 16.2617 13.5919 15.9688L19.75 9.81063V13.3116C19.75 13.7258 20.0858 14.0616 20.5 14.0616C20.9142 14.0616 21.25 13.7258 21.25 13.3116V8C21.25 7.88452 21.2239 7.77513 21.1773 7.67742C21.1498 7.61967 21.1145 7.56471 21.0714 7.51412C20.9985 7.42844 20.9066 7.35937 20.8023 7.31339C20.7098 7.27263 20.6076 7.25 20.5 7.25H15.1885Z" fill="#202120"/>
</svg>
