<svg width="24" height="24" viewBox="0 0 24 24" fill="none" xmlns="http://www.w3.org/2000/svg">
<path d="M12.75 6.34315C12.75 5.92893 12.4142 5.59315 12 5.59315C11.5858 5.59315 11.25 5.92893 11.25 6.34315V11.25H6.34314C5.92893 11.25 5.59314 11.5858 5.59314 12C5.59314 12.4142 5.92893 12.75 6.34314 12.75H11.25V17.6569C11.25 18.0711 11.5858 18.4069 12 18.4069C12.4142 18.4069 12.75 18.0711 12.75 17.6569V12.75H17.6568C18.0711 12.75 18.4068 12.4142 18.4068 12C18.4068 11.5858 18.0711 11.25 17.6568 11.25H12.75V6.34315Z" fill="#202120"/>
</svg>
