<svg width="24" height="24" viewBox="0 0 24 24" fill="none" xmlns="http://www.w3.org/2000/svg">
<circle cx="12" cy="12" r="11" fill="#202120"/>
<path fill-rule="evenodd" clip-rule="evenodd" d="M10.9394 12L8.28772 14.6517C7.99483 14.9446 7.99483 15.4195 8.28773 15.7123C8.58062 16.0052 9.05549 16.0052 9.34839 15.7123L12.0001 13.0606L14.6517 15.7123C14.9446 16.0052 15.4195 16.0052 15.7124 15.7123C16.0053 15.4194 16.0053 14.9445 15.7124 14.6516L13.0607 12L15.7123 9.34835C16.0052 9.05545 16.0052 8.58058 15.7123 8.28769C15.4194 7.9948 14.9445 7.9948 14.6516 8.28769L12 10.9393L9.34836 8.28767C9.05547 7.99478 8.58059 7.99478 8.2877 8.28768C7.99481 8.58057 7.99481 9.05545 8.28771 9.34834L10.9394 12Z" fill="white"/>
</svg>
