<svg width="24" height="24" viewBox="0 0 24 24" fill="none" xmlns="http://www.w3.org/2000/svg">
<path fill-rule="evenodd" clip-rule="evenodd" d="M12 23C18.0751 23 23 18.0751 23 12C23 5.92487 18.0751 1 12 1C5.92487 1 1 5.92487 1 12C1 18.0751 5.92487 23 12 23ZM16.5304 10.0702C16.8232 9.77729 16.8232 9.30242 16.5304 9.00953C16.2375 8.71663 15.7626 8.71663 15.4697 9.00953L11 13.4792L8.53035 11.0095C8.23746 10.7166 7.76259 10.7166 7.46969 11.0095C7.1768 11.3024 7.1768 11.7773 7.46969 12.0702L10.4697 15.0702C10.7626 15.3631 11.2375 15.3631 11.5304 15.0702L16.5304 10.0702Z" fill="#202120"/>
</svg>
