<svg width="24" height="24" viewBox="0 0 24 24" fill="none" xmlns="http://www.w3.org/2000/svg">
<path fill-rule="evenodd" clip-rule="evenodd" d="M12 2.25C6.61479 2.25 2.25 6.61479 2.25 12C2.25 17.3852 6.61479 21.75 12 21.75C17.3852 21.75 21.75 17.3852 21.75 12C21.75 6.61479 17.3852 2.25 12 2.25ZM3.75 12C3.75 7.44321 7.44321 3.75 12 3.75C14.0083 3.75 15.8489 4.46737 17.2794 5.65988L5.65988 17.2794C4.46737 15.8489 3.75 14.0083 3.75 12ZM6.72054 18.3401C8.15112 19.5326 9.99169 20.25 12 20.25C16.5568 20.25 20.25 16.5568 20.25 12C20.25 9.99169 19.5326 8.15112 18.3401 6.72054L6.72054 18.3401Z" fill="#202120"/>
</svg>
