<svg width="24" height="24" viewBox="0 0 24 24" fill="none" xmlns="http://www.w3.org/2000/svg">
<path fill-rule="evenodd" clip-rule="evenodd" d="M3 5.75C3 4.23122 4.23122 3 5.75 3H18.25C19.7688 3 21 4.23122 21 5.75V18.25C21 19.7688 19.7688 21 18.25 21H5.75C4.23122 21 3 19.7688 3 18.25V5.75ZM16.7329 9.68035C17.1086 9.2756 17.0851 8.64287 16.6804 8.26712C16.2756 7.89137 15.6429 7.91488 15.2671 8.31964L10.4459 13.5131L8.73288 11.6678C8.35713 11.263 7.7244 11.2395 7.31965 11.6153C6.91489 11.991 6.89137 12.6238 7.26712 13.0285L9.72893 15.6804C10.1047 16.0851 10.7374 16.1086 11.1422 15.7329C11.2155 15.6648 11.2763 15.5883 11.3245 15.5063L16.7329 9.68035Z" fill="#202120"/>
</svg>
