<svg width="24" height="24" viewBox="0 0 24 24" fill="none" xmlns="http://www.w3.org/2000/svg">
<path d="M8.28034 7.21967C7.98745 6.92678 7.51257 6.92678 7.21968 7.21967C6.92679 7.51256 6.92679 7.98744 7.21968 8.28033L10.932 11.9926L7.21967 15.705C6.92678 15.9979 6.92678 16.4727 7.21967 16.7656C7.51256 17.0585 7.98744 17.0585 8.28033 16.7656L11.9927 13.0533L15.705 16.7656C15.9979 17.0585 16.4727 17.0585 16.7656 16.7656C17.0585 16.4727 17.0585 15.9978 16.7656 15.705L13.0533 11.9926L16.7656 8.28035C17.0585 7.98745 17.0585 7.51258 16.7656 7.21969C16.4727 6.92679 15.9978 6.92679 15.705 7.21969L11.9927 10.932L8.28034 7.21967Z" fill="#202120"/>
</svg>
