<svg width="24" height="24" viewBox="0 0 24 24" fill="none" xmlns="http://www.w3.org/2000/svg">
<path d="M20.005 10.62C19.3837 10.62 18.88 10.1163 18.88 9.495C18.88 8.87367 19.3837 8.37 20.005 8.37C20.6263 8.37 21.13 8.87367 21.13 9.495C21.13 10.1163 20.6263 10.62 20.005 10.62Z" fill="#202120"/>
<path d="M21 13.75C21.4142 13.75 21.75 14.0858 21.75 14.5C21.75 14.9142 21.4142 15.25 21 15.25H3C2.58579 15.25 2.25 14.9142 2.25 14.5C2.25 14.0858 2.58579 13.75 3 13.75H21Z" fill="#202120"/>
<path d="M10.88 9.495C10.88 10.1163 11.3837 10.62 12.005 10.62C12.6263 10.62 13.13 10.1163 13.13 9.495C13.13 8.87367 12.6263 8.37 12.005 8.37C11.3837 8.37 10.88 8.87367 10.88 9.495Z" fill="#202120"/>
<path d="M8.005 10.62C7.38368 10.62 6.88 10.1163 6.88 9.495C6.88 8.87367 7.38368 8.37 8.005 8.37C8.62633 8.37 9.13 8.87367 9.13 9.495C9.13 10.1163 8.62633 10.62 8.005 10.62Z" fill="#202120"/>
<path d="M2.88 9.495C2.88 10.1163 3.38368 10.62 4.005 10.62C4.62633 10.62 5.13 10.1163 5.13 9.495C5.13 8.87367 4.62633 8.37 4.005 8.37C3.38368 8.37 2.88 8.87367 2.88 9.495Z" fill="#202120"/>
<path d="M16.005 10.62C15.3837 10.62 14.88 10.1163 14.88 9.495C14.88 8.87367 15.3837 8.37 16.005 8.37C16.6263 8.37 17.13 8.87367 17.13 9.495C17.13 10.1163 16.6263 10.62 16.005 10.62Z" fill="#202120"/>
</svg>
