<svg width="24" height="24" viewBox="0 0 24 24" fill="none" xmlns="http://www.w3.org/2000/svg">
<path d="M6.12268 7.99837C6.12268 7.5151 6.51445 7.12332 6.99773 7.12332C7.48101 7.12332 7.87278 7.5151 7.87278 7.99837C7.87278 8.48165 7.48101 8.87343 6.99773 8.87343C6.51445 8.87343 6.12268 8.48165 6.12268 7.99837Z" fill="#202120"/>
<path d="M10.9994 7.12332C10.5162 7.12332 10.1244 7.5151 10.1244 7.99837C10.1244 8.48165 10.5162 8.87343 10.9994 8.87343C11.4827 8.87343 11.8745 8.48165 11.8745 7.99837C11.8745 7.5151 11.4827 7.12332 10.9994 7.12332Z" fill="#202120"/>
<path d="M6.12268 12C6.12268 11.5167 6.51445 11.125 6.99773 11.125C7.48101 11.125 7.87278 11.5167 7.87278 12C7.87278 12.4833 7.48101 12.8751 6.99773 12.8751C6.51445 12.8751 6.12268 12.4833 6.12268 12Z" fill="#202120"/>
<path d="M10.9994 11.125C10.5162 11.125 10.1244 11.5167 10.1244 12C10.1244 12.4833 10.5162 12.8751 10.9994 12.8751C11.4827 12.8751 11.8745 12.4833 11.8745 12C11.8745 11.5167 11.4827 11.125 10.9994 11.125Z" fill="#202120"/>
<path d="M6.12268 16.0017C6.12268 15.5184 6.51445 15.1266 6.99773 15.1266C7.48101 15.1266 7.87278 15.5184 7.87278 16.0017C7.87278 16.485 7.48101 16.8768 6.99773 16.8768C6.51445 16.8768 6.12268 16.485 6.12268 16.0017Z" fill="#202120"/>
<path d="M10.9994 15.1266C10.5162 15.1266 10.1244 15.5184 10.1244 16.0017C10.1244 16.485 10.5162 16.8768 10.9994 16.8768C11.4827 16.8768 11.8745 16.485 11.8745 16.0017C11.8745 15.5184 11.4827 15.1266 10.9994 15.1266Z" fill="#202120"/>
<path d="M17.1273 12C17.1273 11.5167 17.5191 11.125 18.0024 11.125C18.4856 11.125 18.8774 11.5167 18.8774 12C18.8774 12.4833 18.4856 12.8751 18.0024 12.8751C17.5191 12.8751 17.1273 12.4833 17.1273 12Z" fill="#202120"/>
<path d="M18.0024 15.1266C17.5191 15.1266 17.1273 15.5184 17.1273 16.0017C17.1273 16.485 17.5191 16.8768 18.0024 16.8768C18.4856 16.8768 18.8774 16.485 18.8774 16.0017C18.8774 15.5184 18.4856 15.1266 18.0024 15.1266Z" fill="#202120"/>
<path fill-rule="evenodd" clip-rule="evenodd" d="M3.99651 3.2467C3.02978 3.2467 2.24609 4.03039 2.24609 4.99712V19.003C2.24609 19.9697 3.02978 20.7534 3.99651 20.7534H15.0011L15.0062 20.7534H20.0032C20.9699 20.7534 21.7536 19.9697 21.7536 19.0029V8.99877C21.7536 8.03204 20.9699 7.24835 20.0032 7.24835H15.7511V4.99712C15.7511 4.03039 14.9674 3.2467 14.0007 3.2467H3.99651ZM3.74609 4.99712C3.74609 4.85882 3.85821 4.7467 3.99651 4.7467H14.0007C14.139 4.7467 14.2511 4.85882 14.2511 4.99712V19.2534H3.99651C3.85821 19.2534 3.74609 19.1413 3.74609 19.003V4.99712ZM20.0032 19.2534H15.7511V8.74835H20.0032C20.1415 8.74835 20.2536 8.86047 20.2536 8.99877V19.0029C20.2536 19.1412 20.1415 19.2534 20.0032 19.2534Z" fill="#202120"/>
</svg>
