<svg width="24" height="24" viewBox="0 0 24 24" fill="none" xmlns="http://www.w3.org/2000/svg">
<path d="M19 2.25C18.5858 2.25 18.25 2.58579 18.25 3C18.25 3.41421 18.5858 3.75 19 3.75H20C20.1378 3.75 20.25 3.86221 20.25 4V5C20.25 5.41421 20.5858 5.75 21 5.75C21.4142 5.75 21.75 5.41421 21.75 5V4C21.75 3.03379 20.9662 2.25 20 2.25H19Z" fill="#202120"/>
<path fill-rule="evenodd" clip-rule="evenodd" d="M4 7.25C3.03379 7.25 2.25 8.03379 2.25 9V20C2.25 20.9662 3.03379 21.75 4 21.75H15C15.9662 21.75 16.75 20.9662 16.75 20V9C16.75 8.03379 15.9662 7.25 15 7.25H4ZM3.75 9C3.75 8.86221 3.86221 8.75 4 8.75H15C15.1378 8.75 15.25 8.86221 15.25 9V20C15.25 20.1378 15.1378 20.25 15 20.25H4C3.86221 20.25 3.75 20.1378 3.75 20V9Z" fill="#202120"/>
<path d="M21 14.25C21.4142 14.25 21.75 14.5858 21.75 15V16C21.75 16.9662 20.9662 17.75 20 17.75H19C18.5858 17.75 18.25 17.4142 18.25 17C18.25 16.5858 18.5858 16.25 19 16.25H20C20.1378 16.25 20.25 16.1378 20.25 16V15C20.25 14.5858 20.5858 14.25 21 14.25Z" fill="#202120"/>
<path d="M7.75 4C7.75 3.86221 7.86221 3.75 8 3.75H9C9.41421 3.75 9.75 3.41421 9.75 3C9.75 2.58579 9.41421 2.25 9 2.25H8C7.03379 2.25 6.25 3.03379 6.25 4V5C6.25 5.41421 6.58579 5.75 7 5.75C7.41421 5.75 7.75 5.41421 7.75 5V4Z" fill="#202120"/>
<path d="M12.25 3C12.25 2.58579 12.5858 2.25 13 2.25H15C15.4142 2.25 15.75 2.58579 15.75 3C15.75 3.41421 15.4142 3.75 15 3.75H13C12.5858 3.75 12.25 3.41421 12.25 3Z" fill="#202120"/>
<path d="M21.75 9C21.75 8.58579 21.4142 8.25 21 8.25C20.5858 8.25 20.25 8.58579 20.25 9V11C20.25 11.4142 20.5858 11.75 21 11.75C21.4142 11.75 21.75 11.4142 21.75 11V9Z" fill="#202120"/>
</svg>
