<svg width="24" height="24" viewBox="0 0 24 24" fill="none" xmlns="http://www.w3.org/2000/svg">
<path d="M9 10.192C9.41421 10.192 9.75 10.5278 9.75 10.942V17.002C9.75 17.4162 9.41421 17.752 9 17.752C8.58579 17.752 8.25 17.4162 8.25 17.002V10.942C8.25 10.5278 8.58579 10.192 9 10.192Z" fill="#202120"/>
<path d="M12.75 9.78201C12.75 9.3678 12.4142 9.03201 12 9.03201C11.5858 9.03201 11.25 9.3678 11.25 9.78201V18.052C11.25 18.4662 11.5858 18.802 12 18.802C12.4142 18.802 12.75 18.4662 12.75 18.052V9.78201Z" fill="#202120"/>
<path d="M15 10.192C15.4142 10.192 15.75 10.5278 15.75 10.942V17.002C15.75 17.4162 15.4142 17.752 15 17.752C14.5858 17.752 14.25 17.4162 14.25 17.002V10.942C14.25 10.5278 14.5858 10.192 15 10.192Z" fill="#202120"/>
<path fill-rule="evenodd" clip-rule="evenodd" d="M8.02356 4.46668C8.25506 3.74134 8.92931 3.25 9.68996 3.25H14.31C15.0705 3.25 15.7436 3.74209 15.976 4.4656L16.5473 6.25H18C18.0186 6.25 18.0371 6.25068 18.0554 6.25201H19C19.4142 6.25201 19.75 6.5878 19.75 7.00201C19.75 7.41623 19.4142 7.75201 19 7.75201H18.75V18.739C18.75 20.3712 17.4272 21.694 15.795 21.694H8.205C6.57279 21.694 5.25 20.3712 5.25 18.739V7.75201H5C4.58579 7.75201 4.25 7.41623 4.25 7.00201C4.25 6.5878 4.58579 6.25201 5 6.25201H5.94461C5.9629 6.25068 5.98137 6.25 6 6.25H7.45258L8.02356 4.46668ZM16.0171 7.75C16.0055 7.75027 15.994 7.75027 15.9825 7.75H8.01747C8.00594 7.75027 7.99439 7.75027 7.98281 7.75H6.75V18.739C6.75 19.5428 7.40121 20.194 8.205 20.194H15.795C16.5988 20.194 17.25 19.5428 17.25 18.739V7.75H16.0171ZM14.5479 4.9244L14.9723 6.25H9.02759L9.45252 4.92283C9.48516 4.82044 9.58078 4.75 9.68996 4.75H14.31C14.4173 4.75 14.5143 4.81998 14.5479 4.9244Z" fill="#202120"/>
</svg>
