<svg width="24" height="24" viewBox="0 0 24 24" fill="none" xmlns="http://www.w3.org/2000/svg">
<path d="M12 2.25C12.4142 2.25 12.75 2.58579 12.75 3V15.1894L16.4697 11.4697C16.7626 11.1768 17.2375 11.1768 17.5304 11.4697C17.8232 11.7626 17.8232 12.2374 17.5304 12.5303L12.5294 17.5313C12.3887 17.672 12.1979 17.751 11.999 17.751C11.8001 17.751 11.6093 17.672 11.4686 17.5313L6.46864 12.5303C6.17578 12.2374 6.17582 11.7625 6.46875 11.4696C6.76167 11.1768 7.23654 11.1768 7.52941 11.4697L11.25 15.1911V3C11.25 2.58579 11.5858 2.25 12 2.25Z" fill="#202120"/>
<path d="M3.25 21C3.25 20.5858 3.58579 20.25 4 20.25H20C20.4142 20.25 20.75 20.5858 20.75 21C20.75 21.4142 20.4142 21.75 20 21.75H4C3.58579 21.75 3.25 21.4142 3.25 21Z" fill="#202120"/>
</svg>
