<svg width="24" height="24" viewBox="0 0 24 24" fill="none" xmlns="http://www.w3.org/2000/svg">
<path fill-rule="evenodd" clip-rule="evenodd" d="M19.3409 2.84819C18.5438 2.05115 17.2518 2.05 16.4549 2.84837L2.46969 16.8323C2.32903 16.9729 2.25 17.1637 2.25 17.3626V21C2.25 21.4142 2.58579 21.75 3 21.75H6.63737C6.83628 21.75 7.02705 21.671 7.1677 21.5303L21.1518 7.54621C21.9494 6.74863 21.9494 5.45671 21.1518 4.65912L19.3409 2.84819ZM17.5164 3.90817C17.7264 3.69765 18.068 3.69668 18.2802 3.90885L20.0912 5.71979C20.3029 5.93158 20.3029 6.27376 20.0912 6.48555L18.3187 8.25802L15.7425 5.68188L17.5164 3.90817ZM14.6818 6.74249L3.75 17.6733V20.25H6.32671L17.258 9.31868L14.6818 6.74249Z" fill="#202120"/>
</svg>
