<svg width="25" height="25" viewBox="0 0 25 25" fill="none" xmlns="http://www.w3.org/2000/svg">
<path d="M15.5008 13.5004V9.49871C15.5008 8.94619 15.0529 8.49829 14.5004 8.49829H10.4987C9.94619 8.49829 9.49829 8.94619 9.49829 9.49871V11.4995" stroke="#202120" stroke-width="1.5" stroke-linecap="round" stroke-linejoin="round"/>
<path d="M14.5003 18.4996V14.498C14.5003 13.9455 14.9482 13.4976 15.5007 13.4976H17.5015C18.0541 13.4976 18.502 13.9455 18.502 14.498V17.4992C18.502 18.0517 18.0541 18.4996 17.5015 18.4996H7.49738C6.94486 18.4996 6.49695 18.0517 6.49683 17.4992V13.9811C6.49683 13.5118 6.76196 13.0828 7.18169 12.873L9.66935 11.6292C10.0524 11.4376 10.5071 11.4574 10.8721 11.6814C11.2371 11.9054 11.4606 12.3019 11.4633 12.7302L11.4992 18.4996" stroke="#202120" stroke-width="1.5" stroke-linecap="round" stroke-linejoin="round"/>
<path d="M12.4995 7.99892V6.49829" stroke="#202120" stroke-width="1.5" stroke-linecap="round" stroke-linejoin="round"/>
<rect x="3.49951" y="3.49829" width="18" height="18" rx="5" stroke="#202120" stroke-width="1.5"/>
</svg>
