<svg width="24" height="24" viewBox="0 0 24 24" fill="none" xmlns="http://www.w3.org/2000/svg">
<path d="M4.34039 2.27967C4.0475 1.98677 3.57262 1.98677 3.27973 2.27967C2.98684 2.57256 2.98684 3.04743 3.27973 3.34033L4.46973 4.53033C4.76262 4.82322 5.2375 4.82322 5.53039 4.53033C5.82328 4.23743 5.82328 3.76256 5.53039 3.46967L4.34039 2.27967Z" fill="#202120"/>
<path d="M21.7203 4.34033C22.0132 4.04743 22.0132 3.57256 21.7203 3.27967C21.4274 2.98677 20.9526 2.98677 20.6597 3.27967L19.4697 4.46967C19.1768 4.76256 19.1768 5.23743 19.4697 5.53033C19.7626 5.82322 20.2374 5.82322 20.5303 5.53033L21.7203 4.34033Z" fill="#202120"/>
<path fill-rule="evenodd" clip-rule="evenodd" d="M8.25006 18.0097V18.5C8.25006 20.2952 9.70485 21.75 11.5001 21.75H12.5001C14.2953 21.75 15.7501 20.2952 15.7501 18.5V15.733C15.7501 15.6751 15.781 15.5875 15.8899 15.5106C17.6163 14.2907 18.7501 12.28 18.7501 10C18.7501 6.00446 15.2767 2.8183 11.1878 3.29812C8.23432 3.64414 5.7921 5.98102 5.33396 8.9228C4.91294 11.6309 6.11198 14.0979 8.10824 15.5085C8.2174 15.5859 8.25006 15.6753 8.25006 15.737V17.9903C8.25002 17.9935 8.25 17.9968 8.25 18C8.25 18.0032 8.25002 18.0065 8.25006 18.0097ZM17.2501 10C17.2501 6.89165 14.5495 4.41384 11.3625 4.78791C9.07413 5.05595 7.17009 6.88118 6.81616 9.15324C6.48727 11.2691 7.41819 13.1842 8.97388 14.2835C9.04116 14.3311 9.10585 14.3834 9.1672 14.44H14.8329C14.8937 14.3841 14.9577 14.3325 15.0243 14.2855C16.3719 13.3333 17.2501 11.7701 17.2501 10ZM9.75006 17.25V15.94H14.2501V17.25H9.75006ZM9.76777 18.75H14.2324C14.1111 19.5983 13.382 20.25 12.5001 20.25H11.5001C10.6182 20.25 9.88899 19.5983 9.76777 18.75Z" fill="#202120"/>
<path d="M4.53039 14.4697C4.82328 14.7626 4.82328 15.2374 4.53039 15.5303L3.34039 16.7203C3.0475 17.0132 2.57262 17.0132 2.27973 16.7203C1.98684 16.4274 1.98684 15.9526 2.27973 15.6597L3.46973 14.4697C3.76262 14.1768 4.2375 14.1768 4.53039 14.4697Z" fill="#202120"/>
<path d="M19.4697 14.4697C19.7626 14.1768 20.2374 14.1768 20.5303 14.4697L21.7203 15.6597C22.0132 15.9526 22.0132 16.4274 21.7203 16.7203C21.4274 17.0132 20.9526 17.0132 20.6597 16.7203L19.4697 15.5303C19.1768 15.2374 19.1768 14.7626 19.4697 14.4697Z" fill="#202120"/>
<path d="M21 9.25C20.5858 9.25 20.25 9.58579 20.25 10C20.25 10.4142 20.5858 10.75 21 10.75H22.69C23.1042 10.75 23.44 10.4142 23.44 10C23.44 9.58579 23.1042 9.25 22.69 9.25H21Z" fill="#202120"/>
<path d="M0.560059 10C0.560059 9.58579 0.895845 9.25 1.31006 9.25H3.00006C3.41427 9.25 3.75006 9.58579 3.75006 10C3.75006 10.4142 3.41427 10.75 3.00006 10.75H1.31006C0.895845 10.75 0.560059 10.4142 0.560059 10Z" fill="#202120"/>
</svg>
