<svg width="24" height="24" viewBox="0 0 24 24" fill="none" xmlns="http://www.w3.org/2000/svg">
<path d="M2.25 5C2.25 3.48079 3.48079 2.25 5 2.25H7.588C8.00221 2.25 8.338 2.58579 8.338 3C8.338 3.41421 8.00221 3.75 7.588 3.75H5C4.30921 3.75 3.75 4.30921 3.75 5V7.588C3.75 8.00221 3.41421 8.338 3 8.338C2.58579 8.338 2.25 8.00221 2.25 7.588V5Z" fill="#202120"/>
<path d="M8.25 9.08C8.25 8.66579 7.91421 8.33 7.5 8.33C7.08579 8.33 6.75 8.66579 6.75 9.08V10.58C6.75 10.9942 7.08579 11.33 7.5 11.33C7.91421 11.33 8.25 10.9942 8.25 10.58V9.08Z" fill="#202120"/>
<path d="M17.25 9.08C17.25 8.66579 16.9142 8.33 16.5 8.33C16.0858 8.33 15.75 8.66579 15.75 9.08V10.58C15.75 10.9942 16.0858 11.33 16.5 11.33C16.9142 11.33 17.25 10.9942 17.25 10.58V9.08Z" fill="#202120"/>
<path d="M12.5 8.347C12.9142 8.347 13.25 8.68279 13.25 9.097V12.597C13.25 13.5632 12.4662 14.347 11.5 14.347H11C10.5858 14.347 10.25 14.0112 10.25 13.597C10.25 13.1828 10.5858 12.847 11 12.847H11.5C11.6378 12.847 11.75 12.7348 11.75 12.597V9.097C11.75 8.68279 12.0858 8.347 12.5 8.347Z" fill="#202120"/>
<path d="M9.28912 15.6267C8.99623 15.3338 8.52135 15.3338 8.22846 15.6267C7.93557 15.9196 7.93557 16.3944 8.22846 16.6873C10.3114 18.7702 13.6892 18.7702 15.7721 16.6873C16.065 16.3944 16.065 15.9196 15.7721 15.6267C15.4792 15.3338 15.0044 15.3338 14.7115 15.6267C13.2144 17.1238 10.7862 17.1238 9.28912 15.6267Z" fill="#202120"/>
<path d="M21.7501 16.412C21.7501 15.9978 21.4143 15.662 21.0001 15.662C20.5859 15.662 20.2501 15.9978 20.2501 16.412V19C20.2501 19.6908 19.6909 20.25 19.0001 20.25H16.4121C15.9979 20.25 15.6621 20.5858 15.6621 21C15.6621 21.4142 15.9979 21.75 16.4121 21.75H19.0001C20.5193 21.75 21.7501 20.5192 21.7501 19V16.412Z" fill="#202120"/>
<path d="M3 15.662C3.41421 15.662 3.75 15.9978 3.75 16.412V19C3.75 19.6908 4.30921 20.25 5 20.25H7.588C8.00221 20.25 8.338 20.5858 8.338 21C8.338 21.4142 8.00221 21.75 7.588 21.75H5C3.48079 21.75 2.25 20.5192 2.25 19V16.412C2.25 15.9978 2.58579 15.662 3 15.662Z" fill="#202120"/>
<path d="M16.4121 2.25C15.9979 2.25 15.6621 2.58579 15.6621 3C15.6621 3.41421 15.9979 3.75 16.4121 3.75H19.0001C19.6909 3.75 20.2501 4.30921 20.2501 5V7.588C20.2501 8.00221 20.5859 8.338 21.0001 8.338C21.4143 8.338 21.7501 8.00221 21.7501 7.588V5C21.7501 3.48079 20.5193 2.25 19.0001 2.25H16.4121Z" fill="#202120"/>
</svg>
