<svg width="24" height="24" viewBox="0 0 24 24" fill="none" xmlns="http://www.w3.org/2000/svg">
<path fill-rule="evenodd" clip-rule="evenodd" d="M10.7627 3.26294C11.4461 2.57818 12.5542 2.5793 13.2376 3.26268L19.9449 9.96993C20.4604 10.4854 20.7506 11.1851 20.7506 11.9143V20.5006C20.7506 20.9148 20.4148 21.2506 20.0006 21.2506H14.5004C14.0862 21.2506 13.7504 20.9148 13.7504 20.5006V16.0005C13.7504 15.0336 12.9671 14.2503 12.0003 14.2503C11.0334 14.2503 10.2502 15.0336 10.2502 16.0005V20.5006C10.2502 20.9148 9.91439 21.2506 9.50019 21.2506H3.99999C3.58578 21.2506 3.25 20.9148 3.25 20.5006V11.9143C3.25 11.1851 3.54018 10.4854 4.05569 9.96993L10.7627 3.26294C10.7628 3.2628 10.7625 3.26308 10.7627 3.26294ZM12.0003 12.7504C13.7955 12.7504 15.2504 14.2052 15.2504 16.0005V19.7506H19.2506V11.9143C19.2506 11.5834 19.1188 11.2651 18.8842 11.0306L12.177 4.32332C12.0785 4.22482 11.9208 4.2258 11.8243 4.32264L5.11633 11.0306C4.88181 11.2651 4.74997 11.5834 4.74997 11.9143V19.7506H8.7502V16.0005C8.7502 14.2052 10.205 12.7504 12.0003 12.7504Z" fill="#202120"/>
</svg>
