<svg width="24" height="24" viewBox="0 0 24 24" fill="none" xmlns="http://www.w3.org/2000/svg">
<path d="M16.2524 8.74872C16.2524 8.3345 16.5882 7.99872 17.0024 7.99872H19.0033C19.4175 7.99872 19.7533 8.3345 19.7533 8.74872C19.7533 9.16293 19.4175 9.49872 19.0033 9.49872H17.0024C16.5882 9.49872 16.2524 9.16293 16.2524 8.74872Z" fill="#202120"/>
<path d="M14.0012 11.5002C13.587 11.5002 13.2512 11.836 13.2512 12.2502C13.2512 12.6644 13.587 13.0002 14.0012 13.0002H19.0033C19.4175 13.0002 19.7533 12.6644 19.7533 12.2502C19.7533 11.836 19.4175 11.5002 19.0033 11.5002H14.0012Z" fill="#202120"/>
<path d="M14.0012 15.0016C13.587 15.0016 13.2512 15.3374 13.2512 15.7516C13.2512 16.1659 13.587 16.5016 14.0012 16.5016H19.0033C19.4175 16.5016 19.7533 16.1659 19.7533 15.7516C19.7533 15.3374 19.4175 15.0016 19.0033 15.0016H14.0012Z" fill="#202120"/>
<path d="M6.65023 14.1001C6.15327 14.1001 5.75024 14.4879 5.75024 15.0001C5.75024 15.4143 5.41446 15.7501 5.00024 15.7501C4.58603 15.7501 4.25024 15.4143 4.25024 15.0001C4.25024 13.6373 5.34721 12.6001 6.65023 12.6001H8.56272C9.92551 12.6001 10.9627 13.697 10.9627 15.0001C10.9627 15.4143 10.6269 15.7501 10.2127 15.7501C9.79849 15.7501 9.46271 15.4143 9.46271 15.0001C9.46271 14.5031 9.07491 14.1001 8.56272 14.1001H6.65023Z" fill="#202120"/>
<path fill-rule="evenodd" clip-rule="evenodd" d="M5.98628 7.90384C6.91148 7.03308 8.33468 7.03205 9.26105 7.90078L9.27253 7.91169L9.28378 7.92283C10.2019 8.84428 10.2245 10.3424 9.26431 11.2461C8.36911 12.0887 6.87768 12.1952 5.95416 11.214C5.11161 10.3188 5.00503 8.82737 5.98628 7.90384ZM7.01433 8.99615C7.36028 8.67055 7.87927 8.66797 8.22796 8.98842C8.57338 9.34208 8.54754 9.86085 8.23627 10.1538C7.85648 10.5113 7.32292 10.4797 7.04645 10.1859C6.68901 9.80616 6.72059 9.2726 7.01433 8.99615Z" fill="#202120"/>
<path fill-rule="evenodd" clip-rule="evenodd" d="M3.99609 3.24658C2.47731 3.24658 1.24609 4.4778 1.24609 5.99658V18.0032C1.24609 19.522 2.47731 20.7532 3.99609 20.7532H20.0044C21.5232 20.7532 22.7544 19.522 22.7544 18.0032V5.99658C22.7544 4.4778 21.5232 3.24658 20.0044 3.24658H3.99609ZM2.74609 5.99658C2.74609 5.30623 3.30574 4.74658 3.99609 4.74658H20.0044C20.6948 4.74658 21.2544 5.30622 21.2544 5.99658V18.0032C21.2544 18.6936 20.6948 19.2532 20.0044 19.2532H3.99609C3.30574 19.2532 2.74609 18.6936 2.74609 18.0032V5.99658Z" fill="#202120"/>
</svg>
