<svg width="24" height="24" viewBox="0 0 24 24" fill="none" xmlns="http://www.w3.org/2000/svg">
<path fill-rule="evenodd" clip-rule="evenodd" d="M2.25 8C2.25 4.82436 4.82436 2.25 8 2.25H16C19.1756 2.25 21.75 4.82436 21.75 8V16C21.75 19.1756 19.1756 21.75 16 21.75H8C4.82436 21.75 2.25 19.1756 2.25 16V8ZM8 3.75C5.65279 3.75 3.75 5.65279 3.75 8V15.2751L8.26252 10.7626L8.78636 11.2864L8.26252 10.7626C8.94594 10.0791 10.054 10.0791 10.7374 10.7626L10.2101 11.2898L10.7374 10.7626L14.4999 14.5251L16.2625 12.7626L16.7928 13.2929L16.2625 12.7626C16.9459 12.0791 18.054 12.0791 18.7374 12.7626L20.25 14.2752V8C20.25 5.65279 18.3472 3.75 16 3.75H8ZM8 20.25C6.07646 20.25 4.45138 18.9721 3.9274 17.219L9.32318 11.8232C9.42081 11.7256 9.5791 11.7256 9.67673 11.8232L13.9696 16.1161C14.1103 16.2568 14.301 16.3358 14.5 16.3358C14.6989 16.3358 14.8896 16.2568 15.0303 16.1161L17.3232 13.8232C17.4208 13.7256 17.5791 13.7256 17.6767 13.8232L20.2333 16.3798C20.0412 18.5491 18.2192 20.25 16 20.25H8Z" fill="#323232"/>
</svg>
