<svg viewBox="0 0 25 24" fill="none" xmlns="http://www.w3.org/2000/svg">
<path d="M12.5057 5.83813C9.10266 5.83813 6.34766 8.59614 6.34766 11.9961C6.34766 15.3991 9.10566 18.1541 12.5057 18.1541C15.9087 18.1541 18.6637 15.3961 18.6637 11.9961C18.6637 8.59314 15.9057 5.83813 12.5057 5.83813ZM12.5057 15.9931C10.2967 15.9931 8.50866 14.2041 8.50866 11.9961C8.50866 9.78814 10.2977 7.99914 12.5057 7.99914C14.7137 7.99914 16.5027 9.78814 16.5027 11.9961C16.5037 14.2041 14.7147 15.9931 12.5057 15.9931Z" fill="currentColor"/>
<path d="M17.448 0.0758749C15.24 -0.0271251 9.77103 -0.0221251 7.56103 0.0758749C5.61903 0.166875 3.90603 0.635875 2.52503 2.01687C0.217029 4.32487 0.512029 7.43488 0.512029 11.9959C0.512029 16.6639 0.252029 19.7019 2.52503 21.9749C4.84203 24.2909 7.99703 23.9879 12.504 23.9879C17.128 23.9879 18.724 23.9909 20.359 23.3579C22.582 22.4949 24.26 20.5079 24.424 16.9389C24.528 14.7299 24.522 9.26188 24.424 7.05188C24.226 2.83888 21.965 0.283875 17.448 0.0758749ZM20.943 20.4479C19.43 21.9609 17.331 21.8259 12.475 21.8259C7.47503 21.8259 5.47003 21.8999 4.00703 20.4329C2.32203 18.7559 2.62703 16.0629 2.62703 11.9799C2.62703 6.45487 2.06003 2.47587 7.60503 2.19187C8.87903 2.14687 9.25403 2.13187 12.461 2.13187L12.506 2.16187C17.835 2.16187 22.016 1.60387 22.267 7.14787C22.324 8.41288 22.337 8.79288 22.337 11.9949C22.336 16.9369 22.43 18.9539 20.943 20.4479Z" fill="currentColor"/>
<path d="M18.9038 7.03424C19.6986 7.03424 20.3428 6.38998 20.3428 5.59525C20.3428 4.80051 19.6986 4.15625 18.9038 4.15625C18.1091 4.15625 17.4648 4.80051 17.4648 5.59525C17.4648 6.38998 18.1091 7.03424 18.9038 7.03424Z" fill="currentColor"/>
</svg>
