<svg width="24" height="24" viewBox="0 0 24 24" fill="none" xmlns="http://www.w3.org/2000/svg">
<path fill-rule="evenodd" clip-rule="evenodd" d="M0.11847 12.853C-0.251518 14.2345 0.273393 16.1902 1.28494 17.2017L6.7983 22.7151C7.80985 23.7266 9.76732 24.2461 11.147 23.8815L18.6798 21.8621C20.0614 21.4921 21.4994 20.0595 21.8639 18.6798L23.8815 11.147C24.2515 9.76549 23.7284 7.80802 22.7169 6.7983L17.2035 1.28311C16.192 0.271569 14.2345 -0.246052 12.853 0.118468L5.32199 2.13609C3.94046 2.50608 2.50243 3.93864 2.13791 5.32017L0.11847 12.853ZM14.4941 8.56258C14.5686 8.58723 14.6468 8.61312 14.7284 8.64095L14.7193 8.62819C15.9095 9.0401 16.7424 9.483 16.6567 10.593C16.562 11.8305 15.5942 12.5504 14.0012 12.4283C13.4902 12.405 12.9914 12.2647 12.5431 12.0182C11.9964 12.3299 11.4441 12.4265 10.706 12.4265C9.9678 12.4265 9.35906 12.2278 8.96537 11.8068C8.79732 12.0092 8.58503 12.1704 8.34488 12.2778C8.10472 12.3852 7.84311 12.4361 7.5802 12.4265C6.04192 12.4265 4.92649 11.7886 4.93743 10.3688L4.97023 6.97144C4.97072 6.88137 5.00683 6.79515 5.0707 6.73162C5.13456 6.6681 5.22098 6.63244 5.31106 6.63244H6.35723C6.4023 6.63244 6.44692 6.64138 6.48851 6.65873C6.5301 6.67609 6.56783 6.70152 6.59953 6.73355C6.63123 6.76559 6.65626 6.80359 6.67317 6.84537C6.69008 6.88714 6.69854 6.93185 6.69806 6.97692L6.66525 9.95505C6.66525 10.6258 7.09356 10.8773 7.57655 10.8773C8.03767 10.8736 8.44229 10.6476 8.48785 10.0608L8.51884 5.34387C8.5198 5.20819 8.57437 5.07839 8.67066 4.98278C8.76694 4.88718 8.89712 4.83353 9.03281 4.83354H9.73087C9.79874 4.83329 9.86598 4.84654 9.92869 4.87251C9.99139 4.89848 10.0483 4.93666 10.0961 4.98482C10.144 5.03298 10.1817 5.09017 10.2073 5.15306C10.2328 5.21595 10.2456 5.28328 10.2448 5.35115V6.1531C10.3694 6.0763 10.5101 6.02956 10.6559 6.01659C10.8016 6.00362 10.9484 6.02477 11.0846 6.07837C11.2207 6.13197 11.3425 6.21655 11.4403 6.32539C11.5381 6.43424 11.6092 6.56437 11.648 6.70547C11.6868 6.84656 11.6922 6.99476 11.6637 7.13829C11.6353 7.28183 11.5738 7.41677 11.4842 7.53243C11.3945 7.64808 11.2792 7.74127 11.1473 7.80461C11.0153 7.86794 10.8705 7.89969 10.7242 7.89733C10.5513 7.89781 10.3819 7.84914 10.2357 7.75698L10.2193 9.95505C10.2193 10.6112 10.6331 10.8645 11.1033 10.8773C11.2819 10.8845 11.4601 10.8559 11.6276 10.7933C11.795 10.7307 11.9483 10.6353 12.0784 10.5128C12.1538 10.4349 12.2446 10.3736 12.345 10.3328C12.4454 10.292 12.5533 10.2726 12.6616 10.2758C12.8062 10.275 12.9483 10.3134 13.0728 10.3869C13.1973 10.4604 13.2996 10.5662 13.3688 10.6932C13.4818 10.9301 13.7242 11.0832 14.116 11.1124C14.5881 11.1488 14.887 10.9812 14.9253 10.6166C14.9636 10.2521 14.7394 10.1154 13.87 9.83658C12.5978 9.40644 11.7576 9.06926 11.8542 7.81896C11.9435 6.65067 12.9095 5.9672 14.4423 6.08384C15.3153 6.15128 15.935 6.4684 16.3123 6.93681C16.3792 7.02559 16.4269 7.12735 16.4523 7.23559C16.4777 7.34382 16.4803 7.45616 16.4599 7.56544C16.4394 7.67473 16.3965 7.77856 16.3337 7.87032C16.2709 7.96207 16.1897 8.03973 16.0952 8.09834C16.0007 8.15696 15.8951 8.19524 15.785 8.21075C15.6749 8.22626 15.5628 8.21866 15.4558 8.18843C15.3488 8.1582 15.2493 8.106 15.1636 8.03517C15.0779 7.96433 15.0079 7.87643 14.9581 7.77704C14.8955 7.66312 14.8026 7.56875 14.6897 7.50441C14.5768 7.44006 14.4483 7.40826 14.3184 7.41252C13.8645 7.37607 13.6148 7.54739 13.5893 7.87728C13.5602 8.25356 13.9147 8.37084 14.4941 8.56258ZM5.887 5.89429C6.07383 5.89538 6.25676 5.84089 6.41255 5.73777C6.56835 5.63465 6.68997 5.48754 6.76196 5.31514C6.83396 5.14274 6.85308 4.95282 6.8169 4.76953C6.78071 4.58624 6.69086 4.41784 6.55875 4.28573C6.42664 4.15362 6.25824 4.06376 6.07495 4.02758C5.89165 3.9914 5.70174 4.01052 5.52934 4.08252C5.35694 4.15451 5.20983 4.27613 5.10671 4.43193C5.00359 4.58772 4.9491 4.77065 4.95018 4.95748C4.95067 5.20579 5.04952 5.44379 5.2251 5.61937C5.40069 5.79496 5.63869 5.89381 5.887 5.89429ZM13.9228 15.164C14.2418 13.6987 15.3992 12.8293 16.9429 12.8293L16.9411 12.8384C18.6999 12.8384 19.8572 13.9739 19.8572 15.8785V16.0152C19.8572 16.1602 19.7996 16.2993 19.6971 16.4018C19.5945 16.5044 19.4555 16.562 19.3105 16.562H15.6653C15.6981 17.3184 16.1592 17.8032 16.9411 17.8032C17.3949 17.8032 17.7284 17.661 17.9198 17.4095C18.0032 17.2901 18.1179 17.196 18.2514 17.1378C18.3849 17.0796 18.5319 17.0594 18.6762 17.0796C18.8256 17.0985 18.9667 17.1592 19.0831 17.2549C19.1994 17.3505 19.2864 17.4771 19.3338 17.6201C19.3813 17.763 19.3873 17.9165 19.3513 18.0627C19.3152 18.209 19.2385 18.342 19.13 18.4465C19.1027 18.4702 19.0735 18.4921 19.0444 18.514C19.0332 18.524 19.0214 18.5327 19.0097 18.5412C19.0023 18.5467 18.9949 18.5521 18.9879 18.5577L18.935 18.596C18.3647 18.9926 17.6849 19.2016 16.9903 19.1938C15.4192 19.1938 14.2619 18.3317 13.932 16.8937V18.2114C13.9219 18.4282 13.8287 18.6328 13.6717 18.7826C13.5147 18.9325 13.306 19.0161 13.089 19.0161C12.872 19.0161 12.6633 18.9325 12.5063 18.7826C12.3494 18.6328 12.2561 18.4282 12.2461 18.2114V15.729C12.2461 14.9672 11.8998 14.5407 11.2527 14.5407C10.6531 14.5407 10.2831 14.9326 10.2139 15.5322V18.2114C10.2038 18.4282 10.1106 18.6328 9.95358 18.7826C9.7966 18.9325 9.58792 19.0161 9.3709 19.0161C9.15388 19.0161 8.94521 18.9325 8.78823 18.7826C8.63125 18.6328 8.53803 18.4282 8.52795 18.2114V15.729C8.52795 14.9672 8.17072 14.5407 7.55833 14.5407C6.88943 14.5407 6.48482 15.0237 6.48482 15.74V18.2169C6.47473 18.4337 6.38152 18.6382 6.22454 18.7881C6.06756 18.9379 5.85888 19.0216 5.64186 19.0216C5.42484 19.0216 5.21617 18.9379 5.05919 18.7881C4.90221 18.6382 4.80899 18.4337 4.79891 18.2169V16.1537V15.9714C4.79891 12.9671 7.0734 12.9742 7.89787 12.9768C7.9207 12.9768 7.94242 12.9769 7.96294 12.9769C8.78311 12.9769 9.44107 13.3123 9.83293 13.9247C10.1792 13.3815 10.7679 12.9769 11.6683 12.9769C12.9587 12.9769 13.8354 13.7898 13.9228 15.164ZM16.9301 14.1871C16.1975 14.1871 15.7126 14.6373 15.6653 15.4174H18.1239C18.0893 14.6719 17.7102 14.1871 16.9301 14.1871Z" fill="#202120"/>
</svg>
