<svg width="24" height="24" viewBox="0 0 24 24" fill="none" xmlns="http://www.w3.org/2000/svg">
<path d="M12 1.42902C8.43625 1.42902 5.2445 3.00054 3.06402 5.47744C2.79032 5.78835 2.82048 6.26226 3.13139 6.53596C3.44229 6.80966 3.91621 6.7795 4.18991 6.46859C6.09942 4.29949 8.88767 2.92902 12 2.92902C15.1123 2.92902 17.9005 4.29949 19.81 6.46859C20.0837 6.7795 20.5576 6.80966 20.8685 6.53596C21.1794 6.26226 21.2096 5.78835 20.9359 5.47744C18.7554 3.00054 15.5637 1.42902 12 1.42902Z" fill="#202120"/>
<path d="M2.25586 14.179C2.25586 8.79407 6.61937 4.42902 12.0019 4.42902C17.3843 4.42902 21.7479 8.79407 21.7479 14.179C21.7479 16.2501 20.0692 17.929 17.9989 17.929C15.9285 17.929 14.2499 16.2501 14.2499 14.179C14.2499 12.9361 13.2425 11.929 12.0009 11.929C10.7592 11.929 9.75186 12.9361 9.75186 14.179C9.75186 17.1343 11.306 19.7267 13.6437 21.1846C13.9952 21.4038 14.1024 21.8664 13.8833 22.2179C13.6641 22.5694 13.2015 22.6766 12.85 22.4574C10.0917 20.7373 8.25186 17.6738 8.25186 14.179C8.25186 12.108 9.93048 10.429 12.0009 10.429C14.0712 10.429 15.7499 12.108 15.7499 14.179C15.7499 15.422 16.7572 16.429 17.9989 16.429C19.2405 16.429 20.2479 15.422 20.2479 14.179C20.2479 9.62196 16.5554 5.92902 12.0019 5.92902C7.44834 5.92902 3.75586 9.62196 3.75586 14.179C3.75586 15.2308 3.87355 16.256 4.09046 17.2454C4.17916 17.65 3.92307 18.0499 3.51847 18.1386C3.11386 18.2273 2.71396 17.9712 2.62526 17.5666C2.38617 16.476 2.25586 15.3432 2.25586 14.179Z" fill="#202120"/>
<path d="M6.75195 14.179C6.75195 11.2789 9.10149 8.92902 11.999 8.92902C14.8964 8.92902 17.246 11.2789 17.246 14.179C17.246 14.5932 17.5817 14.929 17.996 14.929C18.4102 14.929 18.746 14.5932 18.746 14.179C18.746 10.4511 15.7255 7.42902 11.999 7.42902C8.27241 7.42902 5.25195 10.4511 5.25195 14.179C5.25195 16.8975 6.10556 19.4169 7.55574 21.4864C7.79344 21.8256 8.26112 21.9079 8.60035 21.6702C8.93957 21.4325 9.02187 20.9648 8.78417 20.6256C7.50435 18.7992 6.75195 16.5785 6.75195 14.179Z" fill="#202120"/>
<path d="M12.751 14.179C12.751 13.7648 12.4152 13.429 12.001 13.429C11.5868 13.429 11.251 13.7648 11.251 14.179C11.251 17.9069 14.2714 20.929 17.998 20.929C18.1033 20.929 18.2219 20.9211 18.3025 20.9157L18.3352 20.9135L18.3626 20.9119C18.7762 20.8889 19.0928 20.535 19.0698 20.1214C19.0468 19.7078 18.693 19.3912 18.2794 19.4142C18.2274 19.4171 18.1871 19.4198 18.1531 19.4221L18.1521 19.4221C18.0914 19.4262 18.0501 19.429 17.998 19.429C15.1005 19.429 12.751 17.0791 12.751 14.179Z" fill="#202120"/>
</svg>
