<svg width="24" height="24" viewBox="0 0 24 24" fill="none" xmlns="http://www.w3.org/2000/svg">
<path d="M7.5 8.33C7.91421 8.33 8.25 8.66579 8.25 9.08V10.58C8.25 10.9942 7.91421 11.33 7.5 11.33C7.08579 11.33 6.75 10.9942 6.75 10.58V9.08C6.75 8.66579 7.08579 8.33 7.5 8.33Z" fill="#202120"/>
<path d="M16.5 8.33C16.9142 8.33 17.25 8.66579 17.25 9.08V10.58C17.25 10.9942 16.9142 11.33 16.5 11.33C16.0858 11.33 15.75 10.9942 15.75 10.58V9.08C15.75 8.66579 16.0858 8.33 16.5 8.33Z" fill="#202120"/>
<path d="M13.25 9.097C13.25 8.68279 12.9142 8.347 12.5 8.347C12.0858 8.347 11.75 8.68279 11.75 9.097V12.597C11.75 12.7348 11.6378 12.847 11.5 12.847H11C10.5858 12.847 10.25 13.1828 10.25 13.597C10.25 14.0112 10.5858 14.347 11 14.347H11.5C12.4662 14.347 13.25 13.5632 13.25 12.597V9.097Z" fill="#202120"/>
<path d="M8.22846 15.6267C8.52135 15.3338 8.99623 15.3338 9.28912 15.6267C10.7862 17.1238 13.2144 17.1238 14.7115 15.6267C15.0044 15.3338 15.4792 15.3338 15.7721 15.6267C16.065 15.9196 16.065 16.3944 15.7721 16.6873C13.6892 18.7702 10.3114 18.7702 8.22846 16.6873C7.93557 16.3944 7.93557 15.9196 8.22846 15.6267Z" fill="#202120"/>
<path fill-rule="evenodd" clip-rule="evenodd" d="M12 1.25C6.06294 1.25 1.25 6.06294 1.25 12C1.25 17.9371 6.06294 22.75 12 22.75C17.9371 22.75 22.75 17.9371 22.75 12C22.75 6.06294 17.9371 1.25 12 1.25ZM2.75 12C2.75 6.89137 6.89137 2.75 12 2.75C17.1086 2.75 21.25 6.89137 21.25 12C21.25 17.1086 17.1086 21.25 12 21.25C6.89137 21.25 2.75 17.1086 2.75 12Z" fill="#202120"/>
</svg>
