<svg width="24" height="24" viewBox="0 0 24 24" fill="none" xmlns="http://www.w3.org/2000/svg">
<path d="M8.50191 3.55733C8.80971 3.28015 8.83454 2.80592 8.55735 2.49812C8.28017 2.19031 7.80595 2.16549 7.49815 2.44267L4.67293 4.9868L3.52181 3.95058C3.21395 3.67345 2.73973 3.69836 2.46261 4.00622C2.18548 4.31407 2.21039 4.78829 2.51825 5.06542L4.17125 6.55342C4.45653 6.81023 4.88967 6.81019 5.17491 6.55333L8.50191 3.55733Z" fill="#202120"/>
<path d="M10.25 5C10.25 4.58579 10.5858 4.25 11 4.25H21C21.4142 4.25 21.75 4.58579 21.75 5C21.75 5.41421 21.4142 5.75 21 5.75H11C10.5858 5.75 10.25 5.41421 10.25 5Z" fill="#202120"/>
<path d="M10.25 12C10.25 11.5858 10.5858 11.25 11 11.25H21C21.4142 11.25 21.75 11.5858 21.75 12C21.75 12.4142 21.4142 12.75 21 12.75H11C10.5858 12.75 10.25 12.4142 10.25 12Z" fill="#202120"/>
<path d="M2.46967 16.4697C2.76256 16.1768 3.23744 16.1768 3.53033 16.4697L5 17.9393L6.46967 16.4697C6.76256 16.1768 7.23744 16.1768 7.53033 16.4697C7.82322 16.7626 7.82322 17.2374 7.53033 17.5303L6.06066 19L7.53033 20.4697C7.82322 20.7626 7.82322 21.2374 7.53033 21.5303C7.23744 21.8232 6.76256 21.8232 6.46967 21.5303L5 20.0607L3.53033 21.5303C3.23744 21.8232 2.76256 21.8232 2.46967 21.5303C2.17678 21.2374 2.17678 20.7626 2.46967 20.4697L3.93934 19L2.46967 17.5303C2.17678 17.2374 2.17678 16.7626 2.46967 16.4697Z" fill="#202120"/>
<path d="M8.55735 9.49812C8.83454 9.80592 8.80971 10.2801 8.50191 10.5573L5.17491 13.5533C4.88967 13.8102 4.45653 13.8102 4.17125 13.5534L2.51825 12.0654C2.21039 11.7883 2.18548 11.3141 2.46261 11.0062C2.73973 10.6984 3.21395 10.6735 3.52181 10.9506L4.67293 11.9868L7.49815 9.44267C7.80595 9.16549 8.28017 9.19031 8.55735 9.49812Z" fill="#202120"/>
<path d="M11 18.25C10.5858 18.25 10.25 18.5858 10.25 19C10.25 19.4142 10.5858 19.75 11 19.75H21C21.4142 19.75 21.75 19.4142 21.75 19C21.75 18.5858 21.4142 18.25 21 18.25H11Z" fill="#202120"/>
</svg>
