<svg width="24" height="24" viewBox="0 0 24 24" fill="none" xmlns="http://www.w3.org/2000/svg">
<path d="M6 3.75C4.75721 3.75 3.75 4.75721 3.75 6V15C3.75 16.2428 4.75721 17.25 6 17.25H9C9.41421 17.25 9.75 17.5858 9.75 18C9.75 18.4142 9.41421 18.75 9 18.75H6C3.92879 18.75 2.25 17.0712 2.25 15V6C2.25 3.92879 3.92879 2.25 6 2.25H18C20.0712 2.25 21.75 3.92879 21.75 6V10C21.75 10.4142 21.4142 10.75 21 10.75C20.5858 10.75 20.25 10.4142 20.25 10V6C20.25 4.75721 19.2428 3.75 18 3.75H6Z" fill="#202120"/>
<path d="M7 10.75C6.58579 10.75 6.25 11.0858 6.25 11.5C6.25 11.9142 6.58579 12.25 7 12.25H10C10.4142 12.25 10.75 11.9142 10.75 11.5C10.75 11.0858 10.4142 10.75 10 10.75H7Z" fill="#202120"/>
<path d="M6.25 7C6.25 6.58579 6.58579 6.25 7 6.25H16C16.4142 6.25 16.75 6.58579 16.75 7C16.75 7.41421 16.4142 7.75 16 7.75H7C6.58579 7.75 6.25 7.41421 6.25 7Z" fill="#202120"/>
<path d="M19.0864 15.6927C19.3793 15.9856 19.3793 16.4604 19.0864 16.7533L17.1414 18.6983C17.0008 18.839 16.81 18.918 16.6111 18.918C16.4122 18.918 16.2214 18.839 16.0808 18.6983L14.9138 17.5313C14.6209 17.2384 14.6209 16.7636 14.9138 16.4707C15.2067 16.1778 15.6815 16.1778 15.9744 16.4707L16.6111 17.1073L18.0258 15.6927C18.3187 15.3998 18.7935 15.3998 19.0864 15.6927Z" fill="#202120"/>
<path fill-rule="evenodd" clip-rule="evenodd" d="M18.2686 11.6802C17.5198 11.1076 16.4796 11.1076 15.7307 11.6801L15.0201 12.223L14.137 12.3406C13.2023 12.4652 12.4656 13.1997 12.3407 14.1359L12.2222 15.0212L11.6793 15.7315C11.1065 16.4806 11.1074 17.52 11.6791 18.2694L12.222 18.9798L12.3397 19.8631C12.4643 20.7978 13.1988 21.5345 14.135 21.6594L15.0209 21.7779L15.7306 22.3208C16.4794 22.8933 17.5197 22.8933 18.2686 22.3208L18.9791 21.778L19.8622 21.6604C20.7969 21.5358 21.5335 20.8013 21.6585 19.8651L21.7769 18.9798L22.3199 18.2695C22.8924 17.5207 22.8923 16.4803 22.3199 15.7315L21.7772 15.0212L21.6595 14.1379C21.5349 13.2032 20.8004 12.4665 19.8642 12.3416L18.9783 12.2231L18.2686 11.6802ZM15.417 13.6834C15.5624 13.6641 15.6929 13.6041 15.7982 13.5162L16.6416 12.8718C16.8527 12.7104 17.1465 12.7105 17.3575 12.8718L18.2254 13.5357C18.3293 13.6151 18.4521 13.666 18.5817 13.6834L19.666 13.8284C19.9296 13.8636 20.1373 14.071 20.1727 14.3361L20.3167 15.417C20.3339 15.5466 20.3848 15.6695 20.4641 15.7734L21.1283 16.6425C21.2897 16.8536 21.2897 17.1474 21.1283 17.3585L20.5223 18.151L20.4808 18.2052L20.4755 18.212C20.3923 18.3154 20.3355 18.442 20.3167 18.5826L20.1717 19.6669C20.1365 19.9305 19.9292 20.1382 19.664 20.1736L18.5821 20.3176C18.4368 20.3369 18.3063 20.3969 18.2009 20.4848L17.3575 21.1292C17.1465 21.2906 16.8527 21.2905 16.6416 21.1292L15.7738 20.4653C15.6699 20.3859 15.5471 20.335 15.4175 20.3176L14.3332 20.1726C14.0696 20.1374 13.8619 19.93 13.8265 19.6649L13.6825 18.584C13.6653 18.4544 13.6144 18.3315 13.535 18.2276L12.8712 17.3589C12.7091 17.1463 12.7097 16.8533 12.8709 16.6425L13.4769 15.85L13.5184 15.7958L13.5236 15.789C13.6069 15.6856 13.6637 15.559 13.6825 15.4184L13.8275 14.3341C13.8627 14.0705 14.0701 13.8628 14.3352 13.8274L15.417 13.6834Z" fill="#202120"/>
</svg>
