<svg width="24" height="24" viewBox="0 0 24 24" fill="none" xmlns="http://www.w3.org/2000/svg">
<path fill-rule="evenodd" clip-rule="evenodd" d="M13.0247 3.69234C15.0365 1.68174 18.2973 1.68152 20.3083 3.6925C22.3189 5.70427 22.3192 8.96518 20.3083 10.9762L17.9753 13.3092C17.6824 13.602 17.2075 13.602 16.9146 13.3092C16.6217 13.0163 16.6217 12.5414 16.9146 12.2485L19.2476 9.9155C20.6726 8.49047 20.6728 6.17923 19.2474 4.753C17.8225 3.32819 15.5114 3.32796 14.0853 4.75316L11.7523 7.08616C11.4594 7.37905 10.9845 7.37905 10.6916 7.08616C10.3987 6.79326 10.3987 6.31839 10.6916 6.0255L13.0247 3.69234ZM15.6402 8.36054C15.9331 8.65343 15.9331 9.12831 15.6402 9.4212L9.42022 15.6412C9.12733 15.9341 8.65246 15.9341 8.35956 15.6412C8.06667 15.3483 8.06667 14.8734 8.35956 14.5805L14.5796 8.36054C14.8725 8.06765 15.3473 8.06765 15.6402 8.36054ZM7.08535 11.7532C7.37824 11.4603 7.37824 10.9855 7.08535 10.6926C6.79245 10.3997 6.31758 10.3997 6.02469 10.6926L3.69169 13.0256C1.68071 15.0365 1.68108 18.2975 3.69169 20.3092C5.70267 22.3202 8.96357 22.3198 10.9753 20.3092L13.3083 17.9762C13.6012 17.6833 13.6012 17.2085 13.3083 16.9156C13.0155 16.6227 12.5406 16.6227 12.2477 16.9156L9.91469 19.2486C8.4885 20.6738 6.17748 20.6735 4.7525 19.2487C3.3271 17.8225 3.32733 15.5113 4.75235 14.0862L7.08535 11.7532Z" fill="#323232"/>
</svg>
