<svg width="24" height="24" viewBox="0 0 24 24" fill="none" xmlns="http://www.w3.org/2000/svg">
<path fill-rule="evenodd" clip-rule="evenodd" d="M15.4166 9.9183V8.66667C15.4166 6.77979 13.8868 5.25 11.9999 5.25C10.113 5.25 8.58325 6.77979 8.58325 8.66667V9.9183C7.47103 9.96202 6.58325 10.877 6.58325 12V16.6667C6.58325 17.8175 7.5157 18.75 8.66659 18.75H15.3333C16.4841 18.75 17.4166 17.8175 17.4166 16.6667V12C17.4166 10.877 16.5288 9.96202 15.4166 9.9183ZM11.9999 6.75C10.9415 6.75 10.0833 7.60821 10.0833 8.66667V9.91666H13.9166V8.66667C13.9166 7.60821 13.0584 6.75 11.9999 6.75Z" fill="#202120"/>
</svg>
