<svg width="24" height="24" viewBox="0 0 24 24" fill="none" xmlns="http://www.w3.org/2000/svg">
<path d="M11.75 21C11.75 21.4142 11.4142 21.75 11 21.75H9C6.37679 21.75 4.25 19.6232 4.25 17V7C4.25 4.37679 6.37679 2.25 9 2.25H11C11.4142 2.25 11.75 2.58579 11.75 3C11.75 3.41421 11.4142 3.75 11 3.75L9 3.75C7.20521 3.75 5.75 5.20521 5.75 7L5.75 17C5.75 18.7948 7.20521 20.25 9 20.25H11C11.4142 20.25 11.75 20.5858 11.75 21Z" fill="#202120"/>
<path d="M9.25 12C9.25 11.5858 9.58579 11.25 10 11.25L18.1891 11.25L15.4696 8.5303C15.1768 8.23739 15.1768 7.76252 15.4697 7.46964C15.7626 7.17676 16.2375 7.17679 16.5304 7.4697L20.5156 11.4553C20.66 11.592 20.75 11.7855 20.75 12C20.75 12.0518 20.7448 12.1023 20.7348 12.1512C20.7064 12.2903 20.6382 12.4229 20.5303 12.5308L16.5303 16.5304C16.2374 16.8232 15.7625 16.8232 15.4696 16.5303C15.1768 16.2374 15.1768 15.7625 15.4697 15.4696L18.1896 12.75L10 12.75C9.58579 12.75 9.25 12.4142 9.25 12Z" fill="#202120"/>
</svg>
