<svg width="24" height="24" viewBox="0 0 24 24" fill="none" xmlns="http://www.w3.org/2000/svg">
<path d="M5.49731 7.24838C5.0831 7.24838 4.74731 7.58416 4.74731 7.99838C4.74731 8.41259 5.0831 8.74838 5.49731 8.74838H18.5024C18.9166 8.74838 19.2524 8.41259 19.2524 7.99838C19.2524 7.58416 18.9166 7.24838 18.5024 7.24838H5.49731Z" fill="#202120"/>
<path d="M4.74756 12C4.74756 11.5858 5.08335 11.25 5.49756 11.25H18.5026C18.9168 11.25 19.2526 11.5858 19.2526 12C19.2526 12.4143 18.9168 12.75 18.5026 12.75H5.49756C5.08335 12.75 4.74756 12.4143 4.74756 12Z" fill="#202120"/>
<path d="M4.74756 16.0017C4.74756 15.5875 5.08335 15.2517 5.49756 15.2517H18.5026C18.9168 15.2517 19.2526 15.5875 19.2526 16.0017C19.2526 16.4159 18.9168 16.7517 18.5026 16.7517H5.49756C5.08335 16.7517 4.74756 16.4159 4.74756 16.0017Z" fill="#202120"/>
</svg>
