<svg width="24" height="24" viewBox="0 0 24 24" fill="none" xmlns="http://www.w3.org/2000/svg">
<path fill-rule="evenodd" clip-rule="evenodd" d="M18.3351 3.05396L13.523 6.26199H5.875C3.59679 6.26199 1.75 8.10878 1.75 10.387C1.75 12.6652 3.59679 14.512 5.875 14.512H6.36479L7.07633 18.7803C7.31464 20.2132 8.55373 21.262 10.0051 21.262C11.8397 21.262 13.2349 19.6146 12.9339 17.8048L12.3854 14.512H13.523L18.3354 17.7203C19.581 18.5495 21.2501 17.6589 21.2501 16.16V4.615C21.2501 3.11727 19.5816 2.22405 18.3351 3.05396ZM14.5 7.41344V13.3606L19.1667 16.4717C19.4172 16.6382 19.7501 16.459 19.7501 16.16V4.615C19.7501 4.31476 19.4162 4.13633 19.1667 4.30229L14.5 7.41344ZM13 13.012V7.76199H5.875C4.42521 7.76199 3.25 8.93721 3.25 10.387C3.25 11.8368 4.42521 13.012 5.875 13.012H6.98792C6.99668 13.0118 7.00541 13.0118 7.01411 13.012H11.4879C11.4967 13.0118 11.5054 13.0118 11.5141 13.012H13ZM7.88549 14.512L8.55591 18.5337C8.67374 19.2426 9.28663 19.762 10.0051 19.762C10.9125 19.762 11.6032 18.9473 11.4543 18.0512L10.8647 14.512H7.88549Z" fill="#202120"/>
</svg>
