<svg width="24" height="24" viewBox="0 0 24 24" fill="none" xmlns="http://www.w3.org/2000/svg">
<path d="M4.06855 10C5.21099 10 6.13711 10.8954 6.13711 12C6.13711 13.1046 5.21099 14 4.06855 14C2.92612 14 2 13.1046 2 12C2 10.8954 2.92612 10 4.06855 10Z" fill="#202120"/>
<path d="M14.0686 12C14.0686 10.8954 13.1424 10 12 10C10.8576 10 9.93145 10.8954 9.93145 12C9.93145 13.1046 10.8576 14 12 14C13.1424 14 14.0686 13.1046 14.0686 12Z" fill="#202120"/>
<path d="M22 12C22 10.8954 21.0739 10 19.9314 10C18.789 10 17.8629 10.8954 17.8629 12C17.8629 13.1046 18.789 14 19.9314 14C21.0739 14 22 13.1046 22 12Z" fill="#202120"/>
</svg>
