<svg width="24" height="24" viewBox="0 0 24 24" fill="none" xmlns="http://www.w3.org/2000/svg">
<path fill-rule="evenodd" clip-rule="evenodd" d="M19.5148 8.56283C19.6668 8.46371 19.6659 8.24081 19.5131 8.14293L12.3284 3.5395C12.2456 3.48644 12.1394 3.48687 12.057 3.5406L4.92536 8.19185C4.77339 8.29096 4.77429 8.51387 4.92706 8.61175L12.1118 13.2152C12.1946 13.2682 12.3008 13.2678 12.3832 13.2141L19.5148 8.56283ZM20.3223 6.87994C21.3917 7.56512 21.398 9.12542 20.3342 9.81923L13.2026 14.4705C12.6259 14.8466 11.8823 14.8496 11.3025 14.4782L4.11783 9.87474C3.04846 9.18956 3.04215 7.62926 4.10594 6.93545L11.2375 2.2842C11.8143 1.90807 12.5579 1.90506 13.1376 2.27651L20.3223 6.87994ZM21.3577 12.2237C21.5766 12.5754 21.469 13.0379 21.1173 13.2568L13.1747 18.2006C12.6094 18.5524 11.8934 18.553 11.3276 18.202L3.35481 13.2574C3.0028 13.0391 2.89442 12.5768 3.11273 12.2248C3.33104 11.8728 3.79338 11.7644 4.14539 11.9827L12.1182 16.9273C12.199 16.9774 12.3013 16.9774 12.382 16.9271L20.3247 11.9833C20.6763 11.7644 21.1389 11.8721 21.3577 12.2237ZM21.1168 16.9695C21.4686 16.7509 21.5767 16.2885 21.3581 15.9367C21.1395 15.5848 20.6771 15.4768 20.3252 15.6954L12.3823 20.6297C12.3017 20.6798 12.1996 20.6798 12.1188 20.6299L4.14492 15.6947C3.79271 15.4767 3.33047 15.5855 3.11248 15.9377C2.89449 16.2899 3.0033 16.7522 3.35552 16.9702L11.3294 21.9053C11.8946 22.2552 12.6092 22.2546 13.1739 21.9038L21.1168 16.9695Z" fill="#202120"/>
</svg>
