<svg width="24" height="24" viewBox="0 0 24 24" fill="none" xmlns="http://www.w3.org/2000/svg">
<path fill-rule="evenodd" clip-rule="evenodd" d="M9.12337 9.1236C10.5739 7.67308 12.9257 7.67308 14.3762 9.1236C15.8267 10.5741 15.8267 12.9259 14.3762 14.3764C12.9257 15.8269 10.5739 15.8269 9.12337 14.3764C7.67285 12.9259 7.67285 10.5741 9.12337 9.1236ZM10.1335 10.1338C11.0262 9.24115 12.4734 9.24115 13.366 10.1338C14.2586 11.0264 14.2586 12.4736 13.366 13.3662C12.4734 14.2589 11.0262 14.2589 10.1335 13.3662C9.24092 12.4736 9.24092 11.0264 10.1335 10.1338Z" fill="#202120"/>
<path fill-rule="evenodd" clip-rule="evenodd" d="M11.7498 4C9.78644 4 7.88168 4.84876 6.24909 6.11043C4.61239 7.37528 3.19966 9.09151 2.2081 10.9253C1.93118 11.4385 1.93085 12.0598 2.20777 12.5731C3.19932 14.4074 4.61234 16.1244 6.24906 17.3894C7.88167 18.6512 9.78644 19.5 11.7498 19.5C13.7132 19.5 15.618 18.6512 17.2506 17.3896C18.8873 16.1247 20.3 14.4085 21.2916 12.5747C21.5685 12.0615 21.5688 11.4402 21.2919 10.9269C20.3003 9.09261 18.8873 7.37557 17.2506 6.11058C15.618 4.84876 13.7132 4 11.7498 4ZM3.52777 11.6383C4.4282 9.97325 5.70888 8.42363 7.16632 7.29732C8.62798 6.16774 10.2182 5.5 11.7498 5.5C13.2814 5.5 14.8717 6.16774 16.3333 7.29742C17.7908 8.42389 19.0715 9.97382 19.972 11.6395C20.0087 11.7079 20.0088 11.7928 19.9721 11.8613C19.0717 13.5265 17.7909 15.0763 16.3333 16.2027C14.8717 17.3323 13.2814 18 11.7498 18C10.2182 18 8.62799 17.3323 7.16635 16.2026C5.70891 15.0761 4.42821 13.5263 3.52778 11.8607C3.49085 11.7921 3.49084 11.707 3.52777 11.6383Z" fill="#202120"/>
</svg>
