<svg width="24" height="24" viewBox="0 0 24 24" fill="none" xmlns="http://www.w3.org/2000/svg">
<path fill-rule="evenodd" clip-rule="evenodd" d="M12.0001 4.25C10.0367 4.25 8.13193 5.09876 6.49932 6.36058C4.86261 7.62557 3.44988 9.34208 2.45832 11.1763C2.1814 11.6896 2.18111 12.3108 2.45803 12.8241C3.31458 14.4077 4.48518 15.9039 5.84215 17.0973L4.46977 18.4697C4.17688 18.7626 4.17688 19.2374 4.46977 19.5303C4.76266 19.8232 5.23754 19.8232 5.53043 19.5303L7.46102 17.5997C7.47779 17.5844 7.49399 17.5683 7.50954 17.5512L10.2965 14.7642L10.3035 14.7573L10.3104 14.7504L14.7515 10.3092L14.7585 10.3023L14.7654 10.2954L17.5662 7.49458C17.5713 7.48961 17.5763 7.48456 17.5813 7.47942L19.5304 5.53033C19.8233 5.23744 19.8233 4.76256 19.5304 4.46967C19.2375 4.17678 18.7627 4.17678 18.4698 4.46967L16.9684 5.97105C15.4607 4.92705 13.7533 4.25 12.0001 4.25ZM15.8879 7.05155C14.6254 6.22501 13.2916 5.75 12.0001 5.75C10.4685 5.75 8.87825 6.41774 7.41661 7.54742C5.95917 8.67385 4.67848 10.2237 3.77804 11.8893C3.74112 11.9579 3.74111 12.043 3.77801 12.1116C4.5718 13.5791 5.66059 14.9565 6.90525 16.0342L8.76345 14.176C7.74157 12.6594 7.90137 10.5832 9.24286 9.24167C10.5843 7.90019 12.6606 7.74039 14.1772 8.76227L15.8879 7.05155ZM10.3035 10.3023C11.0554 9.55043 12.1827 9.40183 13.0829 9.85652L9.85771 13.0817C9.40301 12.1815 9.55162 11.0542 10.3035 10.3023Z" fill="#202120"/>
<path d="M18.5921 8.35072C18.9071 8.0817 19.3805 8.11894 19.6495 8.4339C20.3722 9.28006 21.017 10.2054 21.5419 11.1763C21.8189 11.6895 21.8192 12.3109 21.5423 12.8241L21.5356 12.8362C20.5444 14.6656 19.1341 16.3773 17.5008 17.6396C15.8682 18.9012 13.9635 19.75 12.0001 19.75L11.9988 19.75C11.0512 19.7498 10.1168 19.5494 9.22543 19.2044C8.83914 19.0549 8.6472 18.6206 8.79672 18.2343C8.94623 17.848 9.38058 17.656 9.76687 17.8056C10.5131 18.0944 11.2642 18.25 12.0002 18.25L12.0013 18.25C13.5325 18.2497 15.1223 17.582 16.5836 16.4527C18.0412 15.3263 19.3219 13.7765 20.2224 12.1113L20.225 12.1065C20.2592 12.0388 20.2583 11.9562 20.2223 11.8893C19.7513 11.0183 19.1681 10.1798 18.5089 9.40811C18.2399 9.09315 18.2771 8.61974 18.5921 8.35072Z" fill="#202120"/>
</svg>
