<svg width="24" height="24" viewBox="0 0 24 24" fill="none" xmlns="http://www.w3.org/2000/svg">
<path fill-rule="evenodd" clip-rule="evenodd" d="M5.972 2.49915C5.15921 2.49915 4.5 3.15836 4.5 3.97115V19.5271C4.5 20.3399 5.15921 20.9991 5.972 20.9991H17.528C18.3408 20.9991 19 20.3399 19 19.5271V3.97115C19 3.15836 18.3408 2.49915 17.528 2.49915H5.972ZM3 3.97115C3 2.32993 4.33079 0.999146 5.972 0.999146H17.528C19.1692 0.999146 20.5 2.32993 20.5 3.97115V19.5271C20.5 21.1684 19.1692 22.4991 17.528 22.4991H5.972C4.33079 22.4991 3 21.1684 3 19.5271V3.97115ZM7.56546 8.99915C7.81519 7.58648 8.75857 6.41865 10.0334 5.85785C9.50265 6.83608 9.18787 7.90882 9.08907 8.99915H7.56546ZM6 9.74915C6 6.56693 8.56779 3.99915 11.75 3.99915C14.9322 3.99915 17.5 6.56693 17.5 9.74915C17.5 12.9314 14.9322 15.4991 11.75 15.4991H11.7499H11.748C8.56669 15.4981 6 12.9307 6 9.74915ZM15.9345 8.99915C15.6848 7.58641 14.7413 6.41853 13.4664 5.85776C13.9972 6.83602 14.312 7.90879 14.4108 8.99915H15.9345ZM14.4108 10.4991H15.9345C15.6848 11.9119 14.7413 13.0798 13.4664 13.6405C13.9972 12.6623 14.312 11.5895 14.4108 10.4991ZM12.9032 8.99915C12.7825 7.9111 12.3981 6.84994 11.7499 5.93318C11.1018 6.84994 10.7174 7.9111 10.5966 8.99915H12.9032ZM12.9032 10.4991C12.7825 11.5872 12.3981 12.6483 11.7499 13.5651C11.1018 12.6483 10.7174 11.5872 10.5966 10.4991H12.9032ZM9.08908 10.4991C9.18788 11.5895 9.50266 12.6622 10.0334 13.6404C8.75857 13.0796 7.81519 11.9118 7.56546 10.4991H9.08908ZM8.75 17.4991C8.33579 17.4991 8 17.8349 8 18.2491C8 18.6634 8.33579 18.9991 8.75 18.9991H14.75C15.1642 18.9991 15.5 18.6634 15.5 18.2491C15.5 17.8349 15.1642 17.4991 14.75 17.4991H8.75Z" fill="#202120"/>
</svg>
