<svg width="24" height="24" viewBox="0 0 24 24" fill="none" xmlns="http://www.w3.org/2000/svg">
<path fill-rule="evenodd" clip-rule="evenodd" d="M17 20C15.896 20 15 19.104 15 18V6C15 4.896 15.896 4 17 4C18.104 4 19 4.896 19 6V18C19 19.104 18.104 20 17 20Z" stroke="#323232" stroke-width="1.5" stroke-linecap="round" stroke-linejoin="round"/>
<path fill-rule="evenodd" clip-rule="evenodd" d="M7 20V20C5.896 20 5 19.104 5 18V6C5 4.896 5.896 4 7 4V4C8.104 4 9 4.896 9 6V18C9 19.104 8.104 20 7 20Z" stroke="#323232" stroke-width="1.5" stroke-linecap="round" stroke-linejoin="round"/>
</svg>
