<svg width="24" height="24" viewBox="0 0 24 24" fill="none" xmlns="http://www.w3.org/2000/svg">
<path d="M16.8505 21.05C16.5505 21.05 16.3505 21.05 16.0505 20.95C13.1505 20.45 10.1505 18.75 7.75047 16.25C5.35047 13.85 3.65047 10.95 3.05047 8.05C2.85047 6.75 3.25047 5.35 4.15047 4.45L4.85047 3.75C5.85047 2.75 7.65047 2.75 8.75047 3.75L9.85047 5.05C10.2505 5.45 10.5505 6.05 10.4505 6.65C10.4505 7.25 10.1505 7.85 9.75047 8.25L8.95047 9.05C9.55047 10.35 10.3505 11.55 11.4505 12.65C12.5505 13.75 13.7505 14.55 15.0505 15.15L15.9505 14.25C16.7505 13.35 18.2505 13.35 19.1505 14.25L20.3505 15.45C21.4505 16.55 21.4505 18.25 20.3505 19.35L19.6505 20.05C18.8505 20.65 17.8505 21.05 16.8505 21.05ZM6.75047 4.55C6.45047 4.55 6.15047 4.65 5.85047 4.95L5.25047 5.55C4.65047 6.05 4.45047 6.95 4.55047 7.75C5.05047 10.35 6.55047 13.05 8.85047 15.25C11.0505 17.45 13.7505 19.05 16.3505 19.55C17.1505 19.75 17.9505 19.45 18.5505 18.95L19.2505 18.25C19.7505 17.75 19.7505 16.95 19.2505 16.45L18.0505 15.25C17.7505 14.95 17.2505 14.95 16.9505 15.25L16.0505 16.15C15.6505 16.55 14.9505 16.75 14.3505 16.45C12.8505 15.85 11.4505 14.85 10.3505 13.65C9.15047 12.45 8.15047 11.05 7.55047 9.65C7.35047 9.15 7.45047 8.45 7.95047 8.05L8.75047 7.25C8.95047 7.05 9.05047 6.85 9.05047 6.55C9.05047 6.35 8.95047 6.25 8.85047 6.05L7.65047 4.85C7.35047 4.65 7.05047 4.55 6.75047 4.55Z" fill="#202120"/>
</svg>
