<svg width="24" height="24" viewBox="0 0 24 24" fill="none" xmlns="http://www.w3.org/2000/svg">
<path d="M2.75 4C2.75 3.58579 3.08579 3.25 3.5 3.25H20.5C20.9142 3.25 21.25 3.58579 21.25 4C21.25 4.41421 20.9142 4.75 20.5 4.75H3.5C3.08579 4.75 2.75 4.41421 2.75 4Z" fill="#202120"/>
<path d="M2.75 8C2.75 7.58579 3.08579 7.25 3.5 7.25H20.5C20.9142 7.25 21.25 7.58579 21.25 8C21.25 8.41421 20.9142 8.75 20.5 8.75H3.5C3.08579 8.75 2.75 8.41421 2.75 8Z" fill="#202120"/>
<path fill-rule="evenodd" clip-rule="evenodd" d="M4 11.25C3.0335 11.25 2.25 12.0335 2.25 13V19C2.25 20.5188 3.48122 21.75 5 21.75H19C20.5188 21.75 21.75 20.5188 21.75 19V13C21.75 12.0335 20.9665 11.25 20 11.25H17.6213C17.0246 11.25 16.4523 11.4871 16.0303 11.909L14.909 13.0303C14.7684 13.171 14.5776 13.25 14.3787 13.25H9.62132C9.42241 13.25 9.23164 13.171 9.09099 13.0303L7.96967 11.909C7.54771 11.4871 6.97542 11.25 6.37868 11.25H4ZM3.75 13C3.75 12.8619 3.86193 12.75 4 12.75H6.37868C6.57759 12.75 6.76836 12.829 6.90901 12.9697L8.03033 14.091C8.45229 14.5129 9.02458 14.75 9.62132 14.75H14.3787C14.9754 14.75 15.5477 14.5129 15.9697 14.091L17.091 12.9697C17.2316 12.829 17.4224 12.75 17.6213 12.75H20C20.1381 12.75 20.25 12.8619 20.25 13V19C20.25 19.6904 19.6904 20.25 19 20.25H5C4.30964 20.25 3.75 19.6904 3.75 19V13Z" fill="#202120"/>
</svg>
