<svg width="24" height="24" viewBox="0 0 24 24" fill="none" xmlns="http://www.w3.org/2000/svg">
<path fill-rule="evenodd" clip-rule="evenodd" d="M17.8336 6.16637C14.6118 2.94454 9.3882 2.94454 6.16637 6.16637C2.94455 9.38818 2.94454 14.6118 6.16637 17.8336C9.38818 21.0554 14.6118 21.0554 17.8336 17.8336C21.0553 14.6119 21.0551 9.38823 17.8336 6.16637C17.8337 6.16648 17.8335 6.16625 17.8336 6.16637ZM18.8943 5.10571C22.7019 8.91332 22.7019 15.0867 18.8943 18.8943C15.0867 22.7019 8.9133 22.7019 5.10571 18.8943C1.2981 15.0867 1.2981 8.9133 5.10571 5.10571C8.91332 1.2981 15.0867 1.2981 18.8943 5.10571Z" fill="#202120"/>
</svg>
