<svg width="24" height="24" viewBox="0 0 24 24" fill="none" xmlns="http://www.w3.org/2000/svg">
<path d="M12 17C14.7614 17 17 14.7614 17 12C17 9.23858 14.7614 7 12 7C9.23858 7 7 9.23858 7 12C7 14.7614 9.23858 17 12 17Z" fill="#202120"/>
<path fill-rule="evenodd" clip-rule="evenodd" d="M18.8943 18.8943C22.7019 15.0867 22.7019 8.91332 18.8943 5.10571C15.0867 1.2981 8.91332 1.2981 5.10571 5.10571C1.2981 8.9133 1.2981 15.0867 5.10571 18.8943C8.9133 22.7019 15.0867 22.7019 18.8943 18.8943ZM6.16637 6.16637C9.3882 2.94454 14.6118 2.94454 17.8336 6.16637C21.0551 9.38823 21.0553 14.6119 17.8336 17.8336C14.6118 21.0554 9.38818 21.0554 6.16637 17.8336C2.94454 14.6118 2.94455 9.38818 6.16637 6.16637Z" fill="#202120"/>
</svg>
