<svg width="24" height="24" viewBox="0 0 24 24" fill="none" xmlns="http://www.w3.org/2000/svg">
<path d="M12 3C7.02903 3 3 7.02903 3 12C3 12.5455 3.05669 13.0713 3.14637 13.5759C3.21328 13.9524 3.5727 14.2033 3.94915 14.1364C4.3256 14.0695 4.57653 13.7101 4.50962 13.3336C4.43131 12.893 4.38461 12.4495 4.38461 12C4.38461 7.79374 7.79373 4.38462 12 4.38462C14.0412 4.38462 15.8925 5.19011 17.2596 6.50124H16.788C16.4056 6.50124 16.0957 6.81119 16.0957 7.19354C16.0957 7.57589 16.4056 7.88585 16.788 7.88585H18.7603C18.7658 7.88592 18.7713 7.88592 18.7769 7.88585H18.9932C19.3756 7.88585 19.6855 7.57589 19.6855 7.19354V4.99016C19.6855 4.60781 19.3756 4.29785 18.9932 4.29785C18.6109 4.29785 18.3009 4.60781 18.3009 4.99016V5.58268C16.6795 3.98773 14.457 3 12 3Z" fill="#202120"/>
<path d="M5.00683 16.1142C4.62448 16.1142 4.31453 16.4241 4.31453 16.8065V19.0098C4.31453 19.3922 4.62448 19.7022 5.00683 19.7022C5.38918 19.7022 5.69914 19.3922 5.69914 19.0098V18.4174C7.3205 20.0123 9.54302 21 12 21C16.971 21 21 16.971 21 12C21 11.4545 20.9433 10.9287 20.8536 10.4241C20.7867 10.0476 20.4273 9.7967 20.0509 9.86361C19.6744 9.93051 19.4235 10.2899 19.4904 10.6664C19.5687 11.107 19.6154 11.5505 19.6154 12C19.6154 16.2063 16.2063 19.6154 12 19.6154C9.95879 19.6154 8.10753 18.8099 6.74046 17.4988H7.21206C7.59441 17.4988 7.90437 17.1888 7.90437 16.8065C7.90437 16.4241 7.59441 16.1142 7.21206 16.1142H5.00683Z" fill="#202120"/>
</svg>
