<svg width="24" height="24" viewBox="0 0 24 24" fill="none" xmlns="http://www.w3.org/2000/svg">
<path d="M4.329 9.46971H3.69277C3.31017 9.46971 3 9.15953 3 8.77691V6.00454C3 5.62192 3.31017 5.31174 3.69277 5.31174C4.07538 5.31174 4.38555 5.62192 4.38555 6.00454V7.20342C6.46957 3.88958 10.5256 2.25189 14.407 3.32924C18.7685 4.53985 21.5521 8.80188 20.9075 13.2823C20.2629 17.7628 16.3907 21.0672 11.8648 20.999C7.33886 20.9308 3.56796 17.5113 3.05859 13.0134C3.01553 12.6332 3.28882 12.2901 3.669 12.2471C4.04918 12.204 4.39228 12.4773 4.43533 12.8575C4.86628 16.6628 8.05658 19.5558 11.8856 19.6135C15.7147 19.6712 18.9907 16.8756 19.5361 13.085C20.0814 9.2944 17.7265 5.68859 14.0365 4.66438C10.6976 3.73763 7.20614 5.18549 5.47081 8.08411H6.46502C6.84763 8.08411 7.1578 8.39429 7.1578 8.77691C7.1578 9.15953 6.84763 9.46971 6.46502 9.46971H4.36095C4.35033 9.46996 4.33967 9.46996 4.329 9.46971Z" fill="#202120"/>
</svg>
