<svg width="24" height="24" viewBox="0 0 24 24" fill="none" xmlns="http://www.w3.org/2000/svg">
<path fill-rule="evenodd" clip-rule="evenodd" d="M10.3374 9.43687L11.3828 8.39143C11.0059 6.67906 11.4623 4.81196 12.8046 3.46967C14.2498 2.02441 16.304 1.60542 18.1184 2.14961L18.1266 2.15209C18.2555 2.19235 18.3985 2.26666 18.5217 2.3921L18.6802 2.55067C19.0511 2.92153 19.0511 3.52333 18.6803 3.89423L16.5755 5.9999L17.8349 7.25934L19.9406 5.15367C20.3115 4.78277 20.9133 4.78277 21.2842 5.15367L21.2859 5.1553L21.4439 5.31432C21.5575 5.42617 21.6412 5.56602 21.686 5.71896C22.2291 7.53273 21.8098 9.58572 20.3652 11.0303C19.2886 12.1069 17.8744 12.6136 16.4732 12.5776L20.3653 16.4697C21.4862 17.5906 21.4862 19.4094 20.3653 20.5303C19.2444 21.6512 17.4255 21.6512 16.3046 20.5303L11.8349 16.0606L7.40124 20.4943C6.31996 21.5756 4.53364 21.6785 3.3795 20.6026C2.18357 19.4888 2.15987 17.6157 3.30427 16.47L9.27672 10.4975L6.52918 7.75H4.55592C3.80269 7.75 3.13362 7.26898 2.89537 6.55306L2.22141 4.53017C2.07143 4.08011 2.18918 3.58508 2.52359 3.25067L3.08559 2.68867C3.42 2.35425 3.91493 2.23648 4.36498 2.38645L6.38757 3.06031C7.1039 3.2987 7.58492 3.96921 7.58492 4.721V6.68441L10.3374 9.43687ZM13.8652 4.53033C14.7216 3.67398 15.8824 3.31581 17.0074 3.44608L14.9845 5.46977C14.6917 5.76268 14.6917 6.23747 14.9846 6.53033L17.3046 8.85033C17.5975 9.14322 18.0723 9.14322 18.3652 8.85033L20.3887 6.82682C20.5192 7.95206 20.1611 9.11315 19.3046 9.96967C18.2632 11.0111 16.7712 11.3154 15.441 10.901C15.1749 10.818 14.8847 10.8896 14.6876 11.0867L6.34058 19.4337C5.79586 19.9784 4.92981 19.9971 4.40196 19.5051C3.83025 18.9728 3.81806 18.0782 4.36555 17.53L10.8162 11.0793C10.8348 11.064 10.8528 11.0477 10.8702 11.0303C10.8875 11.013 10.9039 10.9949 10.9192 10.9764L12.7482 9.14733C12.9454 8.95021 13.0169 8.66003 12.934 8.39388C12.5195 7.06375 12.8238 5.57173 13.8652 4.53033ZM14.8349 13.0606L12.8956 15L17.3653 19.4697C17.9004 20.0048 18.7695 20.0048 19.3046 19.4697C19.8397 18.9346 19.8397 18.0654 19.3046 17.5303L14.8349 13.0606ZM3.69324 4.20233L4.31847 6.07893C4.35234 6.18079 4.44729 6.25 4.55592 6.25H6.08492V4.721C6.08492 4.61293 6.01571 4.51742 5.91427 4.48368L4.03726 3.85832L3.69324 4.20233Z" fill="#202120"/>
</svg>
