<svg width="24" height="24" viewBox="0 0 24 24" fill="none" xmlns="http://www.w3.org/2000/svg">
<path fill-rule="evenodd" clip-rule="evenodd" d="M6.2792 6.1122C8.31812 4.07328 11.6239 4.07328 13.6628 6.1122C15.6916 8.14095 15.7017 11.4239 13.6932 13.4652C13.669 13.4838 13.6457 13.5041 13.6234 13.5261C13.6019 13.5473 13.582 13.5694 13.5636 13.5924C11.5181 15.5342 8.28539 15.502 6.2792 13.4958C4.24027 11.4569 4.24027 8.15113 6.2792 6.1122ZM14.1172 15.0945C11.4797 17.1669 7.6496 16.9875 5.21854 14.5565C2.59382 11.9318 2.59382 7.67626 5.21854 5.05154C7.84325 2.42683 12.0988 2.42683 14.7235 5.05154C17.1833 7.51134 17.3378 11.4034 15.1871 14.0432L20.5341 19.4633C20.825 19.7582 20.8217 20.233 20.5269 20.5239C20.232 20.8148 19.7571 20.8116 19.4662 20.5167L14.1172 15.0945Z" fill="#202120"/>
</svg>
