<svg width="24" height="24" viewBox="0 0 24 24" fill="none" xmlns="http://www.w3.org/2000/svg">
<path d="M15.5995 11.1224C15.8924 10.8295 15.8924 10.3546 15.5995 10.0617C15.3066 9.76882 14.8317 9.76882 14.5388 10.0617L10.9211 13.6794L8.96246 11.7207C8.66957 11.4278 8.19469 11.4278 7.9018 11.7207C7.60891 12.0136 7.60891 12.4885 7.9018 12.7814L10.3908 15.2704C10.5315 15.411 10.7222 15.49 10.9211 15.49C11.0775 15.49 11.2288 15.4412 11.3547 15.352C11.389 15.3278 11.4214 15.3005 11.4515 15.2704L15.5995 11.1224Z" fill="#202120"/>
<path fill-rule="evenodd" clip-rule="evenodd" d="M10.0473 2.62516C11.0516 1.79162 12.4483 1.79161 13.4526 2.62513C15.0564 3.93858 16.9478 4.71687 18.9113 4.88363C18.9205 4.88441 18.9297 4.88536 18.9388 4.88648C19.8806 5.00155 20.4886 5.84861 20.4999 6.72962L20.5001 6.73929L20.5 12.8321C20.5 15.2247 19.1858 17.242 17.6865 18.7726C16.1788 20.3118 14.3963 21.4501 13.2606 22.0953C12.3162 22.6341 11.1879 22.6349 10.2428 22.0973C9.10739 21.4524 7.32438 20.3126 5.81596 18.7726C4.31588 17.2411 3 15.2229 3 12.8321L3.00006 6.72963C3.01141 5.84863 3.61933 5.00159 4.56111 4.88648C4.57026 4.88536 4.57944 4.88441 4.58863 4.88363C6.55215 4.71688 8.44352 3.93859 10.0473 2.62516ZM11.0042 3.7803C11.4535 3.40657 12.0464 3.40657 12.4958 3.7803L12.5 3.78383C12.7206 3.96456 12.9463 4.13663 13.1765 4.29984C14.8493 5.48529 16.7668 6.2031 18.7639 6.37649C18.8404 6.39079 18.9952 6.49488 19 6.74508V12.8321C19 14.6583 17.9918 16.3174 16.6149 17.723C15.2464 19.1201 13.5989 20.1779 12.5197 20.791L12.518 20.7919C12.0334 21.0688 11.4689 21.0691 10.984 20.7932C10.8343 20.7082 10.6735 20.6145 10.504 20.5125C9.45328 19.88 8.06707 18.9272 6.88755 17.723C5.50918 16.3157 4.5 14.6559 4.5 12.8321V6.74506C4.5048 6.49489 4.65961 6.3908 4.73612 6.37649C7.00816 6.17923 9.17716 5.27734 10.9999 3.78385L11.0042 3.7803Z" fill="#202120"/>
</svg>
