<svg width="24" height="24" viewBox="0 0 24 24" fill="none" xmlns="http://www.w3.org/2000/svg">
<path fill-rule="evenodd" clip-rule="evenodd" d="M9.34835 9.34835C10.8128 7.88388 13.1872 7.88388 14.6516 9.34835C16.1161 10.8128 16.1161 13.1872 14.6516 14.6516C13.1872 16.1161 10.8128 16.1161 9.34835 14.6516C7.88388 13.1872 7.88388 10.8128 9.34835 9.34835ZM10.409 10.409C11.2877 9.53033 12.7123 9.53033 13.591 10.409C14.4697 11.2877 14.4697 12.7123 13.591 13.591C12.7123 14.4697 11.2877 14.4697 10.409 13.591C9.53033 12.7123 9.53033 11.2877 10.409 10.409Z" fill="#202120"/>
<path fill-rule="evenodd" clip-rule="evenodd" d="M11.49 2.25C10.3632 2.25 9.45 3.16241 9.45 4.289V4.356C9.45 4.55653 9.32951 4.72813 9.15934 4.7951L9.15103 4.79843L9.12072 4.81072C9.07978 4.82729 9.02892 4.84787 8.97995 4.86904C8.76353 4.95906 8.51681 4.91015 8.35133 4.74467C7.55556 3.9489 6.26396 3.94878 5.46804 4.7443L4.74504 5.4663C3.94914 6.2622 3.94878 7.55444 4.74467 8.35033C4.91058 8.51624 4.95931 8.76382 4.86833 8.98064C4.84122 9.04435 4.81728 9.10488 4.79569 9.16038C4.72868 9.32936 4.55683 9.45 4.356 9.45H4.289C3.16279 9.45 2.25 10.3628 2.25 11.489V12.51C2.25 13.6368 3.16241 14.55 4.289 14.55H4.356C4.55615 14.55 4.72748 14.67 4.79472 14.8397C4.81857 14.901 4.84304 14.9599 4.86403 15.0105L4.86531 15.0135L4.86693 15.0174C4.95846 15.2345 4.90982 15.4825 4.74367 15.6487C3.94778 16.4446 3.94778 17.7364 4.74367 18.5323L5.46567 19.2543C6.26156 20.0502 7.55344 20.0502 8.34933 19.2543C8.51548 19.0882 8.76354 19.0395 8.98059 19.1311L8.98447 19.1327C9.17181 19.2105 9.29017 19.2982 9.35678 19.3772C9.41273 19.4436 9.448 19.52 9.448 19.642V19.709C9.448 20.8352 10.3608 21.748 11.487 21.748H12.508C13.6342 21.748 14.547 20.8352 14.547 19.709V19.642C14.547 19.4419 14.667 19.2705 14.8367 19.2033C14.898 19.1794 14.957 19.1549 15.0076 19.1339L15.0105 19.1327L15.0118 19.1322C15.1069 19.0925 15.198 19.0885 15.3522 19.1408C15.5022 19.1916 15.6393 19.267 15.8351 19.3749C15.8957 19.4082 15.9619 19.4446 16.0358 19.4844C16.2979 19.6253 16.6888 19.8244 17.1397 19.8458C17.6499 19.8701 18.1201 19.6686 18.5333 19.2553L19.2553 18.5333C20.0512 17.7374 20.0512 16.4456 19.2553 15.6497C19.0892 15.4835 19.0405 15.2355 19.1321 15.0184L19.1337 15.0145C19.2115 14.8272 19.2992 14.7088 19.3782 14.6422C19.4446 14.5863 19.521 14.551 19.643 14.551H19.71C20.8362 14.551 21.749 13.6382 21.749 12.512V11.491C21.749 10.3648 20.8362 9.452 19.71 9.452H19.643C19.5215 9.452 19.4449 9.41681 19.3783 9.36061C19.2991 9.29383 19.2113 9.17537 19.1337 8.98846L19.1321 8.98459C19.0405 8.76754 19.0892 8.51948 19.2553 8.35333C20.0512 7.55744 20.0512 6.26556 19.2553 5.46967L18.5333 4.74767C17.7374 3.95178 16.4456 3.95178 15.6497 4.74767C15.4835 4.91382 15.2355 4.96246 15.0184 4.87093L15.0145 4.86931L15.0115 4.86803C14.9615 4.84728 14.9033 4.82314 14.8428 4.79955C14.6695 4.7293 14.55 4.55528 14.55 4.356V4.289C14.55 3.16279 13.6372 2.25 12.511 2.25H11.49ZM10.95 4.289C10.95 3.99159 11.1908 3.75 11.49 3.75H12.511C12.8088 3.75 13.05 3.99121 13.05 4.289V4.356C13.05 5.15587 13.5315 5.89122 14.289 6.19356L14.2952 6.196C14.3395 6.21324 14.3842 6.23177 14.4377 6.25396C15.2162 6.58123 16.113 6.40564 16.7103 5.80833C16.9204 5.59822 17.2626 5.59822 17.4727 5.80833L18.1947 6.53033C18.4048 6.74044 18.4048 7.08256 18.1947 7.29267C17.5973 7.89002 17.4217 8.78697 17.7491 9.56548C18.0258 10.2307 18.6097 10.952 19.643 10.952H19.71C20.0078 10.952 20.249 11.1932 20.249 11.491V12.512C20.249 12.8098 20.0078 13.051 19.71 13.051H19.643C18.6092 13.051 18.0259 13.772 17.7491 14.4375C17.4217 15.216 17.5973 16.113 18.1947 16.7103C18.4048 16.9204 18.4048 17.2626 18.1947 17.4727L17.4727 18.1947C17.3135 18.3538 17.2378 18.3492 17.2137 18.3477L17.211 18.3475C17.131 18.3437 17.0054 18.3027 16.7463 18.1634C16.7092 18.1434 16.6676 18.1203 16.6222 18.0951C16.4128 17.9789 16.1236 17.8183 15.8333 17.72C15.438 17.5861 14.9558 17.5304 14.4347 17.7476C14.3808 17.77 14.3358 17.7887 14.2912 17.806L14.2883 17.8071C13.5285 18.1061 13.047 18.8425 13.047 19.642V19.709C13.047 20.0068 12.8058 20.248 12.508 20.248H11.487C11.1892 20.248 10.948 20.0068 10.948 19.709V19.642C10.948 18.6081 10.2269 18.0249 9.56137 17.7481C8.78289 17.4208 7.886 17.5963 7.28867 18.1937C7.07856 18.4038 6.73644 18.4038 6.52633 18.1937L5.80433 17.4717C5.59422 17.2616 5.59422 16.9194 5.80433 16.7093C6.40164 16.112 6.57723 15.2152 6.24996 14.4367C6.22777 14.3832 6.20924 14.3385 6.19201 14.2942L6.1909 14.2913C5.89187 13.5315 5.15547 13.05 4.356 13.05H4.289C3.99159 13.05 3.75 12.8092 3.75 12.51V11.489C3.75 11.1912 3.99121 10.95 4.289 10.95H4.356C5.15476 10.95 5.89261 10.4691 6.1919 9.70866L6.193 9.70583C6.21306 9.65426 6.23069 9.60994 6.24902 9.5669L6.25007 9.56441C6.57854 8.78546 6.40318 7.88752 5.80533 7.28967C5.59522 7.07956 5.59522 6.73744 5.80533 6.52733L6.52796 5.8057C6.73807 5.59559 7.08056 5.59522 7.29067 5.80533C7.88852 6.40318 8.78646 6.57854 9.56541 6.25007L9.57257 6.24701C9.6042 6.23328 9.63375 6.22131 9.6725 6.20562L9.71327 6.18908C10.4704 5.88888 10.95 5.15385 10.95 4.356V4.289Z" fill="#202120"/>
</svg>
