<svg width="24" height="25" viewBox="0 0 24 25" fill="none" xmlns="http://www.w3.org/2000/svg">
<path d="M11.5499 20.4983H19.1999C20.194 20.4983 20.9999 19.7819 20.9999 18.8983V6.09829C20.9999 5.21464 20.194 4.49829 19.1999 4.49829H10.1999C9.20579 4.49829 8.3999 5.21464 8.3999 6.09829V9.49829" stroke="#202120" stroke-width="1.5" stroke-linecap="round" stroke-linejoin="round"/>
<path fill-rule="evenodd" clip-rule="evenodd" d="M2.99951 18.2483V14.342C2.99951 13.6585 3.31022 13.0121 3.84395 12.5851L6.71291 10.29C7.699 9.50108 9.10018 9.50108 10.0863 10.29L12.9552 12.5851C13.4889 13.0121 13.7995 13.6585 13.7995 14.342V18.2483C13.7995 19.4909 12.7922 20.4983 11.5495 20.4983H5.24951C4.00687 20.4983 2.99951 19.4909 2.99951 18.2483H2.99951Z" stroke="#202120" stroke-width="1.5" stroke-linecap="round" stroke-linejoin="round"/>
<path d="M10.3009 19.5004V16.6992C10.3009 16.099 9.80068 15.5988 9.20043 15.5988H8.09997C7.49972 15.5988 6.99951 16.099 6.99951 16.6992V19.5004" stroke="#202120" stroke-width="1.5" stroke-linecap="round" stroke-linejoin="round"/>
<path d="M11.3999 7.9985H12.8999" stroke="#202120" stroke-width="1.5" stroke-linecap="round" stroke-linejoin="round"/>
<path d="M16.4995 7.9985H17.9995" stroke="#202120" stroke-width="1.5" stroke-linecap="round" stroke-linejoin="round"/>
<path d="M16.4995 11.9985H17.9995" stroke="#202120" stroke-width="1.5" stroke-linecap="round" stroke-linejoin="round"/>
<path d="M16.4995 15.9985H17.9995" stroke="#202120" stroke-width="1.5" stroke-linecap="round" stroke-linejoin="round"/>
</svg>
