<svg width="24" height="24" viewBox="0 0 24 24" fill="none" xmlns="http://www.w3.org/2000/svg">
<path d="M12.5304 17.4647C12.2376 17.1718 11.7627 17.1718 11.4698 17.4647L11.4648 17.4697C11.1719 17.7626 11.1719 18.2374 11.4648 18.5303L11.4698 18.5353C11.7627 18.8282 12.2376 18.8282 12.5304 18.5353L12.5354 18.5303C12.8283 18.2374 12.8283 17.7626 12.5354 17.4697L12.5304 17.4647Z" fill="#202120"/>
<path d="M14.4698 17.4647C14.7627 17.1718 15.2376 17.1718 15.5304 17.4647L15.5354 17.4697C15.8283 17.7626 15.8283 18.2374 15.5354 18.5303L15.5304 18.5353C15.2376 18.8282 14.7627 18.8282 14.4698 18.5353L14.4648 18.5303C14.1719 18.2374 14.1719 17.7626 14.4648 17.4697L14.4698 17.4647Z" fill="#202120"/>
<path d="M9.53045 17.4647C9.23755 17.1718 8.76268 17.1718 8.46979 17.4647L8.46479 17.4697C8.17189 17.7626 8.17189 18.2374 8.46479 18.5303L8.46979 18.5353C8.76268 18.8282 9.23755 18.8282 9.53045 18.5353L9.53545 18.5303C9.82834 18.2374 9.82834 17.7626 9.53545 17.4697L9.53045 17.4647Z" fill="#202120"/>
<path fill-rule="evenodd" clip-rule="evenodd" d="M16 2.25H8C6.48122 2.25 5.25 3.48122 5.25 5V19C5.25 20.5188 6.48122 21.75 8 21.75H16C17.5188 21.75 18.75 20.5188 18.75 19V5C18.75 3.48122 17.5188 2.25 16 2.25ZM8 3.75C7.30964 3.75 6.75 4.30964 6.75 5V19C6.75 19.6904 7.30964 20.25 8 20.25H16C16.6904 20.25 17.25 19.6904 17.25 19V5C17.25 4.30964 16.6904 3.75 16 3.75H15.25V5C15.25 5.69036 14.6904 6.25 14 6.25H10C9.30964 6.25 8.75 5.69036 8.75 5V3.75H8ZM13.75 4.75V3.75H10.25V4.75H13.75Z" fill="#202120"/>
</svg>
