<svg width="24" height="24" viewBox="0 0 24 24" fill="none" xmlns="http://www.w3.org/2000/svg">
<path fill-rule="evenodd" clip-rule="evenodd" d="M11.2907 6.43366L10.639 7.24829H6.61559C5.95255 7.24829 5.3465 7.62297 5.05003 8.2159L3.84153 10.6328C3.6146 11.0867 3.5958 11.6167 3.78998 12.0855C3.98417 12.5543 4.37223 12.9158 4.85362 13.0762L6.76058 13.7119L6.77639 13.717C6.85816 13.8785 6.96635 14.0296 7.10058 14.1639L9.83595 16.8992C9.9702 17.0335 10.1214 17.1417 10.2829 17.2234L10.288 17.2392L10.9236 19.1462C11.0841 19.6276 11.4455 20.0157 11.9143 20.2099C12.3831 20.404 12.9132 20.3852 13.367 20.1583L15.784 18.9498C16.377 18.6533 16.7516 18.0472 16.7516 17.3842V13.3608L17.5662 12.7091C20.2129 10.5918 21.7536 7.38608 21.7536 3.99663C21.7536 3.0299 20.9699 2.24622 20.0032 2.24622C16.6137 2.24622 13.408 3.78694 11.2907 6.43366ZM12.462 7.3707C14.2947 5.07981 17.0694 3.74622 20.0032 3.74622C20.1415 3.74622 20.2536 3.85833 20.2536 3.99663C20.2536 6.93041 18.92 9.70512 16.6291 11.5378L11.2301 15.857C11.1305 15.9367 10.9868 15.9288 10.8966 15.8386L8.16125 13.1032C8.07102 13.013 8.06307 12.8693 8.14278 12.7697L12.462 7.3707ZM5.32797 11.6532L6.77614 12.1359C6.82971 12.0302 6.89479 11.9285 6.97147 11.8327L9.43897 8.74829H6.61559C6.52082 8.74829 6.43411 8.80185 6.39168 8.88672L5.18318 11.3037C5.15072 11.3686 5.14802 11.4444 5.1758 11.5115C5.20358 11.5785 5.2591 11.6303 5.32797 11.6532ZM15.2516 14.5608L12.1672 17.0283C12.0713 17.105 11.9696 17.1701 11.8639 17.2237L12.3466 18.6719C12.3696 18.7407 12.4213 18.7963 12.4884 18.824C12.5554 18.8518 12.6313 18.8491 12.6962 18.8167L15.1131 17.6082C15.198 17.5657 15.2516 17.479 15.2516 17.3842V14.5608Z" fill="#202120"/>
<path fill-rule="evenodd" clip-rule="evenodd" d="M8.21628 18.9747C8.03324 20.1929 7.07695 21.1491 5.85877 21.3321L3.10752 21.7454C2.87219 21.7808 2.63404 21.7023 2.46577 21.5341C2.2975 21.3658 2.21907 21.1277 2.25442 20.8923L2.66775 18.1411C2.85075 16.9229 3.80703 15.9666 5.02519 15.7836C5.90548 15.6513 6.7963 15.9447 7.42575 16.5741C8.0552 17.2036 8.34855 18.0944 8.21628 18.9747ZM5.24808 17.267C5.65769 17.2054 6.0722 17.3419 6.36509 17.6348C6.65798 17.9277 6.79448 18.3422 6.73293 18.7518C6.64776 19.3187 6.20276 19.7636 5.63592 19.8487L3.8886 20.1112L4.1511 18.3639C4.23626 17.7971 4.68125 17.3521 5.24808 17.267Z" fill="#202120"/>
</svg>
