<svg width="24" height="24" viewBox="0 0 24 24" fill="none" xmlns="http://www.w3.org/2000/svg">
<path fill-rule="evenodd" clip-rule="evenodd" d="M12 1.25C12.4142 1.25 12.75 1.58579 12.75 2V4C12.75 4.41421 12.4142 4.75 12 4.75C11.5858 4.75 11.25 4.41421 11.25 4V2C11.25 1.58579 11.5858 1.25 12 1.25ZM12.75 20C12.75 19.5858 12.4142 19.25 12 19.25C11.5858 19.25 11.25 19.5858 11.25 20V22C11.25 22.4142 11.5858 22.75 12 22.75C12.4142 22.75 12.75 22.4142 12.75 22V20ZM8.99479 8.99479C7.33507 10.6545 7.33507 13.3455 8.99479 15.0052C10.6545 16.6649 13.3455 16.6649 15.0052 15.0052C16.6649 13.3455 16.6649 10.6545 15.0052 8.99479C13.3455 7.33507 10.6545 7.33507 8.99479 8.99479ZM16.0659 7.93413C13.8204 5.68862 10.1796 5.68862 7.93413 7.93413C5.68862 10.1796 5.68862 13.8204 7.93413 16.0659C10.1796 18.3114 13.8204 18.3114 16.0659 16.0659C18.3114 13.8204 18.3114 10.1796 16.0659 7.93413ZM19.6003 4.3997C19.8932 4.6926 19.8932 5.16747 19.6003 5.46036L18.8903 6.17036C18.5974 6.46326 18.1225 6.46326 17.8296 6.17036C17.5367 5.87747 17.5367 5.4026 17.8296 5.1097L18.5396 4.3997C18.8325 4.10681 19.3074 4.10681 19.6003 4.3997ZM6.17036 18.8903C6.46326 18.5974 6.46326 18.1225 6.17036 17.8296C5.87747 17.5367 5.4026 17.5367 5.1097 17.8296L4.3997 18.5396C4.10681 18.8325 4.10681 19.3074 4.3997 19.6003C4.6926 19.8932 5.16747 19.8932 5.46036 19.6003L6.17036 18.8903ZM19.25 12C19.25 11.5858 19.5858 11.25 20 11.25H22C22.4142 11.25 22.75 11.5858 22.75 12C22.75 12.4142 22.4142 12.75 22 12.75H20C19.5858 12.75 19.25 12.4142 19.25 12ZM2 11.25C1.58579 11.25 1.25 11.5858 1.25 12C1.25 12.4142 1.58579 12.75 2 12.75H4C4.41421 12.75 4.75 12.4142 4.75 12C4.75 11.5858 4.41421 11.25 4 11.25H2ZM17.8296 17.8296C18.1225 17.5367 18.5974 17.5367 18.8903 17.8296L19.6003 18.5396C19.8932 18.8325 19.8932 19.3074 19.6003 19.6003C19.3074 19.8932 18.8325 19.8932 18.5396 19.6003L17.8296 18.8903C17.5367 18.5974 17.5367 18.1225 17.8296 17.8296ZM5.46036 4.3997C5.16747 4.10681 4.6926 4.10681 4.3997 4.3997C4.10681 4.6926 4.10681 5.16747 4.3997 5.46036L5.1097 6.17036C5.4026 6.46326 5.87747 6.46326 6.17036 6.17036C6.46326 5.87747 6.46326 5.4026 6.17036 5.1097L5.46036 4.3997Z" fill="#202120"/>
</svg>
