<svg width="24" height="24" viewBox="0 0 24 24" fill="none" xmlns="http://www.w3.org/2000/svg">
<path d="M12 1.42896C8.43625 1.42896 5.2445 3.00048 3.06402 5.47738C2.79032 5.78829 2.82048 6.2622 3.13139 6.5359C3.44229 6.8096 3.91621 6.77944 4.18991 6.46853C6.09942 4.29943 8.88767 2.92896 12 2.92896C15.1123 2.92896 17.9005 4.29943 19.81 6.46853C20.0837 6.77944 20.5576 6.8096 20.8685 6.5359C21.1794 6.2622 21.2096 5.78829 20.9359 5.47738C18.7554 3.00048 15.5637 1.42896 12 1.42896Z" fill="#202120"/>
<path d="M2.25586 14.179C2.25586 8.79401 6.61937 4.42896 12.0019 4.42896C17.3843 4.42896 21.7479 8.79401 21.7479 14.179C21.7479 16.25 20.0692 17.929 17.9989 17.929C15.9285 17.929 14.2499 16.25 14.2499 14.179C14.2499 12.936 13.2425 11.929 12.0009 11.929C10.7592 11.929 9.75186 12.936 9.75186 14.179C9.75186 17.1342 11.306 19.7267 13.6437 21.1846C13.9952 21.4037 14.1024 21.8664 13.8833 22.2178C13.6641 22.5693 13.2015 22.6765 12.85 22.4573C10.0917 20.7372 8.25186 17.6737 8.25186 14.179C8.25186 12.1079 9.93048 10.429 12.0009 10.429C14.0712 10.429 15.7499 12.1079 15.7499 14.179C15.7499 15.4219 16.7572 16.429 17.9989 16.429C19.2405 16.429 20.2479 15.4219 20.2479 14.179C20.2479 9.6219 16.5554 5.92896 12.0019 5.92896C7.44834 5.92896 3.75586 9.6219 3.75586 14.179C3.75586 15.2308 3.87355 16.2559 4.09046 17.2453C4.17916 17.65 3.92307 18.0499 3.51847 18.1386C3.11386 18.2273 2.71396 17.9712 2.62526 17.5666C2.38617 16.476 2.25586 15.3431 2.25586 14.179Z" fill="#202120"/>
<path d="M6.75195 14.179C6.75195 11.2788 9.10149 8.92896 11.999 8.92896C14.8964 8.92896 17.246 11.2788 17.246 14.179C17.246 14.5932 17.5817 14.929 17.996 14.929C18.4102 14.929 18.746 14.5932 18.746 14.179C18.746 10.4511 15.7255 7.42896 11.999 7.42896C8.27241 7.42896 5.25195 10.4511 5.25195 14.179C5.25195 16.8974 6.10556 19.4168 7.55574 21.4863C7.79344 21.8256 8.26112 21.9079 8.60035 21.6702C8.93957 21.4325 9.02187 20.9648 8.78417 20.6256C7.50435 18.7991 6.75195 16.5785 6.75195 14.179Z" fill="#202120"/>
<path d="M12.751 14.179C12.751 13.7647 12.4152 13.429 12.001 13.429C11.5868 13.429 11.251 13.7647 11.251 14.179C11.251 17.9068 14.2714 20.929 17.998 20.929C18.1033 20.929 18.2219 20.921 18.3025 20.9156L18.3352 20.9135L18.3626 20.9118C18.7762 20.8888 19.0928 20.5349 19.0698 20.1214C19.0468 19.7078 18.693 19.3911 18.2794 19.4141C18.2274 19.417 18.1871 19.4197 18.1531 19.422L18.1521 19.4221C18.0914 19.4262 18.0501 19.429 17.998 19.429C15.1005 19.429 12.751 17.0791 12.751 14.179Z" fill="#202120"/>
</svg>
