<svg width="24" height="24" viewBox="0 0 24 24" fill="none" xmlns="http://www.w3.org/2000/svg">
<path fill-rule="evenodd" clip-rule="evenodd" d="M15.2667 5.00009L15.2552 5L15.2437 5.00009H10.2532C9.83896 5.00009 9.50317 5.33587 9.50317 5.75009C9.50317 6.1643 9.83896 6.50009 10.2532 6.50009H14.5052V17.755C14.5052 18.1692 14.841 18.505 15.2552 18.505C15.6694 18.505 16.0052 18.1692 16.0052 17.755V6.50009H20.2573C20.6716 6.50009 21.0073 6.1643 21.0073 5.75009C21.0073 5.33587 20.6716 5.00009 20.2573 5.00009H15.2667ZM6.93038 10.5017H9.75292C10.1671 10.5017 10.5029 10.1659 10.5029 9.75167C10.5029 9.33746 10.1671 9.00167 9.75292 9.00167H2.75C2.33579 9.00167 2 9.33746 2 9.75167C2 10.1659 2.33579 10.5017 2.75 10.5017H5.43038V17.755C5.43038 18.1693 5.76617 18.505 6.18038 18.505C6.5946 18.505 6.93038 18.1693 6.93038 17.755V10.5017Z" fill="black"/>
</svg>
