<svg width="24" height="24" viewBox="0 0 24 24" fill="none" xmlns="http://www.w3.org/2000/svg">
<path d="M16.4696 8.53128C16.7625 8.8242 17.2374 8.82425 17.5303 8.53138C17.8232 8.23852 17.8232 7.76365 17.5304 7.47072L12.5304 2.46972C12.3897 2.32905 12.199 2.25001 12 2.25C11.8011 2.24999 11.6103 2.32901 11.4697 2.46967L6.46867 7.47067C6.17578 7.76356 6.17578 8.23844 6.46867 8.53133C6.76156 8.82422 7.23644 8.82422 7.52933 8.53133L11.249 4.81164L11.249 17.001C11.249 17.4152 11.5848 17.751 11.999 17.751C12.4132 17.751 12.749 17.4152 12.749 17.001L12.749 4.80994L16.4696 8.53128Z" fill="#202120"/>
<path d="M3.25 21C3.25 20.5858 3.58579 20.25 4 20.25H20C20.4142 20.25 20.75 20.5858 20.75 21C20.75 21.4142 20.4142 21.75 20 21.75H4C3.58579 21.75 3.25 21.4142 3.25 21Z" fill="#202120"/>
</svg>
