<svg width="24" height="24" viewBox="0 0 24 24" fill="none" xmlns="http://www.w3.org/2000/svg">
<path fill-rule="evenodd" clip-rule="evenodd" d="M9.39999 16.3412C7.39829 16.3412 5.74119 17.9203 5.74119 20C5.74119 20.4094 5.40934 20.7412 4.99999 20.7412C4.59064 20.7412 4.25879 20.4094 4.25879 20C4.25879 17.0797 6.60168 14.8588 9.39999 14.8588H14.5C17.4203 14.8588 19.6412 17.2017 19.6412 20C19.6412 20.4094 19.3093 20.7412 18.9 20.7412C18.4906 20.7412 18.1588 20.4094 18.1588 20C18.1588 17.9983 16.5797 16.3412 14.5 16.3412H9.39999Z" fill="#202120"/>
<path fill-rule="evenodd" clip-rule="evenodd" d="M14.4778 5.73837C13.0665 4.41796 10.9226 4.42055 9.51413 5.74615C8.15789 7.02262 8.18881 9.24369 9.54626 10.686C10.8227 12.0422 13.0438 12.0113 14.4861 10.6538C15.8596 9.36108 15.886 7.155 14.4778 5.73837ZM15.5112 4.6511C13.5224 2.78205 10.4739 2.78297 8.48609 4.65385C6.44233 6.57738 6.61141 9.75631 8.45396 11.714C10.3775 13.7578 13.5564 13.5887 15.5141 11.7462C17.537 9.84224 17.5142 6.6563 15.5332 4.67241C15.5296 4.66881 15.526 4.66524 15.5223 4.6617C15.5187 4.65812 15.5149 4.65459 15.5112 4.6511Z" fill="#202120"/>
</svg>
