<svg width="24" height="24" viewBox="0 0 24 24" fill="none" xmlns="http://www.w3.org/2000/svg">
<path fill-rule="evenodd" clip-rule="evenodd" d="M7.99878 4.26709C5.65629 4.26709 3.75732 6.16605 3.75732 8.50854C3.75732 10.851 5.65629 12.75 7.99878 12.75C10.3413 12.75 12.2402 10.851 12.2402 8.50854C12.2402 6.16605 10.3413 4.26709 7.99878 4.26709ZM5.25732 8.50854C5.25732 6.99448 6.48471 5.76709 7.99878 5.76709C9.51284 5.76709 10.7402 6.99448 10.7402 8.50854C10.7402 10.0226 9.51284 11.25 7.99878 11.25C6.48471 11.25 5.25732 10.0226 5.25732 8.50854Z" fill="#202120"/>
<path fill-rule="evenodd" clip-rule="evenodd" d="M17.0025 6.24792C15.207 6.24792 13.7515 7.70346 13.7515 9.49896C13.7515 11.2945 15.207 12.75 17.0025 12.75C18.798 12.75 20.2535 11.2945 20.2535 9.49896C20.2535 7.70346 18.798 6.24792 17.0025 6.24792ZM15.2515 9.49896C15.2515 8.53189 16.0354 7.74792 17.0025 7.74792C17.9696 7.74792 18.7535 8.53189 18.7535 9.49896C18.7535 10.466 17.9696 11.25 17.0025 11.25C16.0354 11.25 15.2515 10.466 15.2515 9.49896Z" fill="#202120"/>
<path d="M5.98075 15.7513C4.19405 15.7513 2.74609 17.1992 2.74609 18.9859V20.0033C2.74609 20.4175 2.41031 20.7533 1.99609 20.7533C1.58188 20.7533 1.24609 20.4175 1.24609 20.0033V18.9859C1.24609 16.3708 3.36562 14.2513 5.98075 14.2513H10.0164C12.6316 14.2513 14.7511 16.3708 14.7511 18.9859V20.0033C14.7511 20.4175 14.4153 20.7533 14.0011 20.7533C13.5869 20.7533 13.2511 20.4175 13.2511 20.0033V18.9859C13.2511 17.1992 11.8031 15.7513 10.0164 15.7513H5.98075Z" fill="#202120"/>
<path d="M17.0024 14.2513C16.5882 14.2513 16.2524 14.587 16.2524 15.0013C16.2524 15.4155 16.5882 15.7513 17.0024 15.7513H18.1049C19.8916 15.7513 21.3396 17.1992 21.3396 18.9859V20.0033C21.3396 20.4175 21.6753 20.7533 22.0896 20.7533C22.5038 20.7533 22.8396 20.4175 22.8396 20.0033V18.9859C22.8396 16.3708 20.72 14.2513 18.1049 14.2513H17.0024Z" fill="#202120"/>
</svg>
