<svg width="24" height="24" viewBox="0 0 24 24" fill="none" xmlns="http://www.w3.org/2000/svg">
<path fill-rule="evenodd" clip-rule="evenodd" d="M3.75 6.00089C3.75 4.7581 4.75721 3.75089 6 3.75089H18C19.2428 3.75089 20.25 4.7581 20.25 6.00089V18.0009C20.25 19.2437 19.2428 20.2509 18 20.2509H6C4.75721 20.2509 3.75 19.2437 3.75 18.0009V6.00089ZM6 2.25089C3.92879 2.25089 2.25 3.92967 2.25 6.00089V18.0009C2.25 20.0721 3.92879 21.7509 6 21.7509H18C20.0712 21.7509 21.75 20.0721 21.75 18.0009V6.00089C21.75 3.92967 20.0712 2.25089 18 2.25089H6ZM14.4412 12.0004L10.5591 14.2959V9.70489L14.4412 12.0004ZM9.05908 9.70489C9.05908 8.54416 10.322 7.82106 11.3229 8.41334L15.2049 10.7093C16.1868 11.2897 16.1864 12.7113 15.2045 13.2917L11.3229 15.5874C10.322 16.1797 9.05908 15.4566 9.05908 14.2959V9.70489Z" fill="#202120"/>
</svg>
