<svg width="24" height="24" viewBox="0 0 24 24" fill="none" xmlns="http://www.w3.org/2000/svg">
<path fill-rule="evenodd" clip-rule="evenodd" d="M7.75 2C4.57436 2 2 4.57436 2 7.75V15.7575C2 18.9331 4.57436 21.5075 7.75 21.5075H15.7575C18.9331 21.5075 21.5075 18.9331 21.5075 15.7575V7.75C21.5075 4.57436 18.9331 2 15.7575 2H7.75ZM3.5 7.75C3.5 5.40279 5.40279 3.5 7.75 3.5H15.7575C18.1047 3.5 20.0075 5.40279 20.0075 7.75V15.7575C20.0075 18.1047 18.1047 20.0075 15.7575 20.0075H7.75C5.40279 20.0075 3.5 18.1047 3.5 15.7575V7.75ZM14.1711 8.75256C14.1711 8.33835 13.8354 8.00256 13.4211 8.00256C13.0069 8.00256 12.6711 8.33835 12.6711 8.75256V14.7551C12.6711 15.1693 13.0069 15.5051 13.4211 15.5051C13.8354 15.5051 14.1711 15.1693 14.1711 14.7551V8.75256ZM6.75171 9.7533C7.16592 9.7533 7.50171 10.0891 7.50171 10.5033V13.0043C7.50171 13.4186 7.16592 13.7543 6.75171 13.7543C6.3375 13.7543 6.00171 13.4186 6.00171 13.0043V10.5033C6.00171 10.0891 6.3375 9.7533 6.75171 9.7533ZM10.0864 10.2534C10.5006 10.2534 10.8364 10.5892 10.8364 11.0034V12.504C10.8364 12.9183 10.5006 13.254 10.0864 13.254C9.67221 13.254 9.33643 12.9183 9.33643 12.504V11.0034C9.33643 10.5892 9.67221 10.2534 10.0864 10.2534ZM16.7559 9.50317C17.1701 9.50317 17.5059 9.83896 17.5059 10.2532V13.2544C17.5059 13.6686 17.1701 14.0044 16.7559 14.0044C16.3416 14.0044 16.0059 13.6686 16.0059 13.2544V10.2532C16.0059 9.83896 16.3416 9.50317 16.7559 9.50317Z" fill="#202120"/>
</svg>
