<svg width="24" height="24" viewBox="0 0 24 24" fill="none" xmlns="http://www.w3.org/2000/svg">
<path d="M11.9998 8.63001C12.414 8.63001 12.7498 8.9658 12.7498 9.38001V13.12C12.7498 13.5342 12.414 13.87 11.9998 13.87C11.5855 13.87 11.2498 13.5342 11.2498 13.12V9.38001C11.2498 8.9658 11.5855 8.63001 11.9998 8.63001Z" fill="#202120"/>
<path d="M13 16.4C13 15.8477 12.5523 15.4 12 15.4C11.4477 15.4 11 15.8477 11 16.4C11 16.9523 11.4477 17.4 12 17.4C12.5523 17.4 13 16.9523 13 16.4Z" fill="#202120"/>
<path fill-rule="evenodd" clip-rule="evenodd" d="M1.5999 20.3C2.1999 21.2 3.1999 21.8 4.2999 21.8H19.6999C20.7999 21.8 21.8999 21.3 22.3999 20.3C22.8999 19.3 22.9999 18.2 22.3999 17.2L14.6999 3.80001C14.0999 2.80001 13.0999 2.20001 11.9999 2.20001C10.8999 2.20001 9.8999 2.80001 9.2999 3.80001L1.5999 17.2C0.999902 18.2 0.999902 19.4 1.5999 20.3ZM10.5999 4.50001C10.8999 4.00001 11.3999 3.70001 11.9999 3.70001C12.5999 3.70001 13.0999 4.00001 13.3999 4.50001L21.0999 17.9C21.3999 18.4 21.3999 19 21.0999 19.5C20.7999 20 20.2999 20.3 19.6999 20.3H4.3999C3.7999 20.3 3.2999 20 2.9999 19.5C2.6999 19 2.6999 18.4 2.9999 17.9L10.5999 4.50001Z" fill="#202120"/>
</svg>
